<svg width="655" height="647" viewBox="0 0 655 647" fill="none" xmlns="http://www.w3.org/2000/svg">
<g clip-path="url(#clip0_95_3782)">
<path d="M654.975 461.287L654.735 425.05L610.837 416.148L380.184 282.509C345.759 262.562 285.564 264.958 245.74 287.843L32.9865 410.134C31.2457 411.13 29.5933 412.164 27.9786 413.21L0 421.746V454.68H0.0252287C0.29013 467.049 7.90919 478.826 23.1978 487.69L274.804 633.471C309.228 653.418 369.424 651.022 409.247 628.137L622.001 505.859C644.139 493.137 655.303 476.758 654.962 461.287H654.975Z" fill="#CDCDCD"/>
<path d="M274.803 600.537L23.2103 454.756C-11.2143 434.809 -6.83711 400.085 32.999 377.187L245.753 254.909C285.576 232.012 345.772 229.629 380.196 249.575L631.802 395.357C666.227 415.303 661.849 450.028 622.013 472.925L409.26 595.204C369.436 618.101 309.241 620.484 274.816 600.537H274.803Z" fill="#F7F7F7"/>
</g>
<defs>
<clipPath id="clip0_95_3782">
<rect width="655" height="647" fill="white"/>
</clipPath>
</defs>
</svg>
