<svg width="212" height="136" viewBox="0 0 212 136" fill="none" xmlns="http://www.w3.org/2000/svg">
<g clip-path="url(#clip0_121_2)">
<path d="M144.26 28.9212L112.585 10.7857C108.999 8.73224 103.182 8.73224 99.5959 10.7857L66.3727 29.8051L56.9091 25.9706V35.2212L72.3042 44.0331V50.1802C72.2372 51.3166 72.9543 52.4596 74.469 53.3235C77.3711 54.9849 82.0694 54.9849 84.9715 53.3235C85.6015 52.9646 86.0841 52.5526 86.4393 52.1207L106.097 63.3715L126.157 51.8881V43.6742C128.624 43.3087 131.351 43.6742 133.288 44.7774C134.253 45.329 134.89 46.0002 135.212 46.7046L155.272 35.2212V25.9706L144.26 28.9146V28.9212Z" fill="url(#paint0_linear_121_2)"/>
<path d="M124.287 43.3552L123.965 43.7938H124.146L106.097 54.1342L86.4393 42.8833C86.0841 43.3153 85.6016 43.7273 84.9715 44.0862C82.0694 45.7475 77.3711 45.7475 74.4691 44.0862C73.2962 43.415 72.6058 42.571 72.3846 41.7004C72.0562 42.983 72.7466 44.3387 74.4691 45.3222C77.3711 46.9836 82.0694 46.9836 84.9715 45.3222C85.6016 44.9634 86.0841 44.5514 86.4393 44.1194L106.097 55.3702L126.157 43.8868V42.6507L124.287 43.3552Z" fill="white"/>
<path d="M126.157 42.6442C124.924 42.4581 123.751 42.0926 122.786 41.541C119.884 39.8796 119.884 37.1882 122.786 35.5335C125.688 33.8721 130.386 33.8721 133.288 35.5335C134.253 36.0851 134.89 36.7563 135.212 37.4607L155.272 25.9773L112.585 1.5418C108.999 -0.511655 103.182 -0.511655 99.5959 1.5418L56.9091 25.9773L76.5669 37.2281C75.8095 37.4341 75.0924 37.7066 74.4623 38.0654C71.5603 39.7268 71.5603 42.4182 74.4623 44.073C77.3644 45.7343 82.0627 45.7343 84.9648 44.073C85.5948 43.7141 86.0774 43.3021 86.4326 42.8701L106.09 54.1209L126.15 42.6375L126.157 42.6442Z" fill="url(#paint1_linear_121_2)"/>
<path d="M76.5736 37.2281L56.9158 25.9773V27.2134L75.2398 37.6999C75.6621 37.5139 76.1044 37.3544 76.5736 37.2281Z" fill="white"/>
<path d="M135.212 37.4607C134.89 36.7563 134.253 36.0851 133.288 35.5335C130.386 33.8721 125.688 33.8721 122.786 35.5335C121.057 36.5237 120.373 37.8727 120.701 39.1553C120.923 38.2847 121.613 37.4408 122.786 36.7696C125.688 35.1082 130.386 35.1082 133.288 36.7696C134.253 37.3212 134.89 37.9923 135.212 38.6968L155.272 27.2134V25.9773L135.212 37.4607Z" fill="white"/>
<path d="M204.835 66.2556L166.619 44.3787L146.559 55.8621C146.237 55.1576 145.601 54.4865 144.635 53.9349C143.623 53.3567 142.383 52.9846 141.083 52.8051C140.44 51.9678 138.275 49.4093 138.06 49.3495C137.806 49.2764 131.961 47.6017 131.961 47.6017V56.8855C131.941 57.9886 132.658 59.0984 134.133 59.9424C135.098 60.494 136.271 60.8595 137.504 61.0456L127.411 66.8271L117.444 63.2851V72.5356L138.094 84.3579C138.201 83.3611 138.918 82.3842 140.245 81.62C141.814 80.7229 143.912 80.3108 145.969 80.3906V88.8636L166.626 100.686L209.312 76.2504C211.149 75.2005 212.034 73.8182 211.993 72.4426V63.3781L204.835 66.2556Z" fill="#396CAA"/>
<path d="M138.094 67.917V84.3513C138.208 83.3545 138.918 82.3776 140.245 81.62C143.148 79.9586 147.846 79.9586 150.748 81.62C151.371 81.9789 151.854 82.3842 152.209 82.8162C153.757 82.3377 155.379 82.0652 157.028 81.9789V67.917H138.094Z" fill="#173D7A"/>
<path d="M166.619 44.3787L166.471 44.4651V100.6L166.619 100.686L209.306 76.2504C211.142 75.2005 212.027 73.8182 211.987 72.4426V63.3781L204.829 66.2556L166.612 44.3787H166.619Z" fill="#173D7A"/>
<path d="M145.969 82.2912V79.613L148.308 80.9488L145.969 82.2912Z" fill="#396CAA"/>
<path d="M211.926 63.9031C211.692 65.0329 210.827 66.1294 209.306 66.9999L166.619 91.4354L148.617 81.1282C148.596 80.8491 148.516 80.2843 148.516 80.2843L145.969 79.6131V80.8491L166.626 92.6715L209.312 68.236C211.383 67.0531 212.248 65.4449 211.933 63.8965L211.926 63.9031Z" fill="white"/>
<path d="M209.306 59.5636L166.619 35.1282L146.559 46.6116C146.237 45.9072 145.601 45.236 144.636 44.6844C141.733 43.023 137.035 43.023 134.133 44.6844C131.231 46.3458 131.231 49.0372 134.133 50.6919C135.098 51.2435 136.271 51.609 137.504 51.7951L117.444 63.2785L138.101 75.1008C138.208 74.104 138.925 73.1271 140.252 72.3629C143.154 70.7015 147.853 70.7015 150.755 72.3629C153.657 74.0242 153.657 76.7157 150.755 78.3704C149.428 79.1346 147.719 79.54 145.976 79.5998L166.632 91.4221L209.319 66.9867C212.905 64.9332 212.905 61.6038 209.319 59.5504L209.306 59.5636Z" fill="url(#paint2_linear_121_2)"/>
<path d="M134.133 51.9346C134.682 52.2469 135.299 52.4928 135.949 52.6855L137.504 51.795C136.271 51.609 135.098 51.2435 134.133 50.6919C132.96 50.0207 132.27 49.1767 132.048 48.3062C131.72 49.5887 132.41 50.9444 134.133 51.9279V51.9346Z" fill="white"/>
<path d="M152.832 75.9979C153.161 74.7154 152.47 73.3597 150.748 72.3761C147.846 70.7148 143.147 70.7148 140.245 72.3761C138.918 73.1404 138.201 74.1173 138.094 75.1141L117.438 63.2917V64.5345L138.094 76.3568C138.201 75.36 138.918 74.3831 140.245 73.6188C143.147 71.9575 147.846 71.9575 150.748 73.6188C151.921 74.29 152.611 75.134 152.832 76.0046V75.9979Z" fill="white"/>
<path d="M94.5558 72.5288V63.2783L84.7571 66.9134L74.898 61.2714C74.5428 61.7033 74.0603 62.1153 73.4302 62.4742C70.5281 64.1356 65.8298 64.1356 62.9278 62.4742C60.0927 60.8527 60.0391 58.2477 62.7401 56.5796L65.0323 57.8489V46.3722H57.9413L57.2375 51.1569L45.3745 44.3652L7.6138 65.9897L0 63.285V72.5355C0 73.8779 0.898106 75.2269 2.68762 76.2503L45.3745 100.686L65.4076 89.2157C65.736 89.9068 66.366 90.5581 67.3178 91.103C70.2198 92.7644 74.9181 92.7644 77.8202 91.103C79.3283 90.2391 80.0387 89.1027 79.9851 87.973V80.8756L94.5625 72.5355L94.5558 72.5288Z" fill="#173D7A"/>
<path d="M45.3745 44.3787L7.6138 65.9898L0 63.2851V72.5356C0 73.878 0.898106 75.227 2.68762 76.2504L45.3745 100.686V44.3787Z" fill="#396CAA"/>
<path d="M63.3433 46.4255L63.102 47.0502L63.1623 47.1033C63.0886 47.1432 63.0082 47.1764 62.9345 47.2163C61.2053 48.2065 60.5216 49.5555 60.85 50.8381C61.0712 49.9675 61.7616 49.1236 62.9345 48.4524C63.5645 48.0935 64.2749 47.8144 65.039 47.615V46.3723L63.35 46.4122L63.3433 46.4255Z" fill="white"/>
<path d="M77.8202 75.845C76.8752 75.3001 75.7291 74.9412 74.5227 74.7551L94.5558 63.285L74.898 52.0342C74.5428 52.4662 74.0602 52.8782 73.4302 53.237C70.5281 54.8984 65.8298 54.8984 62.9277 53.237C60.0256 51.5757 60.0256 48.8842 62.9277 47.2295C63.5577 46.8707 64.2682 46.5915 65.0322 46.3922L45.3744 35.1414L2.68758 59.5635C-0.89814 61.617 -0.89814 64.9464 2.68758 66.9998L45.3744 91.4353L65.4076 79.9652C65.736 80.6563 66.366 81.3076 67.3177 81.8525C70.2198 83.5139 74.9181 83.5139 77.8202 81.8525C80.7223 80.1911 80.7223 77.4997 77.8202 75.845Z" fill="url(#paint3_linear_121_2)"/>
<path d="M77.8202 81.8525C74.9181 83.5139 70.2198 83.5139 67.3177 81.8525C66.3727 81.3076 65.736 80.6564 65.4076 79.9652L45.3744 91.4353L2.6876 66.9999C1.17288 66.1293 0.301582 65.0328 0.0670016 63.9031C-0.254708 65.4448 0.616589 67.053 2.6876 68.2426L45.3744 92.6781L65.4076 81.2079C65.736 81.8991 66.366 82.5503 67.3177 83.0953C70.2198 84.7566 74.9181 84.7566 77.8202 83.0953C79.5494 82.1051 80.233 80.756 79.9046 79.4735C79.6835 80.344 78.9931 81.188 77.8202 81.8592V81.8525Z" fill="white"/>
<path d="M74.5227 74.7484C75.0522 74.8282 75.5683 74.9544 76.0642 75.1073L94.5558 64.521V63.2783L74.5227 74.7484Z" fill="white"/>
<path d="M145.681 104.534L134.622 98.2005C136.365 98.1407 138.074 97.7286 139.401 96.9711C140.614 96.2733 141.311 95.4027 141.512 94.4989L141.572 94.5388V93.9872C141.572 93.9872 141.572 93.9607 141.572 93.9474V84.6769L132.216 88.2854L134.367 89.7275C132.397 89.6943 130.406 90.1063 128.898 90.9635C127.571 91.7278 126.854 92.7047 126.747 93.7015L106.091 81.8792L93.9527 88.8237L92.6927 84.6503L86.0574 84.0987V94.3793L88.0882 93.8676C88.5372 94.0271 88.9662 94.2132 89.3549 94.4391C92.257 96.1005 92.257 98.7919 89.3549 100.447C86.4528 102.108 81.7545 102.108 78.8525 100.447C77.9074 99.9017 77.2707 99.2505 76.9423 98.5593L65.85 104.906L56.9025 100.779V110.029L99.5893 134.465C103.175 136.518 108.993 136.518 112.578 134.465L155.265 110.029V100.779L145.674 104.534H145.681Z" fill="url(#paint4_linear_121_2)"/>
<path d="M89.3549 85.1885C88.8992 84.9294 88.3898 84.7234 87.8603 84.5439L87.6793 84.1917L86.0574 84.092V85.3281C87.2638 85.5142 88.4032 85.8797 89.3549 86.418C90.5278 87.0892 91.2181 87.9331 91.4393 88.8037C91.7677 87.5211 91.0774 86.1654 89.3549 85.1753V85.1885Z" fill="white"/>
<path d="M134.622 88.9566C136.365 88.8968 138.074 88.4847 139.401 87.7272C142.303 86.0658 142.303 83.3744 139.401 81.7196C136.499 80.0583 131.801 80.0583 128.899 81.7196C127.571 82.4839 126.854 83.4608 126.747 84.4576L106.091 72.6353L86.0575 84.1054C87.2639 84.2914 88.4033 84.6569 89.3551 85.1952C92.2572 86.8566 92.2572 89.548 89.3551 91.2028C86.453 92.8641 81.7547 92.8641 78.8526 91.2028C77.9076 90.6578 77.2708 90.0066 76.9424 89.3154L56.9093 100.786L99.5962 125.221C103.182 127.274 108.999 127.274 112.585 125.221L155.272 100.786L134.616 88.9632L134.622 88.9566Z" fill="url(#paint5_linear_121_2)"/>
<path d="M141.485 85.3413C141.264 86.2119 140.574 87.0558 139.401 87.727C138.074 88.4913 136.365 88.8966 134.622 88.9565L136.439 89.9998C137.518 89.8004 138.536 89.4615 139.401 88.9698C141.13 87.9796 141.814 86.6305 141.485 85.348V85.3413Z" fill="white"/>
<path d="M112.592 125.214C109.006 127.268 103.188 127.268 99.6028 125.214L56.9159 100.779V102.022L99.6028 126.457C103.188 128.51 109.006 128.51 112.592 126.457L155.279 102.022V100.779L112.592 125.214Z" fill="white"/>
</g>
<defs>
<linearGradient id="paint0_linear_121_2" x1="56.9158" y1="36.311" x2="155.272" y2="36.311" gradientUnits="userSpaceOnUse">
<stop stop-color="#1E4A84"/>
<stop offset="1" stop-color="#213176"/>
</linearGradient>
<linearGradient id="paint1_linear_121_2" x1="56.9158" y1="27.0671" x2="155.272" y2="27.0671" gradientUnits="userSpaceOnUse">
<stop stop-color="#72A9D3"/>
<stop offset="1" stop-color="#2684B9"/>
</linearGradient>
<linearGradient id="paint2_linear_121_2" x1="117.444" y1="63.2851" x2="212" y2="63.2851" gradientUnits="userSpaceOnUse">
<stop stop-color="#72A9D3"/>
<stop offset="1" stop-color="#2684B9"/>
</linearGradient>
<linearGradient id="paint3_linear_121_2" x1="-3.3413e-05" y1="63.2784" x2="94.5558" y2="63.2784" gradientUnits="userSpaceOnUse">
<stop stop-color="#699DD1"/>
<stop offset="0.27" stop-color="#6296CB"/>
<stop offset="0.64" stop-color="#5084BD"/>
<stop offset="1" stop-color="#396CAA"/>
</linearGradient>
<linearGradient id="paint4_linear_121_2" x1="81.1379" y1="118.303" x2="167.776" y2="74.6173" gradientUnits="userSpaceOnUse">
<stop stop-color="#1E4A84"/>
<stop offset="1" stop-color="#213176"/>
</linearGradient>
<linearGradient id="paint5_linear_121_2" x1="56.916" y1="99.689" x2="155.279" y2="99.689" gradientUnits="userSpaceOnUse">
<stop stop-color="#72A9D3"/>
<stop offset="1" stop-color="#2684B9"/>
</linearGradient>
<clipPath id="clip0_121_2">
<rect width="212" height="136" fill="white"/>
</clipPath>
</defs>
</svg>
