<svg width="159" height="150" viewBox="0 0 159 150" fill="none" xmlns="http://www.w3.org/2000/svg">
<g clip-path="url(#clip0_86_1057)">
<path d="M79.8507 121.969C79.7936 121.969 79.7365 121.952 79.6794 121.92L44.2183 101.577C44.1123 101.512 44.0471 101.407 44.0471 101.285C44.0471 101.164 44.1123 101.051 44.2183 100.994L79.6794 80.6508C79.7854 80.5941 79.9159 80.5941 80.0219 80.6508L115.483 100.994C115.589 101.059 115.654 101.164 115.654 101.285C115.654 101.407 115.589 101.52 115.483 101.577L80.0219 121.92C79.973 121.952 79.9077 121.969 79.8507 121.969ZM45.0663 101.294L79.8425 121.24L114.619 101.285L79.8425 81.3395L45.0663 101.294Z" fill="white"/>
<path d="M79.8507 98.7335L115.507 78.2771V62.5601L79.8507 83.0165V98.7335Z" fill="url(#paint0_linear_86_1057)"/>
<path d="M79.8507 83.0165L115.507 62.5601L79.8507 42.1037L44.1858 62.5601L79.8507 83.0165Z" fill="url(#paint1_linear_86_1057)"/>
<path d="M79.8507 78.1393L106.995 62.5601L79.8507 46.9889L52.6984 62.5601L79.8507 78.1393Z" fill="white"/>
<path d="M44.1858 78.2771L79.8507 98.7335V83.0165L44.1858 62.5601V78.2771Z" fill="url(#paint2_linear_86_1057)"/>
<path d="M79.8507 73.4648L115.507 53.0084V37.2914L79.8507 57.7559V73.4648Z" fill="url(#paint3_linear_86_1057)"/>
<path d="M79.8507 57.7478L115.507 37.2914L79.8507 16.835L44.1858 37.2914L79.8507 57.7478Z" fill="url(#paint4_linear_86_1057)"/>
<path d="M79.8507 56.9619L114.823 36.9025L115.507 37.2914L79.8507 57.7478L44.1858 37.2914L44.8707 36.9025L79.8507 56.9619Z" fill="white"/>
<path d="M79.8507 82.2306L114.823 62.1631L115.507 62.5601L79.8507 83.0165L44.1858 62.5601L44.8707 62.1712L79.8507 82.2306Z" fill="#54659A"/>
<path d="M79.8507 24.6611L104.842 39.0008L79.8507 53.3324L54.8591 39.0008L79.8507 24.6611Z" fill="white"/>
<path d="M79.8507 24.6611L54.8592 39.0008L51.8831 37.2914L79.8507 21.2503L107.81 37.2914L104.842 39.0008L79.8507 24.6611Z" fill="#396EB4"/>
<path d="M44.1858 53.0084L79.8507 73.4648V57.7559L44.1858 37.2914V53.0084Z" fill="url(#paint5_linear_86_1057)"/>
<path d="M67.3998 58.4688C67.3998 59.757 68.313 61.3287 69.4382 61.9768C70.5635 62.6249 71.4767 62.0983 71.4767 60.8102C71.4767 59.522 70.5635 57.9503 69.4382 57.3022C68.313 56.6541 67.3998 57.1807 67.3998 58.4688Z" fill="white"/>
<path d="M59.9797 54.2074C59.9797 55.4955 60.893 57.0672 62.0182 57.7154C63.1434 58.3635 64.0567 57.8369 64.0567 56.5487C64.0567 55.2606 63.1434 53.6889 62.0182 53.0408C60.893 52.3927 59.9797 52.9193 59.9797 54.2074Z" fill="white"/>
<path d="M52.5516 49.9541C52.5516 51.2422 53.4649 52.8139 54.5901 53.4621C55.7153 54.1102 56.6286 53.5836 56.6286 52.2954C56.6286 51.0073 55.7153 49.4356 54.5901 48.7875C53.4649 48.1393 52.5516 48.6659 52.5516 49.9541Z" fill="white"/>
<path d="M68.4353 57.0429C68.3375 57.2617 68.2804 57.529 68.2804 57.8369C68.2804 59.125 69.1936 60.6967 70.3189 61.3449C70.6858 61.5555 71.0282 61.6284 71.3218 61.6041C71.0201 62.2846 70.2862 62.4629 69.4382 61.9768C68.313 61.3287 67.3998 59.757 67.3998 58.4688C67.3998 57.6019 67.8156 57.0916 68.4353 57.0348V57.0429Z" fill="#54659A"/>
<path d="M61.0072 52.7815C60.9094 53.0003 60.8523 53.2676 60.8523 53.5755C60.8523 54.8636 61.7655 56.4353 62.8908 57.0834C63.2577 57.2941 63.6001 57.367 63.8937 57.3427C63.592 58.0232 62.8581 58.2015 62.0101 57.7154C60.8849 57.0672 59.9717 55.4955 59.9717 54.2074C59.9717 53.3405 60.3875 52.8301 61.0072 52.7734V52.7815Z" fill="#54659A"/>
<path d="M53.5872 48.5203C53.4893 48.7391 53.4323 49.0064 53.4323 49.3143C53.4323 50.6024 54.3455 52.1741 55.4707 52.8222C55.8376 53.0329 56.1801 53.1058 56.4736 53.0815C56.1719 53.762 55.4381 53.9403 54.5901 53.4542C53.4649 52.8061 52.5516 51.2344 52.5516 49.9462C52.5516 49.0793 52.9675 48.5689 53.5872 48.5122V48.5203Z" fill="#54659A"/>
<path d="M67.3998 83.7375C67.3998 85.0257 68.313 86.5974 69.4382 87.2455C70.5635 87.8936 71.4767 87.367 71.4767 86.0789C71.4767 84.7907 70.5635 83.219 69.4382 82.5709C68.313 81.9228 67.3998 82.4494 67.3998 83.7375Z" fill="white"/>
<path d="M59.9797 79.4761C59.9797 80.7642 60.893 82.3359 62.0182 82.9841C63.1434 83.6322 64.0567 83.1056 64.0567 81.8174C64.0567 80.5293 63.1434 78.9576 62.0182 78.3095C60.893 77.6614 59.9797 78.188 59.9797 79.4761Z" fill="white"/>
<path d="M52.5516 75.2147C52.5516 76.5028 53.4649 78.0745 54.5901 78.7227C55.7153 79.3708 56.6286 78.8442 56.6286 77.556C56.6286 76.2679 55.7153 74.6962 54.5901 74.0481C53.4649 73.3999 52.5516 73.9265 52.5516 75.2147Z" fill="white"/>
<path d="M68.4353 82.3035C68.3375 82.5223 68.2804 82.7896 68.2804 83.0975C68.2804 84.3856 69.1936 85.9573 70.3189 86.6055C70.6858 86.8161 71.0282 86.889 71.3218 86.8647C71.0201 87.5452 70.2862 87.7235 69.4382 87.2374C68.313 86.5893 67.3998 85.0176 67.3998 83.7294C67.3998 82.8625 67.8156 82.3522 68.4353 82.2954V82.3035Z" fill="#54659A"/>
<path d="M61.0072 78.0502C60.9094 78.269 60.8523 78.5363 60.8523 78.8442C60.8523 80.1323 61.7655 81.704 62.8908 82.3522C63.2577 82.5628 63.6001 82.6357 63.8937 82.6114C63.592 83.2919 62.8581 83.4702 62.0101 82.9841C60.8849 82.3359 59.9717 80.7642 59.9717 79.4761C59.9717 78.6092 60.3875 78.0988 61.0072 78.0421V78.0502Z" fill="#54659A"/>
<path d="M53.5872 73.7888C53.4893 74.0076 53.4323 74.2749 53.4323 74.5828C53.4323 75.8709 54.3455 77.4426 55.4707 78.0907C55.8376 78.3014 56.1801 78.3743 56.4736 78.35C56.1719 79.0305 55.4381 79.2088 54.5901 78.7227C53.4649 78.0745 52.5516 76.5028 52.5516 75.2147C52.5516 74.3478 52.9675 73.8374 53.5872 73.7807V73.7888Z" fill="#54659A"/>
<path d="M79.8507 47.3292L115.507 26.8647V20.4564L79.8507 40.9128V47.3292Z" fill="url(#paint6_linear_86_1057)"/>
<path d="M79.8507 40.9128L115.507 20.4564L79.8507 0L44.1858 20.4564L79.8507 40.9128Z" fill="url(#paint7_linear_86_1057)"/>
<path d="M79.8507 40.1269L114.823 20.0675L115.507 20.4564L79.8507 40.9128L44.1858 20.4564L44.8707 20.0675L79.8507 40.1269Z" fill="white"/>
<path d="M44.1858 26.8647L79.8507 47.3292V40.9128L44.1858 20.4564V26.8647Z" fill="url(#paint8_linear_86_1057)"/>
<path opacity="0.5" d="M115.507 53.0084V62.5601L79.8507 83.0165V73.4648L115.507 53.0084Z" fill="white"/>
<path opacity="0.5" d="M44.1858 53.0084V62.5601L79.8507 83.0165V73.4648L44.1858 53.0084Z" fill="white"/>
<path d="M35.6649 125.436L71.3217 104.98V89.2628L35.6649 109.719V125.436Z" fill="url(#paint9_linear_86_1057)"/>
<path d="M35.6649 109.719L71.3217 89.2628L35.6649 68.8064L0 89.2628L35.6649 109.719Z" fill="url(#paint10_linear_86_1057)"/>
<path d="M35.6649 104.842L62.8172 89.2628L35.6649 73.6916L8.51257 89.2628L35.6649 104.842Z" fill="white"/>
<path d="M0 104.98L35.6649 125.436V109.719L0 89.2628V104.98Z" fill="url(#paint11_linear_86_1057)"/>
<path d="M35.6649 100.167L71.3217 79.711V64.0022L35.6649 84.4585V100.167Z" fill="url(#paint12_linear_86_1057)"/>
<path d="M35.6649 84.4585L71.3217 63.9941L35.6649 43.5377L0 64.0022L35.6649 84.4585Z" fill="url(#paint13_linear_86_1057)"/>
<path d="M35.6649 83.6727L70.6368 63.6052L71.3217 63.9941L35.6649 84.4586L0 64.0022L0.684923 63.6052L35.6649 83.6727Z" fill="white"/>
<path d="M35.6649 108.933L70.6368 88.8739L71.3217 89.2628L35.6649 109.719L0 89.2628L0.684923 88.8739L35.6649 108.933Z" fill="#54659A"/>
<path d="M35.6649 51.3638L60.6564 65.7035L35.6649 80.0432L10.6733 65.7035L35.6649 51.3638Z" fill="white"/>
<path d="M35.665 51.3638L10.6734 65.7035L7.69727 64.0022L35.665 47.953L63.6245 64.0022L60.6565 65.7035L35.665 51.3638Z" fill="#396EB4"/>
<path d="M0 79.711L35.6649 100.167V84.4585L0 64.0022V79.711Z" fill="url(#paint14_linear_86_1057)"/>
<path d="M23.214 85.1715C23.214 86.4596 24.1272 88.0313 25.2525 88.6795C26.3777 89.3276 27.2909 88.801 27.2909 87.5128C27.2909 86.2247 26.3777 84.653 25.2525 84.0049C24.1272 83.3567 23.214 83.8833 23.214 85.1715Z" fill="white"/>
<path d="M15.7939 80.9182C15.7939 82.2063 16.7072 83.778 17.8324 84.4261C18.9576 85.0743 19.8709 84.5477 19.8709 83.2595C19.8709 81.9714 18.9576 80.3997 17.8324 79.7516C16.7072 79.1034 15.7939 79.63 15.7939 80.9182Z" fill="white"/>
<path d="M8.36584 76.6568C8.36584 77.9449 9.27908 79.5166 10.4043 80.1647C11.5295 80.8129 12.4428 80.2863 12.4428 78.9981C12.4428 77.71 11.5295 76.1383 10.4043 75.4901C9.27908 74.842 8.36584 75.3686 8.36584 76.6568Z" fill="white"/>
<path d="M24.2495 83.7456C24.1517 83.9644 24.0946 84.2317 24.0946 84.5396C24.0946 85.8277 25.0078 87.3994 26.1331 88.0475C26.5 88.2582 26.8425 88.3311 27.136 88.3068C26.8343 88.9873 26.1005 89.1655 25.2525 88.6795C24.1272 88.0313 23.214 86.4596 23.214 85.1715C23.214 84.3046 23.6298 83.7942 24.2495 83.7375V83.7456Z" fill="#54659A"/>
<path d="M16.8295 79.4842C16.7316 79.7029 16.6746 79.9703 16.6746 80.2782C16.6746 81.5663 17.5878 83.138 18.713 83.7861C19.0799 83.9968 19.4224 84.0697 19.7159 84.0454C19.4143 84.7259 18.6804 84.9041 17.8324 84.418C16.7072 83.7699 15.7939 82.1982 15.7939 80.9101C15.7939 80.0432 16.2098 79.5328 16.8295 79.4761V79.4842Z" fill="#54659A"/>
<path d="M9.40138 75.223C9.30354 75.4418 9.24646 75.7091 9.24646 76.017C9.24646 77.3051 10.1597 78.8768 11.2849 79.5249C11.6518 79.7356 11.9943 79.8085 12.2878 79.7842C11.9862 80.4647 11.2523 80.6429 10.4043 80.1569C9.27908 79.5087 8.36584 77.937 8.36584 76.6489C8.36584 75.782 8.78169 75.2716 9.40138 75.2149V75.223Z" fill="#54659A"/>
<path d="M23.214 110.44C23.214 111.728 24.1272 113.3 25.2525 113.948C26.3777 114.596 27.2909 114.07 27.2909 112.782C27.2909 111.493 26.3777 109.922 25.2525 109.274C24.1272 108.625 23.214 109.152 23.214 110.44Z" fill="white"/>
<path d="M15.7939 106.179C15.7939 107.467 16.7072 109.039 17.8324 109.687C18.9576 110.335 19.8709 109.808 19.8709 108.52C19.8709 107.232 18.9576 105.66 17.8324 105.012C16.7072 104.364 15.7939 104.891 15.7939 106.179Z" fill="white"/>
<path d="M8.36584 101.925C8.36584 103.214 9.27908 104.785 10.4043 105.433C11.5295 106.082 12.4428 105.555 12.4428 104.267C12.4428 102.979 11.5295 101.407 10.4043 100.759C9.27908 100.111 8.36584 100.637 8.36584 101.925Z" fill="white"/>
<path d="M24.2495 109.006C24.1517 109.225 24.0946 109.492 24.0946 109.8C24.0946 111.088 25.0078 112.66 26.1331 113.308C26.5 113.519 26.8425 113.592 27.136 113.567C26.8343 114.248 26.1005 114.426 25.2525 113.94C24.1272 113.292 23.214 111.72 23.214 110.432C23.214 109.565 23.6298 109.055 24.2495 108.998V109.006Z" fill="#54659A"/>
<path d="M16.8295 104.753C16.7316 104.972 16.6746 105.239 16.6746 105.547C16.6746 106.835 17.5878 108.407 18.713 109.055C19.0799 109.265 19.4224 109.338 19.7159 109.314C19.4143 109.995 18.6804 110.173 17.8324 109.687C16.7072 109.039 15.7939 107.467 15.7939 106.179C15.7939 105.312 16.2098 104.802 16.8295 104.745V104.753Z" fill="#54659A"/>
<path d="M9.40138 100.492C9.30354 100.71 9.24646 100.978 9.24646 101.286C9.24646 102.574 10.1597 104.146 11.2849 104.794C11.6518 105.004 11.9943 105.077 12.2878 105.053C11.9862 105.733 11.2523 105.912 10.4043 105.426C9.27908 104.777 8.36584 103.206 8.36584 101.918C8.36584 101.051 8.78169 100.54 9.40138 100.484V100.492Z" fill="#54659A"/>
<path d="M35.6649 74.0319L71.3217 53.5755V47.1591L35.6649 67.6236V74.0319Z" fill="url(#paint15_linear_86_1057)"/>
<path d="M35.6649 67.6236L71.3217 47.1591L35.6649 26.7027L0 47.1591L35.6649 67.6236Z" fill="url(#paint16_linear_86_1057)"/>
<path d="M35.6649 66.8296L70.6368 46.7702L71.3217 47.1591L35.6649 67.6236L0 47.1591L0.684923 46.7702L35.6649 66.8296Z" fill="white"/>
<path d="M0 53.5755L35.6649 74.0319V67.6236L0 47.1591V53.5755Z" fill="url(#paint17_linear_86_1057)"/>
<path opacity="0.5" d="M71.3217 79.711V89.2628L35.6649 109.719V100.167L71.3217 79.711Z" fill="white"/>
<path opacity="0.5" d="M0 79.711V89.2628L35.6649 109.719V100.167L0 79.711Z" fill="white"/>
<path d="M123.335 123.297L159 102.841V87.124L123.335 107.58V123.297Z" fill="url(#paint18_linear_86_1057)"/>
<path d="M123.335 107.58L159 87.124L123.335 66.6676L87.6783 87.124L123.335 107.58Z" fill="url(#paint19_linear_86_1057)"/>
<path d="M123.335 102.703L150.487 87.124L123.335 71.5528L96.1827 87.124L123.335 102.703Z" fill="white"/>
<path d="M87.6702 102.841L123.335 123.297V107.58L87.6702 87.124V102.841Z" fill="url(#paint20_linear_86_1057)"/>
<path d="M123.335 98.0286L159 77.5722V61.8553L123.335 82.3197V98.0286Z" fill="url(#paint21_linear_86_1057)"/>
<path d="M123.335 82.3197L159 61.8553L123.335 41.3989L87.6783 61.8553L123.335 82.3197Z" fill="url(#paint22_linear_86_1057)"/>
<path d="M123.335 81.5258L158.315 61.4664L159 61.8553L123.335 82.3197L87.6783 61.8553L88.3633 61.4664L123.335 81.5258Z" fill="white"/>
<path d="M123.335 106.795L158.315 86.7351L159 87.124L123.335 107.58L87.6783 87.124L88.3633 86.7351L123.335 106.795Z" fill="#54659A"/>
<path d="M123.335 49.225L148.327 63.5647L123.335 77.8963L98.3435 63.5647L123.335 49.225Z" fill="white"/>
<path d="M123.335 49.225L98.3436 63.5647L95.3756 61.8553L123.335 45.8142L151.303 61.8553L148.327 63.5647L123.335 49.225Z" fill="#396EB4"/>
<path d="M87.6702 77.5722L123.335 98.0286V82.3197L87.6702 61.8553V77.5722Z" fill="url(#paint23_linear_86_1057)"/>
<path d="M110.892 83.0327C110.892 84.3208 111.806 85.8925 112.931 86.5406C114.056 87.1888 114.969 86.6622 114.969 85.374C114.969 84.0859 114.056 82.5142 112.931 81.8661C111.806 81.2179 110.892 81.7445 110.892 83.0327Z" fill="white"/>
<path d="M103.464 78.7713C103.464 80.0594 104.377 81.6311 105.503 82.2792C106.628 82.9274 107.541 82.4008 107.541 81.1126C107.541 79.8245 106.628 78.2528 105.503 77.6047C104.377 76.9565 103.464 77.4831 103.464 78.7713Z" fill="white"/>
<path d="M96.0442 74.518C96.0442 75.8061 96.9574 77.3778 98.0827 78.0259C99.2079 78.6741 100.121 78.1475 100.121 76.8593C100.121 75.5712 99.2079 73.9995 98.0827 73.3513C96.9574 72.7032 96.0442 73.2298 96.0442 74.518Z" fill="white"/>
<path d="M111.928 81.6068C111.83 81.8256 111.773 82.0929 111.773 82.4008C111.773 83.6889 112.686 85.2606 113.811 85.9087C114.178 86.1194 114.521 86.1923 114.814 86.168C114.513 86.8485 113.779 87.0267 112.931 86.5406C111.806 85.8925 110.892 84.3208 110.892 83.0327C110.892 82.1658 111.308 81.6554 111.928 81.5987V81.6068Z" fill="#54659A"/>
<path d="M104.5 77.3454C104.402 77.5641 104.345 77.8315 104.345 78.1394C104.345 79.4275 105.258 80.9992 106.383 81.6473C106.75 81.858 107.093 81.9309 107.386 81.9066C107.084 82.5871 106.351 82.7653 105.503 82.2792C104.377 81.6311 103.464 80.0594 103.464 78.7713C103.464 77.9044 103.88 77.394 104.5 77.3373V77.3454Z" fill="#54659A"/>
<path d="M97.0716 73.0842C96.9737 73.3029 96.9166 73.5703 96.9166 73.8782C96.9166 75.1663 97.8299 76.738 98.9551 77.3861C99.322 77.5968 99.6645 77.6697 99.958 77.6454C99.6563 78.3259 98.9225 78.5041 98.0745 78.018C96.9492 77.3699 96.036 75.7982 96.036 74.5101C96.036 73.6432 96.4519 73.1328 97.0716 73.0761V73.0842Z" fill="#54659A"/>
<path d="M110.892 108.301C110.892 109.59 111.806 111.161 112.931 111.809C114.056 112.457 114.969 111.931 114.969 110.643C114.969 109.355 114.056 107.783 112.931 107.135C111.806 106.487 110.892 107.013 110.892 108.301Z" fill="white"/>
<path d="M103.464 104.04C103.464 105.328 104.377 106.9 105.503 107.548C106.628 108.196 107.541 107.669 107.541 106.381C107.541 105.093 106.628 103.521 105.503 102.873C104.377 102.225 103.464 102.752 103.464 104.04Z" fill="white"/>
<path d="M96.0442 99.7786C96.0442 101.067 96.9574 102.638 98.0827 103.287C99.2079 103.935 100.121 103.408 100.121 102.12C100.121 100.832 99.2079 99.2601 98.0827 98.6119C96.9574 97.9638 96.0442 98.4904 96.0442 99.7786Z" fill="white"/>
<path d="M111.928 106.867C111.83 107.086 111.773 107.353 111.773 107.661C111.773 108.95 112.686 110.521 113.811 111.169C114.178 111.38 114.521 111.453 114.814 111.429C114.513 112.109 113.779 112.287 112.931 111.801C111.806 111.153 110.892 109.581 110.892 108.293C110.892 107.426 111.308 106.916 111.928 106.859V106.867Z" fill="#54659A"/>
<path d="M104.5 102.614C104.402 102.833 104.345 103.1 104.345 103.408C104.345 104.696 105.258 106.268 106.383 106.916C106.75 107.127 107.093 107.2 107.386 107.175C107.084 107.856 106.351 108.034 105.503 107.548C104.377 106.9 103.464 105.328 103.464 104.04C103.464 103.173 103.88 102.663 104.5 102.606V102.614Z" fill="#54659A"/>
<path d="M97.0716 98.3527C96.9737 98.5714 96.9166 98.8388 96.9166 99.1466C96.9166 100.435 97.8299 102.006 98.9551 102.655C99.322 102.865 99.6645 102.938 99.958 102.914C99.6563 103.594 98.9225 103.773 98.0745 103.287C96.9492 102.638 96.036 101.067 96.036 99.7786C96.036 98.9117 96.4519 98.4013 97.0716 98.3446V98.3527Z" fill="#54659A"/>
<path d="M123.335 71.8931L159 51.4286V45.0203L123.335 65.4766V71.8931Z" fill="url(#paint24_linear_86_1057)"/>
<path d="M123.335 65.4766L159 45.0203L123.335 24.5639L87.6783 45.0203L123.335 65.4766Z" fill="url(#paint25_linear_86_1057)"/>
<path d="M123.335 64.6908L158.315 44.6314L159 45.0203L123.335 65.4766L87.6783 45.0203L88.3633 44.6314L123.335 64.6908Z" fill="white"/>
<path d="M87.6702 51.4286L123.335 71.8931V65.4766L87.6702 45.0203V51.4286Z" fill="url(#paint26_linear_86_1057)"/>
<path opacity="0.5" d="M159 77.5722V87.124L123.335 107.58V98.0286L159 77.5722Z" fill="white"/>
<path opacity="0.5" d="M87.6702 77.5722L87.6783 87.124L123.335 107.58V98.0286L87.6702 77.5722Z" fill="white"/>
<path d="M133.593 112.773L148.743 104.08C150.088 103.311 151.172 101.245 151.172 99.4707C151.172 97.6965 150.088 96.8782 148.743 97.6479L133.593 106.341C132.255 107.11 131.163 109.176 131.163 110.951C131.163 112.725 132.247 113.543 133.593 112.773Z" fill="white"/>
<path d="M146.158 102.444C147.503 101.674 148.588 99.6084 148.588 97.8342C148.588 97.8018 148.588 97.7694 148.588 97.737L148.742 97.6479C150.088 96.8782 151.172 97.6965 151.172 99.4707C151.172 101.245 150.088 103.311 148.742 104.08L133.593 112.773C132.28 113.527 131.212 112.757 131.171 111.048L146.166 102.444H146.158Z" fill="url(#paint27_linear_86_1057)"/>
<path d="M79.1494 150L114.814 129.544V113.827L79.1494 134.291V150Z" fill="url(#paint28_linear_86_1057)"/>
<path d="M79.1494 134.283L114.814 113.827L79.1576 93.3702L43.4927 113.827L79.1494 134.283Z" fill="url(#paint29_linear_86_1057)"/>
<path d="M79.1494 129.406L106.302 113.827L79.1494 98.2555L52.0052 113.827L79.1494 129.406Z" fill="white"/>
<path d="M43.4927 129.544L79.1494 150V134.291L43.4927 113.827V129.544Z" fill="url(#paint30_linear_86_1057)"/>
<path d="M79.1494 124.731L114.814 104.275V88.566L79.1494 109.022V124.731Z" fill="url(#paint31_linear_86_1057)"/>
<path d="M79.1494 109.022L114.814 88.566L79.1576 68.1015L43.4927 88.566L79.1494 109.022Z" fill="url(#paint32_linear_86_1057)"/>
<path d="M79.1494 108.237L114.129 88.1691L114.814 88.566L79.1494 109.022L43.4927 88.566L44.1776 88.1691L79.1494 108.237Z" fill="white"/>
<path d="M79.1494 133.497L114.129 113.438L114.814 113.827L79.1494 134.283L43.4927 113.827L44.1776 113.438L79.1494 133.497Z" fill="#54659A"/>
<path d="M79.1495 75.9276L104.141 90.2674L79.1495 104.607L54.158 90.2674L79.1495 75.9276Z" fill="white"/>
<path d="M79.1495 75.9276L54.1579 90.2674L51.1899 88.566L79.1495 72.525L107.117 88.566L104.149 90.2674L79.1495 75.9276Z" fill="#396EB4"/>
<path d="M43.4927 104.275L79.1494 124.731V109.022L43.4927 88.566V104.275Z" fill="url(#paint33_linear_86_1057)"/>
<path d="M66.7067 109.735C66.7067 111.023 67.6199 112.595 68.7451 113.243C69.8704 113.891 70.7836 113.365 70.7836 112.077C70.7836 110.789 69.8704 109.217 68.7451 108.569C67.6199 107.921 66.7067 108.447 66.7067 109.735Z" fill="white"/>
<path d="M59.2866 105.482C59.2866 106.77 60.1999 108.342 61.3251 108.99C62.4503 109.638 63.3635 109.112 63.3635 107.823C63.3635 106.535 62.4503 104.964 61.3251 104.315C60.1999 103.667 59.2866 104.194 59.2866 105.482Z" fill="white"/>
<path d="M51.8585 101.221C51.8585 102.509 52.7718 104.08 53.897 104.729C55.0222 105.377 55.9354 104.85 55.9354 103.562C55.9354 102.274 55.0222 100.702 53.897 100.054C52.7718 99.4059 51.8585 99.9325 51.8585 101.221Z" fill="white"/>
<path d="M67.7422 108.309C67.6444 108.528 67.5873 108.796 67.5873 109.103C67.5873 110.392 68.5005 111.963 69.6257 112.611C69.9927 112.822 70.3351 112.895 70.6287 112.871C70.327 113.551 69.5931 113.729 68.7451 113.243C67.6199 112.595 66.7067 111.023 66.7067 109.735C66.7067 108.868 67.1225 108.358 67.7422 108.301V108.309Z" fill="#54659A"/>
<path d="M60.3141 104.048C60.2163 104.267 60.1592 104.534 60.1592 104.842C60.1592 106.13 61.0724 107.702 62.1976 108.35C62.5646 108.561 62.907 108.634 63.2006 108.609C62.8989 109.29 62.165 109.468 61.317 108.982C60.1918 108.334 59.2786 106.762 59.2786 105.474C59.2786 104.607 59.6944 104.097 60.3141 104.04V104.048Z" fill="#54659A"/>
<path d="M52.8941 99.7869C52.7962 100.006 52.7391 100.273 52.7391 100.581C52.7391 101.869 53.6524 103.441 54.7776 104.089C55.1445 104.299 55.487 104.372 55.7805 104.348C55.4788 105.029 54.745 105.207 53.897 104.721C52.7718 104.073 51.8585 102.501 51.8585 101.213C51.8585 100.346 52.2744 99.8355 52.8941 99.7788V99.7869Z" fill="#54659A"/>
<path d="M66.7067 135.004C66.7067 136.292 67.6199 137.864 68.7451 138.512C69.8704 139.16 70.7836 138.634 70.7836 137.345C70.7836 136.057 69.8704 134.486 68.7451 133.837C67.6199 133.189 66.7067 133.716 66.7067 135.004Z" fill="white"/>
<path d="M59.2866 130.743C59.2866 132.031 60.1999 133.602 61.3251 134.251C62.4503 134.899 63.3635 134.372 63.3635 133.084C63.3635 131.796 62.4503 130.224 61.3251 129.576C60.1999 128.928 59.2866 129.455 59.2866 130.743Z" fill="white"/>
<path d="M51.8585 126.489C51.8585 127.777 52.7718 129.349 53.897 129.997C55.0222 130.645 55.9354 130.119 55.9354 128.831C55.9354 127.543 55.0222 125.971 53.897 125.323C52.7718 124.675 51.8585 125.201 51.8585 126.489Z" fill="white"/>
<path d="M67.7422 133.578C67.6444 133.797 67.5873 134.064 67.5873 134.372C67.5873 135.66 68.5005 137.232 69.6257 137.88C69.9927 138.091 70.3351 138.164 70.6287 138.139C70.327 138.82 69.5931 138.998 68.7451 138.512C67.6199 137.864 66.7067 136.292 66.7067 135.004C66.7067 134.137 67.1225 133.627 67.7422 133.57V133.578Z" fill="#54659A"/>
<path d="M60.3141 129.317C60.2163 129.536 60.1592 129.803 60.1592 130.111C60.1592 131.399 61.0724 132.971 62.1976 133.619C62.5646 133.829 62.907 133.902 63.2006 133.878C62.8989 134.558 62.165 134.737 61.317 134.251C60.1918 133.602 59.2786 132.031 59.2786 130.743C59.2786 129.876 59.6944 129.365 60.3141 129.309V129.317Z" fill="#54659A"/>
<path d="M52.8941 125.055C52.7962 125.274 52.7391 125.541 52.7391 125.849C52.7391 127.137 53.6524 128.709 54.7776 129.357C55.1445 129.568 55.487 129.641 55.7805 129.617C55.4788 130.297 54.745 130.475 53.897 129.989C52.7718 129.341 51.8585 127.769 51.8585 126.481C51.8585 125.614 52.2744 125.104 52.8941 125.047V125.055Z" fill="#54659A"/>
<path d="M79.1494 98.5957L114.814 78.1393V71.7229L79.1494 92.1874V98.5957Z" fill="url(#paint34_linear_86_1057)"/>
<path d="M79.1494 92.1874L114.814 71.7229L79.1576 51.2665L43.4927 71.7229L79.1494 92.1874Z" fill="url(#paint35_linear_86_1057)"/>
<path d="M79.1494 91.3935L114.129 71.3341L114.814 71.7229L79.1494 92.1874L43.4927 71.7229L44.1776 71.3341L79.1494 91.3935Z" fill="white"/>
<path d="M43.4927 78.1393L79.1494 98.5957V92.1874L43.4927 71.7229V78.1393Z" fill="url(#paint36_linear_86_1057)"/>
<path opacity="0.5" d="M114.814 104.275V113.827L79.1494 134.283V124.731L114.814 104.275Z" fill="white"/>
<path opacity="0.5" d="M43.4927 104.275V113.827L79.1494 134.283V124.731L43.4927 104.275Z" fill="white"/>
<path d="M89.407 139.476L104.557 130.783C105.902 130.014 106.987 127.948 106.987 126.173C106.987 124.399 105.902 123.581 104.557 124.351L89.407 133.043C88.0616 133.813 86.9772 135.879 86.9772 137.653C86.9772 139.428 88.0616 140.246 89.407 139.476Z" fill="white"/>
<path d="M101.972 129.147C103.309 128.377 104.402 126.311 104.402 124.537C104.402 124.504 104.402 124.472 104.402 124.44L104.557 124.351C105.902 123.581 106.987 124.399 106.987 126.173C106.987 127.948 105.902 130.014 104.557 130.783L89.4069 139.476C88.0942 140.23 87.026 139.46 86.9852 137.75L101.98 129.147H101.972Z" fill="url(#paint37_linear_86_1057)"/>
</g>
<defs>
<linearGradient id="paint0_linear_86_1057" x1="118.655" y1="66.2787" x2="74.0925" y2="97.1948" gradientUnits="userSpaceOnUse">
<stop stop-color="#1E4180"/>
<stop offset="1" stop-color="#396EB4"/>
</linearGradient>
<linearGradient id="paint1_linear_86_1057" x1="106.587" y1="51.145" x2="56.3386" y2="72.873" gradientUnits="userSpaceOnUse">
<stop stop-color="#549BC9"/>
<stop offset="1" stop-color="#378EC0"/>
</linearGradient>
<linearGradient id="paint2_linear_86_1057" x1="84.4169" y1="73.9347" x2="36.7031" y2="88.4117" gradientUnits="userSpaceOnUse">
<stop stop-color="#396EB4"/>
<stop offset="1" stop-color="#005EA6"/>
</linearGradient>
<linearGradient id="paint3_linear_86_1057" x1="-1613.47" y1="41.01" x2="-1614.28" y2="71.6665" gradientUnits="userSpaceOnUse">
<stop stop-color="#1E4180"/>
<stop offset="1" stop-color="#396EB4"/>
</linearGradient>
<linearGradient id="paint4_linear_86_1057" x1="106.587" y1="25.8844" x2="56.3386" y2="47.6124" gradientUnits="userSpaceOnUse">
<stop stop-color="#549BC9"/>
<stop offset="1" stop-color="#378EC0"/>
</linearGradient>
<linearGradient id="paint5_linear_86_1057" x1="-1613.47" y1="48.6741" x2="-1614.28" y2="62.982" gradientUnits="userSpaceOnUse">
<stop stop-color="#396EB4"/>
<stop offset="1" stop-color="#005EA6"/>
</linearGradient>
<linearGradient id="paint6_linear_86_1057" x1="116.429" y1="21.0478" x2="76.6005" y2="48.6868" gradientUnits="userSpaceOnUse">
<stop stop-color="#1E4180"/>
<stop offset="1" stop-color="#396EB4"/>
</linearGradient>
<linearGradient id="paint7_linear_86_1057" x1="106.587" y1="9.04132" x2="56.3386" y2="30.7693" gradientUnits="userSpaceOnUse">
<stop stop-color="#72A9D3"/>
<stop offset="1" stop-color="#2684B9"/>
</linearGradient>
<linearGradient id="paint8_linear_86_1057" x1="82.5741" y1="27.7316" x2="38.7945" y2="41.0199" gradientUnits="userSpaceOnUse">
<stop stop-color="#396EB4"/>
<stop offset="1" stop-color="#005EA6"/>
</linearGradient>
<linearGradient id="paint9_linear_86_1057" x1="74.4691" y1="92.9814" x2="29.9068" y2="123.906" gradientUnits="userSpaceOnUse">
<stop stop-color="#1E4180"/>
<stop offset="1" stop-color="#396EB4"/>
</linearGradient>
<linearGradient id="paint10_linear_86_1057" x1="62.4014" y1="77.8558" x2="12.1528" y2="99.5756" gradientUnits="userSpaceOnUse">
<stop stop-color="#549BC9"/>
<stop offset="1" stop-color="#378EC0"/>
</linearGradient>
<linearGradient id="paint11_linear_86_1057" x1="40.2311" y1="100.637" x2="-7.4745" y2="115.114" gradientUnits="userSpaceOnUse">
<stop stop-color="#396EB4"/>
<stop offset="1" stop-color="#005EA6"/>
</linearGradient>
<linearGradient id="paint12_linear_86_1057" x1="74.4691" y1="67.7208" x2="29.9067" y2="98.6369" gradientUnits="userSpaceOnUse">
<stop stop-color="#1E4180"/>
<stop offset="1" stop-color="#396EB4"/>
</linearGradient>
<linearGradient id="paint13_linear_86_1057" x1="62.4014" y1="52.5871" x2="12.1528" y2="74.3151" gradientUnits="userSpaceOnUse">
<stop stop-color="#549BC9"/>
<stop offset="1" stop-color="#378EC0"/>
</linearGradient>
<linearGradient id="paint14_linear_86_1057" x1="40.2311" y1="75.3767" x2="-7.4745" y2="89.8538" gradientUnits="userSpaceOnUse">
<stop stop-color="#396EB4"/>
<stop offset="1" stop-color="#005EA6"/>
</linearGradient>
<linearGradient id="paint15_linear_86_1057" x1="72.2431" y1="47.7586" x2="32.4146" y2="75.3894" gradientUnits="userSpaceOnUse">
<stop stop-color="#1E4180"/>
<stop offset="1" stop-color="#396EB4"/>
</linearGradient>
<linearGradient id="paint16_linear_86_1057" x1="62.4014" y1="35.7521" x2="12.1528" y2="57.4801" gradientUnits="userSpaceOnUse">
<stop stop-color="#72A9D3"/>
<stop offset="1" stop-color="#2684B9"/>
</linearGradient>
<linearGradient id="paint17_linear_86_1057" x1="38.3883" y1="54.4423" x2="-5.39139" y2="67.7225" gradientUnits="userSpaceOnUse">
<stop stop-color="#396EB4"/>
<stop offset="1" stop-color="#005EA6"/>
</linearGradient>
<linearGradient id="paint18_linear_86_1057" x1="162.147" y1="90.8426" x2="117.585" y2="121.759" gradientUnits="userSpaceOnUse">
<stop stop-color="#1E4180"/>
<stop offset="1" stop-color="#396EB4"/>
</linearGradient>
<linearGradient id="paint19_linear_86_1057" x1="150.08" y1="75.7089" x2="99.823" y2="97.4369" gradientUnits="userSpaceOnUse">
<stop stop-color="#549BC9"/>
<stop offset="1" stop-color="#378EC0"/>
</linearGradient>
<linearGradient id="paint20_linear_86_1057" x1="127.909" y1="98.4985" x2="80.1957" y2="112.976" gradientUnits="userSpaceOnUse">
<stop stop-color="#396EB4"/>
<stop offset="1" stop-color="#005EA6"/>
</linearGradient>
<linearGradient id="paint21_linear_86_1057" x1="162.147" y1="65.5739" x2="117.585" y2="96.4981" gradientUnits="userSpaceOnUse">
<stop stop-color="#1E4180"/>
<stop offset="1" stop-color="#396EB4"/>
</linearGradient>
<linearGradient id="paint22_linear_86_1057" x1="150.08" y1="50.4483" x2="99.823" y2="72.1763" gradientUnits="userSpaceOnUse">
<stop stop-color="#549BC9"/>
<stop offset="1" stop-color="#378EC0"/>
</linearGradient>
<linearGradient id="paint23_linear_86_1057" x1="127.909" y1="73.2379" x2="80.1957" y2="87.715" gradientUnits="userSpaceOnUse">
<stop stop-color="#396EB4"/>
<stop offset="1" stop-color="#005EA6"/>
</linearGradient>
<linearGradient id="paint24_linear_86_1057" x1="159.921" y1="45.6117" x2="120.093" y2="73.2506" gradientUnits="userSpaceOnUse">
<stop stop-color="#1E4180"/>
<stop offset="1" stop-color="#396EB4"/>
</linearGradient>
<linearGradient id="paint25_linear_86_1057" x1="150.08" y1="33.6052" x2="99.823" y2="55.3332" gradientUnits="userSpaceOnUse">
<stop stop-color="#72A9D3"/>
<stop offset="1" stop-color="#2684B9"/>
</linearGradient>
<linearGradient id="paint26_linear_86_1057" x1="126.058" y1="52.3035" x2="82.2869" y2="65.5837" gradientUnits="userSpaceOnUse">
<stop stop-color="#396EB4"/>
<stop offset="1" stop-color="#005EA6"/>
</linearGradient>
<linearGradient id="paint27_linear_86_1057" x1="151.686" y1="98.8469" x2="130.192" y2="113.761" gradientUnits="userSpaceOnUse">
<stop stop-color="#396EB4"/>
<stop offset="1" stop-color="#005EA6"/>
</linearGradient>
<linearGradient id="paint28_linear_86_1057" x1="117.962" y1="117.545" x2="73.3994" y2="148.47" gradientUnits="userSpaceOnUse">
<stop stop-color="#1E4180"/>
<stop offset="1" stop-color="#396EB4"/>
</linearGradient>
<linearGradient id="paint29_linear_86_1057" x1="105.894" y1="102.42" x2="55.6455" y2="124.148" gradientUnits="userSpaceOnUse">
<stop stop-color="#549BC9"/>
<stop offset="1" stop-color="#378EC0"/>
</linearGradient>
<linearGradient id="paint30_linear_86_1057" x1="83.7237" y1="125.201" x2="36.01" y2="139.678" gradientUnits="userSpaceOnUse">
<stop stop-color="#396EB4"/>
<stop offset="1" stop-color="#005EA6"/>
</linearGradient>
<linearGradient id="paint31_linear_86_1057" x1="117.962" y1="92.2846" x2="73.3994" y2="123.201" gradientUnits="userSpaceOnUse">
<stop stop-color="#1E4180"/>
<stop offset="1" stop-color="#396EB4"/>
</linearGradient>
<linearGradient id="paint32_linear_86_1057" x1="105.894" y1="77.151" x2="55.6455" y2="98.8789" gradientUnits="userSpaceOnUse">
<stop stop-color="#549BC9"/>
<stop offset="1" stop-color="#378EC0"/>
</linearGradient>
<linearGradient id="paint33_linear_86_1057" x1="83.7237" y1="99.9406" x2="36.01" y2="114.418" gradientUnits="userSpaceOnUse">
<stop stop-color="#396EB4"/>
<stop offset="1" stop-color="#005EA6"/>
</linearGradient>
<linearGradient id="paint34_linear_86_1057" x1="115.736" y1="72.3224" x2="75.9073" y2="99.9533" gradientUnits="userSpaceOnUse">
<stop stop-color="#1E4180"/>
<stop offset="1" stop-color="#396EB4"/>
</linearGradient>
<linearGradient id="paint35_linear_86_1057" x1="105.894" y1="60.316" x2="55.6455" y2="82.0439" gradientUnits="userSpaceOnUse">
<stop stop-color="#72A9D3"/>
<stop offset="1" stop-color="#2684B9"/>
</linearGradient>
<linearGradient id="paint36_linear_86_1057" x1="81.881" y1="79.0062" x2="38.1013" y2="92.2864" gradientUnits="userSpaceOnUse">
<stop stop-color="#396EB4"/>
<stop offset="1" stop-color="#005EA6"/>
</linearGradient>
<linearGradient id="paint37_linear_86_1057" x1="107.5" y1="125.558" x2="86.0067" y2="140.464" gradientUnits="userSpaceOnUse">
<stop stop-color="#396EB4"/>
<stop offset="1" stop-color="#005EA6"/>
</linearGradient>
<clipPath id="clip0_86_1057">
<rect width="159" height="150" fill="white"/>
</clipPath>
</defs>
</svg>
