<svg width="499" height="451" viewBox="0 0 499 451" fill="none" xmlns="http://www.w3.org/2000/svg">
<g clip-path="url(#clip0_85_580)">
<path d="M226.925 308.432L323.413 252.05C325.074 251.071 325.087 248.668 323.413 247.689L261.244 210.928" stroke="#FFB06D" stroke-miterlimit="10"/>
<path d="M282.943 369.543L371.301 318.083" stroke="#B5E9FE" stroke-miterlimit="10"/>
<path d="M126.849 271.925L215.207 220.465" stroke="#B5E9FE" stroke-miterlimit="10"/>
<path d="M275.791 365.131L364.149 313.671" stroke="#FF5A72" stroke-miterlimit="10"/>
<path d="M300.572 350.699C301.903 351.474 301.903 352.72 300.585 353.483C299.266 354.259 297.11 354.259 295.778 353.483C294.446 352.708 294.446 351.462 295.765 350.699C297.084 349.923 299.24 349.923 300.572 350.699Z" fill="#FF5A72"/>
<path d="M307.839 346.464C309.171 347.24 309.171 348.486 307.852 349.249C306.533 350.025 304.377 350.025 303.045 349.249C301.713 348.473 301.713 347.227 303.032 346.464C304.351 345.689 306.507 345.689 307.839 346.464Z" fill="#FF5A72"/>
<path d="M315.106 342.23C316.437 343.006 316.437 344.252 315.118 345.015C313.8 345.79 311.643 345.79 310.312 345.015C308.98 344.239 308.98 342.993 310.299 342.23C311.618 341.454 313.774 341.454 315.106 342.23Z" fill="#FF5A72"/>
<path d="M230.147 298.285L308.638 252.419C310.299 251.44 310.312 249.037 308.638 248.058L246.469 211.297" stroke="#FF5A72" stroke-miterlimit="10"/>
<path d="M290.997 262.185C292.328 262.96 292.328 264.207 291.009 264.969C289.69 265.745 287.534 265.745 286.203 264.969C284.871 264.194 284.871 262.948 286.19 262.185C287.509 261.409 289.665 261.409 290.997 262.185Z" fill="#FF5A72"/>
<path d="M298.264 257.95C299.595 258.726 299.595 259.972 298.276 260.735C296.957 261.511 294.801 261.511 293.47 260.735C292.138 259.959 292.138 258.713 293.457 257.95C294.776 257.175 296.932 257.175 298.264 257.95Z" fill="#FF5A72"/>
<path d="M305.531 253.716C306.862 254.492 306.862 255.738 305.543 256.501C304.224 257.276 302.068 257.276 300.737 256.501C299.405 255.725 299.405 254.479 300.724 253.716C302.043 252.94 304.199 252.94 305.531 253.716Z" fill="#FF5A72"/>
<path d="M298.035 238.635C299.367 239.411 299.367 240.657 298.048 241.42C296.729 242.196 294.573 242.196 293.242 241.42C291.91 240.644 291.91 239.398 293.229 238.635C294.548 237.86 296.704 237.86 298.035 238.635Z" fill="#FF5A72"/>
<path d="M290.768 234.401C292.1 235.177 292.1 236.423 290.781 237.186C289.462 237.961 287.306 237.961 285.974 237.186C284.643 236.41 284.643 235.164 285.962 234.401C287.281 233.625 289.437 233.625 290.768 234.401Z" fill="#FF5A72"/>
<path d="M277.021 281.157L157.692 350.889C154.94 352.492 151.541 352.492 148.802 350.889L106.189 325.878" stroke="#FF5A72" stroke-miterlimit="10"/>
<path d="M142.055 344.354C143.387 345.129 143.387 346.375 142.068 347.138C140.749 347.914 138.593 347.914 137.261 347.138C135.929 346.363 135.929 345.116 137.248 344.354C138.567 343.578 140.723 343.578 142.055 344.354Z" fill="#FF5A72"/>
<path d="M134.788 340.119C136.12 340.895 136.12 342.141 134.801 342.904C133.482 343.68 131.326 343.68 129.994 342.904C128.662 342.128 128.662 340.882 129.981 340.119C131.3 339.344 133.456 339.344 134.788 340.119Z" fill="#FF5A72"/>
<path d="M290.096 373.956L378.454 322.495" stroke="#FFB06D" stroke-miterlimit="10"/>
<path d="M352.113 337.83C353.445 338.606 353.445 339.852 352.126 340.615C350.807 341.391 348.651 341.391 347.319 340.615C345.987 339.839 345.987 338.593 347.306 337.83C348.625 337.055 350.781 337.055 352.113 337.83Z" fill="#FFB06D"/>
<path d="M359.38 333.596C360.712 334.372 360.712 335.618 359.393 336.381C358.074 337.156 355.918 337.156 354.586 336.381C353.254 335.605 353.254 334.359 354.573 333.596C355.892 332.82 358.048 332.82 359.38 333.596Z" fill="#FFB06D"/>
<path d="M366.659 329.362C367.991 330.137 367.991 331.384 366.672 332.146C365.353 332.922 363.197 332.922 361.866 332.146C360.534 331.371 360.534 330.125 361.853 329.362C363.172 328.586 365.328 328.586 366.659 329.362Z" fill="#FFB06D"/>
<path d="M272.024 275.803L157.705 342.611C154.953 344.214 151.554 344.214 148.815 342.611L106.202 317.6" stroke="#FFB06D" stroke-miterlimit="10"/>
<path d="M189.868 323.729C191.199 324.504 191.199 325.75 189.88 326.513C188.561 327.289 186.405 327.289 185.074 326.513C183.742 325.738 183.742 324.492 185.061 323.729C186.38 322.953 188.536 322.953 189.868 323.729Z" fill="#FFB06D"/>
<path d="M197.134 319.494C198.466 320.27 198.466 321.516 197.147 322.279C195.828 323.055 193.672 323.055 192.341 322.279C191.009 321.503 191.009 320.257 192.328 319.494C193.647 318.719 195.803 318.719 197.134 319.494Z" fill="#FFB06D"/>
<path d="M204.401 315.26C205.733 316.036 205.733 317.282 204.414 318.045C203.095 318.82 200.939 318.82 199.608 318.045C198.276 317.269 198.276 316.023 199.595 315.26C200.914 314.484 203.07 314.484 204.401 315.26Z" fill="#FFB06D"/>
<path d="M134.002 276.337L222.36 224.877" stroke="#FFB06D" stroke-miterlimit="10"/>
<path d="M197.401 239.525C198.732 240.301 198.732 241.547 197.414 242.31C196.095 243.086 193.939 243.086 192.607 242.31C191.275 241.534 191.275 240.288 192.594 239.525C193.913 238.75 196.069 238.75 197.401 239.525Z" fill="#FFB06D"/>
<path d="M204.668 235.291C205.999 236.067 205.999 237.313 204.68 238.076C203.362 238.851 201.206 238.851 199.874 238.076C198.542 237.3 198.542 236.054 199.861 235.291C201.18 234.515 203.336 234.515 204.668 235.291Z" fill="#FFB06D"/>
<path d="M211.935 231.057C213.266 231.832 213.266 233.078 211.947 233.841C210.628 234.617 208.472 234.617 207.141 233.841C205.809 233.066 205.809 231.82 207.128 231.057C208.447 230.281 210.603 230.281 211.935 231.057Z" fill="#FFB06D"/>
<path d="M256.171 314.205L370.49 247.396C373.242 245.794 376.641 245.794 379.38 247.396L421.993 272.408" stroke="#FFB06D" stroke-miterlimit="10"/>
<path d="M317.769 278.194C319.101 278.969 319.101 280.216 317.782 280.979C316.463 281.754 314.307 281.754 312.975 280.979C311.644 280.203 311.644 278.957 312.963 278.194C314.281 277.418 316.437 277.418 317.769 278.194Z" fill="#FFB06D"/>
<path d="M325.036 273.959C326.368 274.735 326.368 275.981 325.049 276.744C323.73 277.52 321.574 277.52 320.242 276.744C318.911 275.969 318.911 274.722 320.23 273.959C321.549 273.184 323.705 273.184 325.036 273.959Z" fill="#FFB06D"/>
<path d="M332.316 269.725C333.647 270.501 333.647 271.747 332.328 272.51C331.009 273.286 328.853 273.286 327.522 272.51C326.19 271.734 326.19 270.488 327.509 269.725C328.828 268.949 330.984 268.949 332.316 269.725Z" fill="#FFB06D"/>
<path d="M251.161 308.851L370.49 239.118C373.242 237.516 376.641 237.516 379.38 239.118L421.993 264.13" stroke="#B5E9FE" stroke-miterlimit="10"/>
<path d="M296.45 282.428C297.782 283.204 297.782 284.45 296.463 285.213C295.144 285.989 292.988 285.989 291.656 285.213C290.324 284.437 290.324 283.191 291.643 282.428C292.962 281.652 295.118 281.652 296.45 282.428Z" fill="#B5E9FE"/>
<path d="M303.717 278.194C305.049 278.969 305.049 280.216 303.73 280.979C302.411 281.741 300.255 281.754 298.923 280.979C297.592 280.203 297.592 278.957 298.91 278.194C300.229 277.418 302.385 277.418 303.717 278.194Z" fill="#B5E9FE"/>
<path d="M310.984 273.959C312.316 274.735 312.316 275.981 310.997 276.744C309.678 277.52 307.522 277.52 306.19 276.744C304.858 275.969 304.858 274.722 306.177 273.959C307.496 273.184 309.652 273.184 310.984 273.959Z" fill="#B5E9FE"/>
<path d="M277.021 300.79L198.53 346.655C196.868 347.634 196.856 350.037 198.53 351.016L260.699 387.778" stroke="#FF5A72" stroke-miterlimit="10"/>
<path d="M216.462 358.888C217.794 359.663 217.794 360.909 216.475 361.672C215.156 362.448 213 362.448 211.669 361.672C210.337 360.897 210.337 359.65 211.656 358.888C212.975 358.112 215.131 358.112 216.462 358.888Z" fill="#FF5A72"/>
<path d="M209.195 354.64C210.527 355.416 210.527 356.662 209.208 357.425C207.889 358.201 205.733 358.201 204.402 357.425C203.07 356.65 203.07 355.403 204.389 354.64C205.708 353.865 207.864 353.865 209.195 354.64Z" fill="#FF5A72"/>
<path d="M220.394 334.079C221.726 334.855 221.726 336.101 220.407 336.864C219.088 337.64 216.932 337.64 215.6 336.864C214.269 336.088 214.269 334.842 215.588 334.079C216.906 333.304 219.062 333.304 220.394 334.079Z" fill="#FF5A72"/>
<path d="M227.661 329.845C228.993 330.621 228.993 331.867 227.674 332.63C226.355 333.405 224.199 333.405 222.867 332.63C221.536 331.854 221.536 330.608 222.855 329.845C224.174 329.069 226.33 329.069 227.661 329.845Z" fill="#FF5A72"/>
<path d="M234.928 325.611C236.26 326.386 236.26 327.632 234.941 328.395C233.622 329.171 231.466 329.171 230.134 328.395C228.802 327.62 228.802 326.374 230.121 325.611C231.44 324.835 233.596 324.835 234.928 325.611Z" fill="#FF5A72"/>
<path d="M280.255 290.642L183.767 347.024C182.106 348.003 182.093 350.406 183.767 351.385L245.936 388.146" stroke="#B5E9FE" stroke-miterlimit="10"/>
<path d="M194.89 340.285C196.221 341.06 196.221 342.306 194.902 343.069C193.583 343.845 191.427 343.845 190.096 343.069C188.764 342.294 188.764 341.047 190.083 340.285C191.402 339.509 193.558 339.509 194.89 340.285Z" fill="#B5E9FE"/>
<path d="M202.169 336.05C203.501 336.826 203.501 338.072 202.182 338.835C200.863 339.611 198.707 339.611 197.375 338.835C196.044 338.059 196.044 336.813 197.363 336.05C198.682 335.275 200.838 335.275 202.169 336.05Z" fill="#B5E9FE"/>
<path d="M209.436 331.816C210.768 332.592 210.768 333.838 209.449 334.601C208.13 335.376 205.974 335.376 204.642 334.601C203.311 333.825 203.311 332.579 204.63 331.816C205.949 331.04 208.105 331.04 209.436 331.816Z" fill="#B5E9FE"/>
<path d="M119.696 267.513L208.054 216.039" stroke="#FF5A72" stroke-miterlimit="10"/>
<path d="M174.053 235.851C175.384 236.626 175.384 237.872 174.065 238.635C172.746 239.411 170.59 239.411 169.259 238.635C167.927 237.86 167.927 236.613 169.246 235.851C170.565 235.075 172.721 235.075 174.053 235.851Z" fill="#FF5A72"/>
<path d="M181.32 231.616C182.651 232.392 182.651 233.638 181.332 234.401C180.013 235.177 177.857 235.177 176.526 234.401C175.194 233.625 175.194 232.379 176.513 231.616C177.832 230.841 179.988 230.841 181.32 231.616Z" fill="#FF5A72"/>
<path d="M188.587 227.382C189.918 228.158 189.918 229.404 188.599 230.167C187.28 230.942 185.124 230.942 183.793 230.167C182.461 229.391 182.461 228.145 183.78 227.382C185.099 226.606 187.255 226.606 188.587 227.382Z" fill="#FF5A72"/>
<path d="M137.578 102.539C137.578 101.891 138.035 101.102 138.593 100.784C139.151 100.467 139.607 100.721 139.607 101.369C139.607 102.018 139.151 102.806 138.593 103.124C138.035 103.442 137.578 103.188 137.578 102.539Z" fill="white"/>
<path d="M137.578 89.5947C137.578 88.9462 138.035 88.1578 138.593 87.8399C139.151 87.522 139.607 87.7763 139.607 88.4248C139.607 89.0733 139.151 89.8617 138.593 90.1796C138.035 90.4975 137.578 90.2432 137.578 89.5947Z" fill="white"/>
<path d="M137.578 76.6374C137.578 75.9889 138.035 75.2005 138.593 74.8826C139.151 74.5647 139.607 74.8191 139.607 75.4676C139.607 76.1161 139.151 76.9044 138.593 77.2223C138.035 77.5402 137.578 77.2859 137.578 76.6374Z" fill="white"/>
<path d="M137.578 63.6928C137.578 63.0443 138.035 62.2559 138.593 61.9381C139.151 61.6202 139.607 61.8745 139.607 62.523C139.607 63.1715 139.151 63.9599 138.593 64.2777C138.035 64.5956 137.578 64.3413 137.578 63.6928Z" fill="white"/>
<path d="M137.578 50.7355C137.578 50.087 138.035 49.2987 138.593 48.9808C139.151 48.6629 139.607 48.9172 139.607 49.5657C139.607 50.2142 139.151 51.0026 138.593 51.3205C138.035 51.6384 137.578 51.384 137.578 50.7355Z" fill="white"/>
<path d="M137.578 37.791C137.578 37.1425 138.035 36.3541 138.593 36.0362C139.151 35.7183 139.607 35.9726 139.607 36.6211C139.607 37.2696 139.151 38.058 138.593 38.3759C138.035 38.6938 137.578 38.4395 137.578 37.791Z" fill="white"/>
<path d="M137.578 24.8337C137.578 24.1852 138.035 23.3968 138.593 23.0789C139.151 22.761 139.607 23.0153 139.607 23.6638C139.607 24.3123 139.151 25.1007 138.593 25.4186C138.035 25.7365 137.578 25.4822 137.578 24.8337Z" fill="white"/>
<path d="M192.784 133.515C192.784 132.866 193.241 132.078 193.799 131.76C194.357 131.442 194.814 131.696 194.814 132.345C194.814 132.993 194.357 133.782 193.799 134.1C193.241 134.417 192.784 134.163 192.784 133.515Z" fill="white"/>
<path d="M192.784 120.57C192.784 119.922 193.241 119.133 193.799 118.815C194.357 118.497 194.814 118.752 194.814 119.4C194.814 120.049 194.357 120.837 193.799 121.155C193.241 121.473 192.784 121.219 192.784 120.57Z" fill="white"/>
<path d="M192.784 107.626C192.784 106.977 193.241 106.189 193.799 105.871C194.357 105.553 194.814 105.807 194.814 106.456C194.814 107.104 194.357 107.893 193.799 108.21C193.241 108.528 192.784 108.274 192.784 107.626Z" fill="white"/>
<path d="M192.784 94.6683C192.784 94.0198 193.241 93.2314 193.799 92.9135C194.357 92.5956 194.814 92.8499 194.814 93.4984C194.814 94.1469 194.357 94.9353 193.799 95.2532C193.241 95.5711 192.784 95.3168 192.784 94.6683Z" fill="white"/>
<path d="M192.784 81.7237C192.784 81.0752 193.241 80.2868 193.799 79.9689C194.357 79.651 194.814 79.9054 194.814 80.5539C194.814 81.2024 194.357 81.9907 193.799 82.3086C193.241 82.6265 192.784 82.3722 192.784 81.7237Z" fill="white"/>
<path d="M192.784 68.7664C192.784 68.1179 193.241 67.3296 193.799 67.0117C194.357 66.6938 194.814 66.9481 194.814 67.5966C194.814 68.2451 194.357 69.0335 193.799 69.3514C193.241 69.6692 192.784 69.4149 192.784 68.7664Z" fill="white"/>
<path d="M192.784 55.8219C192.784 55.1734 193.241 54.385 193.799 54.0671C194.357 53.7492 194.814 54.0035 194.814 54.652C194.814 55.3005 194.357 56.0889 193.799 56.4068C193.241 56.7247 192.784 56.4704 192.784 55.8219Z" fill="white"/>
<path d="M382.081 104.154C382.081 103.506 382.538 102.717 383.096 102.399C383.654 102.081 384.11 102.336 384.11 102.984C384.11 103.633 383.654 104.421 383.096 104.739C382.538 105.057 382.081 104.803 382.081 104.154Z" fill="white"/>
<path d="M382.081 91.2096C382.081 90.5611 382.538 89.7727 383.096 89.4548C383.654 89.1369 384.11 89.3913 384.11 90.0398C384.11 90.6883 383.654 91.4766 383.096 91.7945C382.538 92.1124 382.081 91.8581 382.081 91.2096Z" fill="white"/>
<path d="M382.081 78.2523C382.081 77.6038 382.538 76.8155 383.096 76.4976C383.654 76.1797 384.11 76.434 384.11 77.0825C384.11 77.731 383.654 78.5194 383.096 78.8373C382.538 79.1551 382.081 78.9008 382.081 78.2523Z" fill="white"/>
<path d="M382.081 65.3078C382.081 64.6593 382.538 63.8709 383.096 63.553C383.654 63.2351 384.11 63.4894 384.11 64.1379C384.11 64.7864 383.654 65.5748 383.096 65.8927C382.538 66.2106 382.081 65.9563 382.081 65.3078Z" fill="white"/>
<path d="M382.081 52.3505C382.081 51.702 382.538 50.9136 383.096 50.5957C383.654 50.2778 384.11 50.5321 384.11 51.1806C384.11 51.8291 383.654 52.6175 383.096 52.9354C382.538 53.2533 382.081 52.999 382.081 52.3505Z" fill="white"/>
<path d="M382.081 39.4059C382.081 38.7574 382.538 37.969 383.096 37.6511C383.654 37.3332 384.11 37.5875 384.11 38.236C384.11 38.8845 383.654 39.6729 383.096 39.9908C382.538 40.3087 382.081 40.0544 382.081 39.4059Z" fill="white"/>
<path d="M382.081 26.4613C382.081 25.8128 382.538 25.0244 383.096 24.7065C383.654 24.3887 384.11 24.643 384.11 25.2915C384.11 25.94 383.654 26.7283 383.096 27.0462C382.538 27.3641 382.081 27.1098 382.081 26.4613Z" fill="white"/>
<path d="M367.535 82.2959C367.535 81.6474 367.991 80.859 368.549 80.5411C369.107 80.2233 369.564 80.4776 369.564 81.1261C369.564 81.7746 369.107 82.5629 368.549 82.8808C367.991 83.1987 367.535 82.9444 367.535 82.2959Z" fill="white"/>
<path d="M367.535 69.3386C367.535 68.6901 367.991 67.9018 368.549 67.5839C369.107 67.266 369.564 67.5203 369.564 68.1688C369.564 68.8173 369.107 69.6057 368.549 69.9236C367.991 70.2414 367.535 69.9871 367.535 69.3386Z" fill="white"/>
<path d="M367.535 56.3941C367.535 55.7455 367.991 54.9572 368.549 54.6393C369.107 54.3214 369.564 54.5757 369.564 55.2242C369.564 55.8727 369.107 56.6611 368.549 56.979C367.991 57.2969 367.535 57.0426 367.535 56.3941Z" fill="white"/>
<path d="M367.535 43.4368C367.535 42.7883 367.991 41.9999 368.549 41.682C369.107 41.3641 369.564 41.6184 369.564 42.2669C369.564 42.9154 369.107 43.7038 368.549 44.0217C367.991 44.3396 367.535 44.0853 367.535 43.4368Z" fill="white"/>
<path d="M367.535 30.4922C367.535 29.8437 367.991 29.0553 368.549 28.7374C369.107 28.4195 369.564 28.6739 369.564 29.3224C369.564 29.9709 369.107 30.7592 368.549 31.0771C367.991 31.395 367.535 31.1407 367.535 30.4922Z" fill="white"/>
<path d="M367.535 17.5476C367.535 16.8991 367.991 16.1107 368.549 15.7929C369.107 15.475 369.564 15.7293 369.564 16.3778C369.564 17.0263 369.107 17.8146 368.549 18.1325C367.991 18.4504 367.535 18.1961 367.535 17.5476Z" fill="white"/>
<path d="M367.535 4.59034C367.535 3.94184 367.991 3.15347 368.549 2.83558C369.107 2.51769 369.564 2.772 369.564 3.4205C369.564 4.069 369.107 4.85737 368.549 5.17526C367.991 5.49316 367.535 5.23884 367.535 4.59034Z" fill="white"/>
<path d="M205.784 97.9871C205.784 97.3386 206.24 96.5502 206.798 96.2323C207.356 95.9144 207.813 96.1687 207.813 96.8172C207.813 97.4657 207.356 98.2541 206.798 98.572C206.24 98.8899 205.784 98.6356 205.784 97.9871Z" fill="white"/>
<path d="M205.784 85.0298C205.784 84.3813 206.24 83.5929 206.798 83.275C207.356 82.9571 207.813 83.2115 207.813 83.86C207.813 84.5085 207.356 85.2968 206.798 85.6147C206.24 85.9326 205.784 85.6783 205.784 85.0298Z" fill="white"/>
<path d="M205.784 72.0852C205.784 71.4367 206.24 70.6483 206.798 70.3305C207.356 70.0126 207.813 70.2669 207.813 70.9154C207.813 71.5639 207.356 72.3522 206.798 72.6701C206.24 72.988 205.784 72.7337 205.784 72.0852Z" fill="white"/>
<path d="M205.784 59.1279C205.784 58.4794 206.24 57.6911 206.798 57.3732C207.356 57.0553 207.813 57.3096 207.813 57.9581C207.813 58.6066 207.356 59.395 206.798 59.7129C206.24 60.0308 205.784 59.7764 205.784 59.1279Z" fill="white"/>
<path d="M205.784 46.1834C205.784 45.5349 206.24 44.7465 206.798 44.4286C207.356 44.1107 207.813 44.365 207.813 45.0135C207.813 45.662 207.356 46.4504 206.798 46.7683C206.24 47.0862 205.784 46.8319 205.784 46.1834Z" fill="white"/>
<path d="M205.784 33.2261C205.784 32.5776 206.24 31.7892 206.798 31.4713C207.356 31.1534 207.813 31.4077 207.813 32.0562C207.813 32.7047 207.356 33.4931 206.798 33.811C206.24 34.1289 205.784 33.8746 205.784 33.2261Z" fill="white"/>
<path d="M205.784 20.2815C205.784 19.633 206.24 18.8446 206.798 18.5267C207.356 18.2088 207.813 18.4632 207.813 19.1117C207.813 19.7602 207.356 20.5485 206.798 20.8664C206.24 21.1843 205.784 20.93 205.784 20.2815Z" fill="white"/>
<path d="M159.126 295.92L89.5374 336.457C85.0986 339.038 77.8824 339.038 73.4182 336.457L3.38619 295.92C1.14141 294.623 0.0126824 292.906 0.0253647 291.202L0 298.857C0 300.561 1.11605 302.265 3.36083 303.574L73.3928 344.112C77.857 346.693 85.0733 346.693 89.5121 344.112L159.1 303.574C161.307 302.29 162.41 300.612 162.41 298.92L162.436 291.266C162.436 292.944 161.332 294.635 159.126 295.92Z" fill="url(#paint0_linear_85_580)"/>
<path d="M159.075 286.561C163.539 289.142 163.564 293.338 159.126 295.92L89.5374 336.457C85.0986 339.038 77.8823 339.038 73.4181 336.457L3.38615 295.92C-1.07804 293.338 -1.1034 289.142 3.33542 286.561L72.9235 246.023C77.3623 243.442 84.5786 243.442 89.0428 246.023L159.075 286.561Z" fill="#A4D4ED"/>
<path d="M125.162 319.38C125.162 318.859 125.53 318.223 125.987 317.956C126.443 317.689 126.811 317.905 126.811 318.426C126.811 318.948 126.443 319.583 125.987 319.85C125.53 320.117 125.162 319.901 125.162 319.38Z" fill="#FF5A72"/>
<path d="M133.444 314.586C133.444 314.065 133.812 313.429 134.268 313.162C134.725 312.895 135.093 313.111 135.093 313.632C135.093 314.154 134.725 314.79 134.268 315.057C133.812 315.324 133.444 315.107 133.444 314.586Z" fill="#FF5A72"/>
<path d="M142.119 309.563C142.119 309.042 142.486 308.406 142.943 308.139C143.399 307.872 143.767 308.088 143.767 308.61C143.767 309.131 143.399 309.767 142.943 310.034C142.486 310.301 142.119 310.085 142.119 309.563Z" fill="#FF5A72"/>
<path d="M150.387 304.77C150.387 304.248 150.755 303.613 151.212 303.345C151.668 303.078 152.036 303.295 152.036 303.816C152.036 304.337 151.668 304.973 151.212 305.24C150.755 305.507 150.387 305.291 150.387 304.77Z" fill="#FF5A72"/>
<path d="M159.126 275.384L89.5374 315.921C85.0986 318.503 77.8824 318.503 73.4182 315.921L3.38619 275.384C1.14141 274.087 0.0126824 272.37 0.0253647 270.666L0 278.321C0 280.025 1.11605 281.729 3.36083 283.039L73.3928 323.576C77.857 326.157 85.0733 326.157 89.5121 323.576L159.1 283.039C161.307 281.754 162.41 280.076 162.41 278.385L162.436 270.73C162.436 272.408 161.332 274.099 159.126 275.384Z" fill="url(#paint1_linear_85_580)"/>
<path d="M159.075 266.012C163.539 268.593 163.564 272.79 159.126 275.371L89.5374 315.909C85.0986 318.49 77.8823 318.49 73.4181 315.909L3.38615 275.384C-1.07804 272.802 -1.1034 268.606 3.33542 266.025L72.9235 225.487C77.3623 222.906 84.5786 222.906 89.0428 225.487L159.075 266.025V266.012Z" fill="#A4D4ED"/>
<path d="M159.126 254.835L89.5374 295.373C85.0986 297.954 77.8824 297.954 73.4182 295.373L3.38619 254.835C1.14141 253.538 0.0126824 251.822 0.0253647 250.118L0 257.772C0 259.476 1.11605 261.18 3.36083 262.49L73.3928 303.028C77.857 305.609 85.0733 305.609 89.5121 303.028L159.1 262.49C161.307 261.206 162.41 259.527 162.41 257.836L162.436 250.181C162.436 251.86 161.332 253.551 159.126 254.835Z" fill="url(#paint2_linear_85_580)"/>
<path d="M159.075 245.476C163.539 248.058 163.564 252.254 159.126 254.835L89.5374 295.373C85.0986 297.954 77.8823 297.954 73.4181 295.373L3.38615 254.835C-1.07804 252.254 -1.1034 248.058 3.33542 245.476L72.9235 204.939C77.3623 202.357 84.5786 202.357 89.0428 204.939L159.075 245.476Z" fill="#A4D4ED"/>
<path d="M159.126 234.299L89.5374 274.837C85.0986 277.418 77.8824 277.418 73.4182 274.837L3.38619 234.299C1.14141 233.002 0.0126824 231.286 0.0253647 229.582L0 237.237C0 238.941 1.11605 240.644 3.36083 241.954L73.3928 282.492C77.857 285.073 85.0733 285.073 89.5121 282.492L159.1 241.954C161.307 240.67 162.41 238.991 162.41 237.3L162.436 229.645C162.436 231.324 161.332 233.015 159.126 234.299Z" fill="url(#paint3_linear_85_580)"/>
<path d="M159.075 224.928C163.539 227.509 163.564 231.705 159.126 234.287L89.5374 274.824C85.0986 277.405 77.8823 277.405 73.4181 274.824L3.38615 234.299C-1.07804 231.718 -1.1034 227.522 3.33542 224.941L72.9235 184.403C77.3623 181.822 84.5786 181.822 89.0428 184.403L159.075 224.941V224.928Z" fill="#A4D4ED"/>
<path d="M45.0097 263.698C44.6292 263.469 44.3121 262.884 44.3121 262.363C44.3121 261.841 44.6292 261.613 45.0097 261.829C45.3901 262.058 45.7072 262.643 45.7072 263.164C45.7072 263.685 45.3901 263.914 45.0097 263.698Z" fill="#B5E9FE"/>
<path d="M51.9342 267.703C51.5538 267.475 51.2367 266.89 51.2367 266.368C51.2367 265.847 51.5538 265.618 51.9342 265.834C52.3147 266.063 52.6318 266.648 52.6318 267.169C52.6318 267.691 52.3147 267.92 51.9342 267.703Z" fill="#B5E9FE"/>
<path d="M58.8588 271.709C58.4783 271.48 58.1613 270.895 58.1613 270.374C58.1613 269.852 58.4783 269.623 58.8588 269.84C59.2393 270.069 59.5563 270.666 59.5563 271.175C59.5563 271.683 59.2393 271.925 58.8588 271.709Z" fill="#B5E9FE"/>
<path d="M65.7833 275.714C65.4029 275.485 65.0858 274.888 65.0858 274.379C65.0858 273.871 65.4029 273.629 65.7833 273.845C66.1638 274.074 66.4809 274.659 66.4809 275.18C66.4809 275.702 66.1638 275.93 65.7833 275.714Z" fill="#B5E9FE"/>
<path d="M120.825 260.214C120.825 259.693 121.193 259.057 121.649 258.79C122.106 258.523 122.474 258.739 122.474 259.26C122.474 259.782 122.106 260.417 121.649 260.684C121.193 260.951 120.825 260.735 120.825 260.214Z" fill="#FF5A72"/>
<path d="M129.106 255.42C129.106 254.899 129.474 254.263 129.931 253.996C130.387 253.729 130.755 253.945 130.755 254.466C130.755 254.988 130.387 255.624 129.931 255.891C129.474 256.158 129.106 255.941 129.106 255.42Z" fill="#FF5A72"/>
<path d="M137.781 250.397C137.781 249.876 138.149 249.24 138.605 248.973C139.062 248.706 139.43 248.922 139.43 249.444C139.43 249.965 139.062 250.601 138.605 250.868C138.149 251.135 137.781 250.919 137.781 250.397Z" fill="#FF5A72"/>
<path d="M146.05 245.616C146.05 245.095 146.418 244.459 146.874 244.192C147.331 243.925 147.699 244.141 147.699 244.663C147.699 245.184 147.331 245.82 146.874 246.087C146.418 246.354 146.05 246.138 146.05 245.616Z" fill="#FF5A72"/>
<path d="M45.0097 283.636C44.6292 283.407 44.3121 282.822 44.3121 282.301C44.3121 281.78 44.6292 281.551 45.0097 281.767C45.3901 281.996 45.7072 282.593 45.7072 283.102C45.7072 283.611 45.3901 283.852 45.0097 283.636Z" fill="#B5E9FE"/>
<path d="M51.9342 287.642C51.5538 287.413 51.2367 286.815 51.2367 286.306C51.2367 285.798 51.5538 285.556 51.9342 285.772C52.3147 286.001 52.6318 286.586 52.6318 287.108C52.6318 287.629 52.3147 287.858 51.9342 287.642Z" fill="#B5E9FE"/>
<path d="M58.8588 291.647C58.4783 291.418 58.1613 290.833 58.1613 290.312C58.1613 289.791 58.4783 289.562 58.8588 289.778C59.2393 290.007 59.5563 290.592 59.5563 291.113C59.5563 291.634 59.2393 291.863 58.8588 291.647Z" fill="#B5E9FE"/>
<path d="M65.7833 295.665C65.4029 295.436 65.0858 294.851 65.0858 294.33C65.0858 293.809 65.4029 293.58 65.7833 293.796C66.1638 294.025 66.4809 294.623 66.4809 295.131C66.4809 295.64 66.1638 295.881 65.7833 295.665Z" fill="#B5E9FE"/>
<path d="M328.397 400.862L258.809 441.4C254.37 443.981 247.154 443.981 242.69 441.4L172.658 400.862C170.413 399.565 169.284 397.848 169.297 396.145L169.271 403.799C169.271 405.503 170.387 407.207 172.632 408.517L242.664 449.055C247.128 451.636 254.345 451.636 258.783 449.055L328.372 408.517C330.578 407.233 331.682 405.554 331.682 403.863L331.707 396.208C331.707 397.887 330.604 399.578 328.397 400.862Z" fill="url(#paint4_linear_85_580)"/>
<path d="M328.346 391.503C332.81 394.085 332.836 398.281 328.397 400.862L258.809 441.4C254.37 443.981 247.154 443.981 242.689 441.4L172.658 400.862C168.193 398.281 168.168 394.085 172.607 391.503L242.195 350.966C246.634 348.384 253.85 348.384 258.314 350.966L328.346 391.503Z" fill="#A4D4ED"/>
<path d="M209.918 427.4C209.538 427.171 209.221 426.573 209.221 426.065C209.221 425.556 209.538 425.314 209.918 425.531C210.299 425.759 210.616 426.344 210.616 426.866C210.616 427.387 210.299 427.616 209.918 427.4Z" fill="#B5E9FE"/>
<path d="M216.83 431.418C216.45 431.189 216.133 430.604 216.133 430.083C216.133 429.561 216.45 429.333 216.83 429.549C217.211 429.778 217.528 430.362 217.528 430.884C217.528 431.405 217.211 431.634 216.83 431.418Z" fill="#B5E9FE"/>
<path d="M223.755 435.423C223.374 435.194 223.057 434.61 223.057 434.088C223.057 433.567 223.374 433.338 223.755 433.554C224.135 433.783 224.452 434.381 224.452 434.889C224.452 435.398 224.135 435.639 223.755 435.423Z" fill="#B5E9FE"/>
<path d="M230.679 439.429C230.299 439.2 229.982 438.602 229.982 438.094C229.982 437.585 230.299 437.343 230.679 437.56C231.06 437.776 231.377 438.373 231.377 438.895C231.377 439.416 231.06 439.645 230.679 439.429Z" fill="#B5E9FE"/>
<path d="M299.316 422.441C299.316 421.919 299.684 421.283 300.141 421.016C300.597 420.749 300.965 420.966 300.965 421.487C300.965 422.008 300.597 422.644 300.141 422.911C299.684 423.178 299.316 422.962 299.316 422.441Z" fill="#FF5A72"/>
<path d="M307.598 417.647C307.598 417.125 307.965 416.49 308.422 416.223C308.879 415.956 309.246 416.172 309.246 416.693C309.246 417.214 308.879 417.85 308.422 418.117C307.965 418.384 307.598 418.168 307.598 417.647Z" fill="#FF5A72"/>
<path d="M316.272 412.624C316.272 412.103 316.64 411.467 317.097 411.2C317.553 410.933 317.921 411.149 317.921 411.67C317.921 412.192 317.553 412.828 317.097 413.095C316.64 413.362 316.272 413.145 316.272 412.624Z" fill="#FF5A72"/>
<path d="M324.541 407.843C324.541 407.322 324.909 406.686 325.366 406.419C325.822 406.152 326.19 406.368 326.19 406.889C326.19 407.411 325.822 408.046 325.366 408.313C324.909 408.58 324.541 408.364 324.541 407.843Z" fill="#FF5A72"/>
<path d="M495.69 294.355L426.102 334.893C421.663 337.474 414.447 337.474 409.983 334.893L339.951 294.355C337.706 293.058 336.577 291.342 336.59 289.638L336.564 297.293C336.564 298.997 337.68 300.701 339.925 302.01L409.957 342.548C414.421 345.129 421.638 345.129 426.077 342.548L495.665 302.01C497.871 300.726 498.975 299.048 498.975 297.356L499 289.702C499 291.38 497.897 293.071 495.69 294.355Z" fill="url(#paint5_linear_85_580)"/>
<path d="M495.639 284.997C500.103 287.578 500.129 291.774 495.69 294.355L426.102 334.893C421.663 337.474 414.447 337.474 409.982 334.893L339.95 294.355C335.486 291.774 335.461 287.578 339.9 284.997L409.488 244.459C413.927 241.878 421.143 241.878 425.607 244.459L495.639 284.997Z" fill="#A4D4ED"/>
<path d="M464.187 317.587C464.187 317.066 464.555 316.43 465.011 316.163C465.468 315.896 465.836 316.112 465.836 316.633C465.836 317.155 465.468 317.79 465.011 318.058C464.555 318.325 464.187 318.108 464.187 317.587Z" fill="#FF5A72"/>
<path d="M472.469 312.793C472.469 312.272 472.836 311.636 473.293 311.369C473.749 311.102 474.117 311.318 474.117 311.84C474.117 312.361 473.749 312.997 473.293 313.264C472.836 313.531 472.469 313.315 472.469 312.793Z" fill="#FF5A72"/>
<path d="M481.143 307.771C481.143 307.249 481.511 306.613 481.968 306.346C482.424 306.079 482.792 306.296 482.792 306.817C482.792 307.338 482.424 307.974 481.968 308.241C481.511 308.508 481.143 308.292 481.143 307.771Z" fill="#FF5A72"/>
<path d="M489.412 302.977C489.412 302.455 489.78 301.82 490.236 301.553C490.693 301.286 491.061 301.502 491.061 302.023C491.061 302.544 490.693 303.18 490.236 303.447C489.78 303.714 489.412 303.498 489.412 302.977Z" fill="#FF5A72"/>
<path d="M495.69 273.82L426.102 314.357C421.663 316.939 414.447 316.939 409.983 314.357L339.951 273.82C337.706 272.523 336.577 270.806 336.59 269.102L336.564 276.757C336.564 278.461 337.68 280.165 339.925 281.475L409.957 322.012C414.421 324.593 421.638 324.593 426.077 322.012L495.665 281.475C497.871 280.19 498.975 278.512 498.975 276.821L499 269.166C499 270.844 497.897 272.535 495.69 273.82Z" fill="url(#paint6_linear_85_580)"/>
<path d="M495.639 264.448C500.103 267.029 500.129 271.226 495.69 273.807L426.102 314.345C421.663 316.926 414.447 316.926 409.982 314.345L339.95 273.807C335.486 271.226 335.461 267.029 339.9 264.448L409.488 223.911C413.927 221.329 421.143 221.329 425.607 223.911L495.639 264.448Z" fill="#A4D4ED"/>
<path d="M495.69 253.271L426.102 293.809C421.663 296.39 414.447 296.39 409.983 293.809L339.951 253.271C337.706 251.974 336.577 250.257 336.59 248.554L336.564 256.208C336.564 257.912 337.68 259.616 339.925 260.926L409.957 301.464C414.421 304.045 421.638 304.045 426.077 301.464L495.665 260.926C497.871 259.642 498.975 257.963 498.975 256.272L499 248.617C499 250.296 497.897 251.987 495.69 253.271Z" fill="url(#paint7_linear_85_580)"/>
<path d="M495.639 243.912C500.103 246.494 500.129 250.69 495.69 253.271L426.102 293.809C421.663 296.39 414.447 296.39 409.982 293.809L339.95 253.271C335.486 250.69 335.461 246.494 339.9 243.912L409.488 203.375C413.927 200.793 421.143 200.793 425.607 203.375L495.639 243.912Z" fill="#A4D4ED"/>
<path d="M432.57 294.254C432.57 293.732 432.938 293.097 433.394 292.83C433.851 292.563 434.219 292.779 434.219 293.3C434.219 293.821 433.851 294.457 433.394 294.724C432.938 294.991 432.57 294.775 432.57 294.254Z" fill="#FF5A72"/>
<path d="M440.839 289.473C440.839 288.951 441.207 288.316 441.663 288.049C442.12 287.782 442.488 287.998 442.488 288.519C442.488 289.04 442.12 289.676 441.663 289.943C441.207 290.21 440.839 289.994 440.839 289.473Z" fill="#FF5A72"/>
<path d="M449.513 284.45C449.513 283.929 449.881 283.293 450.338 283.026C450.794 282.759 451.162 282.975 451.162 283.496C451.162 284.018 450.794 284.653 450.338 284.92C449.881 285.187 449.513 284.971 449.513 284.45Z" fill="#FF5A72"/>
<path d="M457.795 279.656C457.795 279.135 458.163 278.499 458.62 278.232C459.076 277.965 459.444 278.181 459.444 278.702C459.444 279.224 459.076 279.86 458.62 280.127C458.163 280.394 457.795 280.177 457.795 279.656Z" fill="#FF5A72"/>
<path d="M495.69 253.271L426.102 293.809C421.663 296.39 414.447 296.39 409.983 293.809L339.951 253.271C337.706 251.974 336.577 250.257 336.59 248.554L336.564 256.208C336.564 257.912 337.68 259.616 339.925 260.926L409.957 301.464C414.421 304.045 421.638 304.045 426.077 301.464L495.665 260.926C497.871 259.642 498.975 257.963 498.975 256.272L499 248.617C499 250.296 497.897 251.987 495.69 253.271Z" fill="url(#paint8_linear_85_580)"/>
<path d="M495.639 243.912C500.103 246.494 500.129 250.69 495.69 253.271L426.102 293.809C421.663 296.39 414.447 296.39 409.982 293.809L339.95 253.271C335.486 250.69 335.461 246.494 339.9 243.912L409.488 203.375C413.927 200.793 421.143 200.793 425.607 203.375L495.639 243.912Z" fill="#A4D4ED"/>
<path opacity="0.72" d="M433.268 247.663C434.155 248.172 434.155 249.011 433.268 249.52L419.431 257.582C418.543 258.09 417.11 258.09 416.222 257.582L402.297 249.52C401.409 249.011 401.409 248.172 402.297 247.663L416.134 239.602C417.021 239.093 418.454 239.093 419.342 239.602L433.268 247.663Z" fill="url(#paint9_linear_85_580)"/>
<path d="M432.57 294.254C432.57 293.732 432.938 293.097 433.394 292.83C433.851 292.563 434.219 292.779 434.219 293.3C434.219 293.821 433.851 294.457 433.394 294.724C432.938 294.991 432.57 294.775 432.57 294.254Z" fill="#FF5A72"/>
<path d="M440.839 289.473C440.839 288.951 441.207 288.316 441.663 288.049C442.12 287.782 442.488 287.998 442.488 288.519C442.488 289.04 442.12 289.676 441.663 289.943C441.207 290.21 440.839 289.994 440.839 289.473Z" fill="#FF5A72"/>
<path d="M449.513 284.45C449.513 283.929 449.881 283.293 450.338 283.026C450.794 282.759 451.162 282.975 451.162 283.496C451.162 284.018 450.794 284.653 450.338 284.92C449.881 285.187 449.513 284.971 449.513 284.45Z" fill="#FF5A72"/>
<path d="M457.795 279.656C457.795 279.135 458.163 278.499 458.62 278.232C459.076 277.965 459.444 278.181 459.444 278.702C459.444 279.224 459.076 279.86 458.62 280.127C458.163 280.394 457.795 280.177 457.795 279.656Z" fill="#FF5A72"/>
<path d="M374.409 278.334C374.028 278.105 373.711 277.52 373.711 276.999C373.711 276.477 374.028 276.248 374.409 276.465C374.789 276.693 375.106 277.278 375.106 277.8C375.106 278.321 374.789 278.55 374.409 278.334Z" fill="#B5E9FE"/>
<path d="M381.333 282.339C380.953 282.11 380.636 281.525 380.636 281.004C380.636 280.483 380.953 280.254 381.333 280.47C381.714 280.699 382.031 281.296 382.031 281.805C382.031 282.314 381.714 282.555 381.333 282.339Z" fill="#B5E9FE"/>
<path d="M388.258 286.345C387.877 286.116 387.56 285.518 387.56 285.009C387.56 284.501 387.877 284.259 388.258 284.475C388.638 284.704 388.955 285.302 388.955 285.811C388.955 286.319 388.638 286.561 388.258 286.345Z" fill="#B5E9FE"/>
<path d="M395.182 290.363C394.802 290.134 394.485 289.536 394.485 289.028C394.485 288.519 394.802 288.277 395.182 288.494C395.563 288.722 395.88 289.307 395.88 289.829C395.88 290.35 395.563 290.579 395.182 290.363Z" fill="#B5E9FE"/>
<path d="M374.409 298.323C374.028 298.094 373.711 297.509 373.711 296.988C373.711 296.466 374.028 296.237 374.409 296.454C374.789 296.682 375.106 297.267 375.106 297.789C375.106 298.31 374.789 298.539 374.409 298.323Z" fill="#B5E9FE"/>
<path d="M381.333 302.341C380.953 302.112 380.636 301.527 380.636 301.006C380.636 300.484 380.953 300.256 381.333 300.472C381.714 300.701 382.031 301.298 382.031 301.807C382.031 302.316 381.714 302.557 381.333 302.341Z" fill="#B5E9FE"/>
<path d="M388.258 306.346C387.877 306.118 387.56 305.52 387.56 305.011C387.56 304.503 387.877 304.261 388.258 304.477C388.638 304.706 388.955 305.291 388.955 305.812C388.955 306.334 388.638 306.563 388.258 306.346Z" fill="#B5E9FE"/>
<path d="M395.182 310.352C394.802 310.123 394.485 309.538 394.485 309.017C394.485 308.495 394.802 308.266 395.182 308.483C395.563 308.712 395.88 309.296 395.88 309.818C395.88 310.339 395.563 310.568 395.182 310.352Z" fill="#B5E9FE"/>
<path d="M333.33 196.737C338.086 199.484 338.112 203.947 333.381 206.706L259.341 249.851C254.624 252.597 246.938 252.597 242.182 249.851L167.661 206.706C162.905 203.96 162.879 199.496 167.61 196.737L241.65 153.593C246.367 150.846 254.053 150.846 258.809 153.593L333.33 196.737Z" fill="#1A1885"/>
<path d="M328.397 195.961L258.809 236.499C254.37 239.08 247.154 239.08 242.69 236.499L172.658 195.961C170.413 194.664 169.284 192.948 169.297 191.244L169.271 198.899C169.271 200.603 170.387 202.307 172.632 203.616L242.664 244.154C247.128 246.735 254.345 246.735 258.783 244.154L328.372 203.616C330.578 202.332 331.682 200.654 331.682 198.962L331.707 191.308C331.707 192.986 330.604 194.677 328.397 195.961Z" fill="url(#paint10_linear_85_580)"/>
<path d="M328.346 186.59C332.81 189.171 332.836 193.367 328.397 195.949L258.809 236.486C254.37 239.068 247.154 239.068 242.689 236.486L172.658 195.949C168.193 193.367 168.168 189.171 172.607 186.59L242.195 146.052C246.634 143.471 253.85 143.471 258.314 146.052L328.346 186.59Z" fill="#A4D4ED"/>
<path d="M328.397 175.413L258.809 215.951C254.37 218.532 247.154 218.532 242.69 215.951L172.658 175.413C170.413 174.116 169.284 172.399 169.297 170.695L169.271 178.35C169.271 180.054 170.387 181.758 172.632 183.068L242.664 223.605C247.128 226.187 254.345 226.187 258.783 223.605L328.372 183.068C330.578 181.783 331.682 180.105 331.682 178.414L331.707 170.759C331.707 172.437 330.604 174.129 328.397 175.413Z" fill="url(#paint11_linear_85_580)"/>
<path d="M328.346 166.054C332.81 168.635 332.836 172.832 328.397 175.413L258.809 215.951C254.37 218.532 247.154 218.532 242.689 215.951L172.658 175.413C168.193 172.832 168.168 168.635 172.607 166.054L242.195 125.517C246.634 122.935 253.85 122.935 258.314 125.517L328.346 166.054Z" fill="#A4D4ED"/>
<path d="M277.667 290.846C292.785 299.404 292.861 313.276 277.845 321.847C262.829 330.404 238.416 330.404 223.298 321.847C208.181 313.289 208.105 299.416 223.121 290.846C238.136 282.288 262.55 282.288 277.667 290.846Z" fill="#1A1885"/>
<path d="M274.573 281.042C287.966 288.633 288.042 300.917 274.725 308.508C261.421 316.099 239.785 316.099 226.393 308.508C213 300.917 212.924 288.633 226.241 281.042C239.544 273.451 261.18 273.451 274.573 281.042Z" fill="#FFB06D"/>
<path d="M280.863 277.062L280.787 302.977C280.8 298.437 277.82 293.885 271.846 290.426C259.963 283.547 240.711 283.547 228.917 290.426C223.057 293.847 220.115 298.323 220.102 302.811L220.178 276.897C220.178 272.408 223.121 267.932 228.993 264.512C240.787 257.645 260.039 257.645 271.922 264.512C277.896 267.97 280.876 272.523 280.863 277.062Z" fill="url(#paint12_linear_85_580)"/>
<path d="M284.668 277.075L284.592 302.989C284.579 308.038 281.282 313.073 274.687 316.926C261.409 324.657 239.734 324.657 226.38 316.926C219.658 313.035 216.297 307.91 216.31 302.799L216.386 276.884C216.374 281.996 219.734 287.12 226.456 291.011C239.811 298.742 261.497 298.742 274.763 291.011C281.358 287.171 284.655 282.123 284.668 277.075Z" fill="url(#paint13_linear_85_580)"/>
<path d="M274.598 262.948C287.953 270.679 288.029 283.267 274.75 291.011C261.472 298.742 239.798 298.742 226.443 291.011C213.089 283.28 213.013 270.692 226.291 262.948C239.57 255.217 261.244 255.217 274.598 262.948ZM229.119 289.435C240.99 296.301 260.242 296.301 272.049 289.435C283.844 282.568 283.78 271.378 271.91 264.512C260.026 257.633 240.774 257.633 228.98 264.512C217.172 271.391 217.236 282.568 229.119 289.447" fill="#FFD0A8"/>
<path opacity="0.72" d="M276.513 163.308L276.222 265.885C276.222 269.7 273.71 273.514 268.701 276.439C258.631 282.314 242.245 282.314 232.1 276.439C227.001 273.489 224.452 269.611 224.452 265.732L224.744 163.155C224.744 167.021 227.28 170.899 232.379 173.862C242.525 179.736 258.91 179.736 268.98 173.862C273.977 170.95 276.488 167.135 276.501 163.308H276.513Z" fill="url(#paint14_linear_85_580)"/>
<path opacity="0.4" d="M268.866 152.601C279.012 158.476 279.062 167.987 268.993 173.849C258.923 179.724 242.537 179.724 232.391 173.849C222.245 167.974 222.195 158.463 232.277 152.588C242.347 146.726 258.733 146.726 268.879 152.588L268.866 152.601Z" fill="url(#paint15_linear_85_580)"/>
<path opacity="0.4" d="M268.866 141.081C279.012 146.955 279.062 156.467 268.993 162.328C258.923 168.203 242.537 168.203 232.391 162.328C222.245 156.454 222.195 146.943 232.277 141.068C242.347 135.206 258.733 135.206 268.879 141.068L268.866 141.081Z" fill="url(#paint16_linear_85_580)"/>
<path opacity="0.4" d="M268.866 4.39964C279.012 10.2743 279.062 19.7856 268.993 25.6476C258.923 31.5222 242.537 31.5222 232.391 25.6476C222.245 19.7729 222.195 10.2616 232.277 4.38693C242.347 -1.475 258.733 -1.475 268.879 4.38693L268.866 4.39964Z" fill="url(#paint17_linear_85_580)"/>
<path opacity="0.4" d="M259.164 38.1343C263.907 40.8809 263.933 45.3314 259.227 48.078C254.522 50.8246 246.849 50.8246 242.119 48.078C237.388 45.3314 237.35 40.8809 242.068 38.1343C246.773 35.3878 254.433 35.3878 259.177 38.1343H259.164Z" fill="url(#paint18_linear_85_580)"/>
<path d="M250.299 129.802L263.159 122.312L263.121 137.355L250.261 144.844L250.299 129.802Z" fill="url(#paint19_linear_85_580)"/>
<path d="M237.249 122.249L250.108 114.759L263.159 122.312L250.299 129.802L237.249 122.249Z" fill="url(#paint20_linear_85_580)"/>
<path d="M250.299 129.802L250.261 144.844L237.198 137.291L237.249 122.249L250.299 129.802Z" fill="url(#paint21_linear_85_580)"/>
<path d="M333.102 38.732L345.962 31.2424L345.924 61.3405L333.051 68.83L333.102 38.732Z" fill="url(#paint22_linear_85_580)"/>
<path d="M320.052 31.1789L332.912 23.6893L345.962 31.2425L333.102 38.732L320.052 31.1789Z" fill="url(#paint23_linear_85_580)"/>
<path d="M333.102 38.732L333.051 68.83L320.001 61.2769L320.052 31.1789L333.102 38.732Z" fill="url(#paint24_linear_85_580)"/>
<path d="M297.972 74.1833L326.558 57.5258" stroke="#FF5A72" stroke-width="2" stroke-linecap="round" stroke-linejoin="round"/>
<path d="M291.504 78.1506L304.376 70.6611L304.326 85.7037L291.466 93.1933L291.504 78.1506Z" fill="url(#paint25_linear_85_580)"/>
<path d="M278.454 70.5975L291.314 63.108L304.377 70.6611L291.504 78.1506L278.454 70.5975Z" fill="url(#paint26_linear_85_580)"/>
<path d="M291.504 78.1507L291.466 93.1933L278.416 85.6402L278.454 70.5975L291.504 78.1507Z" fill="url(#paint27_linear_85_580)"/>
<path d="M255.727 98.8645L284.313 82.2069" stroke="#FF5A72" stroke-width="2" stroke-linecap="round" stroke-linejoin="round"/>
<path d="M250.591 100.581L263.45 93.0916L263.412 108.134L250.552 115.624L250.591 100.581Z" fill="url(#paint28_linear_85_580)"/>
<path d="M237.541 93.028L250.4 85.5257L263.451 93.0915L250.591 100.581L237.541 93.028Z" fill="url(#paint29_linear_85_580)"/>
<path d="M250.591 100.581L250.553 115.624L237.502 108.071L237.54 93.028L250.591 100.581Z" fill="url(#paint30_linear_85_580)"/>
<path d="M250.793 93.0915V83.9235" stroke="#FF5A72" stroke-width="2" stroke-linecap="round" stroke-linejoin="round"/>
<path d="M250.907 71.1824L263.767 63.6929L263.729 78.7355L250.869 86.2251L250.907 71.1824Z" fill="url(#paint31_linear_85_580)"/>
<path d="M237.857 63.6293L250.717 56.1398L263.767 63.6929L250.908 71.1824L237.857 63.6293Z" fill="url(#paint32_linear_85_580)"/>
<path d="M250.908 71.1825L250.869 86.2251L237.819 78.672L237.857 63.6293L250.908 71.1825Z" fill="url(#paint33_linear_85_580)"/>
<path d="M318.758 155.627L414.561 100.161C415.487 99.6274 416.324 99.5766 416.932 99.9199L418.721 100.963C418.112 100.607 417.275 100.657 416.349 101.204L320.547 156.67C318.695 157.738 317.211 160.319 317.224 162.443L317.414 229.785C317.414 230.841 317.794 231.578 318.391 231.934L316.602 230.891C316.006 230.548 315.626 229.798 315.626 228.743L315.436 161.4C315.436 159.277 316.919 156.695 318.758 155.627Z" fill="white"/>
<path d="M320.546 156.67C318.695 157.738 317.211 160.319 317.224 162.443L317.414 229.785C317.414 231.909 318.91 232.761 320.762 231.693L416.565 176.239C418.416 175.171 419.9 172.577 419.887 170.467L419.697 103.124C419.697 101.001 418.201 100.149 416.349 101.217L320.546 156.67Z" fill="url(#paint34_linear_85_580)"/>
<path d="M335.702 161.019C334.459 161.744 333.445 163.498 333.445 164.935V177.702L337.959 175.082V162.316C337.959 160.866 336.945 160.281 335.702 161.006V161.019Z" fill="#FF5A72"/>
<path d="M333.445 187.302C333.445 188.752 334.459 189.337 335.702 188.612C336.945 187.887 337.959 186.132 337.959 184.695V175.095L333.445 177.714V187.315V187.302Z" fill="#CF2D52"/>
<path d="M343.92 158.12C342.677 158.844 341.663 160.599 341.663 162.036V172.946L346.178 169.513V158.603C346.178 157.98 345.163 157.395 343.92 158.107V158.12Z" fill="#1A1885"/>
<path d="M341.663 175.629C341.663 177.079 342.677 177.664 343.92 176.939C345.163 176.214 346.178 174.459 346.178 173.022V170.339L341.663 172.959V175.642V175.629Z" fill="#1A1885"/>
<path d="M349.868 175.26C349.868 176.71 350.883 177.295 352.126 176.57C353.368 175.845 354.383 174.091 354.383 172.654V165.584L349.868 168.203V175.273V175.26Z" fill="#CF2D52"/>
<path d="M352.126 148.977C350.883 149.702 349.868 151.457 349.868 152.893V168.19L354.383 165.571V150.274C354.383 148.824 353.368 148.24 352.126 148.964V148.977Z" fill="#FF5A72"/>
<path d="M358.086 177.918C358.086 179.368 359.101 180.766 360.344 180.041C361.587 179.317 362.601 177.562 362.601 176.125V160.828L358.086 163.447V177.931V177.918Z" fill="#1A1885"/>
<path d="M360.344 152.448C359.101 153.173 358.086 154.928 358.086 156.365V163.435L362.601 160.815V152.932C362.601 151.482 361.587 151.724 360.344 152.436V152.448Z" fill="#1A1885"/>
<path d="M366.292 170.136C366.292 171.586 367.307 172.17 368.549 171.446C369.792 170.721 370.807 168.966 370.807 167.529V156.085L366.292 158.705V170.149V170.136Z" fill="#CF2D52"/>
<path d="M368.549 143.853C367.307 144.577 366.292 146.332 366.292 147.769V158.679L370.807 156.06V145.15C370.807 143.7 369.792 143.115 368.549 143.84V143.853Z" fill="#FF5A72"/>
<path d="M374.497 162.265C374.497 163.714 375.512 164.299 376.755 163.575C377.998 162.85 379.012 160.281 379.012 158.844V151.329L374.497 153.949V162.278V162.265Z" fill="#1A1885"/>
<path d="M376.755 135.982C375.512 136.706 374.497 138.461 374.497 139.084V153.11L379.012 151.317V137.291C379.012 135.842 377.998 135.257 376.755 135.982Z" fill="#1A1885"/>
<path d="M382.716 152.741C382.716 154.178 383.73 154.775 384.973 154.051C386.216 153.326 387.23 151.571 387.23 150.134V146.574L382.716 149.193V152.754V152.741Z" fill="#CF2D52"/>
<path d="M384.973 127.933C383.73 128.657 382.716 130.412 382.716 131.849V149.18L387.23 146.561V129.23C387.23 127.78 386.216 127.195 384.973 127.92V127.933Z" fill="#FF5A72"/>
<path d="M393.178 126.483C391.935 127.208 390.921 128.963 390.921 130.399V144.425L395.436 140.992V126.966C395.436 126.343 394.421 125.758 393.178 126.47V126.483Z" fill="#1A1885"/>
<path d="M390.921 152.766C390.921 154.216 391.935 154.801 393.178 154.076C394.421 153.351 395.436 150.783 395.436 149.346V141.831L390.921 144.45V152.779V152.766Z" fill="#1A1885"/>
<path d="M403.654 129.993C403.654 128.543 402.639 127.958 401.397 128.683C400.154 129.408 399.139 131.162 399.139 132.599V139.669L403.654 137.05V129.98V129.993Z" fill="#FF5A72"/>
<path d="M399.139 139.682V146.752C399.139 148.201 400.154 148.786 401.397 148.061C402.639 147.337 403.654 145.582 403.654 144.145V137.075L399.139 139.695V139.682Z" fill="#CF2D52"/>
<path d="M407.51 135.994L329.589 181.11V179.304L407.51 134.189V135.994Z" fill="url(#paint35_linear_85_580)"/>
<path d="M329.589 208.296L335.702 200.908L354.383 192.02L361.447 182.941L384.973 177.931L401.397 159.811" stroke="#1A1885" stroke-width="0.68" stroke-miterlimit="10"/>
<path d="M360.344 183.576C360.344 182.902 360.813 182.076 361.409 181.733C361.992 181.389 362.474 181.669 362.474 182.343C362.474 183.017 362.005 183.843 361.409 184.187C360.826 184.53 360.344 184.25 360.344 183.576Z" fill="#1A1885"/>
<path d="M329.589 215.213L341.663 195.618L346.178 195.16L352.126 198.174L358.086 189.184L369.729 185.674L382.715 171.853L391.986 175.705L395.436 168.483L407.51 156.263" stroke="#FF5A72" stroke-width="0.68" stroke-miterlimit="10"/>
<path d="M340.597 196.241C340.597 195.567 341.067 194.741 341.663 194.397C342.246 194.054 342.728 194.334 342.728 195.008C342.728 195.682 342.246 196.508 341.663 196.852C341.079 197.195 340.597 196.915 340.597 196.241Z" fill="#1A1885"/>
<path d="M381.65 172.476C381.65 171.802 382.132 170.975 382.715 170.632C383.299 170.288 383.781 170.568 383.781 171.242C383.781 171.916 383.312 172.743 382.715 173.086C382.119 173.429 381.65 173.15 381.65 172.476Z" fill="#1A1885"/>
<path d="M390.921 176.328C390.921 175.655 391.39 174.828 391.986 174.485C392.57 174.141 393.052 174.421 393.052 175.095C393.052 175.769 392.57 176.595 391.986 176.939C391.403 177.282 390.921 177.002 390.921 176.328Z" fill="#1A1885"/>
<path d="M351.06 198.784C351.06 198.11 351.53 197.284 352.126 196.941C352.722 196.597 353.191 196.877 353.191 197.551C353.191 198.225 352.709 199.051 352.126 199.395C351.542 199.738 351.06 199.458 351.06 198.784Z" fill="#1A1885"/>
<path d="M179.392 141.398L83.5895 85.9326C82.6637 85.3986 81.8267 85.3477 81.2179 85.691L79.4297 86.7337C80.0384 86.3777 80.8755 86.4286 81.8013 86.9626L177.604 142.428C179.455 143.497 180.939 146.078 180.927 148.201L180.736 215.544C180.736 216.599 180.356 217.337 179.76 217.693L181.548 216.65C182.144 216.307 182.525 215.556 182.525 214.501L182.715 147.159C182.715 145.035 181.231 142.454 179.392 141.386V141.398Z" fill="white"/>
<path d="M177.604 142.441C179.455 143.509 180.939 146.091 180.927 148.214L180.736 215.556C180.736 217.68 179.24 218.532 177.388 217.464L81.5857 162.011C79.7341 160.942 78.2502 158.348 78.2629 156.238L78.4531 88.8954C78.4531 86.7719 79.9497 85.9199 81.8013 86.988L177.604 142.441Z" fill="url(#paint36_linear_85_580)"/>
<path d="M158.415 162.15C154.154 161.209 150.413 162.036 146.291 161.616C142.169 161.197 137.172 159.099 133.444 154.114C129.817 149.282 127.889 142.428 123.666 138.881C118.72 134.735 114.522 138.245 109.5 136.121C106.963 135.041 104.427 132.599 102.004 130.209C99.5946 127.805 95.6377 122.732 93.0759 121.002C92.5179 120.621 91.9852 120.329 91.4779 120.074V154.241L167.699 198.365V166.715C164.592 164.427 161.408 162.824 158.403 162.163L158.415 162.15Z" fill="url(#paint37_linear_85_580)"/>
<path d="M152.417 172.565C147.356 170.581 143.133 172.272 138.149 170.734C131.947 168.813 125.543 162.227 119.874 155.589C114.205 148.952 108.574 141.704 102.245 137.266C98.542 134.672 94.5217 133.426 91.5033 134.074V154.229L167.724 198.352V185.102C162.765 180.13 157.629 174.612 152.429 172.565H152.417Z" fill="url(#paint38_linear_85_580)"/>
<path d="M101.319 112.648V159.925" stroke="#FF5A72" stroke-width="0.34" stroke-linecap="round" stroke-linejoin="round"/>
<path d="M112.467 119.108V166.372" stroke="#FF5A72" stroke-width="0.34" stroke-linecap="round" stroke-linejoin="round"/>
<path d="M123.628 125.567V172.832" stroke="#FF5A72" stroke-width="0.34" stroke-linecap="round" stroke-linejoin="round"/>
<path d="M134.776 132.014V179.291" stroke="#FF5A72" stroke-width="0.34" stroke-linecap="round" stroke-linejoin="round"/>
<path d="M145.936 138.474V185.751" stroke="#FF5A72" stroke-width="0.34" stroke-linecap="round" stroke-linejoin="round"/>
<path d="M157.084 144.933V192.21" stroke="#FF5A72" stroke-width="0.34" stroke-linecap="round" stroke-linejoin="round"/>
<path d="M68.8271 166.08V169.716" stroke="#FAB08B" stroke-width="2.98" stroke-linecap="round" stroke-linejoin="round"/>
<path d="M65.5298 171.115C65.5298 171.115 59.7847 175.438 58.9984 180.092C58.3008 184.199 60.2286 186.73 64.6293 191.46" stroke="white" stroke-width="2.98" stroke-linecap="round" stroke-linejoin="round"/>
<path d="M69.8292 194.83C69.4487 195.402 68.7004 195.593 68.079 195.3L65.644 194.143C64.6294 193.66 64.287 192.388 64.9211 191.46C65.5552 190.532 66.8615 190.392 67.6731 191.168L69.6262 193.024C70.1208 193.495 70.2096 194.258 69.8165 194.83H69.8292Z" fill="#FAB08B"/>
<path d="M70.3364 240.149C70.3364 240.149 71.6173 241.42 72.4543 241.204C73.7099 240.886 78.4911 239.525 80.0511 237.605C81.611 235.673 79.8608 235.113 78.4404 235.456C74.4455 236.436 73.0758 236.995 71.6807 237.376C70.3744 237.733 69.791 239.347 70.3237 240.149H70.3364Z" fill="#070D30"/>
<path d="M63.5386 236.359C63.5386 236.359 64.8196 237.631 65.6566 237.415C66.9122 237.097 71.6934 235.736 73.2533 233.816C74.8133 231.896 73.0631 231.324 71.6427 231.667C67.6477 232.646 66.278 233.206 64.883 233.587C63.5767 233.943 62.9933 235.558 63.526 236.359H63.5386Z" fill="#070D30"/>
<path d="M72.2894 237.898L73.3801 231.108" stroke="#D6E9F4" stroke-width="2.09" stroke-linecap="round" stroke-linejoin="round"/>
<path d="M65.72 233.854L67.3433 227.166" stroke="#D6E9F4" stroke-width="2.09" stroke-linecap="round" stroke-linejoin="round"/>
<path d="M63.8177 193.469C66.4936 193.431 72.2641 194.639 75.3079 195.059C76.4112 197.169 76.8298 199.433 76.3351 201.633C77.299 206.846 77.2229 210.165 77.2736 215.887C77.3117 221.609 76.4112 229.238 75.2445 235.215C75.0289 236.334 74.4582 236.601 73.5323 236.626C73.1646 236.639 72.5938 236.55 72.2641 236.461C71.4271 236.232 70.7803 235.749 70.9959 234.693C72.188 228.921 73.2533 221.393 73.0504 215.925C72.8475 210.457 72.5938 207.685 71.4524 202.828C70.7295 202.65 70.0193 202.421 69.2711 202.09C69.9052 206.223 69.753 208.029 69.9179 212.746C70.0827 217.464 70.0827 226.568 68.8526 231.731C68.5735 232.926 67.9141 233.384 66.8487 233.485C66.6712 233.498 66.4175 233.485 66.2653 233.447C64.7435 232.939 64.5279 231.705 64.7435 230.51C65.7073 225.246 65.9863 218.023 65.7327 212.937C65.479 207.863 61.37 193.495 63.843 193.469H63.8177Z" fill="#1A1885"/>
<path d="M61.89 193.94C61.8646 195.059 62.41 196.114 63.3485 196.737C65.5298 198.212 69.157 200.132 71.1608 200.412C76.0055 201.099 76.3986 197.92 76.3986 197.92C76.3986 197.92 76.2591 178.884 75.5743 174.942C75.2065 172.844 73.5831 171.776 71.871 170.645C71.6554 170.505 71.4525 170.365 71.2496 170.25C69.956 169.449 68.4721 168.966 66.9629 168.979C66.5571 168.979 66.1893 169.017 65.8469 169.093C64.1348 169.411 63.3865 170.441 62.8158 171.28C62.4607 171.802 62.2578 172.412 62.2451 173.048L61.8773 193.94H61.89Z" fill="#FF5A72"/>
<path d="M75.1811 160.472C76.2845 163.625 75.3079 167.237 72.8729 168.089C72.5178 168.216 72.15 168.279 71.7696 168.267C70.0321 168.267 68.2185 166.995 67.0644 165.126C66.7727 164.643 66.5191 164.121 66.3288 163.562C66.3035 163.486 66.2781 163.409 66.2527 163.333C66.202 163.168 66.1513 163.002 66.1132 162.837C65.6313 160.853 66.0625 159.048 67.1278 157.853C67.4702 157.471 67.8761 157.153 68.3326 156.912C68.5102 156.823 68.7004 156.734 68.8907 156.67C70.7803 156.009 72.8476 156.746 74.1919 158.577C74.585 159.111 74.9275 159.747 75.1684 160.459L75.1811 160.472Z" fill="#FAB08B"/>
<path d="M65.8468 158.361C67.7999 152.843 72.987 155.246 74.2933 157.891C74.547 158.399 74.3187 158.806 73.8114 159.073C73.6845 159.607 73.4436 160.243 72.9997 160.485C72.15 160.955 74.065 162.138 73.5324 162.672C72.9997 163.206 72.3529 162.074 71.6807 162.672C70.793 163.46 72.8475 164.681 71.8076 165.215C70.7676 165.762 69.9686 168.152 67.5336 167.631C65.0986 167.11 64.4137 163.982 64.1855 162.036C63.9572 160.091 65.1366 158.768 65.8595 158.348L65.8468 158.361Z" fill="#070D30"/>
<path d="M73.5196 163.282C73.824 164.045 73.6211 164.935 73.0377 165.164C72.4543 165.406 71.6934 164.884 71.389 164.134C71.0846 163.384 71.351 162.659 71.9344 162.43C72.5177 162.189 73.2026 162.532 73.507 163.282H73.5196Z" fill="#FAB08B"/>
<path d="M73.9382 175.731C73.9382 175.731 79.7341 179.978 84.4139 179.38C88.5356 178.846 90.3872 176.265 93.6213 170.67" stroke="white" stroke-width="2.98" stroke-linecap="round" stroke-linejoin="round"/>
<path d="M95.308 164.681C95.9548 164.884 96.3734 165.533 96.2719 166.22L95.8787 168.89C95.7139 170.009 94.5978 170.708 93.5325 170.365C92.4672 170.034 91.9472 168.814 92.4418 167.809L93.6466 165.393C93.951 164.783 94.6612 164.477 95.308 164.681Z" fill="#FAB08B"/>
<path d="M439.241 159.862V163.498" stroke="#FAB08B" stroke-width="2.98" stroke-linecap="round" stroke-linejoin="round"/>
<path d="M442.538 164.884C442.538 164.884 448.283 169.208 449.07 173.862C449.767 177.969 447.84 180.499 443.439 185.229" stroke="white" stroke-width="2.98" stroke-linecap="round" stroke-linejoin="round"/>
<path d="M438.239 188.612C438.619 189.184 439.368 189.375 439.989 189.082L442.424 187.925C443.439 187.442 443.781 186.17 443.147 185.242C442.513 184.314 441.207 184.174 440.395 184.95L438.442 186.806C437.947 187.277 437.858 188.04 438.252 188.612H438.239Z" fill="#FAB08B"/>
<path d="M437.732 233.918C437.732 233.918 436.451 235.189 435.614 234.973C434.358 234.655 429.577 233.295 428.017 231.375C426.457 229.442 428.207 228.882 429.628 229.226C433.623 230.205 434.992 230.764 436.387 231.146C437.694 231.502 438.277 233.117 437.744 233.918H437.732Z" fill="#070D30"/>
<path d="M444.529 230.141C444.529 230.141 443.248 231.413 442.411 231.197C441.156 230.879 436.375 229.518 434.815 227.598C433.255 225.665 435.005 225.106 436.425 225.449C440.42 226.428 441.79 226.988 443.185 227.369C444.491 227.725 445.075 229.34 444.542 230.141H444.529Z" fill="#070D30"/>
<path d="M435.778 231.68L434.688 224.89" stroke="#D6E9F4" stroke-width="2.09" stroke-linecap="round" stroke-linejoin="round"/>
<path d="M442.348 227.636L440.725 220.948" stroke="#D6E9F4" stroke-width="2.09" stroke-linecap="round" stroke-linejoin="round"/>
<path d="M444.25 187.251C441.574 187.213 435.804 188.421 432.76 188.841C431.644 190.951 431.238 193.215 431.733 195.415C430.769 200.628 430.845 203.947 430.794 209.669C430.756 215.391 431.657 223.02 432.824 228.997C433.039 230.116 433.623 230.383 434.536 230.408C434.903 230.421 435.474 230.332 435.804 230.243C436.641 230.014 437.288 229.531 437.072 228.475C435.88 222.703 434.815 215.175 435.018 209.707C435.221 204.239 435.474 201.467 436.616 196.61C437.338 196.432 438.049 196.203 438.797 195.872C438.163 200.005 438.315 201.811 438.15 206.528C437.985 211.246 437.985 220.35 439.215 225.513C439.494 226.708 440.154 227.166 441.219 227.267C441.397 227.28 441.65 227.267 441.803 227.229C443.325 226.721 443.54 225.487 443.325 224.292C442.361 219.028 442.082 211.805 442.335 206.719C442.589 201.645 446.698 187.277 444.225 187.251H444.25Z" fill="#1A1885"/>
<path d="M446.178 187.709C446.203 188.828 445.658 189.883 444.72 190.506C442.538 191.981 438.911 193.902 436.907 194.181C432.063 194.868 431.669 191.689 431.669 191.689C431.669 191.689 431.809 172.654 432.494 168.712C432.862 166.614 434.485 165.546 436.197 164.414C436.413 164.274 436.616 164.134 436.818 164.02C438.112 163.219 439.583 162.735 441.105 162.748C441.511 162.748 441.879 162.786 442.221 162.863C443.933 163.18 444.682 164.21 445.252 165.05C445.607 165.571 445.81 166.181 445.823 166.817L446.191 187.709H446.178Z" fill="#FF5A72"/>
<path d="M432.887 154.241C431.784 157.395 432.76 161.006 435.195 161.858C435.55 161.985 435.918 162.049 436.298 162.036C438.036 162.036 439.85 160.764 441.004 158.895C441.295 158.412 441.549 157.891 441.739 157.331C441.765 157.255 441.79 157.179 441.815 157.102C441.866 156.937 441.917 156.772 441.955 156.606C442.437 154.623 442.006 152.817 440.94 151.622C440.598 151.24 440.192 150.923 439.735 150.681C439.558 150.592 439.368 150.503 439.177 150.439C437.288 149.778 435.22 150.516 433.876 152.347C433.483 152.881 433.141 153.517 432.9 154.229L432.887 154.241Z" fill="#FAB08B"/>
<path d="M442.221 152.143C440.268 146.625 435.081 149.028 433.775 151.673C433.521 152.181 433.749 152.588 434.257 152.855C434.383 153.389 434.624 154.025 435.068 154.267C435.918 154.737 434.003 155.92 434.536 156.454C435.068 156.988 435.715 155.856 436.387 156.454C437.275 157.242 435.22 158.463 436.26 158.997C437.3 159.544 438.099 161.934 440.534 161.413C442.969 160.892 443.654 157.764 443.882 155.818C444.111 153.873 442.931 152.55 442.208 152.13L442.221 152.143Z" fill="#070D30"/>
<path d="M434.548 157.064C434.244 157.827 434.447 158.717 435.03 158.946C435.614 159.188 436.375 158.666 436.679 157.916C436.983 157.153 436.717 156.441 436.134 156.212C435.55 155.971 434.865 156.314 434.561 157.064H434.548Z" fill="#FAB08B"/>
<path d="M428.473 192.935C427.928 192.528 427.75 191.778 428.068 191.168L429.31 188.777C429.83 187.785 431.111 187.493 432.012 188.154C432.912 188.828 433.001 190.15 432.189 190.926L430.262 192.808C429.767 193.291 429.006 193.342 428.461 192.922L428.473 192.935Z" fill="#FAB08B"/>
<path d="M435.043 167.847C435.043 167.847 428.537 170.886 426.799 175.273C425.277 179.151 426.634 182.025 429.97 187.569" stroke="white" stroke-width="2.98" stroke-linecap="round" stroke-linejoin="round"/>
<path d="M105.568 209.008L110.983 205.854L110.971 212.187L105.555 215.34L105.568 209.008Z" fill="#070D30"/>
<path d="M100.077 205.829L105.492 202.675L110.983 205.854L105.568 209.008L100.077 205.829Z" fill="#1A1885"/>
<path d="M105.568 209.008L105.555 215.34L100.051 212.161L100.077 205.829L105.568 209.008Z" fill="#111057"/>
<path d="M117.933 216.93L123.349 213.763L123.336 220.109L117.921 223.262L117.933 216.93Z" fill="#070D30"/>
<path d="M112.442 213.738L117.857 210.585L123.349 213.763L117.933 216.93L112.442 213.738Z" fill="#1A1885"/>
<path d="M117.933 216.93L117.921 223.262L112.417 220.07L112.442 213.738L117.933 216.93Z" fill="#111057"/>
<path d="M131.351 224.254L136.767 221.1L136.754 227.433L131.339 230.599L131.351 224.254Z" fill="#070D30"/>
<path d="M125.86 221.075L131.275 217.921L136.767 221.1L131.351 224.254L125.86 221.075Z" fill="#1A1885"/>
<path d="M131.351 224.254L131.338 230.599L125.834 227.407L125.86 221.075L131.351 224.254Z" fill="#111057"/>
<path d="M406.926 234.007L371.428 254.683C369.589 255.751 366.609 255.751 364.77 254.683L351.162 246.812C350.236 246.277 349.767 245.565 349.767 244.866V249.774C349.754 250.474 350.211 251.186 351.149 251.72L364.757 259.591C366.609 260.659 369.589 260.659 371.428 259.591L406.926 238.915C407.839 238.381 408.296 237.694 408.296 236.995V232.087C408.296 232.786 407.852 233.473 406.939 234.007H406.926Z" fill="url(#paint39_linear_85_580)"/>
<path d="M406.901 230.129C408.752 231.197 408.752 232.939 406.926 233.994L371.428 254.67C369.589 255.738 366.609 255.738 364.77 254.67L351.162 246.799C349.31 245.731 349.31 244.001 351.136 242.933L386.634 222.258C388.46 221.189 391.454 221.189 393.292 222.258L406.901 230.129Z" fill="url(#paint40_linear_85_580)"/>
<path d="M366.964 248.528C366.419 248.21 366.419 247.689 366.964 247.371C367.522 247.053 368.41 247.053 368.968 247.371C369.513 247.689 369.513 248.21 368.968 248.528C368.423 248.846 367.522 248.846 366.964 248.528Z" fill="#1A1885"/>
<path d="M373.191 244.93C372.646 244.612 372.646 244.09 373.191 243.772C373.737 243.455 374.637 243.455 375.195 243.772C375.753 244.09 375.74 244.612 375.195 244.93C374.65 245.247 373.749 245.247 373.191 244.93Z" fill="#FFB06D"/>
<path d="M379.418 241.331C378.873 241.013 378.873 240.492 379.418 240.174C379.964 239.856 380.864 239.856 381.422 240.174C381.967 240.492 381.967 241.013 381.422 241.331C380.877 241.649 379.976 241.649 379.418 241.331Z" fill="#1A1885"/>
<path d="M385.633 237.72C385.087 237.402 385.087 236.881 385.633 236.563C386.178 236.245 387.078 236.245 387.636 236.563C388.182 236.881 388.182 237.402 387.636 237.72C387.091 238.038 386.191 238.038 385.633 237.72Z" fill="#FF5A72"/>
<path d="M296.374 142.327L306.102 136.656L306.064 161.782L296.349 167.453L296.374 142.327Z" fill="#56A6C7"/>
<path d="M286.508 136.605L296.235 130.946L306.102 136.656L296.374 142.327L286.508 136.605Z" fill="#B5E9FE"/>
<path d="M296.374 142.327L296.349 167.453L286.482 161.744L286.507 136.605L296.374 142.327Z" fill="#82D7FA"/>
<path d="M235.385 347.927C235.385 347.927 241.421 351.83 246.05 350.953C250.134 350.177 251.834 347.494 254.725 341.709" stroke="white" stroke-width="2.98" stroke-linecap="round" stroke-linejoin="round"/>
<path d="M256.069 335.643C256.729 335.809 257.173 336.432 257.122 337.118L256.894 339.801C256.792 340.92 255.727 341.696 254.636 341.416C253.546 341.149 252.962 339.967 253.406 338.924L254.459 336.444C254.725 335.809 255.41 335.465 256.082 335.643H256.069Z" fill="#FAB08B"/>
<path d="M226.723 413.73C226.723 413.73 226.114 415.434 226.685 416.108C227.547 417.113 230.984 420.838 233.495 421.423C236.006 422.008 235.752 420.177 234.776 419.046C232.049 415.854 230.92 414.862 229.931 413.768C229.005 412.739 227.23 412.904 226.723 413.73Z" fill="#070D30"/>
<path d="M228.637 414.048L228.929 407.169" stroke="#D6E9F4" stroke-width="2.13" stroke-linecap="round" stroke-linejoin="round"/>
<path d="M235.029 411.302C235.029 411.302 234.383 413.133 235.144 413.412C236.285 413.819 240.914 414.76 243.577 414.659C245.936 414.57 244.807 412.637 243.527 412.179C239.912 410.869 238.568 410.59 237.274 410.17C236.069 409.776 235.055 410.412 235.017 411.302H235.029Z" fill="#070D30"/>
<path d="M236.526 410.056L236.767 403.176" stroke="#D6E9F4" stroke-width="2.13" stroke-linecap="round" stroke-linejoin="round"/>
<path d="M238.923 375.571C239.062 375.354 239.139 375.151 239.151 374.947C239.265 373.129 239.76 369.48 238.53 369.111C237.3 368.742 226.228 372.392 226.228 372.392C226.228 372.392 224.769 376.524 226.545 379.106L227.547 393.309L226.596 411.721C226.558 412.573 227.204 413.311 228.067 413.349L229.411 413.412C230.261 413.451 230.996 412.802 231.034 411.937L231.998 393.258V379.754C232.632 379.449 233.381 379.093 234.142 378.724L235.461 389.749L234.522 407.818C234.471 408.86 235.27 409.75 236.31 409.801L236.983 409.839C238.022 409.89 238.91 409.089 238.961 408.046L239.912 389.698L238.923 375.545V375.571Z" fill="#1A1885"/>
<path d="M239.341 370.065C239.367 371.184 238.821 372.239 237.883 372.862C235.702 374.337 232.074 376.257 230.071 376.537C225.226 377.224 224.833 374.045 224.833 374.045C224.833 374.045 224.972 355.009 225.657 351.067C226.025 348.969 227.648 347.901 229.36 346.77C229.576 346.63 229.779 346.49 229.982 346.375C231.275 345.574 232.747 345.091 234.268 345.104C234.674 345.104 235.042 345.142 235.384 345.218C237.097 345.536 237.845 346.566 238.416 347.405C238.771 347.927 238.974 348.537 238.986 349.173L239.354 370.065H239.341Z" fill="#FF5A72"/>
<path d="M230.083 345.562C230.083 345.562 230.083 345.117 232.239 344.875L232.404 347.049L230.248 346.77L230.083 345.562Z" fill="#98E1ED"/>
<path d="M232.404 342.217V345.854" stroke="#FAB08B" stroke-width="2.98" stroke-linecap="round" stroke-linejoin="round"/>
<path d="M230.083 345.562L229.88 347.482C229.88 347.482 230.73 349.376 231.199 350.05L233.152 347.304C233.152 347.304 232.036 347.126 230.083 345.549V345.562Z" fill="white"/>
<path d="M234.357 346.108C234.357 346.108 233.926 347.062 233.013 347.316L235.308 348.639C235.308 348.639 235.232 346.274 234.915 345.409C234.915 345.409 234.649 345.117 234.357 346.108Z" fill="white"/>
<path d="M292.861 390.295L305.721 382.806L305.683 397.848L292.823 405.338L292.861 390.295Z" fill="url(#paint41_linear_85_580)"/>
<path d="M279.811 382.742L292.67 375.253L305.721 382.806L292.861 390.295L279.811 382.742Z" fill="url(#paint42_linear_85_580)"/>
<path d="M292.861 390.295L292.823 405.338L279.76 397.785L279.811 382.742L292.861 390.295Z" fill="url(#paint43_linear_85_580)"/>
<path d="M257.731 410.691L286.317 394.034" stroke="#FF5A72" stroke-width="2" stroke-linecap="round" stroke-linejoin="round"/>
<path d="M251.275 414.671L264.135 407.169L264.085 422.212L251.225 429.714L251.275 414.671Z" fill="url(#paint44_linear_85_580)"/>
<path d="M238.213 407.105L251.073 399.616L264.135 407.169L251.275 414.671L238.213 407.105Z" fill="url(#paint45_linear_85_580)"/>
<path d="M251.275 414.671L251.225 429.714L238.175 422.148L238.213 407.105L251.275 414.671Z" fill="url(#paint46_linear_85_580)"/>
<path d="M251.77 407.169V368.78" stroke="#FF5A72" stroke-width="2" stroke-linecap="round" stroke-linejoin="round"/>
<path d="M251.884 356.039L264.744 348.55L264.706 363.592L251.846 371.082L251.884 356.039Z" fill="url(#paint47_linear_85_580)"/>
<path d="M238.834 348.486L251.694 340.997L264.744 348.55L251.884 356.039L238.834 348.486Z" fill="url(#paint48_linear_85_580)"/>
<path d="M251.884 356.039L251.846 371.082L238.783 363.529L238.834 348.486L251.884 356.039Z" fill="url(#paint49_linear_85_580)"/>
<path d="M251.821 344.493L257.223 341.34L257.211 347.672L251.795 350.826L251.821 344.493Z" fill="#070D30"/>
<path d="M246.317 341.315L251.732 338.161L257.223 341.34L251.821 344.493L246.317 341.315Z" fill="#1A1885"/>
<path d="M251.821 344.493L251.795 350.826L246.304 347.647L246.317 341.315L251.821 344.493Z" fill="#111057"/>
<path d="M237.87 337.385C238.961 340.539 237.972 344.15 235.537 345.002C235.181 345.129 234.814 345.18 234.433 345.18C232.696 345.18 230.882 343.896 229.741 342.027C229.449 341.543 229.195 341.022 229.005 340.463C228.98 340.386 228.954 340.31 228.929 340.234C228.878 340.068 228.828 339.903 228.789 339.738C228.32 337.754 228.751 335.949 229.817 334.753C230.159 334.372 230.565 334.054 231.022 333.812C231.199 333.723 231.389 333.634 231.58 333.571C233.469 332.922 235.537 333.672 236.881 335.503C237.274 336.038 237.604 336.673 237.857 337.385H237.87Z" fill="#FAB08B"/>
<path d="M236.982 334.804C235.689 332.146 230.514 329.743 228.536 335.249C228.536 335.249 225.568 338.085 229.005 340.45C229.005 340.45 229.829 342.294 230.654 341.365C231.478 340.437 229.855 338.212 229.868 337.627C229.868 337.398 230.032 337.017 230.375 336.673C230.73 336.978 231.339 337.296 232.417 337.411C233.685 337.538 233.824 336.839 233.66 336.152C235.879 336.584 237.54 335.898 236.995 334.791L236.982 334.804Z" fill="#070D30"/>
<path d="M229.855 340.259C230.426 340.831 230.603 341.734 230.159 342.179C229.715 342.624 228.815 342.459 228.244 341.887C227.674 341.315 227.636 340.552 228.079 340.094C228.523 339.649 229.284 339.687 229.868 340.259H229.855Z" fill="#FAB08B"/>
<path d="M227.039 352.275C227.039 352.275 226.456 359.46 229.411 363.135C232.011 366.377 235.181 366.619 241.637 366.453" stroke="white" stroke-width="2.98" stroke-linecap="round" stroke-linejoin="round"/>
<path d="M247.597 364.788C247.762 365.449 247.42 366.136 246.799 366.415L244.325 367.483C243.298 367.928 242.119 367.344 241.84 366.25C241.561 365.156 242.334 364.088 243.45 363.987L246.126 363.745C246.811 363.681 247.433 364.126 247.597 364.8V364.788Z" fill="#FAB08B"/>
</g>
<defs>
<linearGradient id="paint0_linear_85_580" x1="0" y1="318.63" x2="162.436" y2="318.63" gradientUnits="userSpaceOnUse">
<stop stop-color="#66D2FE"/>
<stop offset="0.34" stop-color="#51A7DD"/>
<stop offset="0.78" stop-color="#3973B7"/>
<stop offset="1" stop-color="#3060A8"/>
</linearGradient>
<linearGradient id="paint1_linear_85_580" x1="0" y1="298.094" x2="1.26824" y2="298.094" gradientUnits="userSpaceOnUse">
<stop stop-color="#66D2FE"/>
<stop offset="0.34" stop-color="#51A7DD"/>
<stop offset="0.78" stop-color="#3973B7"/>
<stop offset="1" stop-color="#3060A8"/>
</linearGradient>
<linearGradient id="paint2_linear_85_580" x1="0" y1="277.545" x2="1.26824" y2="277.545" gradientUnits="userSpaceOnUse">
<stop stop-color="#66D2FE"/>
<stop offset="0.34" stop-color="#51A7DD"/>
<stop offset="0.78" stop-color="#3973B7"/>
<stop offset="1" stop-color="#3060A8"/>
</linearGradient>
<linearGradient id="paint3_linear_85_580" x1="0" y1="257.01" x2="1.26824" y2="257.01" gradientUnits="userSpaceOnUse">
<stop stop-color="#66D2FE"/>
<stop offset="0.34" stop-color="#51A7DD"/>
<stop offset="0.78" stop-color="#3973B7"/>
<stop offset="1" stop-color="#3060A8"/>
</linearGradient>
<linearGradient id="paint4_linear_85_580" x1="169.271" y1="423.572" x2="331.707" y2="423.572" gradientUnits="userSpaceOnUse">
<stop stop-color="#66D2FE"/>
<stop offset="0.34" stop-color="#51A7DD"/>
<stop offset="0.78" stop-color="#3973B7"/>
<stop offset="1" stop-color="#3060A8"/>
</linearGradient>
<linearGradient id="paint5_linear_85_580" x1="336.564" y1="317.066" x2="499" y2="317.066" gradientUnits="userSpaceOnUse">
<stop stop-color="#66D2FE"/>
<stop offset="0.34" stop-color="#51A7DD"/>
<stop offset="0.78" stop-color="#3973B7"/>
<stop offset="1" stop-color="#3060A8"/>
</linearGradient>
<linearGradient id="paint6_linear_85_580" x1="336.564" y1="296.53" x2="499" y2="296.53" gradientUnits="userSpaceOnUse">
<stop stop-color="#66D2FE"/>
<stop offset="0.34" stop-color="#51A7DD"/>
<stop offset="0.78" stop-color="#3973B7"/>
<stop offset="1" stop-color="#3060A8"/>
</linearGradient>
<linearGradient id="paint7_linear_85_580" x1="336.564" y1="275.981" x2="499" y2="275.981" gradientUnits="userSpaceOnUse">
<stop stop-color="#66D2FE"/>
<stop offset="0.34" stop-color="#51A7DD"/>
<stop offset="0.78" stop-color="#3973B7"/>
<stop offset="1" stop-color="#3060A8"/>
</linearGradient>
<linearGradient id="paint8_linear_85_580" x1="336.564" y1="275.981" x2="499" y2="275.981" gradientUnits="userSpaceOnUse">
<stop stop-color="#66D2FE"/>
<stop offset="0.34" stop-color="#51A7DD"/>
<stop offset="0.78" stop-color="#3973B7"/>
<stop offset="1" stop-color="#3060A8"/>
</linearGradient>
<linearGradient id="paint9_linear_85_580" x1="401.65" y1="248.592" x2="433.94" y2="248.592" gradientUnits="userSpaceOnUse">
<stop stop-color="#FF5A72"/>
<stop offset="0.15" stop-color="#FF6871"/>
<stop offset="0.72" stop-color="#FF9C6E"/>
<stop offset="1" stop-color="#FFB06D"/>
</linearGradient>
<linearGradient id="paint10_linear_85_580" x1="169.271" y1="218.672" x2="331.707" y2="218.672" gradientUnits="userSpaceOnUse">
<stop stop-color="#66D2FE"/>
<stop offset="0.34" stop-color="#51A7DD"/>
<stop offset="0.78" stop-color="#3973B7"/>
<stop offset="1" stop-color="#3060A8"/>
</linearGradient>
<linearGradient id="paint11_linear_85_580" x1="169.271" y1="198.123" x2="331.707" y2="198.123" gradientUnits="userSpaceOnUse">
<stop stop-color="#66D2FE"/>
<stop offset="0.34" stop-color="#51A7DD"/>
<stop offset="0.78" stop-color="#3973B7"/>
<stop offset="1" stop-color="#3060A8"/>
</linearGradient>
<linearGradient id="paint12_linear_85_580" x1="184.11" y1="231.883" x2="285.15" y2="315.546" gradientUnits="userSpaceOnUse">
<stop stop-color="#FFE62A"/>
<stop offset="1" stop-color="#F4617E"/>
</linearGradient>
<linearGradient id="paint13_linear_85_580" x1="181.205" y1="235.406" x2="282.233" y2="319.068" gradientUnits="userSpaceOnUse">
<stop stop-color="#FFE62A"/>
<stop offset="1" stop-color="#F4617E"/>
</linearGradient>
<linearGradient id="paint14_linear_85_580" x1="224.465" y1="221.991" x2="276.513" y2="221.991" gradientUnits="userSpaceOnUse">
<stop stop-color="#FF5A72"/>
<stop offset="0.15" stop-color="#FF6871"/>
<stop offset="0.72" stop-color="#FF9C6E"/>
<stop offset="1" stop-color="#FFB06D"/>
</linearGradient>
<linearGradient id="paint15_linear_85_580" x1="224.757" y1="163.231" x2="276.513" y2="163.231" gradientUnits="userSpaceOnUse">
<stop stop-color="#FF5A72"/>
<stop offset="0.15" stop-color="#FF6871"/>
<stop offset="0.72" stop-color="#FF9C6E"/>
<stop offset="1" stop-color="#FFB06D"/>
</linearGradient>
<linearGradient id="paint16_linear_85_580" x1="224.757" y1="151.698" x2="276.513" y2="151.698" gradientUnits="userSpaceOnUse">
<stop stop-color="#FF5A72"/>
<stop offset="0.15" stop-color="#FF6871"/>
<stop offset="0.72" stop-color="#FF9C6E"/>
<stop offset="1" stop-color="#FFB06D"/>
</linearGradient>
<linearGradient id="paint17_linear_85_580" x1="224.757" y1="15.03" x2="276.513" y2="15.03" gradientUnits="userSpaceOnUse">
<stop stop-color="#FF5A72"/>
<stop offset="0.15" stop-color="#FF6871"/>
<stop offset="0.72" stop-color="#FF9C6E"/>
<stop offset="1" stop-color="#FFB06D"/>
</linearGradient>
<linearGradient id="paint18_linear_85_580" x1="238.53" y1="43.0935" x2="262.728" y2="43.0935" gradientUnits="userSpaceOnUse">
<stop stop-color="#FF5A72"/>
<stop offset="0.15" stop-color="#FF6871"/>
<stop offset="0.72" stop-color="#FF9C6E"/>
<stop offset="1" stop-color="#FFB06D"/>
</linearGradient>
<linearGradient id="paint19_linear_85_580" x1="177.274" y1="85.3604" x2="294.751" y2="156.295" gradientUnits="userSpaceOnUse">
<stop stop-color="#FFE62A"/>
<stop offset="1" stop-color="#F42C53"/>
</linearGradient>
<linearGradient id="paint20_linear_85_580" x1="180.52" y1="79.9817" x2="297.997" y2="150.916" gradientUnits="userSpaceOnUse">
<stop stop-color="#FFE62A"/>
<stop offset="1" stop-color="#F4617E"/>
</linearGradient>
<linearGradient id="paint21_linear_85_580" x1="173.812" y1="91.0952" x2="291.288" y2="162.03" gradientUnits="userSpaceOnUse">
<stop stop-color="#FFB82A"/>
<stop offset="1" stop-color="#F4617E"/>
</linearGradient>
<linearGradient id="paint22_linear_85_580" x1="281.751" y1="14.9791" x2="460.659" y2="123.003" gradientUnits="userSpaceOnUse">
<stop stop-color="#FFBC2A"/>
<stop offset="1" stop-color="#F4617E"/>
</linearGradient>
<linearGradient id="paint23_linear_85_580" x1="304.833" y1="14.1144" x2="422.31" y2="85.0491" gradientUnits="userSpaceOnUse">
<stop stop-color="#FFE62A"/>
<stop offset="1" stop-color="#F4617E"/>
</linearGradient>
<linearGradient id="paint24_linear_85_580" x1="288.435" y1="26.8683" x2="445.955" y2="121.984" gradientUnits="userSpaceOnUse">
<stop stop-color="#FFD12A"/>
<stop offset="1" stop-color="#F4617E"/>
</linearGradient>
<linearGradient id="paint25_linear_85_580" x1="218.479" y1="33.7093" x2="335.956" y2="104.644" gradientUnits="userSpaceOnUse">
<stop stop-color="#FFE62A"/>
<stop offset="1" stop-color="#F42C53"/>
</linearGradient>
<linearGradient id="paint26_linear_85_580" x1="221.726" y1="28.3306" x2="339.202" y2="99.2652" gradientUnits="userSpaceOnUse">
<stop stop-color="#FFE62A"/>
<stop offset="1" stop-color="#F4617E"/>
</linearGradient>
<linearGradient id="paint27_linear_85_580" x1="215.017" y1="39.4441" x2="332.493" y2="110.379" gradientUnits="userSpaceOnUse">
<stop stop-color="#FFB82A"/>
<stop offset="1" stop-color="#F4617E"/>
</linearGradient>
<linearGradient id="paint28_linear_85_580" x1="219.088" y1="81.3295" x2="336.564" y2="152.264" gradientUnits="userSpaceOnUse">
<stop stop-color="#FFBC2A"/>
<stop offset="1" stop-color="#F4617E"/>
</linearGradient>
<linearGradient id="paint29_linear_85_580" x1="222.334" y1="75.9508" x2="339.811" y2="146.885" gradientUnits="userSpaceOnUse">
<stop stop-color="#FFE62A"/>
<stop offset="1" stop-color="#F4617E"/>
</linearGradient>
<linearGradient id="paint30_linear_85_580" x1="215.625" y1="87.0643" x2="333.102" y2="157.999" gradientUnits="userSpaceOnUse">
<stop stop-color="#FFD12A"/>
<stop offset="1" stop-color="#F4617E"/>
</linearGradient>
<linearGradient id="paint31_linear_85_580" x1="202.55" y1="41.7075" x2="320.026" y2="112.642" gradientUnits="userSpaceOnUse">
<stop stop-color="#FFAD2A"/>
<stop offset="1" stop-color="#F4617E"/>
</linearGradient>
<linearGradient id="paint32_linear_85_580" x1="205.796" y1="36.3287" x2="323.273" y2="107.263" gradientUnits="userSpaceOnUse">
<stop stop-color="#FFE62A"/>
<stop offset="1" stop-color="#F4617E"/>
</linearGradient>
<linearGradient id="paint33_linear_85_580" x1="199.087" y1="47.4423" x2="316.564" y2="118.377" gradientUnits="userSpaceOnUse">
<stop stop-color="#FFCD2A"/>
<stop offset="1" stop-color="#F4617E"/>
</linearGradient>
<linearGradient id="paint34_linear_85_580" x1="319.583" y1="145.289" x2="491.214" y2="219.094" gradientUnits="userSpaceOnUse">
<stop stop-color="white"/>
<stop offset="0.23" stop-color="#CAD6E8"/>
<stop offset="0.6" stop-color="#7797C6"/>
<stop offset="0.87" stop-color="#436FB0"/>
<stop offset="1" stop-color="#3060A8"/>
</linearGradient>
<linearGradient id="paint35_linear_85_580" x1="329.589" y1="157.649" x2="407.51" y2="157.649" gradientUnits="userSpaceOnUse">
<stop stop-color="#FFE62A"/>
<stop offset="1" stop-color="#F42C53"/>
</linearGradient>
<linearGradient id="paint36_linear_85_580" x1="66.1512" y1="111.262" x2="251.598" y2="230.347" gradientUnits="userSpaceOnUse">
<stop stop-color="white"/>
<stop offset="0.23" stop-color="#CAD6E8"/>
<stop offset="0.6" stop-color="#7797C6"/>
<stop offset="0.87" stop-color="#436FB0"/>
<stop offset="1" stop-color="#3060A8"/>
</linearGradient>
<linearGradient id="paint37_linear_85_580" x1="91.4906" y1="159.213" x2="167.712" y2="159.213" gradientUnits="userSpaceOnUse">
<stop stop-color="#FF5A72"/>
<stop offset="0.23" stop-color="#CA5B7F"/>
<stop offset="0.6" stop-color="#775D95"/>
<stop offset="0.87" stop-color="#435FA2"/>
<stop offset="1" stop-color="#3060A8"/>
</linearGradient>
<linearGradient id="paint38_linear_85_580" x1="1946.86" y1="1216.59" x2="2023.18" y2="1260.54" gradientUnits="userSpaceOnUse">
<stop stop-color="#02007D"/>
<stop offset="0.23" stop-color="#0D1888"/>
<stop offset="0.75" stop-color="#264C9F"/>
<stop offset="1" stop-color="#3060A8"/>
</linearGradient>
<linearGradient id="paint39_linear_85_580" x1="349.754" y1="246.239" x2="408.283" y2="246.239" gradientUnits="userSpaceOnUse">
<stop stop-color="#66D2FE"/>
<stop offset="0.43" stop-color="#4791C3"/>
<stop offset="0.81" stop-color="#2E5D94"/>
<stop offset="1" stop-color="#254A82"/>
</linearGradient>
<linearGradient id="paint40_linear_85_580" x1="361.384" y1="227.267" x2="437.592" y2="275.406" gradientUnits="userSpaceOnUse">
<stop stop-color="white"/>
<stop offset="0.23" stop-color="#CAD6E8"/>
<stop offset="0.6" stop-color="#7797C6"/>
<stop offset="0.87" stop-color="#436FB0"/>
<stop offset="1" stop-color="#3060A8"/>
</linearGradient>
<linearGradient id="paint41_linear_85_580" x1="261.345" y1="371.056" x2="378.822" y2="441.991" gradientUnits="userSpaceOnUse">
<stop stop-color="#FFBC2A"/>
<stop offset="1" stop-color="#F4617E"/>
</linearGradient>
<linearGradient id="paint42_linear_85_580" x1="264.592" y1="365.678" x2="382.069" y2="436.612" gradientUnits="userSpaceOnUse">
<stop stop-color="#FFE62A"/>
<stop offset="1" stop-color="#F4617E"/>
</linearGradient>
<linearGradient id="paint43_linear_85_580" x1="257.883" y1="376.779" x2="375.36" y2="447.713" gradientUnits="userSpaceOnUse">
<stop stop-color="#FFD12A"/>
<stop offset="1" stop-color="#F4617E"/>
</linearGradient>
<linearGradient id="paint44_linear_85_580" x1="178.238" y1="370.217" x2="295.714" y2="441.152" gradientUnits="userSpaceOnUse">
<stop stop-color="#FFE62A"/>
<stop offset="1" stop-color="#F42C53"/>
</linearGradient>
<linearGradient id="paint45_linear_85_580" x1="181.497" y1="364.839" x2="298.974" y2="435.773" gradientUnits="userSpaceOnUse">
<stop stop-color="#FFE62A"/>
<stop offset="1" stop-color="#F4617E"/>
</linearGradient>
<linearGradient id="paint46_linear_85_580" x1="174.788" y1="375.952" x2="292.265" y2="446.887" gradientUnits="userSpaceOnUse">
<stop stop-color="#FFB82A"/>
<stop offset="1" stop-color="#F4617E"/>
</linearGradient>
<linearGradient id="paint47_linear_85_580" x1="203.513" y1="326.577" x2="320.99" y2="397.512" gradientUnits="userSpaceOnUse">
<stop stop-color="#FFAD2A"/>
<stop offset="1" stop-color="#F4617E"/>
</linearGradient>
<linearGradient id="paint48_linear_85_580" x1="206.773" y1="321.186" x2="324.249" y2="392.12" gradientUnits="userSpaceOnUse">
<stop stop-color="#FFE62A"/>
<stop offset="1" stop-color="#F4617E"/>
</linearGradient>
<linearGradient id="paint49_linear_85_580" x1="200.064" y1="332.299" x2="317.541" y2="403.234" gradientUnits="userSpaceOnUse">
<stop stop-color="#FFB82A"/>
<stop offset="1" stop-color="#F4617E"/>
</linearGradient>
<clipPath id="clip0_85_580">
<rect width="499" height="451" fill="white"/>
</clipPath>
</defs>
</svg>
