<svg width="143" height="145" viewBox="0 0 143 145" fill="none" xmlns="http://www.w3.org/2000/svg">
<g clip-path="url(#clip0_86_984)">
<path d="M107.181 87.4323L56.3518 58.1461L0.18306 90.507L0 90.5984L50.8295 119.885L107.181 87.4323Z" fill="white"/>
<path d="M56.3518 0L107.181 29.2862L103.429 89.5633L53.5754 60.8555L56.3518 0Z" fill="#849ABD"/>
<path d="M107.181 87.4323L50.8295 119.885L0 90.5984V94.7995L50.8295 124.086L107.181 91.6334V87.4323Z" fill="#030403"/>
<path d="M103.49 91.6334H107.181V29.2862L103.49 31.3867V91.6334Z" fill="#030403"/>
<path d="M139.186 67.8879V105.241L106.754 86.5799L103.673 84.8142L102.605 84.1749L101.018 83.2616L99.9505 82.6832L98.3945 81.7394L97.2962 81.1306L95.7402 80.2173L94.6418 79.6084L93.0858 78.6952L92.018 78.0558L90.4314 77.173L89.3331 76.5337L87.7466 75.6509L86.6787 75.0115L85.1227 74.1287L84.0244 73.4894L82.4683 72.5761L81.8276 72.2108V34.8572L84.6956 36.5012L85.7939 37.1405L87.3194 38.0233L88.4178 38.6626L90.0043 39.5455L91.0721 40.1848L92.6587 41.0676L93.7265 41.7069L95.313 42.6202L96.3809 43.2291L97.9369 44.1423L99.0352 44.7512L100.591 45.6645L101.69 46.2734L103.276 47.1866L104.344 47.7955L105.93 48.7088L106.998 49.3481L108.554 50.2309L109.653 50.8702L111.209 51.7531L112.307 52.4228L113.863 53.2752L114.961 53.945L116.548 54.8278L117.616 55.4671L119.172 56.35L120.27 56.9588L121.826 57.8721L122.894 58.481L124.481 59.4247L125.548 60.0336L127.135 60.9469L128.203 61.5557L129.789 62.469L130.857 63.0779L132.444 63.9912L133.511 64.6L135.067 65.5133L136.166 66.1526L139.186 67.8879Z" fill="#849ABD"/>
<path d="M139.186 112.517L81.8276 79.4562V52.849L139.186 85.8797V112.517Z" fill="#264B6A"/>
<path d="M139.186 67.8879L123.565 76.899L106.754 86.5799L92.079 95.0126L88.9975 93.2773L87.8991 92.638L86.3431 91.7248L85.2753 91.1159V91.0854L83.6888 90.2026L82.6209 89.5937V89.5633L81.8277 89.1371L81.0344 88.6805V88.65L79.9665 88.0716V88.0411L78.38 87.1583V87.1279L77.3122 86.5494V86.519L75.7562 85.6362V85.6057L74.6578 84.9968L73.1018 84.114L72.0035 83.4747L70.478 82.5918L69.3796 81.9525L67.8236 81.0697L66.7252 80.4304L65.1692 79.5171L64.1014 78.9082L62.5149 77.995L61.447 77.3861L59.8605 76.4728L58.7927 75.8639L57.2062 74.9507L56.1383 74.3418L54.5823 73.4285L53.4839 72.7892L51.9279 71.9064L50.8296 71.2671L49.2736 70.3842L48.2057 69.7449L46.6192 68.8621L45.5514 68.2228L43.9648 67.3095L42.897 66.7006L41.3105 65.7873L40.2426 65.1785L38.6866 64.2652L37.5883 63.6563L34.7203 61.9819L81.8277 34.8572L84.6956 36.5012L85.794 37.1405L87.3194 38.0233L88.4178 38.6626L90.0043 39.5455L91.0722 40.1848L92.6587 41.0676L93.7265 41.7069L95.313 42.6202L96.3809 43.2291L97.9369 44.1423L99.0352 44.7512L100.591 45.6645L101.69 46.2734L103.276 47.1866L104.344 47.7955L105.93 48.7088L106.998 49.3481L108.554 50.2309L109.653 50.8702L111.209 51.7531L112.307 52.4228L113.863 53.2752L114.961 53.945L116.548 54.8278L117.616 55.4671L119.172 56.35L120.27 56.9588L121.826 57.8721L122.894 58.481L124.481 59.4247L125.548 60.0336L127.135 60.9469L128.203 61.5557L129.789 62.469L130.857 63.0779L132.444 63.9912L133.511 64.6L135.067 65.5133L136.166 66.1526L139.186 67.8879Z" fill="#C9DAEA"/>
<path d="M92.079 132.397L34.7203 99.3659V61.9819L92.079 95.043V132.397Z" fill="white"/>
<path d="M136.166 66.1526L120.514 75.1333L103.673 84.8142L88.9975 93.2773V115.866H87.8992V92.638L88.1738 92.4554L102.605 84.1749L119.446 74.494L135.068 65.5133L136.166 66.1526Z" fill="white"/>
<path d="M133.511 64.6L117.86 73.6112L101.018 83.2616L86.3431 91.7248V114.344H85.2753V91.0854L85.5499 90.9332L99.9505 82.6832L116.792 72.9719L132.444 63.9912L133.511 64.6Z" fill="white"/>
<path d="M130.857 63.0779L115.236 72.0586L98.3945 81.7395L83.6887 90.2026V112.822H82.6208V89.5633L82.8954 89.4111L97.2961 81.1306L114.138 71.4497L129.789 62.469L130.857 63.0779Z" fill="white"/>
<path d="M128.203 61.5557L112.582 70.5364L95.7402 80.2173L81.8277 88.2238L81.0344 88.65V111.269H79.9666V88.0412L80.2411 87.8889L81.8277 86.9756L94.6418 79.6084L111.483 69.9276L127.135 60.9469L128.203 61.5557Z" fill="white"/>
<path d="M125.548 60.0336L109.927 69.0143L93.0858 78.6952L81.8276 85.1491L78.38 87.1279V109.747H77.3121V86.519L77.5867 86.3668L81.8276 83.9009L92.0179 78.0558L108.859 68.4054L124.48 59.4247L125.548 60.0336Z" fill="white"/>
<path d="M122.894 58.481L107.242 67.4921L90.4315 77.173L81.8277 82.1048L75.7562 85.6057V108.225H74.6578V84.9969L74.9324 84.8142L81.8277 80.8566L89.3331 76.5337L106.175 66.8833L121.826 57.8721L122.894 58.481Z" fill="white"/>
<path d="M120.27 56.9588L104.619 65.97L87.7465 75.6509L81.8276 79.03L73.1018 84.0531V106.703H72.0034V83.4747L72.3085 83.292L81.8276 77.8123L86.6787 75.0115L103.551 65.3611L119.172 56.35L120.27 56.9588Z" fill="white"/>
<path d="M117.616 55.4671L101.964 64.4478L85.1228 74.1287L81.8277 76.0162L70.478 82.531V105.181H69.3796V81.9221L69.6542 81.7699L81.8277 74.768L84.0244 73.4894L100.896 63.8085L116.548 54.8278L117.616 55.4671Z" fill="white"/>
<path d="M114.961 53.945L99.3403 62.9257L82.4683 72.5761L81.8276 72.9414L67.8236 81.0088V103.628H66.7252V80.4L66.9998 80.2477L81.8276 71.6933L98.242 62.2864L113.863 53.2752L114.961 53.945Z" fill="white"/>
<path d="M112.307 52.4228L96.6859 61.4035L81.8276 69.8971L65.1692 79.4867V102.106H64.1013V78.8778L64.3454 78.7256L81.8276 68.649L95.5876 60.7642L111.209 51.7531L112.307 52.4228Z" fill="white"/>
<path d="M109.653 50.8702L94.0011 59.8509L81.8276 66.8528L62.5149 77.9645V100.584H61.447V77.3252L61.6911 77.173L81.8276 65.6047L92.9333 59.2421L108.554 50.2309L109.653 50.8702Z" fill="white"/>
<path d="M106.998 49.3481L91.3467 58.3288L81.8276 63.8085L59.8605 76.4119V99.0311H58.7926V75.8031L59.0367 75.6509L81.8276 62.5604L90.2788 57.6895L105.93 48.7088L106.998 49.3481Z" fill="white"/>
<path d="M104.344 47.7955L88.7229 56.8066L81.8277 60.7338L57.2062 74.8898V97.5089H56.1383V74.2505L56.4129 74.1287L81.8277 59.4856L87.6245 56.1673L103.276 47.1866L104.344 47.7955Z" fill="white"/>
<path d="M101.69 46.2734L86.0685 55.254L81.8276 57.6895L54.5822 73.3676V95.9868H53.4839V72.7283L53.7585 72.5761L81.8276 56.4413L84.9701 54.6452L100.591 45.6645L101.69 46.2734Z" fill="white"/>
<path d="M99.0353 44.7512L83.4142 53.7319L81.8277 54.6452L51.9279 71.8455V94.4342H50.8296V71.2062L51.1347 71.054L81.8277 53.397L82.3463 53.123L97.9369 44.1423L99.0353 44.7512Z" fill="white"/>
<path d="M96.3809 43.2291L81.8276 51.6009L49.2735 70.3233V92.912H48.2057V69.684L48.4803 69.5318L81.8276 50.3527L95.313 42.6202L96.3809 43.2291Z" fill="white"/>
<path d="M93.7266 41.7069L81.8277 48.5261L46.6192 68.7707V91.3899H45.5514V68.1619L45.826 67.9792L81.8277 47.278L92.6587 41.0676L93.7266 41.7069Z" fill="white"/>
<path d="M91.0721 40.1848L81.8276 45.4818L43.9648 67.2486V89.8677H42.897V66.6093L43.1716 66.4571L81.8276 44.2337L90.0043 39.5455L91.0721 40.1848Z" fill="white"/>
<path d="M88.4178 38.6626L81.8277 42.4375L41.3105 65.7264V88.3456H40.2427V65.0871L40.5173 64.9349L81.8277 41.1894L87.3195 38.0233L88.4178 38.6626Z" fill="white"/>
<path d="M85.7939 37.1405L81.8276 39.3932L38.6866 64.1738V86.793H37.5883V63.565L37.8628 63.4128L81.8276 38.1451L84.6956 36.5012L85.7939 37.1405Z" fill="white"/>
<path d="M136.166 66.1526L120.514 75.1333L103.673 84.8142L88.9975 93.2773V115.866H87.8992V92.638L88.1738 92.4554L102.605 84.1749L119.446 74.494L135.068 65.5133L136.166 66.1526Z" fill="#5489BE"/>
<path d="M133.511 64.6L117.86 73.6112L101.018 83.2616L86.3431 91.7248V114.344H85.2753V91.0854L85.5499 90.9332L99.9505 82.6832L116.792 72.9719L132.444 63.9912L133.511 64.6Z" fill="#5489BE"/>
<path d="M130.857 63.0779L115.236 72.0586L98.3945 81.7395L83.6887 90.2026V112.822H82.6208V89.5633L82.8954 89.4111L97.2961 81.1306L114.138 71.4497L129.789 62.469L130.857 63.0779Z" fill="#5489BE"/>
<path d="M128.203 61.5557L112.582 70.5364L95.7402 80.2173L81.8277 88.2238L81.0344 88.65V111.269H79.9666V88.0412L80.2411 87.8889L81.8277 86.9756L94.6418 79.6084L111.483 69.9276L127.135 60.9469L128.203 61.5557Z" fill="#5489BE"/>
<path d="M125.548 60.0336L109.927 69.0143L93.0858 78.6952L81.8276 85.1491L78.38 87.1279V109.747H77.3121V86.519L77.5867 86.3668L81.8276 83.9009L92.0179 78.0558L108.859 68.4054L124.48 59.4247L125.548 60.0336Z" fill="#5489BE"/>
<path d="M122.894 58.481L107.242 67.4921L90.4315 77.173L81.8277 82.1048L75.7562 85.6057V108.225H74.6578V84.9969L74.9324 84.8142L81.8277 80.8566L89.3331 76.5337L106.175 66.8833L121.826 57.8721L122.894 58.481Z" fill="#5489BE"/>
<path d="M120.27 56.9588L104.619 65.97L87.7465 75.6509L81.8276 79.03L73.1018 84.0531V106.703H72.0034V83.4747L72.3085 83.292L81.8276 77.8123L86.6787 75.0115L103.551 65.3611L119.172 56.35L120.27 56.9588Z" fill="#5489BE"/>
<path d="M117.616 55.4671L101.964 64.4478L85.1228 74.1287L81.8277 76.0162L70.478 82.531V105.181H69.3796V81.9221L69.6542 81.7699L81.8277 74.768L84.0244 73.4894L100.896 63.8085L116.548 54.8278L117.616 55.4671Z" fill="#5489BE"/>
<path d="M114.961 53.945L99.3403 62.9257L82.4683 72.5761L81.8276 72.9414L67.8236 81.0088V103.628H66.7252V80.4L66.9998 80.2477L81.8276 71.6933L98.242 62.2864L113.863 53.2752L114.961 53.945Z" fill="#5489BE"/>
<path d="M112.307 52.4228L96.6859 61.4035L81.8276 69.8971L65.1692 79.4867V102.106H64.1013V78.8778L64.3454 78.7256L81.8276 68.649L95.5876 60.7642L111.209 51.7531L112.307 52.4228Z" fill="#5489BE"/>
<path d="M109.653 50.8702L94.0011 59.8509L81.8276 66.8528L62.5149 77.9645V100.584H61.447V77.3252L61.6911 77.173L81.8276 65.6047L92.9333 59.2421L108.554 50.2309L109.653 50.8702Z" fill="#5489BE"/>
<path d="M106.998 49.3481L91.3467 58.3288L81.8276 63.8085L59.8605 76.4119V99.0311H58.7926V75.8031L59.0367 75.6509L81.8276 62.5604L90.2788 57.6895L105.93 48.7088L106.998 49.3481Z" fill="#5489BE"/>
<path d="M104.344 47.7955L88.7229 56.8066L81.8277 60.7338L57.2062 74.8898V97.5089H56.1383V74.2505L56.4129 74.1287L81.8277 59.4856L87.6245 56.1673L103.276 47.1866L104.344 47.7955Z" fill="#5489BE"/>
<path d="M101.69 46.2734L86.0685 55.254L81.8276 57.6895L54.5822 73.3676V95.9868H53.4839V72.7283L53.7585 72.5761L81.8276 56.4413L84.9701 54.6452L100.591 45.6645L101.69 46.2734Z" fill="#5489BE"/>
<path d="M99.0353 44.7512L83.4142 53.7319L81.8277 54.6452L51.9279 71.8455V94.4342H50.8296V71.2062L51.1347 71.054L81.8277 53.397L82.3463 53.123L97.9369 44.1423L99.0353 44.7512Z" fill="#5489BE"/>
<path d="M96.3809 43.2291L81.8276 51.6009L49.2735 70.3233V92.912H48.2057V69.684L48.4803 69.5318L81.8276 50.3527L95.313 42.6202L96.3809 43.2291Z" fill="#5489BE"/>
<path d="M93.7266 41.7069L81.8277 48.5261L46.6192 68.7707V91.3899H45.5514V68.1619L45.826 67.9792L81.8277 47.278L92.6587 41.0676L93.7266 41.7069Z" fill="#5489BE"/>
<path d="M91.0721 40.1848L81.8276 45.4818L43.9648 67.2486V89.8677H42.897V66.6093L43.1716 66.4571L81.8276 44.2337L90.0043 39.5455L91.0721 40.1848Z" fill="#5489BE"/>
<path d="M88.4178 38.6626L81.8277 42.4375L41.3105 65.7264V88.3456H40.2427V65.0871L40.5173 64.9349L81.8277 41.1894L87.3195 38.0233L88.4178 38.6626Z" fill="#5489BE"/>
<path d="M85.7939 37.1405L81.8276 39.3932L38.6866 64.1738V86.793H37.5883V63.565L37.8628 63.4128L81.8276 38.1451L84.6956 36.5012L85.7939 37.1405Z" fill="#5489BE"/>
<path d="M92.079 139.672L34.7203 106.611V79.9738L92.079 113.035V139.672Z" fill="#2A5A92"/>
<path d="M54.4603 63.839V121.985L50.8296 124.086L3.63074 92.6989V46.456L50.8296 61.7384L54.4603 63.839Z" fill="#235396"/>
<path d="M54.4603 63.839V121.985L50.8296 124.086L3.63074 92.6989V46.456L50.8296 61.7384L54.4603 63.839Z" fill="#030403"/>
<path d="M107.181 29.2862L56.3518 0L0.18306 32.3609L0 32.4522L50.8295 61.7384L107.181 29.2862Z" fill="url(#paint0_linear_86_984)"/>
<path d="M107.181 29.2862L50.8295 61.7384L0 32.4522V36.6534L50.8295 65.9395L107.181 33.4873V29.2862Z" fill="#030403"/>
<path d="M0 32.3609L50.8295 61.7384V124.086L0 94.7995V32.3609Z" fill="url(#paint1_linear_86_984)"/>
<path d="M141.597 111.726L86.6482 145L85.2448 144.208V81.8612L141.566 49.409L142.97 50.2005L141.566 111.726H141.597Z" fill="#030403"/>
<path d="M143 112.548L86.6787 145V82.6527L143 50.2005V112.548Z" fill="url(#paint2_linear_86_984)"/>
<path d="M124.877 77.7514L106.693 88.2543V78.756L124.877 68.2836V77.7514Z" fill="#030403"/>
<path d="M122.406 75.7117L109.165 83.3225V79.4562L122.406 71.8455V75.7117Z" fill="white"/>
<path d="M76.1833 75.1638L66.7252 80.6131V77.2034C66.7252 75.8335 67.7015 74.1591 68.8914 73.4894L74.0171 70.5364C75.207 69.8362 76.1833 70.4147 76.1833 71.7846V75.2246V75.1638Z" fill="white"/>
<path d="M111.209 51.7531L101.781 57.2024V53.7623C101.781 52.3924 102.757 50.718 103.947 50.0483L109.073 47.0953C110.263 46.3951 111.239 46.9735 111.239 48.3435V51.7835L111.209 51.7531Z" fill="white"/>
<path d="M100.53 45.6341L91.1027 51.0834V47.6433C91.1027 46.2734 92.079 44.599 93.2689 43.9292L98.3945 40.9763C99.5844 40.2761 100.561 40.8545 100.561 42.2244V45.6645L100.53 45.6341Z" fill="white"/>
<path d="M84.6955 79.7607L75.2679 85.2099V81.7699C75.2679 80.4 76.2443 78.7256 77.4341 78.0558L82.5598 75.1029C83.7497 74.4027 84.726 74.9811 84.726 76.351V79.7607H84.6955Z" fill="white"/>
</g>
<defs>
<linearGradient id="paint0_linear_86_984" x1="0" y1="30.8692" x2="107.181" y2="30.8692" gradientUnits="userSpaceOnUse">
<stop stop-color="#72A9D3"/>
<stop offset="1" stop-color="#2684B9"/>
</linearGradient>
<linearGradient id="paint1_linear_86_984" x1="0" y1="78.2081" x2="50.8295" y2="78.2081" gradientUnits="userSpaceOnUse">
<stop stop-color="#1E4A84"/>
<stop offset="1" stop-color="#213176"/>
</linearGradient>
<linearGradient id="paint2_linear_86_984" x1="86.6482" y1="97.6003" x2="143" y2="97.6003" gradientUnits="userSpaceOnUse">
<stop stop-color="#236097"/>
<stop offset="1" stop-color="#3065B7"/>
</linearGradient>
<clipPath id="clip0_86_984">
<rect width="143" height="145" fill="white"/>
</clipPath>
</defs>
</svg>
