<svg width="145" height="104" viewBox="0 0 145 104" fill="none" xmlns="http://www.w3.org/2000/svg">
<g clip-path="url(#clip0_88_1232)">
<path d="M145 62.1648V41.8153H141.151C137.701 35.8758 131.958 30.2951 123.762 25.5516C95.4436 9.20813 49.5565 9.20813 21.2385 25.5516C13.0423 30.2752 7.2989 35.8758 3.8489 41.8153H4.59813e-05V62.0452C-0.0398385 72.788 7.01971 83.5309 21.2186 91.7424C49.5366 108.086 95.4237 108.086 123.742 91.7424C137.901 83.5707 144.98 72.8678 144.98 62.1648H145Z" fill="url(#paint0_linear_88_1232)"/>
<path d="M123.762 71.4128C95.4435 87.7562 49.5565 87.7562 21.2385 71.4128C-7.07949 55.0694 -7.07949 28.5811 21.2385 12.2576C49.5565 -4.08586 95.4435 -4.08586 123.762 12.2576C152.079 28.601 152.079 55.0893 123.762 71.4128Z" fill="url(#paint1_linear_88_1232)"/>
<path d="M123.762 71.4128C95.4435 87.7562 49.5565 87.7562 21.2385 71.4128C7.65782 63.5799 0.678032 53.4151 0.11965 43.1706C-0.498559 54.312 6.50117 65.573 21.2385 74.0836C49.5565 90.427 95.4435 90.427 123.762 74.0836C138.499 65.573 145.499 54.312 144.88 43.1706C144.322 53.435 137.322 63.5799 123.762 71.4128Z" fill="white"/>
<path d="M53.4053 45.8214C54.8013 44.8846 53.6646 43.4496 51.5307 43.4496H45.1692C45.1293 43.0908 45.1093 42.7121 45.1093 42.3534C45.1093 33.1851 58.012 25.711 73.8661 25.711C81.484 25.711 88.4239 27.445 93.569 30.2353L102.543 24.1564C94.6857 19.9908 84.575 17.7187 73.8661 17.7187C62.499 17.7187 51.8099 20.2698 43.7732 24.9337C35.7365 29.5776 31.3093 35.7562 31.3093 42.3335C31.3093 42.6922 31.3093 43.0709 31.3492 43.4297H25.9847C23.8509 43.4297 22.7142 44.8846 24.1102 45.8015L36.1952 53.8336L38.7278 55.5278L47.8414 49.4688L53.3455 45.8015L53.4053 45.8214Z" fill="white"/>
<path d="M123.602 41.1376L114.588 35.1583L108.984 31.4312L100.967 36.7528L94.3467 41.1376C92.9507 42.0744 94.0874 43.5094 96.2212 43.5094H102.583C101.546 52.1395 89.0819 58.9759 73.9059 58.9759C67.2851 58.9759 61.1628 57.6803 56.2969 55.4879L47.3229 61.5669C54.8411 65.0548 64.1142 66.9682 73.9059 66.9682C85.273 66.9682 95.962 64.417 103.999 59.7532C111.557 55.3883 115.924 49.6481 116.403 43.5094H121.767C123.901 43.5094 125.038 42.0544 123.642 41.1376H123.602Z" fill="white"/>
</g>
<defs>
<linearGradient id="paint0_linear_88_1232" x1="4.59814e-05" y1="58.657" x2="145" y2="58.657" gradientUnits="userSpaceOnUse">
<stop stop-color="#1E4180"/>
<stop offset="1" stop-color="#396EB4"/>
</linearGradient>
<linearGradient id="paint1_linear_88_1232" x1="0" y1="41.8352" x2="145" y2="41.8352" gradientUnits="userSpaceOnUse">
<stop stop-color="#72A9D3"/>
<stop offset="1" stop-color="#2684B9"/>
</linearGradient>
<clipPath id="clip0_88_1232">
<rect width="145" height="104" fill="white"/>
</clipPath>
</defs>
</svg>
