<svg width="156" height="103" viewBox="0 0 156 103" fill="none" xmlns="http://www.w3.org/2000/svg">
<g clip-path="url(#clip0_101_6913)">
<path d="M155.508 59.8976C155.628 58.4649 155.628 57.0251 155.508 55.5923V46.8698H0.449543V56.7525C0.386326 57.7869 0.386326 58.8143 0.449543 59.8487V59.9186C1.12386 70.7379 8.61866 81.4174 22.948 89.6507C53.159 107.005 102.293 106.914 132.687 89.455C146.981 81.2427 154.588 70.647 155.494 59.9256V59.9046L155.508 59.8976Z" fill="url(#paint0_linear_101_6913)"/>
<path d="M77.5048 103C56.7975 103 37.3686 98.3802 22.7584 89.9861C8.98393 82.0744 0.948273 71.5486 0.084299 60.31H0.0562023V59.8417C-0.00701534 58.8213 -0.00701534 57.7659 0.0562023 56.7245V46.4713H155.909V55.5783C156.028 57.018 156.028 58.4788 155.909 59.9186V60.3169H155.874C154.778 71.4508 146.637 81.8996 132.905 89.7904C118.14 98.2684 98.5563 102.965 77.7647 103C77.6804 103 77.5961 103 77.5118 103H77.5048ZM0.849935 59.8347V59.8836C1.55235 70.9825 9.4686 81.4314 23.1587 89.2942C53.2082 106.558 102.258 106.467 132.497 89.0985C146.145 81.2566 154.174 70.8776 155.108 59.8836V59.8626C155.227 58.4578 155.227 57.032 155.108 55.6202V55.5852V47.2611H0.849935V56.7455C0.786717 57.7799 0.786717 58.8003 0.849935 59.8137V59.8347Z" fill="url(#paint1_linear_101_6913)"/>
<path d="M78.2364 89.551C121.095 89.3202 155.73 69.1756 155.596 44.5566C155.462 19.9377 120.61 0.167159 77.7517 0.397893C34.8933 0.628627 0.25818 20.7733 0.39205 45.3922C0.525919 70.0111 35.378 89.7817 78.2364 89.551Z" fill="url(#paint2_linear_101_6913)"/>
<path d="M77.5048 89.9581C56.7975 89.9581 37.3686 85.3383 22.7583 76.9442C8.08483 68.5152 0 57.2626 0 45.2551C0 33.2477 8.20424 21.7644 23.1025 13.2096C37.8603 4.7317 57.4437 0.0349461 78.2423 0C78.3266 0 78.4109 0 78.4952 0C99.2025 0 118.631 4.61987 133.249 13.0139C147.922 21.4429 156.007 32.6955 156.007 44.703C156.007 56.8153 147.803 68.1937 132.905 76.7485C118.14 85.2264 98.5563 89.9232 77.7647 89.9581C77.6804 89.9581 77.5961 89.9581 77.5118 89.9581H77.5048ZM78.4882 0.817738C58.6098 0.817738 38.6822 5.18599 23.5029 13.9015C8.86451 22.3096 0.800756 33.4434 0.800756 45.2551C0.800756 57.0669 8.73808 67.9701 23.1587 76.2523C53.2082 93.5156 102.258 93.4248 132.497 76.0566C147.135 67.6486 155.199 56.5078 155.199 44.696C155.199 32.9891 147.262 21.9811 132.841 13.6989C117.88 5.10911 98.2051 0.810748 78.4882 0.810748V0.817738Z" fill="white"/>
<path d="M133.038 13.3564C102.827 -3.99782 53.6928 -3.90696 23.2992 13.5521C-7.10146 31.0181 -7.24896 59.2406 22.955 76.5948C53.166 93.949 102.3 93.8651 132.694 76.3991C163.094 58.933 163.242 30.7106 133.038 13.3564ZM129.891 72.6808C101.05 89.2522 54.4374 89.3291 25.7787 72.8695C-2.87992 56.4029 -2.73242 29.6273 26.1089 13.0559C54.9501 -3.51556 101.563 -3.59943 130.221 12.8671C158.88 29.3337 158.732 56.1094 129.891 72.6808Z" fill="white"/>
<path d="M106.339 61.2604C98.7178 65.6357 88.61 68.0609 77.87 68.0749C67.1301 68.0889 57.0434 65.7126 49.4783 61.3583C44.3788 58.4298 40.7543 54.7605 39.0053 50.7556C37.3054 46.8696 37.3967 42.767 39.2722 38.895C39.8903 37.6229 42.1802 36.8681 44.3928 37.2175C46.6054 37.56 47.8979 38.874 47.2797 40.146C44.2032 46.4992 47.3078 53.3277 55.3786 57.9685C67.7763 65.0905 88.013 65.0556 100.488 57.8846C112.963 50.7207 113.026 39.0906 100.628 31.9686C92.5576 27.3348 80.6727 25.5456 69.6096 27.3138C67.397 27.6703 65.1141 26.9224 64.5101 25.6574C63.906 24.3853 65.2125 23.0714 67.4321 22.7149C74.1683 21.6386 81.3119 21.5827 88.0762 22.5612C95.0512 23.5676 101.429 25.6504 106.529 28.5789C114.101 32.9262 118.252 38.7202 118.217 44.8917C118.182 51.0632 113.967 56.8712 106.353 61.2464L106.339 61.2604Z" fill="white"/>
<path d="M69.5956 40.153C67.7201 41.2294 64.6786 41.2364 62.8172 40.167L42.1732 28.3063C40.3047 27.237 40.3188 25.4897 42.1942 24.4133C44.0697 23.337 47.1112 23.33 48.9726 24.3993L69.6166 36.26C71.4851 37.3294 71.471 39.0767 69.5956 40.153Z" fill="white"/>
<path d="M77.5399 85.534C58.694 85.534 39.8903 81.4314 25.582 73.212C11.6531 65.2094 3.9827 54.5299 3.9827 43.1305C3.9827 31.7311 11.7725 20.8279 25.9122 12.7064C54.8167 -3.89993 101.703 -3.9838 130.425 12.5177C144.354 20.5204 152.024 31.1999 152.024 42.5993C152.024 53.9987 144.234 64.9019 130.095 73.0233C115.583 81.3615 96.5403 85.534 77.5399 85.534ZM78.4671 0.985529C59.6072 0.985529 40.7121 5.12314 26.3126 13.3984C12.4258 21.38 4.78345 31.9338 4.78345 43.1375C4.78345 54.3412 12.3134 64.6712 25.9824 72.5271C54.4865 88.9028 101.015 88.8189 129.694 72.3384C143.574 64.3637 151.224 53.803 151.224 42.6063C151.224 31.4096 143.694 21.0725 130.025 13.2166C115.829 5.06024 97.1655 0.985529 78.4601 0.985529H78.4671Z" fill="white"/>
</g>
<defs>
<linearGradient id="paint0_linear_101_6913" x1="0.407398" y1="74.7357" x2="155.6" y2="74.7357" gradientUnits="userSpaceOnUse">
<stop stop-color="#1E4A84"/>
<stop offset="1" stop-color="#213176"/>
</linearGradient>
<linearGradient id="paint1_linear_101_6913" x1="8.83766e-06" y1="74.7357" x2="156" y2="74.7357" gradientUnits="userSpaceOnUse">
<stop stop-color="#1E4A84"/>
<stop offset="1" stop-color="#213176"/>
</linearGradient>
<linearGradient id="paint2_linear_101_6913" x1="0.398084" y1="44.9743" x2="155.597" y2="44.9743" gradientUnits="userSpaceOnUse">
<stop stop-color="#72A9D3"/>
<stop offset="1" stop-color="#2684B9"/>
</linearGradient>
<clipPath id="clip0_101_6913">
<rect width="156" height="103" fill="white"/>
</clipPath>
</defs>
</svg>
