<svg width="631" height="526" viewBox="0 0 631 526" fill="none" xmlns="http://www.w3.org/2000/svg">
<g clip-path="url(#clip0_89_2865)">
<path d="M266.815 360.061L231.211 377.61C227.59 379.396 227.432 384.503 230.938 386.507L302.806 427.587C306.015 429.421 305.979 434.062 302.74 435.846L245.838 467.182C242.17 469.2 237.725 469.204 234.056 467.191L211.624 454.883" stroke="#6EA5C4" stroke-width="2.96099" stroke-miterlimit="10"/>
<path d="M337.303 360.678L389.304 389.568C392.529 391.36 392.556 395.988 389.354 397.818L351.531 419.437C348.116 421.391 348.154 426.33 351.601 428.228L409.526 460.127C412.259 461.632 415.573 461.636 418.309 460.133L460.559 436.951" stroke="#6EA5C4" stroke-width="2.96099" stroke-miterlimit="10"/>
<path d="M462.686 460.595L405.399 427.939C404.669 427.523 404.219 426.863 404.048 426.146C403.971 425.822 403.505 419.001 404.327 418.514L479.685 379.029C481.165 378.153 483.001 378.138 484.496 378.988L543.441 407.493C544.371 408.024 543.897 415.287 543.732 415.714C543.503 416.305 543.08 416.834 542.464 417.199L469.276 460.541C467.248 461.742 464.733 461.763 462.686 460.595Z" fill="url(#paint0_linear_89_2865)"/>
<path d="M462.686 460.381L405.399 427.725C404.669 427.31 404.219 426.65 404.048 425.932C403.971 425.609 403.505 418.787 404.327 418.3L479.685 378.815C481.165 377.94 483.001 377.924 484.496 378.775L543.441 407.28C544.371 407.811 543.897 415.073 543.732 415.5C543.503 416.091 543.08 416.62 542.464 416.986L469.276 460.327C467.248 461.528 464.733 461.549 462.686 460.381Z" fill="url(#paint1_linear_89_2865)"/>
<path d="M462.686 454.021L405.399 421.365C403.511 420.29 403.49 417.577 405.358 416.47L479.685 372.455C481.165 371.58 483.001 371.564 484.496 372.415L542.422 405.434C544.423 406.575 544.446 409.452 542.464 410.626L469.276 453.967C467.248 455.168 464.733 455.189 462.686 454.021Z" fill="#A4D4ED"/>
<path d="M405.399 421.225L462.686 453.881C464.733 455.047 467.25 455.028 469.276 453.827L542.464 410.485C543.43 409.914 543.911 408.936 543.926 407.953C543.957 408.983 543.476 410.027 542.464 410.628L469.276 453.969C467.248 455.17 464.733 455.191 462.686 454.023L405.399 421.367C404.431 420.815 403.961 419.832 403.979 418.856C404.007 419.784 404.477 420.702 405.399 421.227V421.225Z" fill="white"/>
<path d="M472.846 426.7L473.381 427.021L495.006 414.536L508.779 422.52L509.316 422.226L495.006 413.918L472.846 426.7Z" fill="url(#paint2_linear_89_2865)"/>
<path d="M473.381 427.021L487.155 435.007L508.779 422.52L495.006 414.536L473.381 427.021Z" fill="url(#paint3_linear_89_2865)"/>
<path d="M478.927 382.242L482.3 380.283L485.993 382.456L482.618 384.415L478.927 382.242Z" fill="url(#paint4_linear_89_2865)"/>
<path d="M481.65 386.703L487.467 383.324L491.16 385.496L485.34 388.875L481.65 386.703Z" fill="url(#paint5_linear_89_2865)"/>
<path d="M474.051 385.075L477.424 383.116L481.115 385.288L477.741 387.247L474.051 385.075Z" fill="url(#paint6_linear_89_2865)"/>
<path d="M469.172 387.907L472.548 385.948L476.238 388.119L472.865 390.08L469.172 387.907Z" fill="url(#paint7_linear_89_2865)"/>
<path d="M464.296 390.738L467.67 388.779L471.362 390.952L467.987 392.911L464.296 390.738Z" fill="url(#paint8_linear_89_2865)"/>
<path d="M459.42 393.571L462.793 391.612L466.484 393.784L463.111 395.743L459.42 393.571Z" fill="url(#paint9_linear_89_2865)"/>
<path d="M454.542 396.403L457.915 394.444L461.608 396.617L458.235 398.576L454.542 396.403Z" fill="url(#paint10_linear_89_2865)"/>
<path d="M449.666 399.236L453.039 397.277L456.73 399.448L453.356 401.408L449.666 399.236Z" fill="url(#paint11_linear_89_2865)"/>
<path d="M444.789 402.067L448.163 400.108L451.854 402.28L448.48 404.239L444.789 402.067Z" fill="url(#paint12_linear_89_2865)"/>
<path d="M439.911 404.899L443.285 402.94L446.977 405.113L443.604 407.072L439.911 404.899Z" fill="url(#paint13_linear_89_2865)"/>
<path d="M435.035 407.732L438.408 405.773L442.099 407.945L438.726 409.904L435.035 407.732Z" fill="url(#paint14_linear_89_2865)"/>
<path d="M430.157 410.564L433.532 408.605L437.223 410.776L433.85 412.737L430.157 410.564Z" fill="url(#paint15_linear_89_2865)"/>
<path d="M425.281 413.395L428.654 411.436L432.347 413.609L428.972 415.568L425.281 413.395Z" fill="url(#paint16_linear_89_2865)"/>
<path d="M423.778 414.269L427.469 416.441L422.009 419.611L418.318 417.44L423.778 414.269Z" fill="url(#paint17_linear_89_2865)"/>
<path d="M477.131 389.326L480.505 387.367L484.197 389.539L480.822 391.498L477.131 389.326Z" fill="url(#paint18_linear_89_2865)"/>
<path d="M472.255 392.158L475.629 390.199L479.319 392.372L475.946 394.331L472.255 392.158Z" fill="url(#paint19_linear_89_2865)"/>
<path d="M467.377 394.991L470.752 393.032L474.443 395.205L471.07 397.163L467.377 394.991Z" fill="url(#paint20_linear_89_2865)"/>
<path d="M462.501 397.823L465.874 395.864L469.567 398.037L466.192 399.996L462.501 397.823Z" fill="url(#paint21_linear_89_2865)"/>
<path d="M457.625 400.654L460.998 398.695L464.689 400.868L461.315 402.827L457.625 400.654Z" fill="url(#paint22_linear_89_2865)"/>
<path d="M452.746 403.487L456.12 401.528L459.813 403.7L456.439 405.659L452.746 403.487Z" fill="url(#paint23_linear_89_2865)"/>
<path d="M447.87 406.319L451.244 404.36L454.934 406.533L451.561 408.492L447.87 406.319Z" fill="url(#paint24_linear_89_2865)"/>
<path d="M442.994 409.152L446.367 407.193L450.058 409.366L446.685 411.324L442.994 409.152Z" fill="url(#paint25_linear_89_2865)"/>
<path d="M438.116 411.983L441.489 410.024L445.182 412.196L441.809 414.155L438.116 411.983Z" fill="url(#paint26_linear_89_2865)"/>
<path d="M433.24 414.815L436.613 412.856L440.304 415.029L436.93 416.988L433.24 414.815Z" fill="url(#paint27_linear_89_2865)"/>
<path d="M428.363 417.648L431.737 415.689L435.428 417.861L432.054 419.82L428.363 417.648Z" fill="url(#paint28_linear_89_2865)"/>
<path d="M430.551 420.694L427.176 422.653L423.485 420.48L426.859 418.521L430.551 420.694Z" fill="url(#paint29_linear_89_2865)"/>
<path d="M506.66 394.62L500.843 397.997L497.152 395.824L502.969 392.447L506.66 394.62Z" fill="url(#paint30_linear_89_2865)"/>
<path d="M499.698 398.663L496.325 400.621L492.634 398.449L496.007 396.49L499.698 398.663Z" fill="url(#paint31_linear_89_2865)"/>
<path d="M494.822 401.493L491.448 403.454L487.756 401.281L491.129 399.322L494.822 401.493Z" fill="url(#paint32_linear_89_2865)"/>
<path d="M466.746 413.482L468.249 412.61L471.622 410.651L473.125 409.777L476.498 407.818L478.003 406.945L481.376 404.986L486.253 402.153L489.943 404.326L485.067 407.158L481.694 409.117L480.191 409.991L476.816 411.95L475.313 412.822L471.94 414.782L470.437 415.654L468.749 416.634L467.063 417.613L463.371 415.441L465.058 414.461L466.746 413.482Z" fill="url(#paint33_linear_89_2865)"/>
<path d="M465.56 418.487L462.185 420.446L458.494 418.273L461.868 416.314L465.56 418.487Z" fill="url(#paint34_linear_89_2865)"/>
<path d="M460.682 421.32L457.309 423.278L453.618 421.106L456.991 419.147L460.682 421.32Z" fill="url(#paint35_linear_89_2865)"/>
<path d="M455.806 424.15L452.433 426.111L448.74 423.938L452.113 421.979L455.806 424.15Z" fill="url(#paint36_linear_89_2865)"/>
<path d="M450.928 426.983L447.555 428.942L443.864 426.769L447.237 424.81L450.928 426.983Z" fill="url(#paint37_linear_89_2865)"/>
<path d="M446.052 429.815L442.678 431.774L438.988 429.602L442.361 427.643L446.052 429.815Z" fill="url(#paint38_linear_89_2865)"/>
<path d="M485.148 390.713L492.636 386.364L496.326 388.537L488.841 392.884L485.148 390.713Z" fill="url(#paint39_linear_89_2865)"/>
<path d="M480.63 393.336L484.003 391.377L487.696 393.55L484.323 395.508L480.63 393.336Z" fill="url(#paint40_linear_89_2865)"/>
<path d="M475.754 396.169L479.127 394.21L482.818 396.382L479.444 398.341L475.754 396.169Z" fill="url(#paint41_linear_89_2865)"/>
<path d="M470.877 399.001L474.251 397.042L477.942 399.213L474.568 401.172L470.877 399.001Z" fill="url(#paint42_linear_89_2865)"/>
<path d="M465.999 401.832L469.373 399.873L473.065 402.045L469.69 404.004L465.999 401.832Z" fill="url(#paint43_linear_89_2865)"/>
<path d="M461.123 404.665L464.496 402.706L468.187 404.878L464.814 406.837L461.123 404.665Z" fill="url(#paint44_linear_89_2865)"/>
<path d="M456.245 407.497L459.62 405.538L463.311 407.711L459.938 409.67L456.245 407.497Z" fill="url(#paint45_linear_89_2865)"/>
<path d="M451.369 410.33L454.742 408.371L458.435 410.541L455.06 412.5L451.369 410.33Z" fill="url(#paint46_linear_89_2865)"/>
<path d="M446.492 413.16L449.866 411.201L453.557 413.374L450.183 415.333L446.492 413.16Z" fill="url(#paint47_linear_89_2865)"/>
<path d="M441.614 415.993L444.99 414.034L448.68 416.206L445.307 418.165L441.614 415.993Z" fill="url(#paint48_linear_89_2865)"/>
<path d="M436.738 418.825L440.111 416.866L443.802 419.039L440.429 420.998L436.738 418.825Z" fill="url(#paint49_linear_89_2865)"/>
<path d="M438.926 421.87L432.345 425.693L428.652 423.521L435.235 419.699L438.926 421.87Z" fill="url(#paint50_linear_89_2865)"/>
<path d="M489.291 394.348L497.802 389.406L501.493 391.577L492.982 396.521L489.291 394.348Z" fill="url(#paint51_linear_89_2865)"/>
<path d="M484.773 396.971L488.146 395.012L491.839 397.185L488.464 399.144L484.773 396.971Z" fill="url(#paint52_linear_89_2865)"/>
<path d="M479.897 399.804L483.27 397.845L486.961 400.017L483.587 401.976L479.897 399.804Z" fill="url(#paint53_linear_89_2865)"/>
<path d="M475.018 402.636L478.392 400.677L482.085 402.85L478.711 404.809L475.018 402.636Z" fill="url(#paint54_linear_89_2865)"/>
<path d="M470.142 405.469L473.516 403.51L477.206 405.68L473.833 407.641L470.142 405.469Z" fill="url(#paint55_linear_89_2865)"/>
<path d="M465.266 408.299L468.639 406.34L472.33 408.513L468.957 410.472L465.266 408.299Z" fill="url(#paint56_linear_89_2865)"/>
<path d="M460.388 411.132L463.761 409.173L467.454 411.346L464.081 413.304L460.388 411.132Z" fill="url(#paint57_linear_89_2865)"/>
<path d="M455.512 413.965L458.885 412.006L462.576 414.178L459.203 416.137L455.512 413.965Z" fill="url(#paint58_linear_89_2865)"/>
<path d="M450.635 416.797L454.009 414.838L457.7 417.009L454.326 418.97L450.635 416.797Z" fill="url(#paint59_linear_89_2865)"/>
<path d="M445.757 419.628L449.131 417.669L452.823 419.842L449.448 421.8L445.757 419.628Z" fill="url(#paint60_linear_89_2865)"/>
<path d="M447.945 422.674L437.512 428.734L433.819 426.561L444.254 420.501L447.945 422.674Z" fill="url(#paint61_linear_89_2865)"/>
<path d="M473.496 370.679L403.578 416.984C402.603 417.563 396.88 413.905 396.635 413.676C396.031 413.112 395.639 412.308 395.639 411.365V336.699C395.639 333.898 397.114 331.302 399.524 329.87L471.387 287.171C472.342 286.604 473.402 286.561 474.316 286.896C474.574 286.991 480.485 289.146 480.485 290.383L476.573 365.272C476.573 367.49 475.405 369.544 473.496 370.677V370.679Z" fill="url(#paint62_linear_89_2865)"/>
<path d="M478.513 373.186L405.445 416.601C403.33 417.857 400.653 416.333 400.653 413.874V339.209C400.653 336.407 402.129 333.811 404.538 332.379L476.402 289.681C478.69 288.32 481.588 289.969 481.588 292.633V367.781C481.588 370 480.42 372.053 478.511 373.186H478.513Z" fill="url(#paint63_linear_89_2865)"/>
<path d="M403.83 410.969C403.984 410.969 404.134 410.926 404.281 410.84L477.349 367.425C478.561 366.705 479.312 365.385 479.312 363.977V292.633C479.312 291.917 478.709 291.474 478.149 291.474C477.951 291.474 477.755 291.53 477.568 291.64L405.705 334.338C403.996 335.354 402.934 337.221 402.934 339.209V410.072C402.934 410.326 403.022 410.539 403.197 410.709C403.37 410.874 403.599 410.969 403.83 410.969Z" fill="#10141E"/>
<path opacity="0.51" d="M404.538 332.379L476.402 289.681C477.572 288.986 478.896 289.084 479.916 289.694C478.933 289.206 477.724 289.159 476.645 289.8L404.781 332.499C402.372 333.93 400.896 336.524 400.896 339.328V413.994C400.896 415.192 401.538 416.162 402.435 416.703C401.413 416.201 400.653 415.177 400.653 413.872V339.207C400.653 336.405 402.129 333.809 404.538 332.378V332.379Z" fill="url(#paint64_linear_89_2865)"/>
<path d="M413.475 411.807L415.061 412.729L420.104 409.818L418.519 408.896L413.475 411.807Z" fill="#302A2A"/>
<path d="M470.4 378.053L471.986 378.975L477.031 376.061L475.446 375.14L470.4 378.053Z" fill="#302A2A"/>
<path d="M413.475 411.673L415.061 412.595L420.104 409.681L418.519 408.759L413.475 411.673Z" fill="url(#paint65_linear_89_2865)"/>
<path d="M470.4 377.974L471.986 378.896L477.031 375.983L475.446 375.061L470.4 377.974Z" fill="url(#paint66_linear_89_2865)"/>
<path d="M436.005 324.166L434.712 324.94V323.884L436.005 323.11V324.166Z" fill="#CDD8D4"/>
<path d="M436.005 326.741L434.712 327.515V326.458L436.005 325.685V326.741Z" fill="#CDD8D4"/>
<path d="M436.005 329.316L434.712 330.089V329.031L436.005 328.258V329.316Z" fill="#CDD8D4"/>
<path d="M436.005 331.889L434.712 332.662V331.606L436.005 330.832V331.889Z" fill="#CDD8D4"/>
<path d="M436.005 334.464L434.712 335.237V334.181L436.005 333.405V334.464Z" fill="#CDD8D4"/>
<path d="M436.005 337.036L434.712 337.812V336.753L436.005 335.98V337.036Z" fill="#CDD8D4"/>
<path d="M436.005 339.611L434.712 340.384V339.328L436.005 338.554V339.611Z" fill="#CDD8D4"/>
<path d="M436.005 342.186L434.712 342.959V341.901L436.005 341.127V342.186Z" fill="#CDD8D4"/>
<path d="M436.005 344.759L434.712 345.532V344.476L436.005 343.702V344.759Z" fill="#CDD8D4"/>
<path d="M436.005 347.333L434.712 348.107V347.05L436.005 346.277V347.333Z" fill="#CDD8D4"/>
<path d="M436.005 349.908L434.712 350.682V349.623L436.005 348.85V349.908Z" fill="#CDD8D4"/>
<path d="M436.005 352.481L434.712 353.254V352.198L436.005 351.424V352.481Z" fill="#CDD8D4"/>
<path d="M436.005 355.055L434.712 355.829V354.773L436.005 353.997V355.055Z" fill="#CDD8D4"/>
<path d="M436.005 357.628L434.712 358.402V357.345L436.005 356.572V357.628Z" fill="#CDD8D4"/>
<path d="M436.005 360.203L434.712 360.977V359.92L436.005 359.147V360.203Z" fill="#CDD8D4"/>
<path d="M436.005 362.778L434.712 363.551V362.493L436.005 361.719V362.778Z" fill="#CDD8D4"/>
<path d="M436.005 365.351L434.712 366.124V365.068L436.005 364.294V365.351Z" fill="#CDD8D4"/>
<path d="M436.005 367.925L434.712 368.699V367.642L436.005 366.869V367.925Z" fill="#CDD8D4"/>
<path d="M436.005 370.498L434.712 371.274V370.215L436.005 369.442V370.498Z" fill="#CDD8D4"/>
<path d="M436.005 373.073L434.712 373.846V372.79L436.005 372.016V373.073Z" fill="#CDD8D4"/>
<path d="M436.005 375.648L434.712 376.421V375.365L436.005 374.589V375.648Z" fill="#CDD8D4"/>
<path d="M436.005 378.22L434.712 378.994V377.937L436.005 377.164V378.22Z" fill="#CDD8D4"/>
<path d="M436.005 380.795L434.712 381.569V380.512L436.005 379.739V380.795Z" fill="#CDD8D4"/>
<path d="M436.005 383.37L434.712 384.143V383.085L436.005 382.312V383.37Z" fill="#CDD8D4"/>
<path d="M436.005 385.943L434.712 386.716V385.66L436.005 384.886V385.943Z" fill="#CDD8D4"/>
<path d="M409.823 339.844L408.53 340.617V339.561L409.823 338.787V339.844Z" fill="#CDD8D4"/>
<path d="M415.478 336.457L410.948 339.17V338.112L415.478 335.401V336.457Z" fill="#998359"/>
<path d="M421.038 333.13L416.508 335.841V334.785L421.038 332.072V333.13Z" fill="#998359"/>
<path d="M426.597 329.801L422.067 332.512V331.456L426.597 328.744V329.801Z" fill="#998359"/>
<path d="M409.823 342.418L408.53 343.192V342.136L409.823 341.36V342.418Z" fill="#CDD8D4"/>
<path d="M409.823 344.991L408.53 345.767V344.709L409.823 343.935V344.991Z" fill="#CDD8D4"/>
<path d="M414.624 342.116L411.199 344.168V343.111L414.624 341.06V342.116Z" fill="#CDD8D4"/>
<path d="M418.578 339.75L415.153 341.801V340.744L418.578 338.693V339.75Z" fill="#CDD8D4"/>
<path d="M422.533 337.383L419.106 339.434V338.376L422.533 336.324V337.383Z" fill="#247489"/>
<path d="M409.823 347.566L408.53 348.34V347.283L409.823 346.51V347.566Z" fill="#CDD8D4"/>
<path d="M416.425 343.612L410.723 347.027V345.971L416.425 342.555V343.612Z" fill="#247489"/>
<path d="M422.844 339.769L417.143 343.182V342.126L422.844 338.71V339.769Z" fill="#CDD8D4"/>
<path d="M429.266 335.924L423.562 339.34V338.281L429.266 334.868V335.924Z" fill="#CDD8D4"/>
<path d="M409.823 350.141L408.53 350.914V349.856L409.823 349.083V350.141Z" fill="#CDD8D4"/>
<path d="M414.918 347.089L410.723 349.602V348.544L414.918 346.032V347.089Z" fill="#247489"/>
<path d="M409.823 352.714L408.53 353.487V352.431L409.823 351.657V352.714Z" fill="#CDD8D4"/>
<path d="M412.994 350.816L411.701 351.59V350.532L412.994 349.758V350.816Z" fill="#CDD8D4"/>
<path d="M409.823 355.288L408.53 356.062V355.005L409.823 354.232V355.288Z" fill="#CDD8D4"/>
<path d="M412.994 353.389L411.701 354.163V353.106L412.994 352.333V353.389Z" fill="#CDD8D4"/>
<path d="M409.823 357.861L408.53 358.637V357.578L409.823 356.805V357.861Z" fill="#CDD8D4"/>
<path d="M412.994 355.964L411.701 356.737V355.681L412.994 354.906V355.964Z" fill="#CDD8D4"/>
<path d="M418.578 347.472L413.423 350.558V349.5L418.578 346.413V347.472Z" fill="#247489"/>
<path d="M420.243 349.05L413.423 353.131V352.075L420.243 347.991V349.05Z" fill="#247489"/>
<path d="M421.045 351.143L413.423 355.706V354.649L421.045 350.085V351.143Z" fill="#247489"/>
<path d="M409.823 360.436L408.53 361.209V360.153L409.823 359.379V360.436Z" fill="#CDD8D4"/>
<path d="M414.716 357.505L413.423 358.281V357.222L414.716 356.449V357.505Z" fill="#247489"/>
<path d="M423 352.544L415.37 357.114V356.058L423 351.488V352.544Z" fill="#247489"/>
<path d="M409.823 363.011L408.53 363.784V362.728L409.823 361.952V363.011Z" fill="#CDD8D4"/>
<path d="M409.823 365.583L408.53 366.357V365.301L409.823 364.527V365.583Z" fill="#CDD8D4"/>
<path d="M409.823 368.158L408.53 368.932V367.875L409.823 367.102V368.158Z" fill="#CDD8D4"/>
<path d="M409.823 370.733L408.53 371.507V370.448L409.823 369.675V370.733Z" fill="#CDD8D4"/>
<path d="M409.823 373.306L408.53 374.079V373.023L409.823 372.249V373.306Z" fill="#CDD8D4"/>
<path d="M409.823 375.881L408.53 376.654V375.598L409.823 374.824V375.881Z" fill="#CDD8D4"/>
<path d="M409.823 378.453L408.53 379.229V378.17L409.823 377.397V378.453Z" fill="#CDD8D4"/>
<path d="M409.823 381.028L408.53 381.802V380.745L409.823 379.972V381.028Z" fill="#CDD8D4"/>
<path d="M420.597 356.558L415.501 359.61V358.554L420.597 355.502V356.558Z" fill="#247489"/>
<path d="M426.36 353.108L421.265 356.158V355.102L426.36 352.052V353.108Z" fill="#CDD8D4"/>
<path d="M432.124 349.658L427.028 352.708V351.651L432.124 348.599V349.658Z" fill="#CDD8D4"/>
<path d="M419.825 359.595L415.501 362.183V361.127L419.825 358.537V359.595Z" fill="#CDD8D4"/>
<path d="M424.726 356.66L420.401 359.251V358.192L424.726 355.604V356.66Z" fill="#247489"/>
<path d="M429.626 353.726L425.302 356.316V355.258L429.626 352.669V353.726Z" fill="#CDD8D4"/>
<path d="M420.693 361.65L415.501 364.758V363.701L420.693 360.592V361.65Z" fill="#924443"/>
<path d="M426.576 358.127L421.384 361.236V360.178L426.576 357.07V358.127Z" fill="#CDD8D4"/>
<path d="M419.825 364.743L415.501 367.333V366.274L419.825 363.686V364.743Z" fill="#CDD8D4"/>
<path d="M425.017 361.635L420.693 364.223V363.167L425.017 360.576V361.635Z" fill="#CDD8D4"/>
<path d="M419.825 367.317L415.501 369.905V368.849L419.825 366.259V367.317Z" fill="#247489"/>
<path d="M424.609 364.452L420.285 367.042V365.986L424.609 363.396V364.452Z" fill="#CDD8D4"/>
<path d="M429.393 361.589L425.069 364.177V363.12L429.393 360.53V361.589Z" fill="#CDD8D4"/>
<path d="M418.971 370.402L415.501 372.48V371.424L418.971 369.345V370.402Z" fill="#CDD8D4"/>
<path d="M422.904 368.048L419.433 370.125V369.068L422.904 366.99V368.048Z" fill="#247489"/>
<path d="M426.836 365.693L423.366 367.771V366.713L426.836 364.637V365.693Z" fill="#CDD8D4"/>
<path d="M430.769 363.338L427.297 365.416V364.36L430.769 362.281V363.338Z" fill="#CDD8D4"/>
<path d="M419.825 372.465L415.501 375.055V373.997L419.825 371.408V372.465Z" fill="#247489"/>
<path d="M424.609 369.6L420.285 372.19V371.133L424.609 368.543V369.6Z" fill="#CDD8D4"/>
<path d="M429.393 366.736L425.069 369.326V368.268L429.393 365.68V366.736Z" fill="#CDD8D4"/>
<path d="M419.825 375.04L415.501 377.628V376.571L419.825 373.981V375.04Z" fill="#247489"/>
<path d="M424.726 372.105L420.401 374.693V373.637L424.726 371.047V372.105Z" fill="#CDD8D4"/>
<path d="M409.823 383.603L408.53 384.376V383.318L409.823 382.544V383.603Z" fill="#CDD8D4"/>
<path d="M409.823 386.176L408.53 386.949V385.893L409.823 385.119V386.176Z" fill="#CDD8D4"/>
<path d="M409.823 388.75L408.53 389.524V388.467L409.823 387.694V388.75Z" fill="#CDD8D4"/>
<path d="M409.823 391.325L408.53 392.099V391.04L409.823 390.267V391.325Z" fill="#CDD8D4"/>
<path d="M409.823 393.898L408.53 394.671V393.615L409.823 392.841V393.898Z" fill="#CDD8D4"/>
<path d="M412.994 381.703L411.701 382.477V381.421L412.994 380.647V381.703Z" fill="#CDD8D4"/>
<path d="M412.994 384.278L411.701 385.052V383.993L412.994 383.22V384.278Z" fill="#CDD8D4"/>
<path d="M412.994 386.851L411.701 387.625V386.568L412.994 385.795V386.851Z" fill="#CDD8D4"/>
<path d="M412.994 389.426L411.701 390.199V389.143L412.994 388.369V389.426Z" fill="#CDD8D4"/>
<path d="M412.994 392.001L411.701 392.774V391.716L412.994 390.942V392.001Z" fill="#CDD8D4"/>
<path d="M419.964 377.53L413.689 381.288V380.229L419.964 376.473V377.53Z" fill="#247489"/>
<path d="M417.662 381.482L413.689 383.861V382.804L417.662 380.424V381.482Z" fill="#247489"/>
<path d="M419.048 383.226L413.689 386.435V385.379L419.048 382.169V383.226Z" fill="#247489"/>
<path d="M418.043 386.402L413.689 389.01V387.952L418.043 385.344V386.402Z" fill="#247489"/>
<path d="M416.548 389.872L413.689 391.583V390.526L416.548 388.814V389.872Z" fill="#247489"/>
<path d="M409.823 396.473L408.53 397.246V396.19L409.823 395.414V396.473Z" fill="#CDD8D4"/>
<path d="M409.823 399.045L408.53 399.821V398.762L409.823 397.989V399.045Z" fill="#CDD8D4"/>
<path d="M409.823 401.62L408.53 402.394V401.337L409.823 400.564V401.62Z" fill="#CDD8D4"/>
<path d="M411.701 395.347L410.41 396.12V395.064L411.701 394.29V395.347Z" fill="#CDD8D4"/>
<path d="M411.701 397.921L410.41 398.695V397.639L411.701 396.865V397.921Z" fill="#CDD8D4"/>
<path d="M411.701 400.494L410.41 401.27V400.211L411.701 399.438V400.494Z" fill="#CDD8D4"/>
<path d="M417.53 391.858L412.642 394.785V393.727L417.53 390.8V391.858Z" fill="#247489"/>
<path d="M415.988 395.355L412.642 397.358V396.301L415.988 394.296V395.355Z" fill="#247489"/>
<path d="M415.086 398.468L412.642 399.933V398.876L415.086 397.412V398.468Z" fill="#247489"/>
<path d="M441.799 320.697L438.343 322.767V321.711L441.799 319.64V320.697Z" fill="#9A7B9B"/>
<path d="M447.857 317.071L442.213 320.451V319.392L447.857 316.013V317.071Z" fill="#247489"/>
<path d="M445.53 321.037L438.343 325.342V324.284L445.53 319.981V321.037Z" fill="#924443"/>
<path d="M454.113 315.898L446.925 320.202V319.146L454.113 314.841V315.898Z" fill="#998359"/>
<path d="M462.697 310.758L455.508 315.062V314.006L462.697 309.701V310.758Z" fill="url(#paint67_linear_89_2865)"/>
<path d="M471.28 305.62L464.092 309.923V308.866L471.28 304.561V305.62Z" fill="url(#paint68_linear_89_2865)"/>
<path d="M441.616 325.954L438.343 327.915V326.859L441.616 324.898V325.954Z" fill="#9A7B9B"/>
<path d="M450.52 320.624L442.492 325.431V324.374L450.52 319.567V320.624Z" fill="#924443"/>
<path d="M459.522 315.234L451.496 320.041V318.982L459.522 314.175V315.234Z" fill="#CDD8D4"/>
<path d="M449.025 324.093L441.289 328.725V327.667L449.025 323.037V324.093Z" fill="#247489"/>
<path d="M457.565 318.98L449.829 323.61V322.554L457.565 317.922V318.98Z" fill="#998359"/>
<path d="M466.105 313.866L458.369 318.497V317.441L466.105 312.809V313.866Z" fill="#CDD8D4"/>
<path d="M474.645 308.753L466.909 313.384V312.326L474.645 307.696V308.753Z" fill="#247489"/>
<path d="M444.114 329.608L439.757 332.216V331.159L444.114 328.55V329.608Z" fill="#9A7B9B"/>
<path d="M445.792 331.177L440.835 334.144V333.088L445.792 330.12V331.177Z" fill="#247489"/>
<path d="M451.667 327.659L446.708 330.628V329.572L451.667 326.603V327.659Z" fill="#247489"/>
<path d="M442.967 335.443L439.842 337.313V336.257L442.967 334.386V335.443Z" fill="#9A7B9B"/>
<path d="M441.024 339.18L438.343 340.785V339.728L441.024 338.122V339.18Z" fill="#9A7B9B"/>
<path d="M442.282 343.575L438.343 345.934V344.876L442.282 342.517V343.575Z" fill="#9A7B9B"/>
<path d="M446.914 340.802L442.975 343.159V342.103L446.914 339.744V340.802Z" fill="#247489"/>
<path d="M445.742 344.077L439.665 347.714V346.658L445.742 343.021V344.077Z" fill="#924443"/>
<path d="M452.448 340.061L446.373 343.698V342.642L452.448 339.005V340.061Z" fill="#998359"/>
<path d="M459.156 336.045L453.079 339.682V338.626L459.156 334.989V336.045Z" fill="#CDD8D4"/>
<path d="M465.863 332.029L459.788 335.666V334.61L465.863 330.973V332.029Z" fill="#247489"/>
<path d="M472.571 328.013L466.494 331.65V330.593L472.571 326.957V328.013Z" fill="#CDD8D4"/>
<path d="M441.886 348.959L438.343 351.082V350.025L441.886 347.903V348.959Z" fill="#9A7B9B"/>
<path d="M441.362 354.423L438.343 356.229V355.173L441.362 353.364V354.423Z" fill="#9A7B9B"/>
<path d="M447.131 350.966L441.886 354.107V353.05L447.131 349.91V350.966Z" fill="#247489"/>
<path d="M446.373 353.995L439.665 358.011V356.955L446.373 352.937V353.995Z" fill="#924443"/>
<path d="M453.839 349.525L447.131 353.541V352.483L453.839 348.467V349.525Z" fill="#998359"/>
<path d="M461.306 345.053L454.598 349.069V348.013L461.306 343.996V345.053Z" fill="#CDD8D4"/>
<path d="M468.772 340.583L462.064 344.599V343.542L468.772 339.526V340.583Z" fill="#CDD8D4"/>
<path d="M476.238 336.113L469.53 340.129V339.072L476.238 335.056V336.113Z" fill="#247489"/>
<path d="M441.245 359.639L439.954 360.413V359.356L441.245 358.583V359.639Z" fill="#9A7B9B"/>
<path d="M447.562 355.856L442.157 359.093V358.036L447.562 354.8V355.856Z" fill="#924443"/>
<path d="M454.061 351.965L448.655 355.202V354.145L454.061 350.909V351.965Z" fill="#247489"/>
<path d="M460.559 348.074L455.154 351.311V350.254L460.559 347.018V348.074Z" fill="#CDD8D4"/>
<path d="M467.058 344.183L461.652 347.42V346.363L467.058 343.127V344.183Z" fill="#CDD8D4"/>
<path d="M449.146 357.482L441.512 362.054V360.996L449.146 356.426V357.482Z" fill="#247489"/>
<path d="M457.655 352.386L450.022 356.959V355.9L457.655 351.33V352.386Z" fill="#998359"/>
<path d="M466.167 347.291L458.533 351.861V350.805L466.167 346.234V347.291Z" fill="#CDD8D4"/>
<path d="M474.678 342.195L467.044 346.766V345.709L474.678 341.137V342.195Z" fill="#924443"/>
<path d="M442.784 363.865L439.954 365.56V364.504L442.784 362.809V363.865Z" fill="#9A7B9B"/>
<path d="M445.909 364.569L441.239 367.365V366.307L445.909 363.511V364.569Z" fill="#247489"/>
<path d="M451.276 361.354L446.608 364.15V363.093L451.276 360.297V361.354Z" fill="#998359"/>
<path d="M442.363 369.267L439.954 370.71V369.651L442.363 368.208V369.267Z" fill="#9A7B9B"/>
<path d="M440.925 372.701L438.343 374.247V373.19L440.925 371.643V372.701Z" fill="#9A7B9B"/>
<path d="M443.723 376.173L438.343 379.396V378.338L443.723 375.117V376.173Z" fill="#998359"/>
<path d="M449.823 372.521L444.441 375.744V374.687L449.823 371.464V372.521Z" fill="#247489"/>
<path d="M439.634 381.195L438.343 381.969V380.913L439.634 380.139V381.195Z" fill="#9A7B9B"/>
<path d="M443.3 381.575L438.343 384.544V383.487L443.3 380.518V381.575Z" fill="#9A7B9B"/>
<path d="M449.612 377.795L444.653 380.764V379.708L449.612 376.739V377.795Z" fill="#247489"/>
<path d="M455.922 374.018L450.965 376.985V375.929L455.922 372.959V374.018Z" fill="#998359"/>
<path d="M462.233 370.238L457.274 373.208V372.149L462.233 369.182V370.238Z" fill="#924443"/>
<path d="M288.158 368.091V383.391H288.223C288.45 383.391 288.675 383.391 288.902 383.358C289.16 383.358 289.387 383.326 289.614 383.293C289.842 383.26 290.099 383.197 290.326 383.164C290.392 383.164 290.455 383.131 290.554 383.099H290.65C290.779 383.066 290.94 383.033 291.069 382.97C291.36 382.904 291.65 382.808 291.943 382.679C292.299 382.55 292.622 382.388 292.945 382.194L434.602 300.699C435.993 299.891 436.703 298.823 436.703 297.788V282.455C436.703 283.523 435.991 284.589 434.602 285.364L292.945 366.892C292.266 367.281 291.491 367.571 290.65 367.766C290.617 367.766 290.584 367.766 290.554 367.798C289.778 367.993 288.97 368.089 288.16 368.089L288.158 368.091Z" fill="#232538"/>
<path d="M150.998 288.184V303.58C150.998 303.709 150.998 303.838 151.031 303.969C151.064 304.065 151.096 304.163 151.096 304.259C151.129 304.259 151.129 304.292 151.129 304.325C151.129 304.357 151.129 304.357 151.162 304.39C151.195 304.519 151.258 304.648 151.356 304.779C151.389 304.875 151.422 304.908 151.485 304.973C151.485 305.039 151.518 305.069 151.551 305.102C151.583 305.135 151.616 305.168 151.616 305.231C151.745 305.393 151.907 305.554 152.068 305.683C152.09 305.705 152.112 305.716 152.134 305.716C152.262 305.845 152.457 305.974 152.619 306.105C152.747 306.17 152.846 306.266 152.974 306.363C153.007 306.363 153.04 306.395 153.071 306.428L282.856 382.196C283.341 382.487 283.859 382.714 284.409 382.875C284.636 382.941 284.829 382.972 285.056 383.037C285.152 383.07 285.283 383.102 285.379 383.133C285.508 383.166 285.637 383.199 285.768 383.229C286.091 383.262 286.382 383.326 286.674 383.358C286.965 383.358 287.224 383.391 287.482 383.391H288.162V368.091H287.871C287.03 368.091 286.189 367.962 285.381 367.8C285.285 367.768 285.154 367.735 285.058 367.704C284.249 367.51 283.505 367.252 282.858 366.863L153.073 291.095C152.878 290.999 152.749 290.868 152.62 290.772C152.459 290.643 152.264 290.545 152.135 290.416C151.908 290.221 151.716 289.996 151.554 289.769C151.522 289.737 151.489 289.704 151.489 289.673C151.327 289.446 151.231 289.221 151.133 288.994C151.133 288.972 151.122 288.95 151.1 288.928C151.035 288.67 151.004 288.443 151.004 288.184H150.998Z" fill="#232538"/>
<path d="M288.158 367.958V383.258H288.223C288.45 383.258 288.675 383.258 288.902 383.225C289.16 383.225 289.387 383.193 289.614 383.16C289.842 383.127 290.099 383.064 290.326 383.031C290.392 383.031 290.455 382.998 290.554 382.966H290.65C290.779 382.933 290.94 382.9 291.069 382.837C291.36 382.771 291.65 382.675 291.943 382.546C292.299 382.417 292.622 382.256 292.945 382.061L434.602 300.566C435.993 299.758 436.703 298.69 436.703 297.655V282.322C436.703 283.39 435.991 284.456 434.602 285.232L292.945 366.759C292.266 367.148 291.491 367.438 290.65 367.633C290.617 367.633 290.584 367.633 290.554 367.665C289.778 367.86 288.97 367.956 288.16 367.956L288.158 367.958Z" fill="url(#paint69_linear_89_2865)"/>
<path d="M153.088 285.116C150.302 286.725 150.286 289.348 153.055 290.957L282.866 366.746C285.635 368.354 290.163 368.354 292.949 366.746L434.598 285.251C437.385 283.642 437.379 281.031 434.61 279.422L304.799 203.633C302.03 202.024 297.523 202.013 294.735 203.621L153.086 285.116H153.088Z" fill="#A6C8ED"/>
<path d="M150.998 288.051V303.447C150.998 303.576 150.998 303.705 151.031 303.836C151.064 303.932 151.096 304.03 151.096 304.127C151.129 304.127 151.129 304.159 151.129 304.192C151.129 304.225 151.129 304.225 151.162 304.257C151.195 304.386 151.258 304.515 151.356 304.646C151.389 304.742 151.422 304.775 151.485 304.84C151.485 304.906 151.518 304.937 151.551 304.969C151.583 305.002 151.616 305.035 151.616 305.098C151.745 305.26 151.907 305.422 152.068 305.551C152.09 305.572 152.112 305.583 152.134 305.583C152.262 305.712 152.457 305.841 152.619 305.972C152.747 306.037 152.846 306.134 152.974 306.23C153.007 306.23 153.04 306.263 153.071 306.295L282.856 382.063C283.341 382.354 283.859 382.581 284.409 382.743C284.636 382.808 284.829 382.839 285.056 382.904C285.152 382.937 285.283 382.97 285.379 383C285.508 383.033 285.637 383.066 285.768 383.097C286.091 383.129 286.382 383.193 286.674 383.226C286.965 383.226 287.224 383.258 287.482 383.258H288.162V367.958H287.871C287.03 367.958 286.189 367.829 285.381 367.667C285.285 367.635 285.154 367.602 285.058 367.571C284.249 367.377 283.505 367.119 282.858 366.73L153.073 290.962C152.878 290.866 152.749 290.735 152.62 290.639C152.459 290.51 152.264 290.412 152.135 290.283C151.908 290.089 151.716 289.863 151.554 289.636C151.522 289.604 151.489 289.571 151.489 289.54C151.327 289.313 151.231 289.088 151.133 288.861C151.133 288.839 151.122 288.817 151.1 288.795C151.035 288.538 151.004 288.311 151.004 288.051H150.998Z" fill="url(#paint70_linear_89_2865)"/>
<path d="M153.055 290.753L282.866 366.542C285.635 368.151 290.163 368.151 292.949 366.542L434.598 285.047C435.947 284.268 436.626 283.255 436.671 282.234C436.717 283.323 436.038 284.42 434.598 285.251L292.949 366.746C290.163 368.354 285.635 368.354 282.866 366.746L153.055 290.957C151.628 290.127 150.954 289.028 151.004 287.937C151.043 288.959 151.716 289.975 153.055 290.753Z" fill="url(#paint71_linear_89_2865)"/>
<path d="M293.652 310.096L292.765 356.395L168.538 281.447L186.644 245.572L293.652 310.096Z" fill="url(#paint72_linear_89_2865)"/>
<path d="M401.257 248.964L293.652 310.096L186.644 245.571L294.285 184.438L401.257 248.964Z" fill="url(#paint73_linear_89_2865)"/>
<path d="M401.258 248.962L419.148 284.6L292.765 356.395L293.652 310.096L401.258 248.962Z" fill="url(#paint74_linear_89_2865)"/>
<path d="M387.146 273.99V291.44L323.188 327.534V322.127L382.694 288.538V276.493L387.146 273.99Z" fill="#BA6971"/>
<path d="M382.694 276.494V288.538L323.188 322.127V310.082L382.694 276.494Z" fill="#B53839"/>
<path d="M375.909 288.95L377.556 288.114V282.351L375.909 283.309V288.95Z" fill="white"/>
<path d="M373.391 290.374L375.039 289.538V283.773L373.391 284.733V290.374Z" fill="#FEFAF3"/>
<path d="M370.873 291.796L372.52 290.96V285.197L370.873 286.155V291.796Z" fill="#FEF5E7"/>
<path d="M368.356 293.22L370.003 292.385V286.619L368.356 287.579V293.22Z" fill="#FDEFDA"/>
<path d="M365.837 294.642L367.484 293.807V288.043L365.837 289.002V294.642Z" fill="#FDEACE"/>
<path d="M363.32 296.066L364.967 295.231V289.465L363.32 290.426V296.066Z" fill="#FCE5C2"/>
<path d="M360.801 297.488L362.448 296.655V290.889L360.801 291.848V297.488Z" fill="#FCE0B6"/>
<path d="M358.284 298.912L359.931 298.077V292.312L358.284 293.272V298.912Z" fill="#FBDAA9"/>
<path d="M355.765 300.334L357.412 299.501V293.735L355.765 294.694V300.334Z" fill="#FBD59D"/>
<path d="M353.248 301.758L354.895 300.923V295.157L353.248 296.118V301.758Z" fill="#FBD091"/>
<path d="M350.729 303.182L352.376 302.347V296.581L350.729 297.54V303.182Z" fill="#FACB85"/>
<path d="M348.212 304.604L349.859 303.769V298.005L348.212 298.964V304.604Z" fill="#FAC679"/>
<path d="M345.693 306.028L347.34 305.193V299.427L345.693 300.388V306.028Z" fill="#F9C06C"/>
<path d="M343.176 307.45L344.823 306.615V300.851L343.176 301.81V307.45Z" fill="#F9BB60"/>
<path d="M340.657 308.874L342.304 308.039V302.274L340.657 303.234V308.874Z" fill="#F8B654"/>
<path d="M338.14 310.296L339.787 309.461V303.698L338.14 304.656V310.296Z" fill="#F8B148"/>
<path d="M335.621 311.72L337.268 310.885V305.12L335.621 306.08V311.72Z" fill="#F7AB3B"/>
<path d="M333.104 313.142L334.751 312.307V306.543L333.104 307.502V313.142Z" fill="#F7A62F"/>
<path d="M330.585 314.566L332.232 313.731V307.966L330.585 308.926V314.566Z" fill="#F6A123"/>
<path d="M382.694 288.538L387.146 291.44V273.99L382.694 276.493V288.538Z" fill="#72262A"/>
<path d="M201.127 271.686V289.136L265.085 327.534V322.127L205.58 286.394V274.35L201.127 271.686Z" fill="#BA6971"/>
<path d="M205.58 274.35V286.394L265.085 322.127V310.082L205.58 274.35Z" fill="#B53839"/>
<path d="M212.365 287.052L210.717 286.157V280.392L212.365 281.412V287.052Z" fill="white"/>
<path d="M214.882 288.565L213.234 287.672V281.906L214.882 282.924V288.565Z" fill="#FEFAF3"/>
<path d="M217.401 290.079L215.753 289.184V283.421L217.401 284.439V290.079Z" fill="#FEF5E7"/>
<path d="M219.918 291.594L218.27 290.699V284.933L219.918 285.951V291.594Z" fill="#FDEFDA"/>
<path d="M222.437 293.106L220.789 292.211V286.448L222.437 287.466V293.106Z" fill="#FDEACE"/>
<path d="M224.954 294.62L223.306 293.726V287.96L224.954 288.98V294.62Z" fill="#FCE5C2"/>
<path d="M227.472 296.133L225.825 295.24V289.475L227.472 290.493V296.133Z" fill="#FCE0B6"/>
<path d="M229.989 297.647L228.342 296.753V290.989L229.989 292.007V297.647Z" fill="#FBDAA9"/>
<path d="M232.508 299.162L230.861 298.267V292.502L232.508 293.522V299.162Z" fill="#FBD59D"/>
<path d="M235.025 300.674L233.378 299.781V294.016L235.025 295.034V300.674Z" fill="#FBD091"/>
<path d="M237.544 302.189L235.897 301.294V295.531L237.544 296.548V302.189Z" fill="#FACB85"/>
<path d="M240.061 303.703L238.414 302.808V297.043L240.061 298.063V303.703Z" fill="#FAC679"/>
<path d="M242.58 305.216L240.933 304.323V298.557L242.58 299.575V305.216Z" fill="#F9C06C"/>
<path d="M245.097 306.73L243.45 305.835V300.072L245.097 301.09V306.73Z" fill="#F9BB60"/>
<path d="M247.616 308.245L245.969 307.35V301.585L247.616 302.604V308.245Z" fill="#F8B654"/>
<path d="M250.133 309.757L248.486 308.864V303.099L250.133 304.117V309.757Z" fill="#F8B148"/>
<path d="M252.652 311.272L251.005 310.377V304.613L252.652 305.631V311.272Z" fill="#F7AB3B"/>
<path d="M255.169 312.786L253.522 311.891V306.126L255.169 307.146V312.786Z" fill="#F7A62F"/>
<path d="M257.688 314.299L256.041 313.406V307.64L257.688 308.658V314.299Z" fill="#F6A123"/>
<path d="M205.58 286.394L201.127 289.136V271.686L205.58 274.35V286.394Z" fill="#72262A"/>
<path d="M293.75 269.808V278.217L207.412 226.707V218.331L293.75 269.808Z" fill="url(#paint75_linear_89_2865)"/>
<path d="M377.935 221.433L341.931 242.127L293.75 269.808L207.412 218.331L291.629 169.956L377.935 221.433Z" fill="url(#paint76_linear_89_2865)"/>
<path d="M359.621 221.302L353.323 224.926L291.531 188.073L232.024 222.249L225.725 218.495L291.531 180.662L359.621 221.302Z" fill="url(#paint77_linear_89_2865)"/>
<path d="M353.323 224.926L293.848 259.101L232.024 222.249L291.531 188.073L353.323 224.926Z" fill="white"/>
<path d="M377.935 221.433V229.84L293.75 278.218V269.808L341.931 242.127L377.935 221.433Z" fill="url(#paint78_linear_89_2865)"/>
<path d="M291.531 180.662V188.073L353.323 224.926L359.621 221.302L291.531 180.662Z" fill="url(#paint79_linear_89_2865)"/>
<path d="M341.931 241.673L293.75 269.354L207.8 218.108L207.412 218.331L293.75 269.808L341.931 242.127L377.935 221.433L377.546 221.2L341.931 241.673Z" fill="url(#paint80_linear_89_2865)"/>
<path d="M293.75 239.031V259.34L207.412 207.832V187.555L293.75 239.031Z" fill="url(#paint81_linear_89_2865)"/>
<path d="M377.935 190.655L341.931 211.352L293.75 239.031L207.412 187.555L291.629 139.178L377.935 190.655Z" fill="url(#paint82_linear_89_2865)"/>
<path d="M359.621 190.525L353.323 194.148L291.531 157.296L232.024 191.471L225.725 187.717L291.531 149.885L359.621 190.525Z" fill="#B53839"/>
<path d="M353.323 194.148L293.848 228.324L232.024 191.471L291.531 157.296L353.323 194.148Z" fill="url(#paint83_linear_89_2865)"/>
<path d="M377.935 190.656V210.965L293.75 259.34V239.031L341.931 211.352L377.935 190.656Z" fill="url(#paint84_linear_89_2865)"/>
<path d="M291.531 149.885V157.296L353.323 194.148L359.621 190.525L291.531 149.885Z" fill="#B53839"/>
<path d="M341.931 210.895L293.75 238.577L207.8 187.332L207.412 187.555L293.75 239.031L341.931 211.351L377.935 190.655L377.546 190.425L341.931 210.895Z" fill="url(#paint85_linear_89_2865)"/>
<path d="M347.107 196.076L324.308 209.181L293.8 226.707L239.13 194.111L292.457 163.48L347.107 196.076Z" fill="#B53839"/>
<path d="M293.775 213.837V225.277L241.114 193.859V182.438L293.775 213.837Z" fill="url(#paint86_linear_89_2865)"/>
<path d="M345.121 184.33L323.161 196.954L293.775 213.837L241.114 182.438L292.482 152.933L345.121 184.33Z" fill="white"/>
<path d="M345.121 184.33V195.77L293.775 225.277V213.837L323.161 196.953L345.121 184.33Z" fill="url(#paint87_linear_89_2865)"/>
<path d="M323.161 196.657L293.775 213.541L241.366 182.294L241.114 182.439L293.775 213.836L323.161 196.954L345.121 184.33L344.869 184.18L323.161 196.657Z" fill="url(#paint88_linear_89_2865)"/>
<path d="M301.316 173.775L283.31 194.442L278.021 191.381L283.176 185.556L274.616 180.603L264.72 183.684L259.636 180.741L295.053 170.15L301.318 173.775H301.316ZM279.127 178.907L286.043 182.91L290.502 177.847C291.622 176.598 292.996 175.282 294.15 174.152L294.065 174.102C292.124 174.776 289.876 175.628 287.781 176.273L279.127 178.909" fill="#102056"/>
<path d="M320.746 185.019L293.975 200.614L289.062 197.77L315.833 182.177L320.746 185.019Z" fill="#102056"/>
<path d="M301.316 173.477L283.31 194.144L278.021 191.083L283.176 185.258L274.616 180.304L264.72 183.385L259.636 180.443L295.053 169.852L301.318 173.477H301.316ZM279.127 178.609L286.043 182.612L290.502 177.549C291.622 176.3 292.996 174.984 294.15 173.854L294.065 173.804C292.124 174.478 289.876 175.33 287.781 175.975L279.127 178.611" fill="white"/>
<path d="M320.746 184.721L293.975 200.315L289.062 197.471L315.833 181.876L320.746 184.721Z" fill="white"/>
<path d="M293.775 200.408V211.848L241.114 180.432V169.011L293.775 200.408Z" fill="url(#paint89_linear_89_2865)"/>
<path d="M345.121 170.902L323.161 183.524L293.775 200.408L241.114 169.011L292.482 139.505L345.121 170.902Z" fill="url(#paint90_linear_89_2865)"/>
<path d="M345.121 170.902V182.342L293.775 211.848V200.408L323.161 183.524L345.121 170.902Z" fill="url(#paint91_linear_89_2865)"/>
<path d="M323.161 183.229L293.775 200.111L241.366 168.866L241.114 169.011L293.775 200.408L323.161 183.524L345.121 170.902L344.869 170.75L323.161 183.229Z" fill="url(#paint92_linear_89_2865)"/>
<path d="M301.316 160.346L283.31 181.013L278.02 177.951L283.176 172.126L274.616 167.173L264.72 170.254L259.636 167.312L295.053 156.72L301.318 160.346H301.316ZM279.127 165.478L286.043 169.48L290.502 164.417C291.622 163.168 292.996 161.852 294.15 160.723L294.065 160.673C292.124 161.346 289.876 162.199 287.781 162.843L279.127 165.48" fill="#102056"/>
<path d="M320.746 171.591L293.975 187.184L289.062 184.342L315.833 168.747L320.746 171.591Z" fill="#102056"/>
<path d="M301.316 160.047L283.31 180.714L278.02 177.653L283.176 171.828L274.616 166.875L264.72 169.956L259.636 167.013L295.053 156.422L301.318 160.047H301.316ZM279.127 165.179L286.043 169.182L290.502 164.119C291.622 162.87 292.996 161.554 294.15 160.424L294.065 160.374C292.124 161.048 289.876 161.9 287.781 162.545L279.127 165.181" fill="white"/>
<path d="M320.746 171.291L293.975 186.886L289.062 184.044L315.833 168.449L320.746 171.291Z" fill="white"/>
<path d="M270.843 240.588L269.342 239.647V231.534L270.843 232.475V240.588Z" fill="#B53839"/>
<path d="M273.779 242.427L272.278 241.486V233.373L273.779 234.314V242.427Z" fill="#B53839"/>
<path d="M276.718 244.267L275.217 243.326V235.213L276.718 236.154V244.267Z" fill="#B53839"/>
<path d="M279.656 246.107L278.153 245.167V237.055L279.656 237.994V246.107Z" fill="#B53839"/>
<path d="M282.593 247.946L281.092 247.007V238.894L282.593 239.833V247.946Z" fill="#B53839"/>
<path d="M285.531 249.788L284.028 248.847V240.734L285.531 241.675V249.788Z" fill="#B53839"/>
<path d="M373.018 207.84L374.521 206.899V198.786L373.018 199.727V207.84Z" fill="#4D5168"/>
<path d="M370.082 209.679L371.583 208.738V200.625L370.082 201.566V209.679Z" fill="#4D5168"/>
<path d="M367.143 211.519L368.644 210.578V202.465L367.143 203.406V211.519Z" fill="#4D5168"/>
<path d="M364.207 213.359L365.708 212.419V204.307L364.207 205.246V213.359Z" fill="#4D5168"/>
<path d="M361.268 215.198L362.769 214.259V206.146L361.268 207.087V215.198Z" fill="#4D5168"/>
<path d="M358.332 217.04L359.833 216.099V207.986L358.332 208.927V217.04Z" fill="#4D5168"/>
<path d="M242.848 222.882V224.302L214.304 207.245V196.417L215.553 197.158V206.608L242.848 222.882Z" fill="#B53839"/>
<path d="M242.848 213.432V222.882L215.553 206.608V197.158L242.848 213.432Z" fill="url(#paint93_linear_89_2865)"/>
<path d="M218.328 202.005L216.843 201.101V199.615L218.328 200.519V202.005Z" fill="white"/>
<path d="M220.98 203.619L219.494 202.715V201.229L220.98 202.134V203.619Z" fill="white"/>
<path d="M223.632 205.234L222.146 204.33V202.844L223.632 203.748V205.234Z" fill="white"/>
<path d="M226.283 206.848L224.798 205.944V204.458L226.283 205.363V206.848Z" fill="white"/>
<path d="M228.935 208.461L227.449 207.557V206.071L228.935 206.975V208.461Z" fill="white"/>
<path d="M218.328 204.266L216.843 203.362V201.876L218.328 202.781V204.266Z" fill="white"/>
<path d="M220.98 205.881L219.494 204.976V203.491L220.98 204.395V205.881Z" fill="white"/>
<path d="M223.632 207.493L222.146 206.589V205.103L223.632 206.008V207.493Z" fill="white"/>
<path d="M226.283 209.108L224.798 208.203V206.718L226.283 207.622V209.108Z" fill="white"/>
<path d="M228.935 210.722L227.449 209.818V208.332L228.935 209.237V210.722Z" fill="white"/>
<path d="M218.328 206.525L216.843 205.621V204.135L218.328 205.04V206.525Z" fill="white"/>
<path d="M220.98 208.14L219.494 207.235V205.75L220.98 206.654V208.14Z" fill="white"/>
<path d="M223.632 209.754L222.146 208.85V207.364L223.632 208.269V209.754Z" fill="white"/>
<path d="M226.283 211.369L224.798 210.464V208.979L226.283 209.883V211.369Z" fill="white"/>
<path d="M228.935 212.981L227.449 212.077V210.591L228.935 211.496V212.981Z" fill="white"/>
<path d="M303.123 267.039L306.735 264.844V267.649L303.123 269.845V267.039Z" fill="#0B2E56"/>
<path d="M318.956 291.901L316.842 293.187L316.647 274.792L305.134 267.967L305.987 265.881L318.956 273.339V291.901Z" fill="#BC9755"/>
<path d="M316.842 293.187L315.385 292.504V275.581L303.872 268.754V267.166L316.842 274.625V293.187Z" fill="#A88244"/>
<path d="M303.872 267.166L305.987 265.881L318.956 273.339L316.842 274.625L303.872 267.166Z" fill="#F7DAAB"/>
<path d="M309.456 263.522L313.068 261.326V264.132L309.456 266.327V263.522Z" fill="#0B2E56"/>
<path d="M325.289 288.382L323.175 289.667L322.98 271.275L311.467 264.447L312.319 262.363L325.289 269.822V288.382Z" fill="#BC9755"/>
<path d="M323.175 289.667L321.718 288.984V272.063L310.205 265.236V263.648L323.175 271.107V289.667Z" fill="#A88244"/>
<path d="M310.205 263.649L312.319 262.363L325.289 269.822L323.175 271.107L310.205 263.649Z" fill="#F7DAAB"/>
<path d="M315.789 260.002L319.401 257.806V260.612L315.789 262.808V260.002Z" fill="#0B2E56"/>
<path d="M331.622 284.864L329.508 286.15L329.313 267.757L317.8 260.929L318.652 258.844L331.622 266.302V284.864Z" fill="#BC9755"/>
<path d="M329.507 286.15L328.051 285.466V268.544L316.538 261.718V260.129L329.507 267.588V286.15Z" fill="#A88244"/>
<path d="M316.538 260.129L318.652 258.844L331.622 266.302L329.507 267.588L316.538 260.129Z" fill="#F7DAAB"/>
<path d="M322.122 256.484L325.734 254.289V257.094L322.122 259.29V256.484Z" fill="#0B2E56"/>
<path d="M337.955 281.345L335.84 282.63L335.646 264.237L324.133 257.412L324.985 255.326L337.955 262.785V281.345Z" fill="#BC9755"/>
<path d="M335.84 282.63L334.384 281.947V265.026L322.871 258.199V256.611L335.84 264.07V282.63Z" fill="#A88244"/>
<path d="M322.871 256.611L324.985 255.326L337.955 262.785L335.84 264.07L322.871 256.611Z" fill="#F7DAAB"/>
<path d="M328.455 252.967L332.067 250.769V253.575L328.455 255.77V252.967Z" fill="#0B2E56"/>
<path d="M344.288 277.827L342.173 279.112L341.979 260.72L330.466 253.892L331.318 251.806L344.288 259.267V277.827Z" fill="#BC9755"/>
<path d="M342.173 279.112L340.717 278.429V261.507L329.203 254.681V253.092L342.173 260.552V279.112Z" fill="#A88244"/>
<path d="M329.203 253.092L331.318 251.806L344.288 259.267L342.173 260.552L329.203 253.092Z" fill="#F7DAAB"/>
<path d="M334.788 249.447L338.4 247.251V250.057L334.788 252.253V249.447Z" fill="#0B2E56"/>
<path d="M350.621 274.307L348.506 275.593L348.312 257.2L336.799 250.375L337.651 248.289L350.621 255.747V274.307Z" fill="#BC9755"/>
<path d="M348.506 275.593L347.05 274.91V257.989L335.536 251.162V249.574L348.506 257.033V275.593Z" fill="#A88244"/>
<path d="M335.536 249.574L337.651 248.289L350.621 255.747L348.506 257.033L335.536 249.574Z" fill="#F7DAAB"/>
<path d="M341.121 245.929L344.733 243.734V246.537L341.121 248.733V245.929Z" fill="#0B2E56"/>
<path d="M356.954 270.79L354.839 272.075L354.647 253.682L343.132 246.855L343.984 244.769L356.954 252.23V270.79Z" fill="#BC9755"/>
<path d="M354.839 272.075L353.382 271.392V254.469L341.869 247.644V246.054L354.839 253.515V272.075Z" fill="#A88244"/>
<path d="M341.869 246.054L343.984 244.769L356.954 252.23L354.839 253.515L341.869 246.054Z" fill="#F7DAAB"/>
<path d="M347.454 242.41L351.066 240.214V243.02L347.454 245.216V242.41Z" fill="#0B2E56"/>
<path d="M363.287 267.27L361.172 268.555L360.98 250.163L349.465 243.337L350.317 241.251L363.287 248.71V267.27Z" fill="#BC9755"/>
<path d="M361.172 268.555L359.715 267.872V250.952L348.202 244.124V242.537L361.172 249.995V268.555Z" fill="#A88244"/>
<path d="M348.202 242.537L350.317 241.251L363.287 248.71L361.172 249.995L348.202 242.537Z" fill="#F7DAAB"/>
<path d="M353.787 238.892L357.399 236.697V239.5L353.787 241.696V238.892Z" fill="#0B2E56"/>
<path d="M369.62 263.753L367.505 265.038L367.313 246.645L355.797 239.818L356.65 237.732L369.62 245.193V263.753Z" fill="#BC9755"/>
<path d="M367.505 265.038L366.048 264.355V247.432L354.535 240.607V239.017L367.505 246.478V265.038Z" fill="#A88244"/>
<path d="M354.535 239.017L356.65 237.732L369.62 245.193L367.505 246.478L354.535 239.017Z" fill="#F7DAAB"/>
<path d="M360.119 235.373L363.731 233.177V235.983L360.119 238.178V235.373Z" fill="#0B2E56"/>
<path d="M375.953 260.233L373.838 261.518L373.646 243.126L362.13 236.3L362.983 234.214L375.953 241.673V260.233Z" fill="#BC9755"/>
<path d="M373.838 261.518L372.381 260.835V243.915L360.868 237.087V235.5L373.838 242.958V261.518Z" fill="#A88244"/>
<path d="M360.868 235.5L362.983 234.214L375.953 241.673L373.838 242.958L360.868 235.5Z" fill="#F7DAAB"/>
<path d="M366.452 231.855L370.064 229.659V232.463L366.452 234.659V231.855Z" fill="#0B2E56"/>
<path d="M382.286 256.715L380.171 258.001L379.978 239.608L368.463 232.781L369.316 230.695L382.286 238.155V256.715Z" fill="#BC9755"/>
<path d="M380.171 258.001L378.716 257.318V240.395L367.201 233.57V231.98L380.171 239.441V258.001Z" fill="#A88244"/>
<path d="M367.201 231.98L369.316 230.695L382.286 238.155L380.171 239.441L367.201 231.98Z" fill="#F7DAAB"/>
<path d="M284.779 267.039L281.167 264.844V267.649L284.779 269.845V267.039Z" fill="#0B2E56"/>
<path d="M268.945 291.901L271.06 293.187L271.255 274.792L282.768 267.967L281.915 265.881L268.945 273.339V291.901Z" fill="#BC9755"/>
<path d="M271.06 293.187L272.517 292.504V275.581L284.03 268.754V267.166L271.06 274.625V293.187Z" fill="#A88244"/>
<path d="M284.03 267.166L281.915 265.881L268.945 273.339L271.06 274.625L284.03 267.166Z" fill="#F7DAAB"/>
<path d="M278.446 263.241L274.834 261.045V263.851L278.446 266.046V263.241Z" fill="#0B2E56"/>
<path d="M262.612 288.101L264.727 289.386L264.922 270.994L276.435 264.168L275.582 262.082L262.612 269.541V288.101Z" fill="#BC9755"/>
<path d="M264.727 289.386L266.184 288.703V271.783L277.697 264.955V263.368L264.727 270.826V289.386Z" fill="#A88244"/>
<path d="M277.697 263.368L275.582 262.082L262.612 269.541L264.727 270.826L277.697 263.368Z" fill="#F7DAAB"/>
<path d="M272.113 259.442L268.501 257.246V260.052L272.113 262.248V259.442Z" fill="#0B2E56"/>
<path d="M256.28 284.302L258.394 285.588L258.589 267.195L270.102 260.368L269.249 258.284L256.28 265.742V284.302Z" fill="#BC9755"/>
<path d="M258.394 285.588L259.851 284.905V267.984L271.364 261.157V259.569L258.394 267.028V285.588Z" fill="#A88244"/>
<path d="M271.364 259.569L269.249 258.284L256.28 265.742L258.394 267.028L271.364 259.569Z" fill="#F7DAAB"/>
<path d="M265.78 255.643L262.168 253.448V256.251L265.78 258.447V255.643Z" fill="#0B2E56"/>
<path d="M249.947 280.504L252.061 281.789L252.256 263.396L263.769 256.569L262.916 254.483L249.947 261.944V280.504Z" fill="#BC9755"/>
<path d="M252.061 281.789L253.518 281.106V264.183L265.031 257.358V255.768L252.061 263.229V281.789Z" fill="#A88244"/>
<path d="M265.031 255.768L262.916 254.483L249.947 261.944L252.061 263.229L265.031 255.768Z" fill="#F7DAAB"/>
<path d="M259.447 251.843L255.835 249.647V252.453L259.447 254.649V251.843Z" fill="#0B2E56"/>
<path d="M243.614 276.705L245.729 277.99L245.923 259.598L257.436 252.77L256.584 250.684L243.614 258.143V276.705Z" fill="#BC9755"/>
<path d="M245.729 277.99L247.185 277.307V260.385L258.698 253.559V251.97L245.729 259.429V277.99Z" fill="#A88244"/>
<path d="M258.698 251.97L256.584 250.684L243.614 258.143L245.729 259.428L258.698 251.97Z" fill="#F7DAAB"/>
<path d="M253.114 248.044L249.502 245.849V248.654L253.114 250.85V248.044Z" fill="#0B2E56"/>
<path d="M237.281 272.905L239.396 274.19L239.59 255.797L251.103 248.972L250.251 246.886L237.281 254.345V272.905Z" fill="#BC9755"/>
<path d="M239.396 274.19L240.852 273.509V256.586L252.365 249.759V248.171L239.396 255.63V274.19Z" fill="#A88244"/>
<path d="M252.366 248.171L250.251 246.886L237.281 254.345L239.396 255.63L252.366 248.171Z" fill="#F7DAAB"/>
<path d="M246.781 244.246L243.169 242.05V244.856L246.781 247.051V244.246Z" fill="#0B2E56"/>
<path d="M230.948 269.106L233.063 270.391L233.257 251.999L244.77 245.173L243.918 243.087L230.948 250.546V269.106Z" fill="#BC9755"/>
<path d="M233.063 270.391L234.519 269.708V252.788L246.033 245.96V244.373L233.063 251.831V270.391Z" fill="#A88244"/>
<path d="M246.033 244.373L243.918 243.087L230.948 250.546L233.063 251.831L246.033 244.373Z" fill="#F7DAAB"/>
<path d="M240.448 240.447L236.836 238.251V241.055L240.448 243.251V240.447Z" fill="#0B2E56"/>
<path d="M224.615 265.307L226.73 266.593L226.922 248.2L238.437 241.373L237.585 239.287L224.615 246.747V265.307Z" fill="#BC9755"/>
<path d="M226.73 266.593L228.186 265.91V248.987L239.7 242.162V240.572L226.73 248.033V266.593Z" fill="#A88244"/>
<path d="M239.7 240.572L237.585 239.287L224.615 246.747L226.73 248.033L239.7 240.572Z" fill="#F7DAAB"/>
<path d="M234.115 236.649L230.503 234.453V237.257L234.115 239.452V236.649Z" fill="#0B2E56"/>
<path d="M218.282 261.509L220.397 262.794L220.589 244.402L232.104 237.574L231.252 235.488L218.282 242.949V261.509Z" fill="#BC9755"/>
<path d="M220.397 262.794L221.854 262.111V245.189L233.367 238.363V236.774L220.397 244.234V262.794Z" fill="#A88244"/>
<path d="M233.367 236.774L231.252 235.488L218.282 242.949L220.397 244.234L233.367 236.774Z" fill="#F7DAAB"/>
<path d="M227.782 232.848L224.17 230.652V233.458L227.782 235.654V232.848Z" fill="#0B2E56"/>
<path d="M211.949 257.71L214.064 258.996L214.256 240.601L225.771 233.775L224.919 231.689L211.949 239.148V257.71Z" fill="#BC9755"/>
<path d="M214.064 258.996L215.521 258.312V241.39L227.034 234.563V232.975L214.064 240.434V258.996Z" fill="#A88244"/>
<path d="M227.034 232.975L224.919 231.689L211.949 239.148L214.064 240.434L227.034 232.975Z" fill="#F7DAAB"/>
<path d="M221.449 229.049L217.837 226.854V229.659L221.449 231.855V229.049Z" fill="#0B2E56"/>
<path d="M205.616 253.91L207.731 255.195L207.923 236.802L219.439 229.977L218.586 227.891L205.616 235.35V253.91Z" fill="#BC9755"/>
<path d="M207.731 255.195L209.188 254.512V237.591L220.701 230.764V229.176L207.731 236.635V255.195Z" fill="#A88244"/>
<path d="M220.701 229.176L218.586 227.891L205.616 235.35L207.731 236.635L220.701 229.176Z" fill="#F7DAAB"/>
<path d="M165.877 463.664V481.031L244.127 439.502V422.162L165.877 463.664Z" fill="url(#paint94_linear_89_2865)"/>
<path d="M94 422.362L129.275 442.481L165.877 463.664L244.127 422.162L172.223 380.861L94 422.362Z" fill="url(#paint95_linear_89_2865)"/>
<path d="M109.635 422.251L115.014 425.345L172.306 396.328L223.112 425.507L228.492 422.303L172.306 390.003L109.635 422.251Z" fill="url(#paint96_linear_89_2865)"/>
<path d="M115.014 425.345L165.792 454.523L223.112 425.507L172.306 396.328L115.014 425.345Z" fill="#A4D4ED"/>
<path d="M94 422.362V439.729L165.877 481.031V463.664L129.275 442.481L94 422.362Z" fill="url(#paint97_linear_89_2865)"/>
<path d="M172.306 390.003V396.328L115.014 425.345L109.635 422.251L172.306 390.003Z" fill="url(#paint98_linear_89_2865)"/>
<path d="M129.275 442.094L165.877 463.277L243.795 421.972L244.127 422.162L165.877 463.664L129.275 442.481L94 422.362L94.331 422.166L129.275 442.094Z" fill="url(#paint99_linear_89_2865)"/>
<path d="M176.517 281.912C153.983 328.325 119.307 345.215 119.307 345.215L110.884 340.51C110.884 340.51 145.604 323.934 168.094 277.161C171.577 279.151 173.89 280.615 176.517 281.91V281.912Z" fill="url(#paint100_linear_89_2865)"/>
<path d="M233.727 277.163L225.304 318.515C225.304 339.168 215.447 364.346 199.05 385.537L168.094 425.589L137.137 422.408C134.853 422.185 132.702 421.691 130.731 421.019C118.187 416.853 110.886 404.397 110.884 386.612V340.513L119.307 345.218C119.307 345.218 153.758 328.821 176.291 282.409C176.828 282.632 177.367 282.857 177.904 283.036C199.453 290.876 225.302 272.418 225.302 272.418L233.725 277.167L233.727 277.163Z" fill="url(#paint101_linear_89_2865)"/>
<path d="M233.727 277.163V323.218C233.727 343.916 223.87 369.049 207.519 390.24L176.519 430.292L145.562 427.112C139.737 426.484 134.72 424.423 130.733 421.019C123.386 414.927 119.309 404.622 119.309 391.315V345.217C119.309 345.217 153.76 328.819 176.293 282.407C176.338 282.228 176.428 282.093 176.517 281.914C176.965 282.316 177.413 282.721 177.906 283.034C200.395 300.909 233.727 277.165 233.727 277.165V277.163Z" fill="url(#paint102_linear_89_2865)"/>
<path d="M136.999 406.754C140.563 410.936 145.506 413.457 151.543 414.072L176.495 416.639L201.494 384.321C207.816 376.194 212.9 367.306 216.514 358.514C220.649 348.532 222.929 338.601 222.929 329.664V294.732C221.598 295.398 220.172 296.016 218.7 296.679V325.956C218.7 334.891 216.419 344.824 212.33 354.805C208.67 363.646 203.586 372.486 197.265 380.612L172.266 412.931L147.313 410.364C143.368 409.937 139.899 408.702 137.001 406.752L136.999 406.754Z" fill="url(#paint103_linear_89_2865)"/>
<path d="M130.154 349.958V384.844C130.154 394.16 132.579 401.668 136.999 406.754C139.899 408.704 143.368 409.939 147.311 410.366L172.264 412.933L197.263 380.614C203.584 372.486 208.67 363.648 212.328 354.807C216.415 344.826 218.698 334.894 218.698 325.958V296.681C206.911 301.815 190.705 305.997 176.494 299.533C161.665 323.962 144.602 339.409 132.721 348.107C131.819 348.725 130.962 349.39 130.154 349.96V349.958Z" fill="url(#paint104_linear_89_2865)"/>
<path d="M197.078 341.722C197.078 352.896 188.451 367.088 177.808 373.421C167.166 379.754 158.538 375.829 158.538 364.654C158.538 353.48 167.164 339.288 177.808 332.955C188.449 326.622 197.078 330.547 197.078 341.722Z" stroke="#DFE0E5" stroke-width="2.45424" stroke-miterlimit="10"/>
<path d="M168.098 352.623L171.802 360.168C172.395 361.377 174.157 360.99 175.558 359.345L190.974 341.247" stroke="#DFE0E5" stroke-width="2.45424" stroke-miterlimit="10"/>
</g>
<defs>
<linearGradient id="paint0_linear_89_2865" x1="420.376" y1="417.084" x2="515.826" y2="422.108" gradientUnits="userSpaceOnUse">
<stop stop-color="#262C3D"/>
<stop offset="1" stop-color="#7D859E"/>
</linearGradient>
<linearGradient id="paint1_linear_89_2865" x1="403.848" y1="419.693" x2="544.001" y2="419.693" gradientUnits="userSpaceOnUse">
<stop stop-color="#66D2FE"/>
<stop offset="0.34" stop-color="#51A7DD"/>
<stop offset="0.78" stop-color="#3973B7"/>
<stop offset="1" stop-color="#3060A8"/>
</linearGradient>
<linearGradient id="paint2_linear_89_2865" x1="475.382" y1="420.232" x2="501.105" y2="420.929" gradientUnits="userSpaceOnUse">
<stop stop-color="#CBCBD6"/>
<stop offset="1" stop-color="#878C9F"/>
</linearGradient>
<linearGradient id="paint3_linear_89_2865" x1="473.521" y1="423.962" x2="508.636" y2="425.582" gradientUnits="userSpaceOnUse">
<stop stop-color="#CBCBD6"/>
<stop offset="1" stop-color="#F9FAF9"/>
</linearGradient>
<linearGradient id="paint4_linear_89_2865" x1="406.574" y1="397.186" x2="517.09" y2="375.578" gradientUnits="userSpaceOnUse">
<stop stop-color="#3B3E5E"/>
<stop offset="1" stop-color="#626282"/>
</linearGradient>
<linearGradient id="paint5_linear_89_2865" x1="407.425" y1="401.543" x2="517.942" y2="379.933" gradientUnits="userSpaceOnUse">
<stop stop-color="#3B3E5E"/>
<stop offset="1" stop-color="#626282"/>
</linearGradient>
<linearGradient id="paint6_linear_89_2865" x1="406.929" y1="398.997" x2="517.444" y2="377.387" gradientUnits="userSpaceOnUse">
<stop stop-color="#3B3E5E"/>
<stop offset="1" stop-color="#626282"/>
</linearGradient>
<linearGradient id="paint7_linear_89_2865" x1="407.281" y1="400.806" x2="517.798" y2="379.196" gradientUnits="userSpaceOnUse">
<stop stop-color="#3B3E5E"/>
<stop offset="1" stop-color="#626282"/>
</linearGradient>
<linearGradient id="paint8_linear_89_2865" x1="407.635" y1="402.615" x2="518.152" y2="381.007" gradientUnits="userSpaceOnUse">
<stop stop-color="#3B3E5E"/>
<stop offset="1" stop-color="#626282"/>
</linearGradient>
<linearGradient id="paint9_linear_89_2865" x1="407.989" y1="404.424" x2="518.504" y2="382.816" gradientUnits="userSpaceOnUse">
<stop stop-color="#3B3E5E"/>
<stop offset="0.7" stop-color="#565777"/>
<stop offset="1" stop-color="#626282"/>
</linearGradient>
<linearGradient id="paint10_linear_89_2865" x1="408.343" y1="406.235" x2="518.858" y2="384.625" gradientUnits="userSpaceOnUse">
<stop stop-color="#3B3E5E"/>
<stop offset="1" stop-color="#626282"/>
</linearGradient>
<linearGradient id="paint11_linear_89_2865" x1="408.697" y1="408.044" x2="519.212" y2="386.433" gradientUnits="userSpaceOnUse">
<stop stop-color="#3B3E5E"/>
<stop offset="1" stop-color="#626282"/>
</linearGradient>
<linearGradient id="paint12_linear_89_2865" x1="409.051" y1="409.853" x2="519.566" y2="388.244" gradientUnits="userSpaceOnUse">
<stop stop-color="#3B3E5E"/>
<stop offset="1" stop-color="#626282"/>
</linearGradient>
<linearGradient id="paint13_linear_89_2865" x1="409.403" y1="411.661" x2="519.921" y2="390.053" gradientUnits="userSpaceOnUse">
<stop stop-color="#3B3E5E"/>
<stop offset="1" stop-color="#626282"/>
</linearGradient>
<linearGradient id="paint14_linear_89_2865" x1="409.757" y1="413.472" x2="520.274" y2="391.862" gradientUnits="userSpaceOnUse">
<stop stop-color="#3B3E5E"/>
<stop offset="1" stop-color="#626282"/>
</linearGradient>
<linearGradient id="paint15_linear_89_2865" x1="410.111" y1="415.281" x2="520.629" y2="393.671" gradientUnits="userSpaceOnUse">
<stop stop-color="#3B3E5E"/>
<stop offset="1" stop-color="#626282"/>
</linearGradient>
<linearGradient id="paint16_linear_89_2865" x1="410.465" y1="417.09" x2="520.981" y2="395.482" gradientUnits="userSpaceOnUse">
<stop stop-color="#3B3E5E"/>
<stop offset="1" stop-color="#626282"/>
</linearGradient>
<linearGradient id="paint17_linear_89_2865" x1="410.894" y1="419.285" x2="521.412" y2="397.677" gradientUnits="userSpaceOnUse">
<stop stop-color="#3B3E5E"/>
<stop offset="1" stop-color="#626282"/>
</linearGradient>
<linearGradient id="paint18_linear_89_2865" x1="407.843" y1="403.671" x2="518.358" y2="382.063" gradientUnits="userSpaceOnUse">
<stop stop-color="#3B3E5E"/>
<stop offset="1" stop-color="#626282"/>
</linearGradient>
<linearGradient id="paint19_linear_89_2865" x1="408.195" y1="405.482" x2="518.712" y2="383.872" gradientUnits="userSpaceOnUse">
<stop stop-color="#3B3E5E"/>
<stop offset="1" stop-color="#626282"/>
</linearGradient>
<linearGradient id="paint20_linear_89_2865" x1="408.548" y1="407.291" x2="519.066" y2="385.681" gradientUnits="userSpaceOnUse">
<stop stop-color="#3B3E5E"/>
<stop offset="1" stop-color="#626282"/>
</linearGradient>
<linearGradient id="paint21_linear_89_2865" x1="408.903" y1="409.1" x2="519.42" y2="387.49" gradientUnits="userSpaceOnUse">
<stop stop-color="#3B3E5E"/>
<stop offset="1" stop-color="#626282"/>
</linearGradient>
<linearGradient id="paint22_linear_89_2865" x1="409.257" y1="410.909" x2="519.772" y2="389.301" gradientUnits="userSpaceOnUse">
<stop stop-color="#3B3E5E"/>
<stop offset="1" stop-color="#626282"/>
</linearGradient>
<linearGradient id="paint23_linear_89_2865" x1="409.611" y1="412.72" x2="520.126" y2="391.11" gradientUnits="userSpaceOnUse">
<stop stop-color="#3B3E5E"/>
<stop offset="1" stop-color="#626282"/>
</linearGradient>
<linearGradient id="paint24_linear_89_2865" x1="409.965" y1="414.528" x2="520.48" y2="392.918" gradientUnits="userSpaceOnUse">
<stop stop-color="#3B3E5E"/>
<stop offset="1" stop-color="#626282"/>
</linearGradient>
<linearGradient id="paint25_linear_89_2865" x1="410.319" y1="416.337" x2="520.834" y2="394.729" gradientUnits="userSpaceOnUse">
<stop stop-color="#3B3E5E"/>
<stop offset="1" stop-color="#626282"/>
</linearGradient>
<linearGradient id="paint26_linear_89_2865" x1="410.671" y1="418.146" x2="521.189" y2="396.538" gradientUnits="userSpaceOnUse">
<stop stop-color="#3B3E5E"/>
<stop offset="1" stop-color="#626282"/>
</linearGradient>
<linearGradient id="paint27_linear_89_2865" x1="411.025" y1="419.957" x2="521.543" y2="398.347" gradientUnits="userSpaceOnUse">
<stop stop-color="#3B3E5E"/>
<stop offset="1" stop-color="#626282"/>
</linearGradient>
<linearGradient id="paint28_linear_89_2865" x1="411.379" y1="421.766" x2="521.895" y2="400.156" gradientUnits="userSpaceOnUse">
<stop stop-color="#3B3E5E"/>
<stop offset="1" stop-color="#626282"/>
</linearGradient>
<linearGradient id="paint29_linear_89_2865" x1="411.734" y1="423.575" x2="522.249" y2="401.967" gradientUnits="userSpaceOnUse">
<stop stop-color="#3B3E5E"/>
<stop offset="1" stop-color="#626282"/>
</linearGradient>
<linearGradient id="paint30_linear_89_2865" x1="409.715" y1="413.249" x2="520.23" y2="391.639" gradientUnits="userSpaceOnUse">
<stop stop-color="#3B3E5E"/>
<stop offset="1" stop-color="#626282"/>
</linearGradient>
<linearGradient id="paint31_linear_89_2865" x1="410.13" y1="415.377" x2="520.646" y2="393.769" gradientUnits="userSpaceOnUse">
<stop stop-color="#3B3E5E"/>
<stop offset="1" stop-color="#626282"/>
</linearGradient>
<linearGradient id="paint32_linear_89_2865" x1="410.485" y1="417.188" x2="521" y2="395.578" gradientUnits="userSpaceOnUse">
<stop stop-color="#3B3E5E"/>
<stop offset="1" stop-color="#626282"/>
</linearGradient>
<linearGradient id="paint33_linear_89_2865" x1="411.545" y1="422.614" x2="522.062" y2="401.006" gradientUnits="userSpaceOnUse">
<stop stop-color="#3B3E5E"/>
<stop offset="1" stop-color="#626282"/>
</linearGradient>
<linearGradient id="paint34_linear_89_2865" x1="412.607" y1="428.043" x2="523.124" y2="406.433" gradientUnits="userSpaceOnUse">
<stop stop-color="#3B3E5E"/>
<stop offset="1" stop-color="#626282"/>
</linearGradient>
<linearGradient id="paint35_linear_89_2865" x1="412.961" y1="429.852" x2="523.477" y2="408.244" gradientUnits="userSpaceOnUse">
<stop stop-color="#3B3E5E"/>
<stop offset="1" stop-color="#626282"/>
</linearGradient>
<linearGradient id="paint36_linear_89_2865" x1="413.315" y1="431.663" x2="523.831" y2="410.053" gradientUnits="userSpaceOnUse">
<stop stop-color="#3B3E5E"/>
<stop offset="1" stop-color="#626282"/>
</linearGradient>
<linearGradient id="paint37_linear_89_2865" x1="413.669" y1="433.472" x2="524.185" y2="411.861" gradientUnits="userSpaceOnUse">
<stop stop-color="#3B3E5E"/>
<stop offset="1" stop-color="#626282"/>
</linearGradient>
<linearGradient id="paint38_linear_89_2865" x1="414.022" y1="435.28" x2="524.539" y2="413.67" gradientUnits="userSpaceOnUse">
<stop stop-color="#3B3E5E"/>
<stop offset="1" stop-color="#626282"/>
</linearGradient>
<linearGradient id="paint39_linear_89_2865" x1="408.248" y1="405.754" x2="518.766" y2="384.143" gradientUnits="userSpaceOnUse">
<stop stop-color="#3B3E5E"/>
<stop offset="1" stop-color="#626282"/>
</linearGradient>
<linearGradient id="paint40_linear_89_2865" x1="408.726" y1="408.194" x2="519.241" y2="386.584" gradientUnits="userSpaceOnUse">
<stop stop-color="#3B3E5E"/>
<stop offset="1" stop-color="#626282"/>
</linearGradient>
<linearGradient id="paint41_linear_89_2865" x1="409.079" y1="410.002" x2="519.595" y2="388.392" gradientUnits="userSpaceOnUse">
<stop stop-color="#3B3E5E"/>
<stop offset="1" stop-color="#626282"/>
</linearGradient>
<linearGradient id="paint42_linear_89_2865" x1="409.434" y1="411.811" x2="519.949" y2="390.203" gradientUnits="userSpaceOnUse">
<stop stop-color="#3B3E5E"/>
<stop offset="1" stop-color="#626282"/>
</linearGradient>
<linearGradient id="paint43_linear_89_2865" x1="409.788" y1="413.62" x2="520.303" y2="392.012" gradientUnits="userSpaceOnUse">
<stop stop-color="#3B3E5E"/>
<stop offset="1" stop-color="#626282"/>
</linearGradient>
<linearGradient id="paint44_linear_89_2865" x1="410.14" y1="415.431" x2="520.658" y2="393.821" gradientUnits="userSpaceOnUse">
<stop stop-color="#3B3E5E"/>
<stop offset="1" stop-color="#626282"/>
</linearGradient>
<linearGradient id="paint45_linear_89_2865" x1="410.494" y1="417.24" x2="521.012" y2="395.63" gradientUnits="userSpaceOnUse">
<stop stop-color="#3B3E5E"/>
<stop offset="1" stop-color="#626282"/>
</linearGradient>
<linearGradient id="paint46_linear_89_2865" x1="410.848" y1="419.049" x2="521.364" y2="397.44" gradientUnits="userSpaceOnUse">
<stop stop-color="#3B3E5E"/>
<stop offset="1" stop-color="#626282"/>
</linearGradient>
<linearGradient id="paint47_linear_89_2865" x1="411.202" y1="420.858" x2="521.718" y2="399.25" gradientUnits="userSpaceOnUse">
<stop stop-color="#3B3E5E"/>
<stop offset="1" stop-color="#626282"/>
</linearGradient>
<linearGradient id="paint48_linear_89_2865" x1="411.556" y1="422.668" x2="522.072" y2="401.058" gradientUnits="userSpaceOnUse">
<stop stop-color="#3B3E5E"/>
<stop offset="1" stop-color="#626282"/>
</linearGradient>
<linearGradient id="paint49_linear_89_2865" x1="411.91" y1="424.477" x2="522.426" y2="402.867" gradientUnits="userSpaceOnUse">
<stop stop-color="#3B3E5E"/>
<stop offset="1" stop-color="#626282"/>
</linearGradient>
<linearGradient id="paint50_linear_89_2865" x1="412.38" y1="426.883" x2="522.897" y2="405.273" gradientUnits="userSpaceOnUse">
<stop stop-color="#3B3E5E"/>
<stop offset="1" stop-color="#626282"/>
</linearGradient>
<linearGradient id="paint51_linear_89_2865" x1="409.049" y1="409.845" x2="519.564" y2="388.237" gradientUnits="userSpaceOnUse">
<stop stop-color="#3B3E5E"/>
<stop offset="1" stop-color="#626282"/>
</linearGradient>
<linearGradient id="paint52_linear_89_2865" x1="409.563" y1="412.475" x2="520.08" y2="390.865" gradientUnits="userSpaceOnUse">
<stop stop-color="#3B3E5E"/>
<stop offset="1" stop-color="#626282"/>
</linearGradient>
<linearGradient id="paint53_linear_89_2865" x1="409.917" y1="414.284" x2="520.432" y2="392.674" gradientUnits="userSpaceOnUse">
<stop stop-color="#3B3E5E"/>
<stop offset="1" stop-color="#626282"/>
</linearGradient>
<linearGradient id="paint54_linear_89_2865" x1="410.271" y1="416.093" x2="520.786" y2="394.485" gradientUnits="userSpaceOnUse">
<stop stop-color="#3B3E5E"/>
<stop offset="1" stop-color="#626282"/>
</linearGradient>
<linearGradient id="paint55_linear_89_2865" x1="410.625" y1="417.904" x2="521.14" y2="396.294" gradientUnits="userSpaceOnUse">
<stop stop-color="#3B3E5E"/>
<stop offset="1" stop-color="#626282"/>
</linearGradient>
<linearGradient id="paint56_linear_89_2865" x1="410.979" y1="419.713" x2="521.495" y2="398.102" gradientUnits="userSpaceOnUse">
<stop stop-color="#3B3E5E"/>
<stop offset="1" stop-color="#626282"/>
</linearGradient>
<linearGradient id="paint57_linear_89_2865" x1="411.331" y1="421.521" x2="521.849" y2="399.911" gradientUnits="userSpaceOnUse">
<stop stop-color="#3B3E5E"/>
<stop offset="1" stop-color="#626282"/>
</linearGradient>
<linearGradient id="paint58_linear_89_2865" x1="411.685" y1="423.33" x2="522.203" y2="401.722" gradientUnits="userSpaceOnUse">
<stop stop-color="#3B3E5E"/>
<stop offset="1" stop-color="#626282"/>
</linearGradient>
<linearGradient id="paint59_linear_89_2865" x1="412.039" y1="425.141" x2="522.555" y2="403.531" gradientUnits="userSpaceOnUse">
<stop stop-color="#3B3E5E"/>
<stop offset="1" stop-color="#626282"/>
</linearGradient>
<linearGradient id="paint60_linear_89_2865" x1="412.394" y1="426.95" x2="522.911" y2="405.34" gradientUnits="userSpaceOnUse">
<stop stop-color="#3B3E5E"/>
<stop offset="1" stop-color="#626282"/>
</linearGradient>
<linearGradient id="paint61_linear_89_2865" x1="413.004" y1="430.069" x2="523.519" y2="408.459" gradientUnits="userSpaceOnUse">
<stop stop-color="#3B3E5E"/>
<stop offset="1" stop-color="#626282"/>
</linearGradient>
<linearGradient id="paint62_linear_89_2865" x1="408.993" y1="401.355" x2="463.095" y2="300.434" gradientUnits="userSpaceOnUse">
<stop stop-color="#262C3D"/>
<stop offset="1" stop-color="#7D859E"/>
</linearGradient>
<linearGradient id="paint63_linear_89_2865" x1="481.588" y1="353.124" x2="400.653" y2="353.124" gradientUnits="userSpaceOnUse">
<stop stop-color="#262C3D"/>
<stop offset="1" stop-color="#7D859E"/>
</linearGradient>
<linearGradient id="paint64_linear_89_2865" x1="457.907" y1="306.047" x2="382.88" y2="399.915" gradientUnits="userSpaceOnUse">
<stop stop-color="#262C3D"/>
<stop offset="0.38" stop-color="white"/>
<stop offset="1" stop-color="#7D859E"/>
</linearGradient>
<linearGradient id="paint65_linear_89_2865" x1="456.718" y1="313.964" x2="417.582" y2="408.758" gradientUnits="userSpaceOnUse">
<stop stop-color="#262C3D"/>
<stop offset="1" stop-color="#7D859E"/>
</linearGradient>
<linearGradient id="paint66_linear_89_2865" x1="513.645" y1="280.265" x2="474.509" y2="375.059" gradientUnits="userSpaceOnUse">
<stop stop-color="#262C3D"/>
<stop offset="1" stop-color="#7D859E"/>
</linearGradient>
<linearGradient id="paint67_linear_89_2865" x1="579.978" y1="240.698" x2="587.195" y2="236.377" gradientUnits="userSpaceOnUse">
<stop stop-color="#5B677C"/>
<stop offset="1" stop-color="#39A9A5"/>
</linearGradient>
<linearGradient id="paint68_linear_89_2865" x1="588.595" y1="235.54" x2="595.81" y2="231.221" gradientUnits="userSpaceOnUse">
<stop stop-color="#5B677C"/>
<stop offset="1" stop-color="#39A9A5"/>
</linearGradient>
<linearGradient id="paint69_linear_89_2865" x1="436.701" y1="332.791" x2="288.156" y2="332.791" gradientUnits="userSpaceOnUse">
<stop stop-color="#69B9FE"/>
<stop offset="0.29" stop-color="#5796E1"/>
<stop offset="0.77" stop-color="#3D62B8"/>
<stop offset="1" stop-color="#334FA8"/>
</linearGradient>
<linearGradient id="paint70_linear_89_2865" x1="150.998" y1="335.655" x2="288.158" y2="335.655" gradientUnits="userSpaceOnUse">
<stop stop-color="#69B9FE"/>
<stop offset="0.29" stop-color="#5796E1"/>
<stop offset="0.77" stop-color="#3D62B8"/>
<stop offset="1" stop-color="#334FA8"/>
</linearGradient>
<linearGradient id="paint71_linear_89_2865" x1="436.673" y1="325.092" x2="151.002" y2="325.092" gradientUnits="userSpaceOnUse">
<stop stop-color="#69B9FE"/>
<stop offset="0.29" stop-color="#5796E1"/>
<stop offset="0.77" stop-color="#3D62B8"/>
<stop offset="1" stop-color="#334FA8"/>
</linearGradient>
<linearGradient id="paint72_linear_89_2865" x1="177.223" y1="265.648" x2="276.119" y2="321.576" gradientUnits="userSpaceOnUse">
<stop stop-color="#FFF12F"/>
<stop offset="1" stop-color="#F46469"/>
</linearGradient>
<linearGradient id="paint73_linear_89_2865" x1="186.644" y1="247.267" x2="401.257" y2="247.267" gradientUnits="userSpaceOnUse">
<stop stop-color="#FFF12F"/>
<stop offset="1" stop-color="#F46469"/>
</linearGradient>
<linearGradient id="paint74_linear_89_2865" x1="388.569" y1="244.103" x2="322.212" y2="353.935" gradientUnits="userSpaceOnUse">
<stop stop-color="#FFF12F"/>
<stop offset="1" stop-color="#F46469"/>
</linearGradient>
<linearGradient id="paint75_linear_89_2865" x1="207.412" y1="248.273" x2="293.75" y2="248.273" gradientUnits="userSpaceOnUse">
<stop stop-color="#FFB92F"/>
<stop offset="1" stop-color="#F46469"/>
</linearGradient>
<linearGradient id="paint76_linear_89_2865" x1="207.412" y1="219.882" x2="377.935" y2="219.882" gradientUnits="userSpaceOnUse">
<stop stop-color="#FFF12F"/>
<stop offset="1" stop-color="#F46469"/>
</linearGradient>
<linearGradient id="paint77_linear_89_2865" x1="225.725" y1="202.794" x2="359.621" y2="202.794" gradientUnits="userSpaceOnUse">
<stop stop-color="#5C637C"/>
<stop offset="1" stop-color="#3C9AA9"/>
</linearGradient>
<linearGradient id="paint78_linear_89_2865" x1="293.75" y1="249.824" x2="377.935" y2="249.824" gradientUnits="userSpaceOnUse">
<stop stop-color="#FFB92F"/>
<stop offset="1" stop-color="#F46469"/>
</linearGradient>
<linearGradient id="paint79_linear_89_2865" x1="333.235" y1="193.933" x2="315.689" y2="210.083" gradientUnits="userSpaceOnUse">
<stop stop-color="#5C637C"/>
<stop offset="1" stop-color="#3C9AA9"/>
</linearGradient>
<linearGradient id="paint80_linear_89_2865" x1="292.576" y1="216.312" x2="294.408" y2="283.067" gradientUnits="userSpaceOnUse">
<stop stop-color="#FFF12F"/>
<stop offset="1" stop-color="#F46469"/>
</linearGradient>
<linearGradient id="paint81_linear_89_2865" x1="38.1814" y1="223.448" x2="38.3739" y2="223.448" gradientUnits="userSpaceOnUse">
<stop stop-color="#FFB92F"/>
<stop offset="1" stop-color="#F46469"/>
</linearGradient>
<linearGradient id="paint82_linear_89_2865" x1="207.412" y1="189.104" x2="377.935" y2="189.104" gradientUnits="userSpaceOnUse">
<stop stop-color="#FFF12F"/>
<stop offset="1" stop-color="#F46469"/>
</linearGradient>
<linearGradient id="paint83_linear_89_2865" x1="232.024" y1="192.811" x2="353.323" y2="192.811" gradientUnits="userSpaceOnUse">
<stop stop-color="#FFF12F"/>
<stop offset="1" stop-color="#F46469"/>
</linearGradient>
<linearGradient id="paint84_linear_89_2865" x1="377.71" y1="202.044" x2="299.956" y2="244.673" gradientUnits="userSpaceOnUse">
<stop stop-color="#FFB92F"/>
<stop offset="1" stop-color="#F46469"/>
</linearGradient>
<linearGradient id="paint85_linear_89_2865" x1="292.576" y1="185.537" x2="294.408" y2="252.289" gradientUnits="userSpaceOnUse">
<stop stop-color="#7BADF4"/>
<stop offset="0.53" stop-color="white"/>
<stop offset="1" stop-color="#D7E6FC"/>
</linearGradient>
<linearGradient id="paint86_linear_89_2865" x1="241.114" y1="203.858" x2="293.775" y2="203.858" gradientUnits="userSpaceOnUse">
<stop stop-color="#FFB92F"/>
<stop offset="1" stop-color="#F46469"/>
</linearGradient>
<linearGradient id="paint87_linear_89_2865" x1="293.775" y1="204.803" x2="345.121" y2="204.803" gradientUnits="userSpaceOnUse">
<stop stop-color="#FFB92F"/>
<stop offset="1" stop-color="#F46469"/>
</linearGradient>
<linearGradient id="paint88_linear_89_2865" x1="241.114" y1="198.066" x2="345.121" y2="198.066" gradientUnits="userSpaceOnUse">
<stop stop-color="#7BADF4"/>
<stop offset="0.53" stop-color="white"/>
<stop offset="1" stop-color="#D7E6FC"/>
</linearGradient>
<linearGradient id="paint89_linear_89_2865" x1="241.114" y1="190.428" x2="293.775" y2="190.428" gradientUnits="userSpaceOnUse">
<stop stop-color="#FFB92F"/>
<stop offset="1" stop-color="#F46469"/>
</linearGradient>
<linearGradient id="paint90_linear_89_2865" x1="241.114" y1="169.956" x2="345.121" y2="169.956" gradientUnits="userSpaceOnUse">
<stop stop-color="#FFF12F"/>
<stop offset="1" stop-color="#F46469"/>
</linearGradient>
<linearGradient id="paint91_linear_89_2865" x1="293.775" y1="191.375" x2="345.121" y2="191.375" gradientUnits="userSpaceOnUse">
<stop stop-color="#FFB92F"/>
<stop offset="1" stop-color="#F46469"/>
</linearGradient>
<linearGradient id="paint92_linear_89_2865" x1="241.114" y1="184.636" x2="345.121" y2="184.636" gradientUnits="userSpaceOnUse">
<stop stop-color="#FFB92F"/>
<stop offset="1" stop-color="#F46469"/>
</linearGradient>
<linearGradient id="paint93_linear_89_2865" x1="215.553" y1="210.02" x2="242.848" y2="210.02" gradientUnits="userSpaceOnUse">
<stop stop-color="#FFB92F"/>
<stop offset="1" stop-color="#F46469"/>
</linearGradient>
<linearGradient id="paint94_linear_89_2865" x1="246.017" y1="449.669" x2="168.098" y2="449.669" gradientUnits="userSpaceOnUse">
<stop stop-color="#66D2FE"/>
<stop offset="0.34" stop-color="#51A7DD"/>
<stop offset="0.78" stop-color="#3973B7"/>
<stop offset="1" stop-color="#3060A8"/>
</linearGradient>
<linearGradient id="paint95_linear_89_2865" x1="172.381" y1="379.987" x2="169.58" y2="482.021" gradientUnits="userSpaceOnUse">
<stop stop-color="#66D2FE"/>
<stop offset="0.34" stop-color="#51A7DD"/>
<stop offset="0.78" stop-color="#3973B7"/>
<stop offset="1" stop-color="#3060A8"/>
</linearGradient>
<linearGradient id="paint96_linear_89_2865" x1="230.448" y1="406.012" x2="112.092" y2="406.012" gradientUnits="userSpaceOnUse">
<stop stop-color="#C4C4D0"/>
<stop offset="1" stop-color="#7D859E"/>
</linearGradient>
<linearGradient id="paint97_linear_89_2865" x1="168.098" y1="449.77" x2="96.5219" y2="449.77" gradientUnits="userSpaceOnUse">
<stop stop-color="#66D2FE"/>
<stop offset="0.34" stop-color="#51A7DD"/>
<stop offset="0.78" stop-color="#3973B7"/>
<stop offset="1" stop-color="#3060A8"/>
</linearGradient>
<linearGradient id="paint98_linear_89_2865" x1="135.07" y1="396.82" x2="153.153" y2="413.463" gradientUnits="userSpaceOnUse">
<stop stop-color="#C4C4D0"/>
<stop offset="1" stop-color="#7D859E"/>
</linearGradient>
<linearGradient id="paint99_linear_89_2865" x1="171.323" y1="418.557" x2="169.843" y2="472.454" gradientUnits="userSpaceOnUse">
<stop stop-color="#78C1F4"/>
<stop offset="0.53" stop-color="white"/>
<stop offset="1" stop-color="#D6ECFC"/>
</linearGradient>
<linearGradient id="paint100_linear_89_2865" x1="134.293" y1="348.052" x2="151.944" y2="272.812" gradientUnits="userSpaceOnUse">
<stop stop-color="#C2C3CF"/>
<stop offset="1" stop-color="#D7D7DF"/>
</linearGradient>
<linearGradient id="paint101_linear_89_2865" x1="150.413" y1="405.758" x2="181.904" y2="271.539" gradientUnits="userSpaceOnUse">
<stop stop-color="#C2C3CF"/>
<stop offset="1" stop-color="#D7D7DF"/>
</linearGradient>
<linearGradient id="paint102_linear_89_2865" x1="218.326" y1="381.761" x2="143.863" y2="313.935" gradientUnits="userSpaceOnUse">
<stop stop-color="#CBCBD6"/>
<stop offset="1" stop-color="#F9FAF9"/>
</linearGradient>
<linearGradient id="paint103_linear_89_2865" x1="136.999" y1="355.687" x2="222.927" y2="355.687" gradientUnits="userSpaceOnUse">
<stop stop-color="#8188A0"/>
<stop offset="1" stop-color="#626282"/>
</linearGradient>
<linearGradient id="paint104_linear_89_2865" x1="160.412" y1="385.975" x2="182.374" y2="318.738" gradientUnits="userSpaceOnUse">
<stop stop-color="#66D2FE"/>
<stop offset="0.34" stop-color="#51A7DD"/>
<stop offset="0.78" stop-color="#3973B7"/>
<stop offset="1" stop-color="#3060A8"/>
</linearGradient>
<clipPath id="clip0_89_2865">
<rect width="630.64" height="525.533" fill="white" transform="translate(0.360107 0.466797)"/>
</clipPath>
</defs>
</svg>
