<svg width="570" height="682" viewBox="0 0 570 682" fill="none" xmlns="http://www.w3.org/2000/svg">
<g clip-path="url(#clip0_117_259)">
<path d="M184.454 492.435L295.276 428.027" stroke="url(#paint0_linear_117_259)" stroke-width="1.49" stroke-miterlimit="10"/>
<path d="M263.972 446.361C265.646 447.322 265.646 448.887 263.984 449.848C262.323 450.809 259.629 450.809 257.956 449.848C256.283 448.887 256.283 447.322 257.944 446.361C259.606 445.401 262.299 445.401 263.972 446.361Z" fill="white" stroke="url(#paint1_linear_117_259)" stroke-width="1.49" stroke-miterlimit="10"/>
<path d="M273.086 441.06C274.759 442.021 274.759 443.586 273.098 444.547C271.437 445.508 268.743 445.508 267.07 444.547C265.396 443.586 265.396 442.021 267.058 441.06C268.719 440.1 271.413 440.1 273.086 441.06Z" fill="white" stroke="url(#paint2_linear_117_259)" stroke-width="1.49" stroke-miterlimit="10"/>
<path d="M282.211 435.771C283.885 436.732 283.885 438.297 282.223 439.258C280.562 440.218 277.868 440.218 276.195 439.258C274.522 438.297 274.522 436.732 276.183 435.771C277.845 434.81 280.538 434.81 282.211 435.771Z" fill="white" stroke="url(#paint3_linear_117_259)" stroke-width="1.49" stroke-miterlimit="10"/>
<path d="M148.938 500.559L145.971 502.326C145.591 502.551 145.283 502.42 145.283 502.053C145.283 501.685 145.591 501.187 145.971 500.974L148.938 499.207C149.317 498.981 149.626 499.112 149.626 499.479C149.626 499.847 149.317 500.345 148.938 500.559Z" fill="#83869B"/>
<path d="M154.373 497.357L151.406 499.124C151.026 499.349 150.718 499.218 150.718 498.851C150.718 498.483 151.026 497.985 151.406 497.772L154.373 496.005C154.752 495.779 155.061 495.91 155.061 496.277C155.061 496.645 154.752 497.143 154.373 497.357Z" fill="#FFF5FD"/>
<path d="M148.938 505.456L145.971 507.224C145.591 507.449 145.283 507.318 145.283 506.951C145.283 506.583 145.591 506.085 145.971 505.872L148.938 504.105C149.317 503.879 149.626 504.01 149.626 504.377C149.626 504.745 149.317 505.243 148.938 505.456Z" fill="#83869B"/>
<path d="M154.373 502.243L151.406 504.01C151.026 504.235 150.718 504.105 150.718 503.737C150.718 503.369 151.026 502.871 151.406 502.658L154.373 500.891C154.752 500.665 155.061 500.796 155.061 501.163C155.061 501.531 154.752 502.029 154.373 502.243Z" fill="#FFF5FD"/>
<path d="M148.938 510.354L145.971 512.121C145.591 512.347 145.283 512.216 145.283 511.849C145.283 511.481 145.591 510.983 145.971 510.77L148.938 509.002C149.317 508.777 149.626 508.908 149.626 509.275C149.626 509.643 149.317 510.141 148.938 510.354Z" fill="#83869B"/>
<path d="M154.373 507.129L151.406 508.896C151.026 509.121 150.718 508.991 150.718 508.623C150.718 508.255 151.026 507.757 151.406 507.544L154.373 505.777C154.752 505.551 155.061 505.682 155.061 506.049C155.061 506.417 154.752 506.915 154.373 507.129Z" fill="#FFF5FD"/>
<path d="M148.938 459.762L145.971 461.529C145.591 461.755 145.283 461.624 145.283 461.257C145.283 460.889 145.591 460.391 145.971 460.177L148.938 458.41C149.317 458.185 149.626 458.316 149.626 458.683C149.626 459.051 149.317 459.549 148.938 459.762Z" fill="#83869B"/>
<path d="M154.373 456.537L151.406 458.304C151.026 458.529 150.718 458.399 150.718 458.031C150.718 457.663 151.026 457.165 151.406 456.952L154.373 455.185C154.752 454.959 155.061 455.09 155.061 455.457C155.061 455.825 154.752 456.323 154.373 456.537Z" fill="#FFF5FD"/>
<path d="M148.938 464.66L145.971 466.427C145.591 466.653 145.283 466.522 145.283 466.155C145.283 465.787 145.591 465.289 145.971 465.075L148.938 463.308C149.317 463.083 149.626 463.214 149.626 463.581C149.626 463.949 149.317 464.447 148.938 464.66Z" fill="#83869B"/>
<path d="M154.373 461.423L151.406 463.19C151.026 463.415 150.718 463.285 150.718 462.917C150.718 462.549 151.026 462.051 151.406 461.838L154.373 460.071C154.752 459.846 155.061 459.976 155.061 460.344C155.061 460.711 154.752 461.209 154.373 461.423Z" fill="#FFF5FD"/>
<path d="M148.938 469.546L145.971 471.314C145.591 471.539 145.283 471.408 145.283 471.041C145.283 470.673 145.591 470.175 145.971 469.962L148.938 468.195C149.317 467.969 149.626 468.1 149.626 468.467C149.626 468.835 149.317 469.333 148.938 469.546Z" fill="#83869B"/>
<path d="M154.373 466.332L151.406 468.1C151.026 468.325 150.718 468.194 150.718 467.827C150.718 467.459 151.026 466.961 151.406 466.748L154.373 464.981C154.752 464.755 155.061 464.886 155.061 465.253C155.061 465.621 154.752 466.119 154.373 466.332Z" fill="#FFF5FD"/>
<path d="M148.938 418.955L145.971 420.722C145.591 420.947 145.283 420.816 145.283 420.449C145.283 420.081 145.591 419.583 145.971 419.37L148.938 417.603C149.317 417.377 149.626 417.508 149.626 417.875C149.626 418.243 149.317 418.741 148.938 418.955Z" fill="#83869B"/>
<path d="M154.373 415.741L151.406 417.508C151.026 417.733 150.718 417.603 150.718 417.235C150.718 416.867 151.026 416.369 151.406 416.156L154.373 414.389C154.752 414.163 155.061 414.294 155.061 414.661C155.061 415.029 154.752 415.527 154.373 415.741Z" fill="#FFF5FD"/>
<path d="M148.938 423.841L145.971 425.608C145.591 425.833 145.283 425.702 145.283 425.335C145.283 424.967 145.591 424.469 145.971 424.256L148.938 422.489C149.317 422.263 149.626 422.394 149.626 422.761C149.626 423.129 149.317 423.627 148.938 423.841Z" fill="#83869B"/>
<path d="M154.373 420.627L151.406 422.394C151.026 422.619 150.718 422.489 150.718 422.121C150.718 421.753 151.026 421.255 151.406 421.042L154.373 419.275C154.752 419.049 155.061 419.18 155.061 419.547C155.061 419.915 154.752 420.413 154.373 420.627Z" fill="#FFF5FD"/>
<path d="M148.938 428.738L145.971 430.506C145.591 430.731 145.283 430.6 145.283 430.233C145.283 429.865 145.591 429.367 145.971 429.154L148.938 427.387C149.317 427.161 149.626 427.292 149.626 427.659C149.626 428.027 149.317 428.525 148.938 428.738Z" fill="#83869B"/>
<path d="M154.373 425.525L151.406 427.292C151.026 427.517 150.718 427.387 150.718 427.019C150.718 426.651 151.026 426.153 151.406 425.94L154.373 424.173C154.752 423.947 155.061 424.078 155.061 424.445C155.061 424.813 154.752 425.311 154.373 425.525Z" fill="#FFF5FD"/>
<path d="M232.799 371.588L357.291 299.685C358.502 298.986 359.594 298.926 360.377 299.377L362.703 300.729C361.919 300.266 360.828 300.338 359.617 301.037L235.125 372.94C232.728 374.328 230.793 377.672 230.805 380.435L231.055 467.744C231.055 469.108 231.541 470.068 232.312 470.531L229.987 469.179C229.203 468.728 228.729 467.768 228.729 466.392L228.479 379.083C228.479 376.32 230.402 372.988 232.799 371.6V371.588Z" fill="white"/>
<path d="M235.125 372.952C232.728 374.34 230.793 377.684 230.805 380.435L231.054 467.744C231.054 470.495 233.001 471.61 235.409 470.222L359.902 398.319C362.299 396.932 364.233 393.576 364.221 390.824L363.972 303.516C363.972 300.753 362.026 299.65 359.629 301.037L235.137 372.94L235.125 372.952Z" fill="url(#paint4_linear_117_259)"/>
<path d="M253.637 380.945C252.023 381.882 250.706 384.159 250.706 386.033V402.577L256.568 399.185V382.641C256.568 380.767 255.25 380.008 253.637 380.945Z" fill="#FF5A72"/>
<path d="M250.706 415.029C250.706 416.903 252.023 417.662 253.637 416.725C255.25 415.788 256.568 413.511 256.568 411.637V399.197L250.706 402.589V415.029Z" fill="#CF2D52"/>
<path d="M264.305 377.186C262.679 378.123 261.374 380.4 261.374 382.274V396.422L267.236 391.975V377.826C267.236 377.008 265.918 376.249 264.305 377.186Z" fill="#1A1885"/>
<path d="M261.374 399.908C261.374 401.782 262.691 402.541 264.305 401.604C265.918 400.667 267.236 398.39 267.236 396.517V393.03L261.374 396.422V399.908Z" fill="#1A1885"/>
<path d="M273.228 397.05C273.228 398.924 274.545 399.683 276.159 398.746C277.773 397.809 279.09 395.532 279.09 393.67V384.503L273.228 387.895V397.062V397.05Z" fill="#CF2D52"/>
<path d="M276.159 362.978C274.534 363.915 273.228 366.192 273.228 368.054V387.883L279.09 384.491V364.662C279.09 362.789 277.773 362.03 276.159 362.967V362.978Z" fill="#FF5A72"/>
<path d="M283.896 400.49C283.896 402.363 285.214 404.178 286.828 403.241C288.453 402.304 289.759 400.027 289.759 398.153V378.324L283.896 381.716V400.49Z" fill="#1A1885"/>
<path d="M286.828 367.473C285.214 368.41 283.896 370.687 283.896 372.561V381.728L289.759 378.336V368.114C289.759 366.24 288.441 366.536 286.828 367.473Z" fill="#1A1885"/>
<path d="M294.564 390.409C294.564 392.283 295.882 393.042 297.496 392.105C299.121 391.168 300.427 388.891 300.427 387.017V372.169L294.564 375.561V390.409Z" fill="#CF2D52"/>
<path d="M297.496 356.337C295.87 357.274 294.564 359.551 294.564 361.413V375.561L300.427 372.17V358.021C300.427 356.148 299.109 355.389 297.496 356.325V356.337Z" fill="#FF5A72"/>
<path d="M305.244 380.21C305.244 382.084 306.562 382.843 308.175 381.906C309.801 380.969 311.106 377.637 311.106 375.763V366.015L305.244 369.406V380.21Z" fill="#1A1885"/>
<path d="M308.175 346.126C306.562 347.063 305.244 349.34 305.244 350.159V368.351L311.106 366.014V347.822C311.106 345.949 309.789 345.189 308.175 346.126Z" fill="#1A1885"/>
<path d="M315.913 367.853C315.913 369.726 317.23 370.485 318.844 369.549C320.458 368.612 321.775 366.335 321.775 364.473V359.859L315.913 363.251V367.865V367.853Z" fill="#CF2D52"/>
<path d="M318.844 335.678C317.23 336.615 315.913 338.892 315.913 340.766V363.239L321.775 359.848V337.374C321.775 335.5 320.458 334.741 318.844 335.678Z" fill="#FF5A72"/>
<path d="M329.512 333.805C327.886 334.741 326.581 337.018 326.581 338.88V357.073L332.443 352.625V334.433C332.443 333.615 331.125 332.856 329.512 333.793V333.805Z" fill="#1A1885"/>
<path d="M326.581 367.876C326.581 369.75 327.898 370.509 329.512 369.572C331.125 368.635 332.443 365.303 332.443 363.429V353.681L326.581 357.073V367.876Z" fill="#1A1885"/>
<path d="M343.111 338.359C343.111 336.485 341.793 335.726 340.18 336.663C338.566 337.6 337.249 339.877 337.249 341.738V350.906L343.111 347.514V338.347V338.359Z" fill="#FF5A72"/>
<path d="M337.249 350.918V360.085C337.249 361.959 338.566 362.718 340.18 361.781C341.793 360.844 343.111 358.567 343.111 356.705V347.538L337.249 350.929V350.918Z" fill="#CF2D52"/>
<path d="M348.13 346.138L246.873 404.629V402.28L348.13 343.79V346.138Z" fill="url(#paint5_linear_117_259)"/>
<path d="M246.873 439.886L254.835 430.304L279.102 418.777L288.287 407L318.855 400.513L340.191 377.032" stroke="#1A1885" stroke-width="0.98" stroke-miterlimit="10"/>
<path d="M286.827 407.83C286.827 406.953 287.444 405.874 288.204 405.435C288.963 404.996 289.58 405.352 289.58 406.229C289.58 407.107 288.963 408.174 288.204 408.613C287.444 409.052 286.827 408.696 286.827 407.819V407.83Z" fill="#1A1885"/>
<path d="M246.873 448.852L262.56 423.449L268.422 422.844L276.159 426.746L283.896 415.1L299.038 410.546L315.912 392.627L327.957 397.62L332.443 388.263L348.13 372.418" stroke="#FF5A72" stroke-width="0.98" stroke-miterlimit="10"/>
<path d="M314.524 393.421C314.524 392.544 315.141 391.476 315.901 391.026C316.66 390.587 317.277 390.943 317.277 391.82C317.277 392.698 316.66 393.765 315.901 394.216C315.141 394.655 314.524 394.299 314.524 393.421Z" fill="#1A1885"/>
<path d="M356.247 462.466C356.247 461.589 356.864 460.51 357.624 460.071C358.383 459.632 359 459.988 359 460.865C359 461.743 358.383 462.81 357.624 463.261C356.864 463.7 356.247 463.344 356.247 462.466Z" fill="#1A1885"/>
<path d="M274.783 427.541C274.783 426.663 275.4 425.596 276.171 425.157C276.931 424.718 277.548 425.074 277.548 425.952C277.548 426.829 276.931 427.896 276.171 428.347C275.412 428.786 274.783 428.43 274.783 427.552V427.541Z" fill="#1A1885"/>
<path d="M369.739 372.264V376.818" stroke="#FAB08B" stroke-width="4.17" stroke-linecap="round" stroke-linejoin="round"/>
<path d="M373.881 378.562C373.881 378.562 381.084 383.97 382.069 389.792C382.947 394.939 380.526 398.106 375.008 404.024" stroke="white" stroke-width="4.17" stroke-linecap="round" stroke-linejoin="round"/>
<path d="M368.493 408.245C368.968 408.957 369.905 409.206 370.677 408.838L373.727 407.392C374.996 406.787 375.435 405.198 374.64 404.035C373.845 402.873 372.196 402.695 371.175 403.668L368.719 405.992C368.102 406.585 367.995 407.534 368.481 408.245H368.493Z" fill="#FAB08B"/>
<path d="M367.841 464.957C367.841 464.957 366.239 466.546 365.171 466.273C363.593 465.882 357.588 464.174 355.63 461.767C353.66 459.347 355.867 458.648 357.647 459.086C362.655 460.32 364.376 461.008 366.12 461.482C367.758 461.933 368.493 463.949 367.829 464.945L367.841 464.957Z" fill="#070D30"/>
<path d="M376.385 460.213C376.385 460.213 374.771 461.802 373.715 461.53C372.136 461.138 366.144 459.43 364.174 457.023C362.204 454.604 364.411 453.904 366.191 454.343C371.199 455.576 372.92 456.264 374.664 456.75C376.302 457.201 377.037 459.217 376.373 460.213H376.385Z" fill="#070D30"/>
<path d="M365.396 462.146L364.031 453.643" stroke="#D6E9F4" stroke-width="2.92" stroke-linecap="round" stroke-linejoin="round"/>
<path d="M373.632 457.082L371.603 448.721" stroke="#D6E9F4" stroke-width="2.92" stroke-linecap="round" stroke-linejoin="round"/>
<path d="M376.029 406.55C372.67 406.514 365.444 408.008 361.623 408.542C360.234 411.187 359.712 414.009 360.341 416.772C359.131 423.307 359.214 427.446 359.166 434.621C359.119 441.784 360.246 451.331 361.718 458.814C361.99 460.213 362.714 460.545 363.877 460.593C364.34 460.605 365.052 460.498 365.467 460.379C366.512 460.095 367.33 459.49 367.058 458.161C365.562 450.951 364.221 441.523 364.482 434.68C364.732 427.837 365.052 424.374 366.488 418.302C367.39 418.077 368.292 417.792 369.229 417.377C368.434 422.548 368.624 424.813 368.422 430.707C368.22 436.601 368.209 448.01 369.763 454.461C370.119 455.956 370.938 456.537 372.279 456.655C372.492 456.667 372.813 456.655 373.003 456.608C374.901 455.968 375.186 454.426 374.901 452.932C373.691 446.35 373.347 437.301 373.667 430.944C373.988 424.588 379.138 406.609 376.029 406.573V406.55Z" fill="#1A1885"/>
<path d="M378.449 407.119C378.473 408.518 377.797 409.835 376.622 410.629C373.893 412.468 369.324 414.875 366.82 415.231C360.745 416.096 360.246 412.112 360.246 412.112C360.246 412.112 360.424 388.298 361.279 383.365C361.741 380.732 363.782 379.404 365.93 377.992C366.203 377.815 366.452 377.649 366.702 377.494C368.315 376.486 370.178 375.881 372.077 375.905C372.587 375.905 373.05 375.953 373.477 376.048C375.625 376.451 376.563 377.743 377.275 378.775C377.726 379.427 377.975 380.198 377.987 380.993L378.438 407.131L378.449 407.119Z" fill="#FF5A72"/>
<path d="M361.777 365.244C360.4 369.181 361.611 373.711 364.672 374.779C365.123 374.933 365.586 375.016 366.049 375.016C368.221 375.016 370.511 373.427 371.947 371.078C372.314 370.474 372.635 369.809 372.872 369.122C372.908 369.027 372.943 368.932 372.967 368.837C373.026 368.624 373.098 368.422 373.145 368.22C373.75 365.742 373.204 363.477 371.875 361.982C371.448 361.496 370.938 361.105 370.368 360.796C370.143 360.678 369.917 360.583 369.668 360.5C367.307 359.67 364.708 360.607 363.011 362.895C362.513 363.571 362.097 364.354 361.777 365.255V365.244Z" fill="#FAB08B"/>
<path d="M373.489 362.599C371.033 355.697 364.542 358.685 362.904 362.006C362.596 362.646 362.88 363.144 363.521 363.488C363.675 364.164 363.984 364.947 364.542 365.255C365.61 365.837 363.201 367.331 363.877 367.983C364.542 368.647 365.349 367.248 366.191 367.983C367.307 368.967 364.72 370.497 366.025 371.173C367.33 371.849 368.339 374.862 371.389 374.209C374.438 373.557 375.305 369.643 375.59 367.212C375.874 364.781 374.403 363.133 373.489 362.599Z" fill="#070D30"/>
<path d="M363.866 368.766C363.486 369.715 363.735 370.829 364.471 371.126C365.206 371.422 366.156 370.782 366.536 369.833C366.915 368.885 366.583 367.983 365.847 367.699C365.112 367.402 364.245 367.817 363.866 368.766Z" fill="#FAB08B"/>
<path d="M356.235 413.653C355.547 413.143 355.333 412.207 355.737 411.448L357.303 408.459C357.956 407.214 359.57 406.846 360.697 407.688C361.824 408.53 361.931 410.179 360.923 411.163L358.502 413.523C357.885 414.128 356.923 414.187 356.247 413.665L356.235 413.653Z" fill="#FAB08B"/>
<path d="M364.471 382.25C364.471 382.25 356.306 386.057 354.135 391.548C352.224 396.398 353.921 399.991 358.11 406.929" stroke="white" stroke-width="4.17" stroke-linecap="round" stroke-linejoin="round"/>
<path d="M223.08 504.223L149.59 473.187L117.705 454.77C115.889 453.726 112.733 453.857 110.644 455.066L19.9003 507.65L0 508.101V515.501H0.0237332C0.0237332 516.177 0.391598 516.818 1.22226 517.292L105.387 577.277C107.203 578.32 110.359 578.19 112.448 576.98L221.359 513.877C222.427 513.26 223.009 512.477 223.08 511.718V504.199V504.223Z" fill="url(#paint6_linear_117_259)"/>
<path d="M105.387 569.853L1.22227 509.856C-0.593316 508.813 -0.367851 506.986 1.73254 505.777L110.644 442.673C112.733 441.464 115.889 441.333 117.705 442.377L221.87 502.361C223.685 503.405 223.46 505.231 221.359 506.441L112.448 569.544C110.359 570.754 107.191 570.884 105.387 569.841V569.853Z" fill="#A4D4ED"/>
<path d="M221.359 505.362L112.448 568.465C110.359 569.675 107.203 569.805 105.387 568.762L1.22223 508.765C0.628897 508.421 0.272899 507.994 0.106767 507.532C-0.178031 508.386 0.1661 509.263 1.22223 509.856L105.387 569.841C107.203 570.884 110.359 570.754 112.448 569.544L221.359 506.441C222.76 505.634 223.306 504.543 222.973 503.595C222.76 504.223 222.238 504.84 221.359 505.35V505.362Z" fill="white"/>
<path d="M179.969 466.688V467.424C179.874 469.25 178.924 471.041 177.156 472.108L155.963 484.821L124.077 503.903C120.671 505.943 116.779 506.891 112.946 506.666C109.98 506.548 107.025 505.694 104.284 504.188L67.7819 483.671L49.9939 473.685C47.2527 472.156 45.8881 469.38 45.8881 466.641V466.416C45.9593 463.818 47.2527 461.269 49.804 459.739L102.551 428.11C106.823 425.56 112.151 425.477 116.494 427.908L177.014 461.909C178.794 462.917 179.779 464.625 179.957 466.404C179.981 466.499 179.981 466.57 179.981 466.676H179.969V466.688Z" fill="#C2C4C6"/>
<path d="M179.969 505.077V505.812C179.874 507.639 178.924 509.429 177.156 510.497L155.963 523.21L124.077 542.292C120.671 544.331 116.779 545.28 112.946 545.067C109.98 544.948 107.025 544.082 104.284 542.588L67.7819 522.071L49.9939 512.086C47.2527 510.556 45.8881 507.781 45.8881 505.041V504.816C45.9593 502.207 47.2527 499.669 49.804 498.139L102.551 466.51C106.823 463.961 112.151 463.878 116.494 466.309L177.014 500.31C178.794 501.318 179.779 503.025 179.957 504.804C179.981 504.899 179.981 504.97 179.981 505.077H179.969Z" fill="#C2C4C6"/>
<path d="M179.969 467.424V502.136C179.874 503.986 178.924 505.753 177.156 506.82L124.065 538.639C120.659 540.679 116.767 541.604 112.934 541.378V506.666C116.779 506.891 120.659 505.931 124.065 503.891L155.951 484.809L177.144 472.096C178.924 471.029 179.874 469.238 179.957 467.412L179.969 467.424Z" fill="url(#paint7_linear_117_259)"/>
<path d="M112.923 506.678V541.39C109.956 541.272 107.001 540.453 104.26 538.912L49.9584 508.409C47.2172 506.88 45.8525 504.128 45.8525 501.389V466.665C45.8525 469.404 47.2172 472.179 49.9584 473.709L67.7464 483.695L104.248 504.211C106.977 505.717 109.944 506.571 112.911 506.69H112.923V506.678Z" fill="url(#paint8_linear_117_259)"/>
<path d="M162.086 490.407V506.678C162.086 508.504 161.113 510.2 159.57 511.125L136.929 524.681C135.516 525.523 133.808 524.977 133.06 523.708C133.653 523.791 134.306 523.684 134.888 523.329L157.529 509.785C159.095 508.848 160.057 507.152 160.057 505.326V489.055C160.057 488.711 159.985 488.403 159.855 488.118C161.018 488.154 162.086 489.091 162.086 490.395V490.407Z" fill="#83869B"/>
<path d="M160.057 489.043V505.314C160.057 507.14 159.084 508.836 157.529 509.773L134.888 523.317C134.294 523.672 133.653 523.779 133.06 523.696C132.811 523.269 132.657 522.795 132.657 522.249V507.686C132.657 505.397 133.867 503.251 135.849 502.065L158.644 488.415C159.036 488.177 159.475 488.071 159.867 488.083C159.997 488.367 160.068 488.687 160.068 489.019L160.057 489.043Z" fill="url(#paint9_linear_117_259)"/>
<path d="M143.526 503.784L140.56 505.551C140.18 505.777 139.872 505.646 139.872 505.279C139.872 504.911 140.18 504.413 140.56 504.199L143.526 502.432C143.894 502.207 144.215 502.337 144.215 502.705C144.215 503.073 143.906 503.571 143.526 503.784Z" fill="url(#paint10_linear_117_259)"/>
<path d="M143.526 508.682L140.56 510.449C140.18 510.675 139.872 510.544 139.872 510.176C139.872 509.809 140.18 509.311 140.56 509.097L143.526 507.33C143.894 507.105 144.215 507.235 144.215 507.603C144.215 507.971 143.906 508.469 143.526 508.682Z" fill="url(#paint11_linear_117_259)"/>
<path d="M143.526 513.568L140.56 515.335C140.18 515.561 139.872 515.43 139.872 515.063C139.872 514.695 140.18 514.197 140.56 513.983L143.526 512.216C143.894 511.991 144.215 512.121 144.215 512.489C144.215 512.857 143.906 513.355 143.526 513.568Z" fill="url(#paint12_linear_117_259)"/>
<path d="M179.969 425.892V426.627C179.874 428.454 178.924 430.245 177.156 431.312L155.963 444.025L124.077 463.107C120.671 465.147 116.779 466.095 112.946 465.882C109.98 465.763 107.025 464.898 104.284 463.403L67.7819 442.887L49.9939 432.901C47.2527 431.371 45.8881 428.608 45.8881 425.857V425.631C45.9593 423.034 47.2527 420.484 49.804 418.954L102.551 387.326C106.823 384.776 112.151 384.693 116.494 387.124L177.014 421.125C178.794 422.133 179.779 423.841 179.957 425.619C179.981 425.714 179.981 425.785 179.981 425.892H179.969Z" fill="#C2C4C6"/>
<path d="M179.969 426.627V461.34C179.874 463.19 178.924 464.957 177.156 466.024L124.065 497.831C120.659 499.871 116.767 500.796 112.934 500.57V465.858C116.779 466.083 120.659 465.123 124.065 463.083L155.951 444.001L177.144 431.288C178.924 430.221 179.874 428.43 179.957 426.604L179.969 426.627Z" fill="url(#paint13_linear_117_259)"/>
<path d="M112.923 465.87V500.582C109.956 500.464 107.001 499.645 104.26 498.104L49.9584 467.601C47.2172 466.072 45.8525 463.32 45.8525 460.581V425.845C45.8525 428.584 47.2172 431.359 49.9584 432.889L67.7464 442.875L104.248 463.391C106.977 464.898 109.944 465.751 112.911 465.87H112.923Z" fill="url(#paint14_linear_117_259)"/>
<path d="M162.086 449.599V465.87C162.086 467.696 161.113 469.392 159.57 470.317L136.929 483.872C135.516 484.714 133.808 484.169 133.06 482.912C133.653 482.995 134.306 482.888 134.888 482.532L157.529 468.989C159.095 468.052 160.057 466.356 160.057 464.53V448.259C160.057 447.915 159.985 447.607 159.855 447.322C161.018 447.358 162.086 448.294 162.086 449.611V449.599Z" fill="#83869B"/>
<path d="M160.057 448.235V464.506C160.057 466.333 159.084 468.028 157.529 468.965L134.888 482.509C134.294 482.876 133.653 482.971 133.06 482.888C132.811 482.461 132.657 481.987 132.657 481.441V466.878C132.657 464.589 133.867 462.443 135.849 461.257L158.644 447.607C159.036 447.369 159.475 447.263 159.867 447.275C159.997 447.559 160.068 447.879 160.068 448.211L160.057 448.235Z" fill="url(#paint15_linear_117_259)"/>
<path d="M143.526 462.988L140.56 464.755C140.18 464.981 139.872 464.85 139.872 464.483C139.872 464.115 140.18 463.617 140.56 463.403L143.526 461.636C143.894 461.411 144.215 461.541 144.215 461.909C144.215 462.277 143.906 462.775 143.526 462.988Z" fill="url(#paint16_linear_117_259)"/>
<path d="M143.526 467.862L140.56 469.629C140.18 469.855 139.872 469.724 139.872 469.357C139.872 468.989 140.18 468.491 140.56 468.277L143.526 466.51C143.894 466.285 144.215 466.416 144.215 466.783C144.215 467.151 143.906 467.649 143.526 467.862Z" fill="url(#paint17_linear_117_259)"/>
<path d="M143.526 472.772L140.56 474.539C140.18 474.765 139.872 474.634 139.872 474.266C139.872 473.899 140.18 473.401 140.56 473.187L143.526 471.42C143.894 471.195 144.215 471.325 144.215 471.693C144.215 472.061 143.906 472.559 143.526 472.772Z" fill="url(#paint18_linear_117_259)"/>
<path d="M179.969 385.084V385.82C179.874 387.646 178.924 389.437 177.156 390.504L155.963 403.217L124.077 422.299C120.671 424.339 116.779 425.287 112.946 425.074C109.98 424.955 107.025 424.09 104.284 422.595L67.7819 402.079L49.9939 392.093C47.2527 390.563 45.8881 387.8 45.8881 385.049V384.823C45.9593 382.226 47.2527 379.676 49.804 378.147L102.551 346.518C106.823 343.968 112.151 343.885 116.494 346.316L177.014 380.317C178.794 381.325 179.779 383.033 179.957 384.812C179.981 384.906 179.981 384.978 179.981 385.084H179.969Z" fill="url(#paint19_linear_117_259)"/>
<path d="M166.5 385.571L157.992 390.67L111.736 364.674C111.107 364.319 110.395 364.129 109.659 364.129C108.923 364.129 108.14 364.331 107.499 364.71L65.6934 389.781L57.1851 385.013L107.499 354.855C108.128 354.475 108.888 354.262 109.659 354.262C110.43 354.262 111.095 354.452 111.736 354.807L166.5 385.571Z" fill="#83869B"/>
<path d="M158.004 390.67L150.955 394.892L119.069 413.974C117.515 414.899 115.759 415.397 114.002 415.397H113.302C111.866 415.326 110.371 414.887 108.971 414.128L72.5049 393.635L65.6816 389.804L107.488 364.734C108.117 364.354 108.876 364.153 109.647 364.153C110.419 364.153 111.083 364.342 111.724 364.698L157.98 390.694V390.658L158.004 390.67Z" fill="url(#paint20_linear_117_259)"/>
<path d="M179.969 385.808V420.52C179.874 422.37 178.924 424.137 177.156 425.204L124.065 457.011C120.659 459.051 116.767 459.976 112.934 459.751V425.038C116.779 425.264 120.659 424.303 124.065 422.263L155.951 403.182L177.144 390.468C178.924 389.401 179.874 387.61 179.957 385.784L179.969 385.808Z" fill="url(#paint21_linear_117_259)"/>
<path d="M112.923 425.062V459.774C109.956 459.656 107.001 458.837 104.26 457.296L49.9584 426.794C47.2172 425.264 45.8525 422.512 45.8525 419.773V385.037C45.8525 387.776 47.2172 390.551 49.9584 392.081L67.7464 402.067L104.248 422.583C106.977 424.09 109.944 424.944 112.911 425.062H112.923Z" fill="url(#paint22_linear_117_259)"/>
<path d="M162.086 408.791V425.062C162.086 426.888 161.113 428.584 159.57 429.509L136.929 443.065C135.516 443.907 133.808 443.361 133.06 442.092C133.653 442.175 134.306 442.068 134.888 441.713L157.529 428.169C159.095 427.232 160.057 425.536 160.057 423.71V407.439C160.057 407.095 159.985 406.787 159.855 406.502C161.018 406.538 162.086 407.487 162.086 408.791Z" fill="#83869B"/>
<path d="M160.057 407.439V423.722C160.057 425.548 159.084 427.244 157.529 428.181L134.888 441.724C134.294 442.092 133.653 442.187 133.06 442.104C132.811 441.677 132.657 441.203 132.657 440.657V426.106C132.657 423.817 133.867 421.67 135.849 420.484L158.644 406.834C159.036 406.597 159.475 406.49 159.867 406.502C159.997 406.787 160.068 407.107 160.068 407.439H160.057Z" fill="url(#paint23_linear_117_259)"/>
<path d="M143.526 422.18L140.56 423.947C140.18 424.173 139.872 424.042 139.872 423.675C139.872 423.307 140.18 422.809 140.56 422.595L143.526 420.828C143.894 420.603 144.215 420.733 144.215 421.101C144.215 421.469 143.906 421.967 143.526 422.18Z" fill="url(#paint24_linear_117_259)"/>
<path d="M143.526 427.078L140.56 428.845C140.18 429.071 139.872 428.94 139.872 428.572C139.872 428.205 140.18 427.707 140.56 427.493L143.526 425.726C143.894 425.501 144.215 425.631 144.215 425.999C144.215 426.367 143.906 426.865 143.526 427.078Z" fill="url(#paint25_linear_117_259)"/>
<path d="M143.526 431.964L140.56 433.731C140.18 433.957 139.872 433.826 139.872 433.458C139.872 433.091 140.18 432.593 140.56 432.379L143.526 430.612C143.894 430.387 144.215 430.517 144.215 430.885C144.215 431.253 143.906 431.751 143.526 431.964Z" fill="url(#paint26_linear_117_259)"/>
</g>
<g clip-path="url(#clip1_117_259)">
<path d="M360.892 515.731L322.559 537.897C321.138 538.718 319.756 540.697 319.475 542.323L309.95 597.407C309.669 599.026 310.598 601.012 312.019 601.833L336.737 616.126C338.158 616.947 340.468 616.947 341.889 616.126L394.721 585.577C396.142 584.756 397.298 582.841 397.298 581.292C397.298 579.752 396.142 577.829 394.721 577.008L375.711 566.014C374.29 565.193 373.001 563.199 372.837 561.565L368.606 520C368.442 518.366 367.224 516.411 365.889 515.637C364.554 514.863 362.321 514.91 360.9 515.731H360.892Z" fill="#72262A"/>
<path d="M339.305 606.438V616.743C340.242 616.743 341.171 616.54 341.882 616.126L394.713 585.577C396.134 584.756 397.29 582.84 397.29 581.292C397.29 580.393 396.892 579.361 396.275 578.501H387.624L339.305 606.438Z" fill="#72262A"/>
<path d="M365.717 518.522L327.383 540.689C325.962 541.51 324.581 543.488 324.299 545.114L315.649 595.116C315.368 596.735 316.297 598.721 317.718 599.542L336.729 610.535C338.15 611.356 340.461 611.356 341.882 610.535L394.713 579.987C396.134 579.166 396.134 577.829 394.713 577.008L375.703 566.014C374.282 565.193 372.994 563.199 372.83 561.565L368.598 520C368.434 518.366 367.146 517.701 365.725 518.53L365.717 518.522Z" fill="#72262A"/>
<path d="M394.714 577.008L375.703 566.014C375 565.608 374.337 564.92 373.813 564.13L316.016 597.548C316.391 598.385 316.984 599.12 317.718 599.542L336.729 610.535C338.15 611.356 340.461 611.356 341.882 610.535L394.714 579.987C396.134 579.166 396.134 577.829 394.714 577.008Z" fill="url(#paint27_linear_117_259)"/>
<path d="M239.067 625.289L236.616 623.874C234.625 622.725 233.009 619.926 233.009 617.619V452.749C233.009 450.45 234.625 447.651 236.616 446.502L437.739 330.86C439.73 329.711 442.963 329.719 444.953 330.868L446.827 331.947C448.818 333.096 450.434 335.895 450.434 338.202V503.072C450.434 505.371 448.818 508.178 446.827 509.327L246.281 625.289C244.291 626.439 241.058 626.439 239.067 625.289Z" fill="#B53839"/>
<path d="M247.499 456.956L234.063 449.184C233.407 450.318 233.001 451.592 233.001 452.741V617.611C233.001 619.91 234.617 622.717 236.608 623.866L239.06 625.282C241.051 626.431 244.283 626.431 246.274 625.282L247.499 624.57V456.94V456.956Z" fill="#B53839"/>
<path d="M242.675 623.21V458.34C242.675 456.041 244.291 453.234 246.282 452.085L446.827 336.114C448.818 334.965 450.434 335.896 450.434 338.202V503.072C450.434 505.371 448.818 508.178 446.827 509.327L246.282 625.289C244.291 626.439 242.675 625.508 242.675 623.202V623.21Z" fill="url(#paint28_linear_117_259)"/>
<path d="M336.846 561.753L355.857 550.759C357.278 549.938 358.433 550.525 358.433 552.065C358.433 553.605 357.278 555.529 355.857 556.35L336.846 567.343C335.425 568.164 334.27 567.578 334.27 566.038C334.27 564.497 335.425 562.574 336.846 561.753Z" fill="#E0E0E0"/>
<path d="M251.91 457.12L440.792 347.6C441.932 346.944 442.853 347.475 442.853 348.789V492.485C442.853 493.799 441.932 495.402 440.792 496.058L251.91 605.273C250.771 605.93 249.849 605.398 249.849 604.085V460.701C249.849 459.388 250.771 457.785 251.91 457.128V457.12Z" fill="white"/>
<path d="M456.953 375.139C456.789 374.599 456.282 374.419 455.673 374.771L329.616 447.667C329.249 447.878 328.914 448.238 328.679 448.66L324.526 446.252C324.76 445.83 325.096 445.47 325.463 445.259L451.519 372.371C452.253 371.941 453.44 371.941 454.174 372.371L455.665 373.231C456.289 373.591 456.813 374.388 456.945 375.139H456.953Z" fill="#EBEBEB"/>
<path d="M457 375.537V430.09C457 430.942 456.407 431.974 455.673 432.397L329.616 505.285C329.554 505.316 329.491 505.347 329.429 505.378C329.351 505.41 329.265 505.441 329.187 505.449C329.179 505.449 329.156 505.457 329.148 505.457C328.648 505.527 328.289 505.167 328.289 504.518V449.974C328.289 449.543 328.445 449.074 328.679 448.66C328.914 448.238 329.249 447.878 329.616 447.667L455.673 374.771C456.274 374.419 456.789 374.599 456.953 375.139C456.961 375.17 456.977 375.201 456.977 375.24C457 375.342 457.008 375.436 457.008 375.537H457Z" fill="#FAFAFA"/>
<path d="M329.14 505.457C328.75 505.582 328.305 505.621 327.883 505.566C327.547 505.535 327.219 505.433 326.954 505.277L325.463 504.417C324.729 503.987 324.135 502.955 324.135 502.11V447.557C324.135 447.135 324.276 446.666 324.526 446.244L328.679 448.652C328.445 449.059 328.289 449.536 328.289 449.966V504.51C328.289 505.167 328.648 505.527 329.148 505.449L329.14 505.457Z" fill="#E0E0E0"/>
<path d="M453.081 404.765C452.831 404.639 452.518 404.733 452.394 404.991L447.928 413.827C447.803 413.655 447.655 413.498 447.467 413.389C446.913 413.068 446.21 413.115 445.484 413.537C444.344 414.194 443.423 415.633 443.204 416.985L434.632 415.586C434.538 414.976 434.265 414.499 433.812 414.241C433.258 413.92 432.555 413.967 431.829 414.39C431.337 414.671 430.892 415.101 430.517 415.602L419.65 405.679C419.954 405.054 420.134 404.374 420.134 403.748C420.134 402.919 419.829 402.278 419.267 401.958C418.713 401.637 418.01 401.684 417.284 402.106C415.98 402.865 414.95 404.639 414.95 406.148C414.95 406.969 415.246 407.595 415.793 407.923L408.079 431.192C407.595 431.06 407.041 431.153 406.471 431.482C405.722 431.912 405.081 432.678 404.652 433.538L395.369 426.845C395.369 426.798 395.377 426.751 395.377 426.712C395.377 425.883 395.072 425.242 394.51 424.922C393.956 424.601 393.253 424.648 392.527 425.07C391.223 425.829 390.193 427.604 390.193 429.113C390.193 429.636 390.326 430.074 390.56 430.418L383.041 452.468C382.698 452.491 382.339 452.608 381.972 452.82C380.754 453.523 379.794 455.118 379.669 456.557L368.083 463.258C367.942 462.828 367.708 462.484 367.349 462.28C366.794 461.96 366.092 462.007 365.374 462.429C364.39 463 363.562 464.149 363.219 465.322L355.7 462.273C355.732 462.069 355.755 461.866 355.755 461.671C355.755 460.842 355.45 460.201 354.888 459.88C354.334 459.559 353.631 459.606 352.905 460.029C351.601 460.787 350.571 462.562 350.571 464.071C350.571 464.399 350.633 464.689 350.727 464.955L342.147 481.382C341.639 481.21 341.054 481.288 340.445 481.64C339.227 482.344 338.267 483.939 338.142 485.378L332.146 488.841C331.904 488.982 331.818 489.295 331.958 489.537C332.052 489.701 332.224 489.795 332.403 489.795C332.489 489.795 332.575 489.772 332.661 489.725L338.251 486.488C338.392 486.918 338.626 487.262 338.985 487.465C339.227 487.606 339.492 487.676 339.781 487.676C340.156 487.676 340.554 487.559 340.968 487.324C342.272 486.566 343.302 484.791 343.302 483.282C343.302 482.782 343.177 482.367 342.974 482.039L351.43 465.854C351.43 465.854 351.445 465.869 351.453 465.869C351.695 466.01 351.961 466.08 352.249 466.08C352.624 466.08 353.022 465.963 353.436 465.729C354.295 465.228 355.029 464.29 355.427 463.281L363.063 466.378C363.063 466.378 363.055 466.456 363.055 466.487C363.055 467.316 363.359 467.957 363.921 468.278C364.163 468.418 364.429 468.489 364.718 468.489C365.092 468.489 365.491 468.371 365.904 468.137C367.122 467.433 368.083 465.838 368.208 464.399L379.794 457.699C379.934 458.129 380.168 458.473 380.527 458.676C380.769 458.817 381.035 458.887 381.324 458.887C381.699 458.887 382.097 458.77 382.51 458.535C383.814 457.777 384.845 456.002 384.845 454.493C384.845 453.703 384.564 453.101 384.056 452.765L391.45 431.091C391.59 431.13 391.731 431.146 391.879 431.146C392.254 431.146 392.652 431.028 393.066 430.794C394.018 430.239 394.823 429.144 395.19 428.002L404.301 434.578C404.215 434.914 404.16 435.25 404.16 435.571C404.16 436.4 404.465 437.041 405.027 437.362C405.269 437.502 405.534 437.573 405.823 437.573C406.198 437.573 406.596 437.455 407.01 437.221C408.314 436.462 409.344 434.688 409.344 433.178C409.344 432.655 409.211 432.217 408.977 431.881L416.831 408.174C417.151 408.142 417.479 408.048 417.815 407.853C418.307 407.571 418.752 407.141 419.127 406.641L429.994 416.563C429.69 417.189 429.51 417.869 429.51 418.495C429.51 419.323 429.815 419.964 430.377 420.285C430.619 420.426 430.884 420.496 431.173 420.496C431.548 420.496 431.946 420.379 432.36 420.144C433.5 419.488 434.421 418.049 434.64 416.696L443.212 418.096C443.306 418.706 443.579 419.183 444.032 419.441C444.274 419.581 444.539 419.652 444.828 419.652C445.203 419.652 445.601 419.534 446.015 419.3C447.28 418.565 448.271 416.884 448.334 415.398L453.323 405.531C453.448 405.281 453.346 404.968 453.096 404.843L453.081 404.765ZM340.484 486.41C340.101 486.629 339.75 486.683 339.524 486.558C339.297 486.425 339.172 486.097 339.172 485.659C339.172 484.517 340.008 483.071 340.991 482.5C341.241 482.359 341.468 482.281 341.663 482.281C341.772 482.281 341.866 482.305 341.952 482.352C342.178 482.485 342.303 482.813 342.303 483.259C342.303 484.4 341.468 485.847 340.484 486.417V486.41ZM352.944 464.798C352.562 465.017 352.21 465.072 351.984 464.947C351.758 464.814 351.633 464.485 351.633 464.048C351.633 462.906 352.468 461.459 353.452 460.889C353.694 460.748 353.928 460.678 354.123 460.678C354.233 460.678 354.326 460.701 354.412 460.748C354.638 460.881 354.763 461.209 354.763 461.647C354.763 462.789 353.928 464.235 352.944 464.806V464.798ZM365.405 467.199C365.022 467.425 364.671 467.472 364.444 467.347C364.218 467.214 364.093 466.886 364.093 466.448C364.093 465.306 364.928 463.86 365.912 463.289C366.154 463.148 366.388 463.07 366.584 463.07C366.693 463.07 366.787 463.094 366.873 463.141C367.099 463.273 367.224 463.602 367.224 464.048C367.224 465.189 366.388 466.636 365.405 467.206V467.199ZM382.011 457.597C381.628 457.824 381.277 457.871 381.051 457.746C380.824 457.613 380.699 457.284 380.699 456.846C380.699 455.705 381.535 454.258 382.518 453.687C382.768 453.547 382.995 453.469 383.19 453.469C383.299 453.469 383.393 453.492 383.479 453.539C383.705 453.672 383.83 454 383.83 454.446C383.83 455.587 382.995 457.034 382.011 457.605V457.597ZM392.558 429.855C392.176 430.074 391.825 430.129 391.598 430.004C391.567 429.988 391.544 429.957 391.512 429.926C391.512 429.926 391.505 429.926 391.497 429.918C391.341 429.754 391.247 429.472 391.247 429.105C391.247 427.963 392.082 426.517 393.066 425.946C393.308 425.805 393.542 425.735 393.737 425.735C393.847 425.735 393.94 425.758 394.026 425.805C394.253 425.938 394.378 426.267 394.378 426.704C394.378 427.846 393.542 429.292 392.558 429.863V429.855ZM406.494 436.275C406.112 436.501 405.761 436.548 405.534 436.423C405.308 436.29 405.183 435.962 405.183 435.524C405.183 434.383 406.018 432.936 407.002 432.365C407.244 432.225 407.478 432.154 407.673 432.154C407.783 432.154 407.876 432.178 407.962 432.225C408.001 432.248 408.025 432.279 408.064 432.311C408.228 432.475 408.321 432.756 408.321 433.124C408.321 434.265 407.486 435.712 406.502 436.283L406.494 436.275ZM417.3 406.899C416.917 407.126 416.566 407.173 416.339 407.048C416.113 406.915 415.988 406.586 415.988 406.148C415.988 405.007 416.824 403.56 417.807 402.99C418.057 402.849 418.283 402.771 418.479 402.771C418.588 402.771 418.682 402.794 418.768 402.841C418.994 402.974 419.119 403.302 419.119 403.748C419.119 404.89 418.283 406.336 417.3 406.907V406.899ZM431.837 419.19C431.454 419.417 431.103 419.464 430.877 419.339C430.65 419.206 430.525 418.878 430.525 418.432C430.525 417.29 431.361 415.844 432.344 415.273C432.586 415.132 432.821 415.062 433.016 415.062C433.125 415.062 433.219 415.085 433.305 415.132C433.531 415.265 433.656 415.594 433.656 416.032C433.656 417.173 432.821 418.62 431.837 419.19ZM445.484 418.338C445.102 418.565 444.75 418.612 444.524 418.487C444.297 418.354 444.172 418.025 444.172 417.588C444.172 416.446 445.008 414.999 445.992 414.429C446.234 414.288 446.468 414.218 446.663 414.218C446.772 414.218 446.866 414.241 446.952 414.288C447.178 414.421 447.303 414.749 447.303 415.187C447.303 416.329 446.468 417.775 445.484 418.346V418.338Z" fill="url(#paint29_linear_117_259)"/>
<path d="M382.214 485.581C382.05 485.041 381.527 484.862 380.934 485.213L329.608 514.894C329.218 515.121 328.875 515.512 328.64 515.95L324.502 513.526C324.744 513.096 325.088 512.72 325.463 512.501L376.78 482.821C377.514 482.391 378.708 482.391 379.435 482.821L380.941 483.681C381.558 484.041 382.073 484.838 382.222 485.589L382.214 485.581Z" fill="#EBEBEB"/>
<path d="M382.269 485.98V526.13C382.261 526.982 381.667 528.006 380.941 528.436L332.435 556.475L329.616 558.109C329.554 558.148 329.484 558.18 329.413 558.211C329.406 558.211 329.39 558.219 329.382 558.219C328.75 558.445 328.289 558.086 328.289 557.335V517.185C328.289 516.786 328.422 516.333 328.648 515.934C328.882 515.496 329.234 515.105 329.616 514.878L380.941 485.198C381.535 484.846 382.058 485.026 382.222 485.565C382.23 485.597 382.23 485.628 382.245 485.667C382.269 485.769 382.276 485.862 382.276 485.964L382.269 485.98Z" fill="#FAFAFA"/>
<path d="M329.382 558.219C329.327 558.242 329.281 558.258 329.218 558.281C329.148 558.313 329.062 558.336 328.992 558.344C328.882 558.375 328.765 558.399 328.648 558.406C328.539 558.414 328.414 558.43 328.305 558.43C328.063 558.43 327.821 558.399 327.586 558.352C327.36 558.297 327.149 558.219 326.962 558.117L325.471 557.249C324.737 556.827 324.143 555.795 324.143 554.943V514.8C324.143 514.378 324.284 513.932 324.51 513.518L328.648 515.942C328.422 516.341 328.289 516.794 328.289 517.193V557.343C328.289 558.094 328.75 558.445 329.382 558.227V558.219Z" fill="#E0E0E0"/>
<path d="M332.435 550.65V523.886C332.435 523.323 332.833 522.635 333.317 522.353L335.698 520.977C336.19 520.696 336.58 520.922 336.58 521.485V548.25C336.58 548.813 336.182 549.501 335.698 549.782L333.317 551.158C332.825 551.44 332.435 551.213 332.435 550.65Z" fill="url(#paint30_linear_117_259)"/>
<path d="M340.741 545.841V514.276C340.741 513.713 341.14 513.025 341.624 512.744L344.005 511.368C344.497 511.086 344.887 511.313 344.887 511.876V543.441C344.887 544.004 344.489 544.692 344.005 544.974L341.624 546.35C341.132 546.631 340.741 546.404 340.741 545.841Z" fill="url(#paint31_linear_117_259)"/>
<path d="M349.049 541.041V525.895C349.049 525.332 349.447 524.644 349.931 524.363L352.312 522.987C352.804 522.705 353.194 522.932 353.194 523.495V538.64C353.194 539.203 352.796 539.891 352.312 540.173L349.931 541.549C349.439 541.83 349.049 541.604 349.049 541.041Z" fill="url(#paint32_linear_117_259)"/>
<path d="M357.348 536.248V516.599C357.348 516.036 357.746 515.348 358.23 515.066L360.611 513.69C361.103 513.408 361.493 513.635 361.493 514.198V533.847C361.493 534.41 361.095 535.098 360.611 535.38L358.23 536.756C357.738 537.037 357.348 536.811 357.348 536.248Z" fill="url(#paint33_linear_117_259)"/>
<path d="M365.655 531.447V524.762C365.655 524.199 366.053 523.511 366.537 523.229L368.918 521.853C369.41 521.571 369.8 521.798 369.8 522.361V529.046C369.8 529.609 369.402 530.297 368.918 530.579L366.537 531.955C366.045 532.236 365.655 532.01 365.655 531.447Z" fill="url(#paint34_linear_117_259)"/>
<path d="M373.961 526.646V504.683C373.961 504.12 374.36 503.432 374.844 503.15L377.225 501.774C377.717 501.492 378.107 501.719 378.107 502.282V524.246C378.107 524.808 377.709 525.497 377.225 525.778L374.844 527.154C374.352 527.436 373.961 527.209 373.961 526.646Z" fill="url(#paint35_linear_117_259)"/>
<path d="M456.953 442.358C456.789 441.818 456.266 441.639 455.673 441.99L391.895 478.872C391.505 479.099 391.161 479.49 390.927 479.928L386.789 477.504C387.031 477.074 387.375 476.699 387.749 476.48L451.519 439.598C452.253 439.168 453.448 439.168 454.174 439.598L455.681 440.458C456.297 440.818 456.813 441.615 456.961 442.366L456.953 442.358Z" fill="#EBEBEB"/>
<path d="M457 442.757V482.907C456.992 483.759 456.399 484.783 455.673 485.213L394.714 520.461L391.895 522.095C391.833 522.134 391.762 522.166 391.692 522.197C391.684 522.197 391.669 522.205 391.661 522.205C391.028 522.431 390.568 522.072 390.568 521.321V481.171C390.568 480.772 390.701 480.319 390.927 479.92C391.161 479.482 391.513 479.091 391.895 478.864L455.673 441.983C456.266 441.631 456.789 441.811 456.953 442.35C456.961 442.381 456.961 442.413 456.977 442.452C457 442.553 457.008 442.647 457.008 442.749L457 442.757Z" fill="#FAFAFA"/>
<path d="M391.661 522.212C391.606 522.236 391.559 522.252 391.497 522.275C391.427 522.306 391.341 522.33 391.27 522.338C391.161 522.369 391.044 522.392 390.927 522.4C390.818 522.408 390.693 522.424 390.576 522.424C390.334 522.424 390.092 522.392 389.857 522.345C389.631 522.291 389.42 522.212 389.233 522.111L387.742 521.243C387.008 520.821 386.414 519.789 386.414 518.936V478.794C386.414 478.372 386.555 477.926 386.781 477.512L390.919 479.936C390.693 480.334 390.56 480.788 390.56 481.187V521.337C390.56 522.087 391.021 522.439 391.653 522.22L391.661 522.212Z" fill="#E0E0E0"/>
<path d="M414.169 475.424L410.867 487.762C410.64 488.583 410 489.827 409.454 490.483L398.789 503.314C397.43 502.384 396.548 500.937 396.212 499.115C395.463 494.987 397.571 489.35 401.693 484.385C402.396 483.548 403.114 482.758 403.848 482.008C406.994 478.857 410.515 476.613 414.161 475.424H414.169Z" fill="url(#paint36_linear_117_259)"/>
<path d="M423.054 490.945C418.323 498.92 409.329 504.94 402.575 504.518C401.529 504.456 400.694 504.276 399.897 503.924L410.406 491.281C410.859 490.741 411.835 490.296 412.576 490.296H412.686L423.054 490.937V490.945Z" fill="url(#paint37_linear_117_259)"/>
<path d="M422.14 475.221L412.35 487.004L415.559 475.017C418.213 474.361 420.345 474.415 422.14 475.221Z" fill="url(#paint38_linear_117_259)"/>
<path d="M423.718 489.733L412.772 489.06C412.538 489.037 412.42 488.982 412.413 488.982C412.413 488.959 412.436 488.888 412.506 488.779C412.538 488.724 412.569 488.685 412.6 488.654L423.265 475.823C426.778 478.215 426.965 483.579 423.725 489.733H423.718Z" fill="url(#paint39_linear_117_259)"/>
<path d="M430.26 466.823C430.26 467.558 430.853 467.816 431.587 467.394L451.519 455.869C452.253 455.447 452.846 454.501 452.846 453.766C452.846 453.031 452.253 452.773 451.519 453.195L431.587 464.72C430.853 465.142 430.26 466.088 430.26 466.823Z" fill="url(#paint40_linear_117_259)"/>
<path d="M430.26 474.846C430.26 475.58 430.853 475.839 431.587 475.416L451.519 463.891C452.253 463.469 452.846 462.523 452.846 461.788C452.846 461.053 452.253 460.795 451.519 461.217L431.587 472.742C430.853 473.164 430.26 474.111 430.26 474.846Z" fill="#E0E0E0"/>
<path d="M430.26 479.803C430.26 480.538 430.853 480.796 431.587 480.373L451.519 468.848C452.253 468.426 452.846 467.48 452.846 466.745C452.846 466.01 452.253 465.752 451.519 466.174L431.587 477.699C430.853 478.122 430.26 479.068 430.26 479.803Z" fill="#E0E0E0"/>
<path d="M430.26 484.752C430.26 485.487 430.853 485.745 431.587 485.323L451.519 473.798C452.253 473.376 452.846 472.43 452.846 471.695C452.846 470.96 452.253 470.702 451.519 471.124L431.587 482.649C430.853 483.071 430.26 484.017 430.26 484.752Z" fill="#E0E0E0"/>
<path d="M430.26 489.701C430.26 490.436 430.853 490.694 431.587 490.272L451.519 478.747C452.253 478.325 452.846 477.379 452.846 476.644C452.846 475.909 452.253 475.651 451.519 476.073L431.587 487.598C430.853 488.02 430.26 488.966 430.26 489.701Z" fill="#E0E0E0"/>
<path d="M311.621 480.78C311.457 480.225 310.949 480.053 310.34 480.413L275.629 500.476C275.262 500.687 274.934 501.062 274.692 501.469L270.539 499.076C270.781 498.654 271.109 498.294 271.475 498.083L306.187 478.004C306.921 477.582 308.107 477.582 308.841 478.004L310.332 478.872C310.957 479.232 311.48 480.029 311.613 480.78H311.621Z" fill="#EBEBEB"/>
<path d="M311.675 481.179V492.508C311.675 493.361 311.082 494.385 310.348 494.815L275.637 514.878C275.567 514.917 275.481 514.957 275.395 515.003C275.371 515.003 275.356 515.011 275.332 515.027C274.739 515.199 274.31 514.839 274.31 514.112V502.782C274.31 502.352 274.45 501.891 274.7 501.469C274.942 501.062 275.27 500.687 275.637 500.476L310.348 480.413C310.949 480.053 311.464 480.225 311.628 480.78C311.636 480.811 311.652 480.843 311.652 480.882C311.675 480.983 311.683 481.085 311.683 481.179H311.675Z" fill="#FAFAFA"/>
<path d="M275.324 515.027C275.168 515.089 274.997 515.129 274.825 515.16C274.317 515.254 273.74 515.215 273.271 515.027C273.17 514.988 273.068 514.933 272.974 514.886L271.483 514.026C270.749 513.604 270.156 512.572 270.156 511.719V500.39C270.156 499.96 270.312 499.499 270.546 499.076L274.7 501.469C274.458 501.891 274.309 502.352 274.309 502.782V514.112C274.309 514.839 274.739 515.199 275.332 515.027H275.324Z" fill="#E0E0E0"/>
<path d="M311.621 502.392C311.457 501.836 310.949 501.664 310.34 502.024L275.629 522.087C275.262 522.299 274.934 522.674 274.692 523.08L270.539 520.688C270.781 520.266 271.109 519.906 271.475 519.695L306.187 499.616C306.921 499.194 308.107 499.194 308.841 499.616L310.332 500.484C310.957 500.843 311.48 501.641 311.613 502.392H311.621Z" fill="#EBEBEB"/>
<path d="M311.675 502.79V514.12C311.675 514.972 311.082 515.997 310.348 516.427L275.637 536.49C275.567 536.529 275.481 536.568 275.395 536.615C275.371 536.615 275.356 536.623 275.332 536.638C274.739 536.811 274.31 536.451 274.31 535.724V524.394C274.31 523.964 274.45 523.503 274.7 523.08C274.942 522.674 275.27 522.299 275.637 522.087L310.348 502.024C310.949 501.664 311.464 501.836 311.628 502.392C311.636 502.423 311.652 502.454 311.652 502.493C311.675 502.595 311.683 502.697 311.683 502.79H311.675Z" fill="#FAFAFA"/>
<path d="M275.324 536.638C275.168 536.701 274.997 536.74 274.825 536.771C274.317 536.865 273.74 536.826 273.271 536.638C273.17 536.599 273.068 536.545 272.974 536.498L271.483 535.638C270.749 535.215 270.156 534.183 270.156 533.331V522.001C270.156 521.571 270.312 521.11 270.546 520.688L274.7 523.08C274.458 523.503 274.309 523.964 274.309 524.394V535.724C274.309 536.451 274.739 536.81 275.332 536.638H275.324Z" fill="#E0E0E0"/>
<path d="M311.621 523.995C311.457 523.44 310.949 523.268 310.34 523.628L275.629 543.691C275.262 543.902 274.934 544.278 274.692 544.684L270.539 542.292C270.781 541.869 271.109 541.51 271.475 541.298L306.187 521.219C306.921 520.797 308.107 520.797 308.841 521.219L310.332 522.087C310.957 522.447 311.48 523.245 311.613 523.995H311.621Z" fill="#EBEBEB"/>
<path d="M311.675 524.402V535.731C311.675 536.584 311.082 537.608 310.348 538.038L275.637 558.101C275.567 558.14 275.481 558.18 275.395 558.226C275.371 558.226 275.356 558.234 275.332 558.25C274.739 558.422 274.31 558.062 274.31 557.335V546.006C274.31 545.575 274.45 545.114 274.7 544.692C274.942 544.285 275.27 543.91 275.637 543.699L310.348 523.636C310.949 523.276 311.464 523.448 311.628 524.003C311.636 524.034 311.652 524.066 311.652 524.105C311.675 524.206 311.683 524.308 311.683 524.402H311.675Z" fill="#FAFAFA"/>
<path d="M275.324 558.242C275.168 558.305 274.997 558.344 274.825 558.375C274.317 558.469 273.74 558.43 273.271 558.242C273.17 558.203 273.068 558.148 272.974 558.101L271.483 557.241C270.749 556.819 270.156 555.787 270.156 554.935V543.605C270.156 543.175 270.312 542.714 270.546 542.292L274.7 544.684C274.458 545.106 274.309 545.568 274.309 545.998V557.327C274.309 558.054 274.739 558.414 275.332 558.242H275.324Z" fill="#E0E0E0"/>
<path d="M311.621 545.607C311.457 545.052 310.949 544.88 310.34 545.239L275.629 565.303C275.262 565.514 274.934 565.889 274.692 566.296L270.539 563.903C270.781 563.481 271.109 563.121 271.475 562.91L306.187 542.831C306.921 542.409 308.107 542.409 308.841 542.831L310.332 543.699C310.957 544.059 311.48 544.856 311.613 545.607H311.621Z" fill="#EBEBEB"/>
<path d="M311.675 546.006V557.335C311.675 558.187 311.082 559.212 310.348 559.642L275.637 579.705C275.567 579.744 275.481 579.783 275.395 579.83C275.371 579.83 275.356 579.838 275.332 579.854C274.739 580.026 274.31 579.666 274.31 578.939V567.609C274.31 567.179 274.45 566.718 274.7 566.296C274.942 565.889 275.27 565.514 275.637 565.303L310.348 545.239C310.949 544.88 311.464 545.052 311.628 545.607C311.636 545.638 311.652 545.669 311.652 545.708C311.675 545.81 311.683 545.912 311.683 546.006H311.675Z" fill="#FAFAFA"/>
<path d="M275.324 579.854C275.168 579.916 274.997 579.955 274.825 579.987C274.317 580.08 273.74 580.041 273.271 579.854C273.17 579.815 273.068 579.76 272.974 579.713L271.483 578.853C270.749 578.431 270.156 577.399 270.156 576.546V565.217C270.156 564.787 270.312 564.325 270.546 563.903L274.7 566.296C274.458 566.718 274.309 567.179 274.309 567.609V578.939C274.309 579.666 274.739 580.026 275.332 579.854H275.324Z" fill="#E0E0E0"/>
<path d="M315.274 462.843C315.313 462.843 315.36 462.859 315.407 462.883L311.675 460.74V459.583C311.675 459.489 311.667 459.387 311.644 459.286C311.644 459.247 311.636 459.215 311.621 459.184C311.488 458.434 310.965 457.636 310.34 457.276L308.849 456.408C308.115 455.986 306.928 455.986 306.194 456.408L271.483 476.487C271.116 476.699 270.788 477.058 270.546 477.48C270.312 477.903 270.156 478.364 270.156 478.794V490.124C270.156 490.976 270.749 492.008 271.483 492.43L272.974 493.29C273.068 493.345 273.17 493.392 273.271 493.431C273.74 493.619 274.317 493.658 274.825 493.564C274.997 493.533 275.168 493.494 275.324 493.431C275.348 493.423 275.363 493.408 275.387 493.408C275.481 493.369 275.559 493.329 275.629 493.282L310.34 473.219C311.074 472.789 311.667 471.765 311.667 470.913V467.644L315.454 463.266C315.594 463.101 315.477 462.851 315.267 462.843H315.274Z" fill="url(#paint41_linear_117_259)"/>
<path opacity="0.1" d="M275.324 493.423C275.168 493.486 274.997 493.525 274.825 493.556C274.317 493.65 273.74 493.611 273.271 493.423C273.17 493.384 273.068 493.329 272.974 493.283L271.483 492.422C270.749 492 270.156 490.968 270.156 490.116V478.786C270.156 478.356 270.312 477.895 270.546 477.473L274.7 479.865C274.458 480.287 274.309 480.749 274.309 481.179V492.508C274.309 493.236 274.739 493.595 275.332 493.423H275.324Z" fill="black"/>
<path opacity="0.4" d="M311.621 459.176C311.457 458.621 310.949 458.449 310.34 458.809L275.629 478.872C275.262 479.083 274.934 479.459 274.692 479.865L270.539 477.473C270.781 477.05 271.109 476.691 271.475 476.48L306.187 456.401C306.921 455.978 308.107 455.978 308.841 456.401L310.332 457.269C310.957 457.628 311.48 458.426 311.613 459.176H311.621Z" fill="white"/>
<path opacity="0.4" d="M315.266 462.836H311.675V460.732L315.407 462.875C315.36 462.851 315.313 462.836 315.266 462.836Z" fill="white"/>
<path d="M268.712 604.718C268.712 603.701 268.04 602.685 266.697 601.911C264.019 600.363 259.671 600.363 256.985 601.911C255.642 602.685 254.971 603.701 254.971 604.718L252.246 676.245C252.152 677.731 253.074 679.24 255.041 680.374C258.788 682.539 264.863 682.539 268.61 680.374C270.577 679.24 271.499 677.731 271.405 676.245H271.421L268.688 604.718H268.712Z" fill="url(#paint42_linear_117_259)"/>
<path opacity="0.15" d="M256.993 601.911C254.315 603.459 254.315 605.977 256.993 607.525C259.671 609.073 264.02 609.073 266.705 607.525C269.383 605.977 269.383 603.459 266.705 601.911C264.027 600.363 259.679 600.363 256.993 601.911Z" fill="black"/>
<path d="M264.785 581.902C263.161 580.964 260.537 580.964 258.913 581.902C258.102 582.371 257.696 582.989 257.696 583.599V604.71C257.696 605.328 258.102 605.938 258.913 606.407C260.537 607.345 263.161 607.345 264.785 606.407C265.597 605.938 266.003 605.32 266.003 604.71V583.599C266.003 582.981 265.597 582.371 264.785 581.902Z" fill="#263238"/>
<path d="M308.06 530.18C308.053 529.758 308.029 529.351 307.998 528.945C307.975 528.538 307.943 528.139 307.904 527.74C307.881 527.475 307.85 527.209 307.826 526.943C307.756 526.247 307.654 525.559 307.537 524.902C307.483 524.605 307.436 524.3 307.373 524.003C307.319 523.714 307.264 523.44 307.202 523.166C307.03 522.408 306.842 521.673 306.632 520.969C306.522 520.633 306.413 520.297 306.304 519.968C306.28 519.914 306.265 519.867 306.249 519.812C306.124 519.484 306.015 519.171 305.89 518.858C305.749 518.499 305.601 518.139 305.437 517.803C305.328 517.545 305.211 517.302 305.078 517.052C305.008 516.864 304.914 516.692 304.813 516.52C304.711 516.309 304.602 516.09 304.477 515.887C304.446 515.832 304.422 515.785 304.399 515.746C304.297 515.559 304.188 515.379 304.071 515.191C304.001 515.066 303.915 514.957 303.844 514.839C303.306 513.987 302.72 513.213 302.088 512.494C301.979 512.368 301.861 512.251 301.76 512.126C301.666 512.024 301.573 511.931 301.487 511.837C301.377 511.712 301.252 511.602 301.128 511.477C300.776 511.125 300.433 510.813 300.066 510.523C299.894 510.367 299.707 510.226 299.527 510.093C299.34 509.952 299.16 509.82 298.965 509.687C298.668 509.475 298.364 509.264 298.051 509.092C297.973 509.038 297.887 508.991 297.809 508.936L297.755 508.897H297.747L283.264 500.523H283.241L283.163 500.468C280.508 498.951 277.44 498.161 274.067 498.161C269.328 498.161 263.965 499.717 258.297 502.994C238.802 514.268 223 541.674 223 564.216C223 575.459 226.927 583.356 233.274 587.063L233.337 587.094L247.835 595.468C247.835 595.468 247.838 595.471 247.843 595.476L247.905 595.515C247.968 595.538 248.015 595.57 248.077 595.593C248.35 595.757 248.631 595.898 248.912 596.031C249.264 596.203 249.615 596.359 249.974 596.5C250.294 596.633 250.614 596.758 250.942 596.86C251.114 596.922 251.294 596.969 251.465 597.016C251.653 597.086 251.832 597.141 252.027 597.18C252.223 597.243 252.402 597.282 252.597 597.321C252.738 597.36 252.871 597.391 253.019 597.415C253.261 597.47 253.526 597.517 253.784 597.548C253.847 597.571 253.893 597.579 253.956 597.579C254.26 597.634 254.573 597.673 254.877 597.704C260.131 598.259 266.245 596.774 272.787 592.997C292.282 581.722 308.084 554.309 308.084 531.775C308.084 531.236 308.076 530.704 308.053 530.164L308.06 530.18ZM284.42 514.237C285.349 517.412 285.536 520.688 285.536 522.838C285.536 542.722 271.015 567.914 253.815 577.852C251.028 579.463 248.303 580.596 245.774 581.198C244.853 578.024 244.657 574.748 244.657 572.59C244.657 552.706 259.187 527.514 276.378 517.576C279.166 515.965 281.89 514.839 284.42 514.237Z" fill="url(#paint43_linear_117_259)"/>
<path opacity="0.1" d="M247.343 595.194L233.274 587.063C226.927 583.349 223 575.444 223 564.223C223 554.168 226.146 543.151 231.354 533.042L245.844 541.416C240.629 551.533 237.49 562.542 237.49 572.598C237.49 583.591 241.222 591.386 247.335 595.194H247.343Z" fill="black"/>
<path opacity="0.4" d="M308.06 530.18C308.052 529.758 308.029 529.351 307.998 528.945C307.974 528.538 307.943 528.139 307.904 527.74C307.881 527.475 307.85 527.209 307.826 526.943C307.756 526.247 307.654 525.559 307.537 524.902C307.483 524.605 307.436 524.3 307.373 524.003C307.319 523.714 307.264 523.44 307.201 523.166C307.03 522.408 306.842 521.673 306.632 520.969C306.522 520.633 306.413 520.297 306.304 519.968C306.28 519.914 306.265 519.867 306.249 519.812C306.124 519.484 306.015 519.171 305.89 518.858C305.749 518.498 305.601 518.139 305.437 517.803C305.328 517.545 305.211 517.302 305.078 517.052C305.008 516.864 304.914 516.692 304.812 516.52C304.711 516.309 304.602 516.09 304.477 515.887C304.446 515.832 304.422 515.785 304.399 515.746C304.297 515.559 304.188 515.379 304.071 515.191C304.001 515.066 303.915 514.957 303.844 514.839C303.306 513.987 302.72 513.213 302.088 512.494C301.978 512.368 301.861 512.251 301.76 512.126C301.666 512.024 301.572 511.931 301.487 511.837C301.377 511.712 301.252 511.602 301.127 511.477C300.776 511.125 300.433 510.812 300.066 510.523C299.894 510.367 299.707 510.226 299.527 510.093C299.34 509.952 299.16 509.819 298.965 509.687C298.668 509.475 298.364 509.264 298.051 509.092C291.642 505.191 282.687 505.652 272.795 511.375C253.3 522.65 237.498 550.056 237.498 572.598C237.498 584.013 241.542 591.989 248.077 595.609C248.35 595.773 248.631 595.914 248.912 596.047C249.264 596.219 249.615 596.375 249.974 596.516C250.294 596.649 250.614 596.774 250.942 596.875C251.114 596.938 251.294 596.985 251.465 597.032C251.653 597.102 251.832 597.157 252.027 597.196C252.223 597.258 252.402 597.298 252.597 597.337C252.738 597.376 252.871 597.407 253.019 597.43C253.261 597.485 253.526 597.532 253.784 597.563C253.847 597.587 253.893 597.595 253.956 597.595C254.26 597.649 254.573 597.688 254.877 597.72C260.131 598.275 266.244 596.789 272.787 593.013C292.282 581.738 308.084 554.325 308.084 531.791C308.084 531.251 308.076 530.719 308.052 530.18H308.06ZM269.219 586.805C264.847 589.33 260.631 590.667 257.032 590.667C250.279 590.667 247.171 586.054 245.766 581.206C244.845 578.032 244.65 574.756 244.65 572.598C244.65 552.714 259.179 527.522 276.371 517.584C279.158 515.973 281.882 514.847 284.412 514.245C285.864 513.893 287.246 513.721 288.55 513.721C299.722 513.721 300.917 526.356 300.917 531.791C300.917 551.674 286.403 576.867 269.211 586.805H269.219Z" fill="white"/>
<path opacity="0.1" d="M300.925 531.783C300.925 551.666 286.411 576.859 269.219 586.797C264.847 589.322 260.631 590.659 257.032 590.659C250.279 590.659 247.171 586.046 245.766 581.198C248.303 580.596 251.02 579.455 253.808 577.852C270.999 567.914 285.529 542.714 285.529 522.838C285.529 520.688 285.341 517.412 284.412 514.237C285.864 513.885 287.246 513.713 288.55 513.713C299.722 513.713 300.917 526.349 300.917 531.783H300.925Z" fill="black"/>
<path opacity="0.7" d="M294.749 528.319C294.749 548.203 280.235 573.395 263.044 583.333C258.672 585.859 254.456 587.196 250.856 587.196C250.099 587.196 249.381 587.133 248.717 587.024C247.304 585.366 246.375 583.317 245.766 581.206C244.845 578.032 244.65 574.756 244.65 572.598C244.65 552.714 259.179 527.522 276.371 517.584C279.158 515.973 281.883 514.847 284.412 514.245C285.864 513.893 287.246 513.721 288.55 513.721C289.315 513.721 290.026 513.784 290.697 513.893C294.226 518.061 294.741 524.746 294.741 528.319H294.749Z" fill="white"/>
<path opacity="0.1" d="M259.843 608.51L258.016 681.531C256.954 681.257 255.939 680.89 255.065 680.374C253.105 679.24 252.176 677.731 252.277 676.237H252.27L254.986 604.718C254.986 605.742 255.658 606.743 257.001 607.525C257.828 607.994 258.812 608.322 259.85 608.51H259.843Z" fill="black"/>
</g>
<defs>
<linearGradient id="paint0_linear_117_259" x1="184.015" y1="460.237" x2="295.727" y2="460.237" gradientUnits="userSpaceOnUse">
<stop stop-color="#FFE62A"/>
<stop offset="1" stop-color="#F4617E"/>
</linearGradient>
<linearGradient id="paint1_linear_117_259" x1="255.868" y1="448.117" x2="266.085" y2="448.117" gradientUnits="userSpaceOnUse">
<stop stop-color="#FFE62A"/>
<stop offset="1" stop-color="#F4617E"/>
</linearGradient>
<linearGradient id="paint2_linear_117_259" x1="264.981" y1="442.815" x2="275.198" y2="442.815" gradientUnits="userSpaceOnUse">
<stop stop-color="#FFE62A"/>
<stop offset="1" stop-color="#F4617E"/>
</linearGradient>
<linearGradient id="paint3_linear_117_259" x1="274.095" y1="437.514" x2="284.312" y2="437.514" gradientUnits="userSpaceOnUse">
<stop stop-color="#FFE62A"/>
<stop offset="1" stop-color="#F4617E"/>
</linearGradient>
<linearGradient id="paint4_linear_117_259" x1="233.843" y1="358.235" x2="456.702" y2="454.288" gradientUnits="userSpaceOnUse">
<stop stop-color="white"/>
<stop offset="0.23" stop-color="#CAD6E8"/>
<stop offset="0.6" stop-color="#7797C6"/>
<stop offset="0.87" stop-color="#436FB0"/>
<stop offset="1" stop-color="#3060A8"/>
</linearGradient>
<linearGradient id="paint5_linear_117_259" x1="246.873" y1="374.221" x2="348.13" y2="374.221" gradientUnits="userSpaceOnUse">
<stop stop-color="#FFE62A"/>
<stop offset="1" stop-color="#F42C53"/>
</linearGradient>
<linearGradient id="paint6_linear_117_259" x1="0" y1="516.035" x2="223.08" y2="516.035" gradientUnits="userSpaceOnUse">
<stop stop-color="#66D2FE"/>
<stop offset="0.34" stop-color="#51A7DD"/>
<stop offset="0.78" stop-color="#3973B7"/>
<stop offset="1" stop-color="#3060A8"/>
</linearGradient>
<linearGradient id="paint7_linear_117_259" x1="187.29" y1="418.03" x2="131.597" y2="536.649" gradientUnits="userSpaceOnUse">
<stop stop-color="white"/>
<stop offset="0.99" stop-color="#C2C4C6"/>
</linearGradient>
<linearGradient id="paint8_linear_117_259" x1="131.15" y1="426.96" x2="62.6305" y2="529.107" gradientUnits="userSpaceOnUse">
<stop stop-color="white"/>
<stop offset="0.99" stop-color="#C2C4C6"/>
</linearGradient>
<linearGradient id="paint9_linear_117_259" x1="145.888" y1="515.928" x2="146.836" y2="497.001" gradientUnits="userSpaceOnUse">
<stop stop-color="#1D7EFF"/>
<stop offset="1" stop-color="#1753FF"/>
</linearGradient>
<linearGradient id="paint10_linear_117_259" x1="618.403" y1="221.639" x2="622.721" y2="219.075" gradientUnits="userSpaceOnUse">
<stop stop-color="#FFAC06"/>
<stop offset="1" stop-color="#F25227"/>
</linearGradient>
<linearGradient id="paint11_linear_117_259" x1="247.359" y1="445.994" x2="248.533" y2="445.293" gradientUnits="userSpaceOnUse">
<stop stop-color="#FFAC06"/>
<stop offset="1" stop-color="#F25227"/>
</linearGradient>
<linearGradient id="paint12_linear_117_259" x1="622.628" y1="228.755" x2="250.99" y2="449.431" gradientUnits="userSpaceOnUse">
<stop stop-color="#FFAC06"/>
<stop offset="1" stop-color="#F25227"/>
</linearGradient>
<linearGradient id="paint13_linear_117_259" x1="171.567" y1="410.665" x2="115.898" y2="529.272" gradientUnits="userSpaceOnUse">
<stop stop-color="white"/>
<stop offset="0.99" stop-color="#C2C4C6"/>
</linearGradient>
<linearGradient id="paint14_linear_117_259" x1="112.258" y1="414.282" x2="43.727" y2="516.418" gradientUnits="userSpaceOnUse">
<stop stop-color="white"/>
<stop offset="0.99" stop-color="#C2C4C6"/>
</linearGradient>
<linearGradient id="paint15_linear_117_259" x1="145.888" y1="475.12" x2="146.836" y2="456.193" gradientUnits="userSpaceOnUse">
<stop stop-color="#1D7EFF"/>
<stop offset="1" stop-color="#1753FF"/>
</linearGradient>
<linearGradient id="paint16_linear_117_259" x1="227.423" y1="412.408" x2="228.598" y2="411.708" gradientUnits="userSpaceOnUse">
<stop stop-color="#FFAC06"/>
<stop offset="1" stop-color="#F25227"/>
</linearGradient>
<linearGradient id="paint17_linear_117_259" x1="229.63" y1="416.12" x2="230.805" y2="415.432" gradientUnits="userSpaceOnUse">
<stop stop-color="#FFAC06"/>
<stop offset="1" stop-color="#F25227"/>
</linearGradient>
<linearGradient id="paint18_linear_117_259" x1="604.709" y1="198.584" x2="233.083" y2="419.26" gradientUnits="userSpaceOnUse">
<stop stop-color="#FFAC06"/>
<stop offset="1" stop-color="#F25227"/>
</linearGradient>
<linearGradient id="paint19_linear_117_259" x1="45.8881" y1="384.823" x2="179.981" y2="384.823" gradientUnits="userSpaceOnUse">
<stop stop-color="white"/>
<stop offset="0.99" stop-color="#C2C4C6"/>
</linearGradient>
<linearGradient id="paint20_linear_117_259" x1="65.7054" y1="389.781" x2="158.004" y2="389.781" gradientUnits="userSpaceOnUse">
<stop stop-color="#1D7EFF"/>
<stop offset="1" stop-color="#1753FF"/>
</linearGradient>
<linearGradient id="paint21_linear_117_259" x1="155.856" y1="403.288" x2="100.174" y2="521.896" gradientUnits="userSpaceOnUse">
<stop stop-color="white"/>
<stop offset="0.99" stop-color="#C2C4C6"/>
</linearGradient>
<linearGradient id="paint22_linear_117_259" x1="93.3664" y1="401.604" x2="24.8354" y2="503.752" gradientUnits="userSpaceOnUse">
<stop stop-color="white"/>
<stop offset="0.99" stop-color="#C2C4C6"/>
</linearGradient>
<linearGradient id="paint23_linear_117_259" x1="145.888" y1="434.324" x2="146.836" y2="415.397" gradientUnits="userSpaceOnUse">
<stop stop-color="#1D7EFF"/>
<stop offset="1" stop-color="#1753FF"/>
</linearGradient>
<linearGradient id="paint24_linear_117_259" x1="209.635" y1="382.463" x2="210.81" y2="381.763" gradientUnits="userSpaceOnUse">
<stop stop-color="#FFAC06"/>
<stop offset="1" stop-color="#F25227"/>
</linearGradient>
<linearGradient id="paint25_linear_117_259" x1="211.783" y1="386.081" x2="212.957" y2="385.38" gradientUnits="userSpaceOnUse">
<stop stop-color="#FFAC06"/>
<stop offset="1" stop-color="#F25227"/>
</linearGradient>
<linearGradient id="paint26_linear_117_259" x1="586.791" y1="168.402" x2="215.152" y2="389.078" gradientUnits="userSpaceOnUse">
<stop stop-color="#FFAC06"/>
<stop offset="1" stop-color="#F25227"/>
</linearGradient>
<linearGradient id="paint27_linear_117_259" x1="316.016" y1="587.641" x2="395.775" y2="587.641" gradientUnits="userSpaceOnUse">
<stop stop-color="#FFF12F"/>
<stop offset="1" stop-color="#F46469"/>
</linearGradient>
<linearGradient id="paint28_linear_117_259" x1="242.675" y1="480.702" x2="450.434" y2="480.702" gradientUnits="userSpaceOnUse">
<stop stop-color="#FFF12F"/>
<stop offset="1" stop-color="#F46469"/>
</linearGradient>
<linearGradient id="paint29_linear_117_259" x1="331.927" y1="445.751" x2="453.362" y2="445.751" gradientUnits="userSpaceOnUse">
<stop stop-color="#69B9FE"/>
<stop offset="0.29" stop-color="#5796E1"/>
<stop offset="0.77" stop-color="#3D62B8"/>
<stop offset="1" stop-color="#334FA8"/>
</linearGradient>
<linearGradient id="paint30_linear_117_259" x1="332.435" y1="536.068" x2="336.588" y2="536.068" gradientUnits="userSpaceOnUse">
<stop stop-color="#69B9FE"/>
<stop offset="0.29" stop-color="#5796E1"/>
<stop offset="0.77" stop-color="#3D62B8"/>
<stop offset="1" stop-color="#334FA8"/>
</linearGradient>
<linearGradient id="paint31_linear_117_259" x1="340.741" y1="528.859" x2="344.895" y2="528.859" gradientUnits="userSpaceOnUse">
<stop stop-color="#69B9FE"/>
<stop offset="0.29" stop-color="#5796E1"/>
<stop offset="0.77" stop-color="#3D62B8"/>
<stop offset="1" stop-color="#334FA8"/>
</linearGradient>
<linearGradient id="paint32_linear_117_259" x1="349.049" y1="532.268" x2="353.194" y2="532.268" gradientUnits="userSpaceOnUse">
<stop stop-color="#69B9FE"/>
<stop offset="0.29" stop-color="#5796E1"/>
<stop offset="0.77" stop-color="#3D62B8"/>
<stop offset="1" stop-color="#334FA8"/>
</linearGradient>
<linearGradient id="paint33_linear_117_259" x1="357.348" y1="525.231" x2="361.501" y2="525.231" gradientUnits="userSpaceOnUse">
<stop stop-color="#69B9FE"/>
<stop offset="0.29" stop-color="#5796E1"/>
<stop offset="0.77" stop-color="#3D62B8"/>
<stop offset="1" stop-color="#334FA8"/>
</linearGradient>
<linearGradient id="paint34_linear_117_259" x1="365.655" y1="526.904" x2="369.808" y2="526.904" gradientUnits="userSpaceOnUse">
<stop stop-color="#69B9FE"/>
<stop offset="0.29" stop-color="#5796E1"/>
<stop offset="0.77" stop-color="#3D62B8"/>
<stop offset="1" stop-color="#334FA8"/>
</linearGradient>
<linearGradient id="paint35_linear_117_259" x1="373.961" y1="514.464" x2="378.115" y2="514.464" gradientUnits="userSpaceOnUse">
<stop stop-color="#69B9FE"/>
<stop offset="0.29" stop-color="#5796E1"/>
<stop offset="0.77" stop-color="#3D62B8"/>
<stop offset="1" stop-color="#334FA8"/>
</linearGradient>
<linearGradient id="paint36_linear_117_259" x1="396.072" y1="489.365" x2="414.169" y2="489.365" gradientUnits="userSpaceOnUse">
<stop stop-color="#69B9FE"/>
<stop offset="0.29" stop-color="#5796E1"/>
<stop offset="0.77" stop-color="#3D62B8"/>
<stop offset="1" stop-color="#334FA8"/>
</linearGradient>
<linearGradient id="paint37_linear_117_259" x1="399.897" y1="497.419" x2="423.054" y2="497.419" gradientUnits="userSpaceOnUse">
<stop stop-color="#69B9FE"/>
<stop offset="0.29" stop-color="#5796E1"/>
<stop offset="0.77" stop-color="#3D62B8"/>
<stop offset="1" stop-color="#334FA8"/>
</linearGradient>
<linearGradient id="paint38_linear_117_259" x1="412.35" y1="480.78" x2="422.14" y2="480.78" gradientUnits="userSpaceOnUse">
<stop stop-color="#69B9FE"/>
<stop offset="0.29" stop-color="#5796E1"/>
<stop offset="0.77" stop-color="#3D62B8"/>
<stop offset="1" stop-color="#334FA8"/>
</linearGradient>
<linearGradient id="paint39_linear_117_259" x1="412.413" y1="482.782" x2="426.029" y2="482.782" gradientUnits="userSpaceOnUse">
<stop stop-color="#69B9FE"/>
<stop offset="0.29" stop-color="#5796E1"/>
<stop offset="0.77" stop-color="#3D62B8"/>
<stop offset="1" stop-color="#334FA8"/>
</linearGradient>
<linearGradient id="paint40_linear_117_259" x1="430.26" y1="460.287" x2="452.846" y2="460.287" gradientUnits="userSpaceOnUse">
<stop stop-color="#1D7EFF"/>
<stop offset="1" stop-color="#1753FF"/>
</linearGradient>
<linearGradient id="paint41_linear_117_259" x1="270.148" y1="474.845" x2="315.524" y2="474.845" gradientUnits="userSpaceOnUse">
<stop stop-color="#1D7EFF"/>
<stop offset="1" stop-color="#1753FF"/>
</linearGradient>
<linearGradient id="paint42_linear_117_259" x1="252.262" y1="641.373" x2="271.444" y2="641.373" gradientUnits="userSpaceOnUse">
<stop stop-color="#FFF12F"/>
<stop offset="1" stop-color="#F46469"/>
</linearGradient>
<linearGradient id="paint43_linear_117_259" x1="223" y1="547.999" x2="308.092" y2="547.999" gradientUnits="userSpaceOnUse">
<stop stop-color="#FFF12F"/>
<stop offset="1" stop-color="#F46469"/>
</linearGradient>
<clipPath id="clip0_117_259">
<rect width="570" height="578" fill="white"/>
</clipPath>
<clipPath id="clip1_117_259">
<rect width="234" height="352" fill="white" transform="translate(223 330)"/>
</clipPath>
</defs>
</svg>
