<svg width="97" height="144" viewBox="0 0 97 144" fill="none" xmlns="http://www.w3.org/2000/svg">
<g clip-path="url(#clip0_102_6959)">
<path d="M62.8251 2.48014C56.1178 -1.38055 46.8582 -0.873592 36.7582 4.95255C16.6439 16.5424 0.108953 45.1116 1.64364e-05 68.4551C-0.0388894 77.206 2.89461 83.5157 6.24829 88.4605C21.2659 110.642 36.8672 131.115 36.8672 131.115L60.2496 144L86.581 15.6065L62.8251 2.48014Z" fill="url(#paint0_linear_102_6959)"/>
<path d="M60.1329 17.8372C40.0186 29.4271 23.4836 57.9963 23.3747 81.3398C23.3357 90.0907 26.2692 96.4004 29.6151 101.345C44.6328 123.527 60.234 144 60.234 144C60.234 144 84.7603 92.1575 89.8414 77.2607C94.2844 64.2358 96.9922 54.6347 96.9922 38.8254C96.9922 15.6924 80.2394 6.24735 60.1251 17.8372H60.1329Z" fill="url(#paint1_linear_102_6959)"/>
<path d="M62.117 30.4956C48.0565 38.6304 36.5326 58.5968 36.517 74.8585C36.4937 91.1202 47.9864 97.7887 62.0548 89.6695C76.1231 81.5504 87.6393 61.5918 87.6548 45.3066C87.6704 29.0215 76.1776 22.3609 62.117 30.4956Z" fill="url(#paint2_linear_102_6959)"/>
<mask id="mask0_102_6959" style="mask-type:luminance" maskUnits="userSpaceOnUse" x="36" y="27" width="52" height="67">
<path d="M62.117 30.4956C48.0565 38.6304 36.5326 58.5968 36.517 74.8585C36.4937 91.1202 47.9864 97.7887 62.0548 89.6695C76.1231 81.5504 87.6393 61.5918 87.6548 45.3066C87.6704 29.0215 76.1776 22.3609 62.117 30.4956Z" fill="white"/>
</mask>
<g mask="url(#mask0_102_6959)">
<path d="M41.886 23.4762C27.8254 31.611 16.3015 51.5774 16.2859 67.8391C16.2626 84.1008 27.7554 90.7693 41.8237 82.6501C55.8921 74.531 67.4082 54.5723 67.4237 38.2872C67.4393 22.0021 55.9465 15.3415 41.886 23.4762Z" fill="white"/>
</g>
</g>
<defs>
<linearGradient id="paint0_linear_102_6959" x1="4.97218" y1="60.414" x2="30.4064" y2="65.9579" gradientUnits="userSpaceOnUse">
<stop stop-color="#1E4A84"/>
<stop offset="1" stop-color="#213176"/>
</linearGradient>
<linearGradient id="paint1_linear_102_6959" x1="23.3824" y1="78.4462" x2="97" y2="78.4462" gradientUnits="userSpaceOnUse">
<stop stop-color="#72A9D3"/>
<stop offset="1" stop-color="#2684B9"/>
</linearGradient>
<linearGradient id="paint2_linear_102_6959" x1="36.517" y1="60.0787" x2="87.6548" y2="60.0787" gradientUnits="userSpaceOnUse">
<stop stop-color="#1E4A84"/>
<stop offset="1" stop-color="#213176"/>
</linearGradient>
<clipPath id="clip0_102_6959">
<rect width="97" height="144" fill="white"/>
</clipPath>
</defs>
</svg>
