<svg width="153" height="97" viewBox="0 0 153 97" fill="none" xmlns="http://www.w3.org/2000/svg">
<g clip-path="url(#clip0_104_6970)">
<path d="M9.23938 33.9353L44.4566 8.17364L98.111 5.28833L135.607 23.0124L143.065 57.6361L122.556 74.7419L65.5869 84.4283L11.1038 60.1092L9.23938 33.9353Z" fill="white"/>
<path d="M115.651 16.9883L115.626 25.8359C92.8801 14.8861 59.6786 14.8861 37.0505 25.8318L37.0754 16.9842C59.7035 6.03649 92.905 6.03649 115.651 16.9883Z" fill="#20557B"/>
<path d="M37.5416 22.0376C35.238 23.369 31.4946 23.3669 29.1744 22.0335C29.048 21.9614 28.9382 21.8892 28.8201 21.813C19.788 28.2307 15.2677 36.0541 15.245 43.8877L15.2201 52.7353C15.2429 44.8996 19.7631 37.0763 28.7953 30.6606C28.9134 30.7368 29.0252 30.809 29.1516 30.8811C31.4718 32.2125 35.2131 32.2166 37.5188 30.8852C38.6644 30.2237 39.2361 29.356 39.2403 28.4904L39.2651 19.6428C39.2631 20.5105 38.6892 21.3761 37.5457 22.0376H37.5416Z" fill="#20557B"/>
<path d="M123.933 21.8006C121.619 22.8414 118.266 22.7486 116.128 21.5203C114.959 20.8505 114.377 19.9726 114.381 19.0946L114.356 27.9422C114.354 28.8202 114.936 29.6981 116.103 30.3679C118.241 31.5962 121.595 31.689 123.909 30.6482C133.158 37.1628 137.776 45.1304 137.753 53.0877L137.778 44.2401C137.801 36.2828 133.183 28.3152 123.933 21.8006Z" fill="#20557B"/>
<path d="M113.747 78.0373L113.772 69.1897C113.77 70.012 114.278 70.8364 115.293 71.4876L115.268 80.3352C114.253 79.6819 113.745 78.8575 113.747 78.0373Z" fill="#20557B"/>
<path d="M39.5364 69.231L39.5116 78.0786C39.5095 78.8864 39.0123 79.6943 38.02 80.3373L38.0449 71.4897C39.0372 70.8467 39.5344 70.0388 39.5364 69.231Z" fill="#20557B"/>
<path d="M153 44.2895L152.975 53.1371C152.944 64.3465 145.538 75.5374 130.745 84.0903C100.974 101.303 52.5523 101.303 22.5846 84.0903C7.50125 75.4261 -0.0331588 64.0559 -1.31878e-05 52.7043L0.024846 43.8567C-0.00829958 55.2083 7.52611 66.5785 22.6094 75.2427C52.5772 92.4556 100.997 92.4556 130.77 75.2427C145.561 66.6898 152.967 55.4989 153 44.2895Z" fill="url(#paint0_linear_104_6970)"/>
<path d="M130.424 12.9097C160.391 30.1226 160.541 58.0297 130.77 75.2406C100.999 92.4535 52.5772 92.4535 22.6094 75.2406C-7.36456 58.0235 -7.522 30.1205 22.2489 12.9097C52.0199 -4.30327 100.45 -4.3074 130.422 12.9097H130.424ZM38.0449 71.4897C60.5445 82.0211 92.907 82.017 115.295 71.4897C113.211 70.1501 113.263 68.0891 115.483 66.8052C117.725 65.5089 121.336 65.4759 123.662 66.7083C142.404 53.7533 142.478 34.8607 123.935 21.8005C121.621 22.8413 118.268 22.7486 116.13 21.5202C113.971 20.2796 113.814 18.332 115.653 16.9862C92.907 6.03644 59.7055 6.03644 37.0775 16.9821C37.2308 17.0542 37.3778 17.1305 37.5166 17.2108C39.8368 18.5422 39.8493 20.7041 37.5436 22.0355C35.2399 23.3668 31.4966 23.3648 29.1764 22.0314C29.05 21.9592 28.9402 21.8871 28.8201 21.8108C10.4388 34.871 10.7412 53.7553 29.6218 66.7063C31.9337 65.4738 35.5383 65.5109 37.7942 66.8052C40.0295 68.0891 40.1123 70.146 38.0428 71.4856" fill="url(#paint1_linear_104_6970)"/>
<path d="M78.5592 28.1338C61.8911 28.1771 47.3795 34.2651 43.255 42.9457L40.8022 40.9507C39.8514 40.0975 37.7943 39.8193 36.2053 40.3283C34.6164 40.8394 34.0985 41.9441 35.0494 42.7994C35.0991 42.8447 35.155 42.8901 35.213 42.9313L42.5859 48.9369C43.0976 49.3223 43.8537 49.5943 44.7113 49.7015C45.5876 49.7942 46.495 49.7015 47.2449 49.4397L58.3052 45.4353C59.8754 44.9077 60.354 43.7969 59.372 42.954C58.3922 42.111 56.3247 41.8534 54.7544 42.381C54.6902 42.4016 54.6281 42.4243 54.568 42.449L49.5382 44.273C53.4825 35.6665 69.6596 30.409 85.671 32.5297C101.682 34.6505 111.464 43.3455 107.52 51.9499C104.237 59.1138 92.2877 64.1507 78.5613 64.1589C68.8227 64.1445 59.7118 61.5745 54.1599 57.2733C53.149 56.4387 51.0732 56.2037 49.5216 56.7478C47.97 57.2898 47.5328 58.4069 48.5417 59.2395C48.5811 59.2704 48.6204 59.3013 48.6619 59.3322C60.1406 68.2272 82.8619 70.4365 99.4119 64.2661C109.351 60.5605 115.224 54.4478 115.092 47.9455C115.16 37.0576 98.8194 28.1935 78.5613 28.1317L78.5592 28.1338Z" fill="url(#paint2_linear_104_6970)"/>
<path d="M78.2235 37.0514C76.3736 37.0514 74.8717 37.8572 74.8717 38.8527V47.9496C74.8862 48.4257 75.2363 48.8812 75.8536 49.2233L85.9071 54.6765C87.2184 55.371 89.3211 55.3752 90.6469 54.6889C91.9603 53.9882 91.9707 52.8485 90.6676 52.1416L81.5754 47.2097V38.8527C81.5754 37.8572 80.0756 37.0514 78.2235 37.0514Z" fill="url(#paint3_linear_104_6970)"/>
</g>
<defs>
<linearGradient id="paint0_linear_104_6970" x1="-1.31878e-05" y1="70.4283" x2="153" y2="70.4283" gradientUnits="userSpaceOnUse">
<stop stop-color="#1E4A84"/>
<stop offset="1" stop-color="#213176"/>
</linearGradient>
<linearGradient id="paint1_linear_104_6970" x1="0.0248349" y1="44.0751" x2="153" y2="44.0751" gradientUnits="userSpaceOnUse">
<stop stop-color="#72A9D3"/>
<stop offset="1" stop-color="#2684B9"/>
</linearGradient>
<linearGradient id="paint2_linear_104_6970" x1="34.5729" y1="47.9497" x2="115.092" y2="47.9497" gradientUnits="userSpaceOnUse">
<stop stop-color="#1E4A84"/>
<stop offset="1" stop-color="#213176"/>
</linearGradient>
<linearGradient id="paint3_linear_104_6970" x1="74.8717" y1="46.1257" x2="91.6392" y2="46.1257" gradientUnits="userSpaceOnUse">
<stop stop-color="#1E4A84"/>
<stop offset="1" stop-color="#213176"/>
</linearGradient>
<clipPath id="clip0_104_6970">
<rect width="153" height="97" fill="white"/>
</clipPath>
</defs>
</svg>
