<svg width="179" height="122" viewBox="0 0 179 122" fill="none" xmlns="http://www.w3.org/2000/svg">
<g clip-path="url(#clip0_101_6934)">
<path d="M85.7398 19.7738L0 50.9751C0 50.9751 0 69.4471 0 70.0568C0 70.6624 0.401253 71.268 1.20789 71.7335L87.4276 121.308C89.0367 122.235 91.651 122.235 93.2602 121.308L177.792 72.7057C178.599 72.2443 179 71.6346 179 71.029V51.9473L91.5724 19.7738C89.9633 18.8469 87.349 18.8469 85.7398 19.7738Z" fill="url(#paint0_linear_101_6934)"/>
<path d="M177.792 50.2666L91.5725 0.69627C89.9634 -0.230625 87.349 -0.230625 85.7399 0.69627L1.20796 49.2985C-0.401188 50.2254 -0.401188 51.7249 1.20796 52.6518L87.4276 102.226C89.0368 103.153 91.6511 103.153 93.2603 102.226L177.792 53.624C179.401 52.6971 179.401 51.1976 177.792 50.2707V50.2666Z" fill="url(#paint1_linear_101_6934)"/>
<path d="M31.2853 57.2203L91.8661 92.0551L98.1373 88.4505L37.5523 53.6157L31.2853 57.2203Z" fill="#091344"/>
<path d="M51.985 45.3189L112.57 80.1496L118.837 76.5491L58.252 41.7144L51.985 45.3189Z" fill="#091344"/>
<path d="M72.6846 33.4136L133.27 68.2484L139.537 64.6438L78.9557 29.8131L72.6846 33.4136Z" fill="#091344"/>
<path d="M93.3884 21.5122L153.969 56.347L160.236 52.7424L99.6554 17.9076L93.3884 21.5122Z" fill="#091344"/>
<path d="M119.238 21.3887C118.398 20.9067 117.037 20.9067 116.198 21.3887L98.8074 27.8605C98.8074 27.8605 98.8074 31.5845 98.8074 31.9017C98.8074 32.2189 99.0183 32.532 99.4361 32.7751L102.663 34.633C103.502 35.115 104.863 35.115 105.703 34.633L122.465 24.9974C122.907 24.742 123.118 24.4042 123.093 24.0664C123.069 23.7698 123.093 20.0045 123.093 20.0045L119.234 21.3928L119.238 21.3887Z" fill="url(#paint2_linear_101_6934)"/>
<path d="M122.469 19.2052L119.242 17.3473C118.403 16.8653 117.042 16.8653 116.202 17.3473L99.4403 26.9829C98.6006 27.4649 98.6006 28.2476 99.4403 28.7296L102.667 30.5875C103.507 31.0695 104.868 31.0695 105.707 30.5875L122.469 20.9519C123.309 20.4699 123.309 19.6872 122.469 19.2052Z" fill="white"/>
<path d="M125.315 48.6887C124.475 48.2067 123.114 48.2067 122.274 48.6887L104.884 55.1605C104.884 55.1605 104.884 58.8846 104.884 59.2018C104.884 59.519 105.095 59.8321 105.513 60.0751L108.739 61.933C109.579 62.415 110.94 62.415 111.78 61.933L128.541 52.2974C128.984 52.042 129.195 51.7042 129.17 51.3664C129.145 51.0698 129.17 47.3046 129.17 47.3046L125.311 48.6928L125.315 48.6887Z" fill="url(#paint3_linear_101_6934)"/>
<path d="M128.546 46.5054L125.319 44.6475C124.479 44.1655 123.119 44.1655 122.279 44.6475L105.517 54.2831C104.677 54.7651 104.677 55.5478 105.517 56.0298L108.744 57.8877C109.583 58.3697 110.944 58.3697 111.784 57.8877L128.546 48.2521C129.386 47.7701 129.386 46.9874 128.546 46.5054Z" fill="white"/>
<path d="M86.0335 50.0399C85.1938 49.5579 83.8328 49.5579 82.9931 50.0399L65.6027 56.5117C65.6027 56.5117 65.6027 60.2358 65.6027 60.553C65.6027 60.8702 65.8137 61.1833 66.2315 61.4263L69.4581 63.2842C70.2978 63.7662 71.6587 63.7662 72.4985 63.2842L89.2601 53.6486C89.7027 53.3932 89.9137 53.0554 89.8888 52.7176C89.864 52.421 89.8888 48.6558 89.8888 48.6558L86.0294 50.044L86.0335 50.0399Z" fill="url(#paint4_linear_101_6934)"/>
<path d="M89.2642 47.8566L86.0377 45.9987C85.1979 45.5167 83.837 45.5167 82.9972 45.9987L66.2356 55.6343C65.3959 56.1163 65.3959 56.899 66.2356 57.381L69.4622 59.2389C70.3019 59.7209 71.6629 59.7209 72.5026 59.2389L89.2642 49.6033C90.104 49.1213 90.104 48.3386 89.2642 47.8566Z" fill="white"/>
<path d="M52.5972 54.8186C51.7574 54.3367 50.3965 54.3367 49.5568 54.8186L32.1664 61.2904C32.1664 61.2904 32.1664 65.0145 32.1664 65.3317C32.1664 65.6489 32.3773 65.962 32.7951 66.205L36.0217 68.0629C36.8615 68.5449 38.2224 68.5449 39.0621 68.0629L55.8237 58.4274C56.2664 58.1719 56.4773 57.8341 56.4525 57.5005C56.4277 57.2039 56.4525 53.4386 56.4525 53.4386L52.593 54.8269L52.5972 54.8186Z" fill="url(#paint5_linear_101_6934)"/>
<path d="M55.8237 52.6353L52.5972 50.7774C51.7574 50.2954 50.3965 50.2954 49.5567 50.7774L32.7951 60.413C31.9554 60.895 31.9554 61.6777 32.7951 62.1597L36.0217 64.0176C36.8614 64.4995 38.2224 64.4995 39.0621 64.0176L55.8237 54.382C56.6635 53.9 56.6635 53.1173 55.8237 52.6353Z" fill="white"/>
<path d="M79.386 14.9498C78.5462 14.4678 77.1853 14.4678 76.3455 14.9498L71.0548 14.4637C71.0548 14.4637 71.0548 18.1878 71.0548 18.505C71.0548 18.8222 71.2658 19.1353 71.6836 19.3783L74.9101 21.2362C75.7499 21.7182 77.1108 21.7182 77.9506 21.2362L82.6125 18.5544C83.0552 18.299 83.2661 17.9612 83.2413 17.6234C83.2165 17.3268 83.2413 13.5615 83.2413 13.5615L79.3818 14.9498H79.386Z" fill="#BBBBBB"/>
<path d="M82.6166 12.7664L79.3901 10.9085C78.5503 10.4265 77.1894 10.4265 76.3496 10.9085L71.6877 13.5903C70.8479 14.0723 70.8479 14.855 71.6877 15.337L74.9142 17.1949C75.754 17.6769 77.1149 17.6769 77.9546 17.1949L82.6166 14.5131C83.4564 14.0311 83.4564 13.2484 82.6166 12.7664Z" fill="#E4E4E4"/>
<path d="M64.7837 23.3454C63.9439 22.8635 62.583 22.8635 61.7433 23.3454L56.4525 22.8593C56.4525 22.8593 56.4525 26.5834 56.4525 26.9006C56.4525 27.2178 56.6635 27.5309 57.0813 27.7739L60.312 29.6318C61.1517 30.1138 62.5127 30.1138 63.3524 29.6318L68.0144 26.95C68.457 26.6946 68.668 26.3568 68.6431 26.019C68.6183 25.7224 68.6431 21.9572 68.6431 21.9572L64.7837 23.3454Z" fill="#BBBBBB"/>
<path d="M68.0144 21.162L64.7878 19.3041C63.9481 18.8221 62.5871 18.8221 61.7474 19.3041L57.0854 21.9859C56.2457 22.4679 56.2457 23.2506 57.0854 23.7326L60.3161 25.5905C61.1559 26.0725 62.5168 26.0725 63.3566 25.5905L68.0185 22.9087C68.8583 22.4267 68.8583 21.644 68.0185 21.162H68.0144Z" fill="#E4E4E4"/>
<path d="M50.1855 31.7411C49.3458 31.2591 47.9848 31.2591 47.1451 31.7411L41.8544 31.255C41.8544 31.255 41.8544 34.979 41.8544 35.2962C41.8544 35.6134 42.0653 35.9265 42.4831 36.1696L45.7097 38.0275C46.5494 38.5095 47.9104 38.5095 48.7501 38.0275L53.4121 35.3457C53.8547 35.0902 54.0657 34.7524 54.0409 34.4146C54.016 34.118 54.0409 30.3528 54.0409 30.3528L50.1814 31.7411H50.1855Z" fill="#BBBBBB"/>
<path d="M53.4121 29.5577L50.1855 27.6997C49.3458 27.2178 47.9848 27.2178 47.1451 27.6997L42.4831 30.3816C41.6434 30.8635 41.6434 31.6463 42.4831 32.1282L45.7097 33.9862C46.5494 34.4681 47.9104 34.4681 48.7501 33.9862L53.4121 31.3043C54.2518 30.8224 54.2518 30.0396 53.4121 29.5577Z" fill="#E4E4E4"/>
<path d="M35.5832 40.1366C34.7435 39.6546 33.3826 39.6546 32.5428 40.1366L27.2521 39.6505C27.2521 39.6505 27.2521 43.3745 27.2521 43.6917C27.2521 44.0089 27.463 44.322 27.8808 44.5651L31.1074 46.423C31.9471 46.905 33.3081 46.905 34.1478 46.423L38.8098 43.7412C39.2524 43.4858 39.4634 43.148 39.4386 42.8102C39.4138 42.5135 39.4386 38.7483 39.4386 38.7483L35.5791 40.1366H35.5832Z" fill="#BBBBBB"/>
<path d="M38.8098 37.9533L35.5832 36.0954C34.7435 35.6134 33.3825 35.6134 32.5428 36.0954L27.8808 38.7772C27.0411 39.2592 27.0411 40.0419 27.8808 40.5239L31.1074 42.3818C31.9471 42.8638 33.3081 42.8638 34.1478 42.3818L38.8098 39.7C39.6495 39.218 39.6495 38.4353 38.8098 37.9533Z" fill="#E4E4E4"/>
</g>
<defs>
<linearGradient id="paint0_linear_101_6934" x1="0" y1="70.5388" x2="179" y2="70.5388" gradientUnits="userSpaceOnUse">
<stop stop-color="#1E4A84"/>
<stop offset="1" stop-color="#213176"/>
</linearGradient>
<linearGradient id="paint1_linear_101_6934" x1="6.44768e-05" y1="51.4613" x2="179" y2="51.4613" gradientUnits="userSpaceOnUse">
<stop stop-color="#72A9D3"/>
<stop offset="1" stop-color="#2684B9"/>
</linearGradient>
<linearGradient id="paint2_linear_101_6934" x1="98.8115" y1="27.4979" x2="123.098" y2="27.4979" gradientUnits="userSpaceOnUse">
<stop stop-color="#1E4A84"/>
<stop offset="1" stop-color="#213176"/>
</linearGradient>
<linearGradient id="paint3_linear_101_6934" x1="104.888" y1="54.798" x2="129.174" y2="54.798" gradientUnits="userSpaceOnUse">
<stop stop-color="#1E4A84"/>
<stop offset="1" stop-color="#213176"/>
</linearGradient>
<linearGradient id="paint4_linear_101_6934" x1="65.6069" y1="56.1451" x2="89.893" y2="56.1451" gradientUnits="userSpaceOnUse">
<stop stop-color="#1E4A84"/>
<stop offset="1" stop-color="#213176"/>
</linearGradient>
<linearGradient id="paint5_linear_101_6934" x1="32.1664" y1="60.9238" x2="56.4566" y2="60.9238" gradientUnits="userSpaceOnUse">
<stop stop-color="#1E4A84"/>
<stop offset="1" stop-color="#213176"/>
</linearGradient>
<clipPath id="clip0_101_6934">
<rect width="179" height="122" fill="white"/>
</clipPath>
</defs>
</svg>
