<svg width="153" height="119" viewBox="0 0 153 119" fill="none" xmlns="http://www.w3.org/2000/svg">
<g clip-path="url(#clip0_98_6882)">
<path d="M129.366 27.8835L128.752 57.7288L140.926 50.176L141.538 20.3337L129.366 27.8835Z" fill="url(#paint0_linear_98_6882)"/>
<path d="M15.3432 18.933L14.7286 48.7752L25.8803 56.592L26.4919 26.7467L15.3432 18.933Z" fill="url(#paint1_linear_98_6882)"/>
<path d="M98.6766 27.9525C99.0406 28.1145 99.3836 28.2945 99.7357 28.4684C99.9952 28.5944 100.255 28.7144 100.508 28.8434C101.323 29.2633 102.119 29.7012 102.88 30.1722C105.297 31.6689 107.245 33.3277 108.73 35.0854C111.21 38.0159 112.406 41.2224 112.34 44.4349L111.729 74.2771C111.833 69.1389 108.707 64.0068 102.269 60.0144C101.511 59.5435 100.711 59.1025 99.8968 58.6856C99.6432 58.5536 99.3807 58.4366 99.1241 58.3107C98.5901 58.0527 98.0471 57.8067 97.4952 57.5698C96.9463 57.3358 96.3824 57.1139 95.8126 56.9009C95.3412 56.7239 94.8699 56.5439 94.3866 56.379C94.0017 56.25 93.6109 56.127 93.2201 56.007C92.6115 55.8211 91.9999 55.6411 91.3764 55.4761C91.0572 55.3921 90.738 55.3081 90.4158 55.2302C89.6103 55.0352 88.7958 54.8552 87.9724 54.6932C87.8322 54.6662 87.6979 54.6333 87.5577 54.6093C86.5971 54.4323 85.6186 54.2823 84.6371 54.1533C84.3835 54.1203 84.1299 54.0933 83.8763 54.0633C83.0708 53.9674 82.2593 53.8894 81.4479 53.8294C81.2271 53.8144 81.0063 53.7904 80.7856 53.7784C79.7921 53.7154 78.7897 53.6734 77.7903 53.6614C77.5517 53.6584 77.316 53.6614 77.0773 53.6614C76.2897 53.6614 75.5021 53.6734 74.7145 53.7004C74.3744 53.7124 74.0313 53.7274 73.6912 53.7454C72.9842 53.7814 72.2771 53.8354 71.576 53.8984C71.2061 53.9314 70.8302 53.9584 70.4603 53.9974C69.8427 54.0633 69.2341 54.1533 68.6225 54.2373C68.1243 54.3063 67.6231 54.3693 67.1279 54.4503C66.7669 54.5103 66.4149 54.5883 66.0569 54.6543C65.1112 54.8312 64.1684 55.0232 63.2406 55.2482C62.7096 55.3741 62.1815 55.5091 61.6595 55.6531C61.2478 55.7641 60.8361 55.8781 60.4303 56.001C59.8187 56.184 59.2191 56.385 58.6224 56.5889C58.2465 56.7179 57.8647 56.8439 57.4947 56.9819C56.8533 57.2218 56.2298 57.4828 55.6093 57.7468C55.302 57.8757 54.9887 57.9987 54.6874 58.1337C53.7775 58.5476 52.8885 58.9856 52.0293 59.4565C51.1999 59.9154 50.4332 60.3983 49.6933 60.8903C49.5024 61.0162 49.3174 61.1452 49.1354 61.2712C48.7446 61.5441 48.3896 61.8291 48.0256 62.1111C47.4767 62.534 46.9546 62.9659 46.4683 63.4068C46.164 63.6828 45.8627 63.9558 45.5853 64.2347C45.3108 64.5107 45.0513 64.7896 44.8007 65.0686C44.4844 65.4225 44.1801 65.7795 43.8997 66.1394C43.7297 66.3584 43.5626 66.5773 43.4045 66.7963C43.0853 67.2492 42.7929 67.7082 42.5274 68.1701C42.4528 68.3021 42.3633 68.431 42.2917 68.563C41.9755 69.1539 41.707 69.7508 41.4832 70.3537C41.4295 70.4947 41.3907 70.6357 41.343 70.7767C41.1789 71.2656 41.0447 71.7575 40.9373 72.2494C40.9044 72.4024 40.8657 72.5554 40.8388 72.7114C40.7284 73.3383 40.6538 73.9682 40.6419 74.5981L41.2535 44.7558C41.2535 44.7018 41.2535 44.6508 41.2565 44.5969C41.2744 44.1169 41.3161 43.64 41.3907 43.1601C41.4056 43.0611 41.4355 42.9651 41.4504 42.8691C41.4772 42.7162 41.513 42.5632 41.5459 42.4072C41.5936 42.1822 41.6264 41.9573 41.6891 41.7323C41.7607 41.4654 41.8621 41.2014 41.9516 40.9374C41.9993 40.7935 42.0381 40.6525 42.0918 40.5115C42.1187 40.4425 42.1336 40.3705 42.1604 40.2985C42.3543 39.8096 42.5751 39.3207 42.8287 38.8378C42.8496 38.7988 42.8794 38.7568 42.9003 38.7178C42.9719 38.5858 43.0584 38.4568 43.133 38.3279C43.3239 37.9919 43.5059 37.656 43.7267 37.326C43.8102 37.2 43.9206 37.0771 44.0101 36.9511C44.1652 36.7291 44.3353 36.5101 44.5053 36.2942C44.6515 36.1052 44.7768 35.9102 44.9319 35.7243C45.0751 35.5533 45.2512 35.3913 45.4033 35.2234C45.6539 34.9414 45.9135 34.6654 46.1879 34.3895C46.3281 34.2455 46.4445 34.0985 46.5936 33.9576C46.7368 33.8196 46.9218 33.6966 47.071 33.5586C47.5602 33.1177 48.0793 32.6858 48.6283 32.2628C48.8192 32.1158 48.9684 31.9599 49.1653 31.8159C49.3473 31.6809 49.5501 31.5549 49.7411 31.423C49.923 31.294 50.111 31.168 50.3019 31.042C51.0418 30.5501 51.8085 30.0672 52.6379 29.6082C53.4971 29.1373 54.3861 28.6994 55.296 28.2855C55.5973 28.1475 55.9106 28.0275 56.2179 27.8985C56.8384 27.6346 57.4619 27.3706 58.1033 27.1336C58.4733 26.9957 58.8551 26.8727 59.231 26.7407C59.8277 26.5337 60.4273 26.3358 61.0389 26.1528C61.4447 26.0298 61.8564 25.9188 62.2681 25.8049C62.5962 25.7149 62.9154 25.6129 63.2466 25.5289C63.4435 25.4779 63.6523 25.4479 63.8522 25.3999C64.78 25.178 65.7168 24.983 66.6655 24.806C66.9221 24.758 67.1667 24.689 67.4233 24.647C67.5277 24.629 67.6351 24.62 67.7395 24.602C68.2347 24.5211 68.7329 24.4581 69.2311 24.3891C69.7055 24.3231 70.1769 24.2421 70.6542 24.1881C70.7914 24.1731 70.9287 24.1641 71.0659 24.1521C71.4388 24.1131 71.8117 24.0831 72.1876 24.0531C72.6321 24.0141 73.0767 23.9632 73.5242 23.9332C73.7837 23.9182 74.0403 23.9122 74.2998 23.9002C74.6399 23.8822 74.983 23.8672 75.3231 23.8552C75.6065 23.8462 75.887 23.8252 76.1704 23.8192C76.6775 23.8072 77.1817 23.8162 77.6859 23.8192C77.9216 23.8192 78.1573 23.8132 78.3929 23.8192C78.4854 23.8192 78.5779 23.8192 78.6704 23.8192C79.4729 23.8342 80.2754 23.8642 81.072 23.9122C81.1794 23.9182 81.2838 23.9302 81.3912 23.9362C81.612 23.9512 81.8297 23.9721 82.0505 23.9871C82.504 24.0201 82.9604 24.0501 83.4139 24.0951C83.7719 24.1311 84.1239 24.1791 84.4819 24.2211C84.7355 24.2511 84.9921 24.2781 85.2457 24.3111C85.4068 24.3321 85.5708 24.3471 85.729 24.3681C86.5106 24.4761 87.2833 24.602 88.053 24.743C88.0917 24.749 88.1276 24.761 88.1663 24.767C88.3036 24.794 88.4378 24.824 88.575 24.851C89.1926 24.971 89.8101 25.091 90.4187 25.2319C90.6216 25.2799 90.8215 25.3399 91.0244 25.3879C91.3466 25.4659 91.6628 25.5499 91.982 25.6339C92.2833 25.7149 92.5906 25.7839 92.8889 25.8678C93.2082 25.9578 93.5125 26.0688 93.8257 26.1648C94.2165 26.2848 94.6073 26.4048 94.9892 26.5367C95.1801 26.5997 95.377 26.6537 95.565 26.7197C95.8574 26.8217 96.1259 26.9507 96.4152 27.0587C96.9851 27.2746 97.5459 27.4936 98.0978 27.7275C98.2828 27.8055 98.4827 27.8715 98.6677 27.9555L98.6766 27.9525Z" fill="url(#paint2_linear_98_6882)"/>
<path d="M151.953 51.0068C152.039 50.6979 152.114 50.3889 152.189 50.08C152.344 49.4531 152.475 48.8232 152.585 48.1933C152.639 47.8783 152.696 47.5604 152.737 47.2424C152.833 46.5405 152.893 45.8416 152.931 45.1398C152.949 44.8428 152.985 44.5459 152.991 44.2489L152.379 74.0911C152.379 74.2051 152.377 74.3221 152.371 74.4361C152.365 74.6191 152.329 74.799 152.32 74.982C152.281 75.6839 152.221 76.3858 152.126 77.0847C152.108 77.2196 152.111 77.3516 152.09 77.4836C152.063 77.6696 152.007 77.8525 151.974 78.0355C151.866 78.6654 151.732 79.2923 151.58 79.9192C151.532 80.1112 151.511 80.3061 151.458 80.5011C151.425 80.6181 151.374 80.7351 151.341 80.8521C151.132 81.5929 150.885 82.3308 150.61 83.0687C150.554 83.2217 150.521 83.3716 150.461 83.5246C150.431 83.5966 150.405 83.6686 150.375 83.7406L150.986 53.8984C151.076 53.6794 151.138 53.4544 151.219 53.2355C151.493 52.4976 151.744 51.7537 151.953 51.0098V51.0068Z" fill="url(#paint3_linear_98_6882)"/>
<path d="M133.426 54.3003L132.815 84.1456L150.375 83.7406L150.986 53.8954L133.426 54.3003Z" fill="url(#paint4_linear_98_6882)"/>
<path d="M0.617595 44.9418L0.0060128 74.787C-0.0447038 77.2706 0.253629 79.7572 0.906978 82.2138L1.51856 52.3716C0.865211 49.915 0.566878 47.4284 0.617595 44.9448V44.9418Z" fill="url(#paint5_linear_98_6882)"/>
<mask id="mask0_98_6882" style="mask-type:luminance" maskUnits="userSpaceOnUse" x="0" y="44" width="2" height="39">
<path d="M0.617595 44.9418L0.0060128 74.787C-0.0447038 77.2706 0.253629 79.7572 0.906978 82.2138L1.51856 52.3716C0.865211 49.915 0.566878 47.4284 0.617595 44.9448V44.9418Z" fill="white"/>
</mask>
<g mask="url(#mask0_98_6882)">
<path d="M0.617595 44.9418L0.0060128 74.787C-0.0447038 77.2706 0.253629 79.7572 0.906978 82.2138L1.51856 52.3716C0.865211 49.915 0.566878 47.4284 0.617595 44.9448" fill="url(#paint6_linear_98_6882)"/>
</g>
<path d="M1.51856 52.3687L0.906982 82.2109L18.446 83.1317L19.0576 53.2895L1.51856 52.3687Z" fill="url(#paint7_linear_98_6882)"/>
<path d="M130.306 58.9556C130.795 58.3526 131.252 57.7407 131.678 57.1258C131.815 56.9279 131.965 56.7359 132.093 56.5379C132.579 55.8001 133.03 55.0562 133.423 54.3003L132.812 84.1425C132.415 84.8954 131.968 85.6423 131.481 86.3802C131.445 86.4342 131.422 86.4882 131.386 86.5421C131.29 86.6861 131.165 86.8241 131.067 86.9681C130.637 87.586 130.183 88.1949 129.691 88.8008C129.59 88.9238 129.512 89.0527 129.411 89.1757C129.321 89.2837 129.205 89.3887 129.112 89.4967C128.37 90.3635 127.585 91.2244 126.714 92.0613L127.325 62.219C128.197 61.3822 128.978 60.5243 129.721 59.6574C129.921 59.4265 130.115 59.1925 130.303 58.9585L130.306 58.9556Z" fill="url(#paint8_linear_98_6882)"/>
<mask id="mask1_98_6882" style="mask-type:luminance" maskUnits="userSpaceOnUse" x="18" y="53" width="7" height="38">
<path d="M19.0575 53.2896L18.4459 83.1318C19.5557 85.8074 21.2055 88.4199 23.4072 90.9125L24.0188 61.0703C21.8171 58.5807 20.1673 55.9681 19.0575 53.2896Z" fill="white"/>
</mask>
<g mask="url(#mask1_98_6882)">
<path d="M19.0575 53.2896L18.4459 83.1318C19.5557 85.8074 21.2055 88.4199 23.4072 90.9125L24.0188 61.0703C21.8171 58.5807 20.1673 55.9681 19.0575 53.2896Z" fill="url(#paint9_linear_98_6882)"/>
</g>
<path d="M98.2649 76.6798C100.177 76.2238 102.078 75.7379 103.924 75.156L103.313 104.998C101.776 105.481 100.213 105.919 98.6288 106.315C98.3096 106.396 97.9725 106.444 97.6503 106.519C96.5256 106.786 95.38 107.008 94.2374 107.236C93.4378 107.395 92.6622 107.596 91.8537 107.734C91.2063 107.845 90.5559 107.947 89.9056 108.046L90.5172 78.2005C91.982 77.9816 93.408 77.6726 94.849 77.3907C95.9946 77.1627 97.1402 76.9437 98.2649 76.6738V76.6798Z" fill="url(#paint10_linear_98_6882)"/>
<path d="M50.818 76.0859C51.6564 76.3138 52.5006 76.5328 53.3539 76.7368C53.7924 76.8417 54.228 76.9497 54.6695 77.0487C55.4124 77.2137 56.1642 77.3667 56.919 77.5136C57.5007 77.6276 58.0765 77.7506 58.6612 77.8526L58.0496 107.695C57.799 107.65 57.5514 107.608 57.3038 107.563C56.9667 107.503 56.6385 107.422 56.3044 107.356C55.5526 107.209 54.8008 107.059 54.0579 106.894C53.8789 106.855 53.694 106.822 53.515 106.783C53.2524 106.723 52.9989 106.645 52.7393 106.582C51.8861 106.378 51.0448 106.159 50.2094 105.931C49.9618 105.862 49.7053 105.808 49.4606 105.739C49.3025 105.694 49.1504 105.637 48.9952 105.592C47.6706 105.205 46.358 104.8 45.0781 104.353L45.6897 74.5111C46.9696 74.958 48.2822 75.366 49.6068 75.7499C50.0096 75.8669 50.4153 75.9779 50.821 76.0889L50.818 76.0859Z" fill="url(#paint11_linear_98_6882)"/>
<path d="M132.916 74.0822C134.059 73.3443 135.16 72.6035 136.186 71.8476C136.95 71.2867 137.681 70.7198 138.388 70.1469L137.776 99.9891C137.075 100.559 136.347 101.12 135.589 101.678C135.583 101.681 135.58 101.684 135.574 101.687C134.548 102.443 133.444 103.184 132.302 103.924C132.018 104.107 131.726 104.29 131.434 104.476C130.252 105.214 129.032 105.949 127.713 106.681C125.899 107.677 124.026 108.613 122.105 109.483C120.18 110.355 118.205 111.165 116.183 111.921L116.794 82.0789C120.84 80.5702 124.697 78.8335 128.325 76.8388C129.644 76.1099 130.864 75.375 132.045 74.6341C132.337 74.4512 132.627 74.2682 132.913 74.0822H132.916Z" fill="url(#paint12_linear_98_6882)"/>
<path d="M103.924 75.156L103.313 105.001L116.183 111.921L116.797 82.0759L103.924 75.156Z" fill="url(#paint13_linear_98_6882)"/>
<path d="M20.8923 75.5189C22.1513 76.3018 23.4609 77.0367 24.7915 77.7506C25.054 77.8915 25.3106 78.0325 25.5761 78.1705C26.8769 78.8454 28.2044 79.4933 29.5648 80.1052C30.3375 80.4531 31.1132 80.8011 31.9067 81.128C31.9157 81.131 31.9217 81.134 31.9306 81.14L31.319 110.982C30.612 110.688 29.9139 110.388 29.2218 110.079C29.1293 110.037 29.0428 109.989 28.9533 109.947C27.5929 109.333 26.2623 108.688 24.9645 108.013C24.699 107.875 24.4425 107.734 24.1799 107.593C22.8464 106.879 21.5397 106.144 20.2807 105.361C18.5743 104.299 16.9692 103.201 15.4805 102.071C13.9889 100.94 12.6106 99.776 11.3486 98.5852L11.9602 68.74C14.4871 71.1216 17.4764 73.3952 20.8923 75.5159V75.5189Z" fill="url(#paint14_linear_98_6882)"/>
<path d="M31.9306 81.137L31.319 110.979L45.0751 104.35L45.6867 74.5081L31.9306 81.137Z" fill="url(#paint15_linear_98_6882)"/>
<path d="M88.6138 88.5009L87.9993 118.343L89.9056 108.052L90.5202 78.2065L88.6138 88.5009Z" fill="url(#paint16_linear_98_6882)"/>
<path d="M65.5199 88.7828C65.9972 88.8188 66.4716 88.8638 66.9459 88.8938C69.1029 89.0318 71.2688 89.1187 73.4406 89.1487C73.9478 89.1577 74.4579 89.1457 74.9651 89.1487C76.6745 89.1547 78.387 89.1247 80.0994 89.0618C80.8214 89.0348 81.5404 89.0048 82.2593 88.9688C84.3835 88.8578 86.5046 88.7168 88.6108 88.5008L87.9993 118.343C86.4181 118.505 84.831 118.637 83.2408 118.742C82.7128 118.775 82.1818 118.784 81.6507 118.811C80.9288 118.85 80.2068 118.88 79.4848 118.904C78.8494 118.928 78.2169 118.973 77.5815 118.988C76.5075 119.012 75.4335 118.994 74.3565 118.991C73.8463 118.991 73.3362 119 72.829 118.991C72.6232 118.991 72.4143 118.997 72.2055 118.991C70.4752 118.958 68.7419 118.892 67.0205 118.79C66.7908 118.775 66.564 118.751 66.3343 118.736C65.857 118.706 65.3826 118.658 64.9053 118.625C63.9148 118.55 62.9214 118.49 61.9399 118.391C60.8301 118.283 59.7203 118.157 58.6194 118.019L58.0496 107.695L58.6612 77.8525L59.231 88.1769C61.3074 88.4379 63.4107 88.6238 65.5169 88.7828H65.5199Z" fill="url(#paint17_linear_98_6882)"/>
<path d="M132.704 13.6688C136.079 15.7654 138.999 17.9941 141.541 20.3337L129.366 27.8865C131.753 30.5261 133.498 33.3006 134.635 36.1472L152.117 36.948C153.594 42.5601 153.224 48.3252 150.989 53.9013L133.429 54.3063C131.988 57.0568 129.939 59.7084 127.331 62.222L138.391 70.1527C135.542 72.4654 132.26 74.667 128.331 76.8417C124.703 78.8363 120.846 80.5731 116.8 82.0818L103.93 75.1619C99.6312 76.5117 95.1383 77.5196 90.5231 78.2125L88.6167 88.5038C78.8493 89.5056 68.8522 89.3887 59.2369 88.1829L58.6671 77.8585C54.1682 77.0756 49.8096 75.9538 45.6926 74.514L31.9365 81.143C28.0134 79.5142 24.3141 77.6455 20.8982 75.5249C17.4822 73.4012 14.49 71.1306 11.9661 68.749L24.0277 61.0762C21.826 58.5866 20.1762 55.974 19.0664 53.2954L1.52741 52.3746C0.00292432 46.6635 0.390757 40.8054 2.6551 35.1633L20.3075 34.6264C21.7932 31.9028 23.8546 29.2423 26.4919 26.7467L15.3432 18.9299C18.1624 16.6503 21.3994 14.4906 25.2747 12.343C28.8428 10.3813 32.6405 8.65956 36.6084 7.1778L49.2607 14.1517C53.8102 12.6969 58.5955 11.6291 63.5001 10.9092L65.2006 0.662836C74.8218 -0.324006 84.6728 -0.210024 94.1598 0.983785L94.5148 11.2631C99.3179 12.076 103.936 13.2578 108.295 14.7936L121.866 8.11965C125.702 9.72739 129.345 11.5781 132.704 13.6658V13.6688ZM52.6408 29.6112C38.2522 37.5839 37.3781 50.7458 50.7165 59.0155C64.0431 67.2792 86.4508 67.5491 100.959 59.5764C115.347 51.6037 116.221 38.4418 102.883 30.1721C89.5833 21.9084 67.1338 21.6475 52.6408 29.6112Z" fill="url(#paint18_linear_98_6882)"/>
</g>
<defs>
<linearGradient id="paint0_linear_98_6882" x1="135.207" y1="39.0268" x2="137.239" y2="38.9259" gradientUnits="userSpaceOnUse">
<stop stop-color="#1E4A84"/>
<stop offset="1" stop-color="#213176"/>
</linearGradient>
<linearGradient id="paint1_linear_98_6882" x1="15.0256" y1="58.5271" x2="28.9656" y2="35.7684" gradientUnits="userSpaceOnUse">
<stop stop-color="#1E4A84"/>
<stop offset="1" stop-color="#213176"/>
</linearGradient>
<linearGradient id="paint2_linear_98_6882" x1="40.6419" y1="49.2041" x2="112.343" y2="49.2041" gradientUnits="userSpaceOnUse">
<stop stop-color="#1E4A84"/>
<stop offset="1" stop-color="#213176"/>
</linearGradient>
<linearGradient id="paint3_linear_98_6882" x1="150.375" y1="63.9947" x2="152.994" y2="63.9947" gradientUnits="userSpaceOnUse">
<stop stop-color="#1E4A84"/>
<stop offset="1" stop-color="#213176"/>
</linearGradient>
<linearGradient id="paint4_linear_98_6882" x1="132.508" y1="69.127" x2="141.443" y2="69.0261" gradientUnits="userSpaceOnUse">
<stop stop-color="#1E4A84"/>
<stop offset="1" stop-color="#213176"/>
</linearGradient>
<linearGradient id="paint5_linear_98_6882" x1="4.61458e-05" y1="63.5778" x2="1.51856" y2="63.5778" gradientUnits="userSpaceOnUse">
<stop stop-color="#1E4A84"/>
<stop offset="1" stop-color="#213176"/>
</linearGradient>
<linearGradient id="paint6_linear_98_6882" x1="-6.18966" y1="86.5734" x2="10.382" y2="59.5181" gradientUnits="userSpaceOnUse">
<stop stop-color="#1E4A84"/>
<stop offset="1" stop-color="#213176"/>
</linearGradient>
<linearGradient id="paint7_linear_98_6882" x1="0.906982" y1="67.7502" x2="19.0576" y2="67.7502" gradientUnits="userSpaceOnUse">
<stop stop-color="#1E4A84"/>
<stop offset="1" stop-color="#213176"/>
</linearGradient>
<linearGradient id="paint8_linear_98_6882" x1="126.714" y1="73.1793" x2="133.426" y2="73.1793" gradientUnits="userSpaceOnUse">
<stop stop-color="#1E4A84"/>
<stop offset="1" stop-color="#213176"/>
</linearGradient>
<linearGradient id="paint9_linear_98_6882" x1="14.8137" y1="94.3401" x2="30.4304" y2="68.8439" gradientUnits="userSpaceOnUse">
<stop stop-color="#1E4A84"/>
<stop offset="1" stop-color="#213176"/>
</linearGradient>
<linearGradient id="paint10_linear_98_6882" x1="89.9056" y1="91.6054" x2="103.924" y2="91.6054" gradientUnits="userSpaceOnUse">
<stop stop-color="#1E4A84"/>
<stop offset="1" stop-color="#213176"/>
</linearGradient>
<linearGradient id="paint11_linear_98_6882" x1="46.6295" y1="90.5555" x2="57.3975" y2="91.6654" gradientUnits="userSpaceOnUse">
<stop stop-color="#1E4A84"/>
<stop offset="1" stop-color="#213176"/>
</linearGradient>
<linearGradient id="paint12_linear_98_6882" x1="116.656" y1="120.804" x2="141.392" y2="80.4187" gradientUnits="userSpaceOnUse">
<stop stop-color="#1E4A84"/>
<stop offset="1" stop-color="#213176"/>
</linearGradient>
<linearGradient id="paint13_linear_98_6882" x1="103.772" y1="92.7722" x2="117.181" y2="94.3896" gradientUnits="userSpaceOnUse">
<stop stop-color="#1E4A84"/>
<stop offset="1" stop-color="#213176"/>
</linearGradient>
<linearGradient id="paint14_linear_98_6882" x1="15.7262" y1="111.315" x2="29.8099" y2="88.3214" gradientUnits="userSpaceOnUse">
<stop stop-color="#1E4A84"/>
<stop offset="1" stop-color="#213176"/>
</linearGradient>
<linearGradient id="paint15_linear_98_6882" x1="31.319" y1="92.7451" x2="45.6867" y2="92.7451" gradientUnits="userSpaceOnUse">
<stop stop-color="#1E4A84"/>
<stop offset="1" stop-color="#213176"/>
</linearGradient>
<linearGradient id="paint16_linear_98_6882" x1="87.9993" y1="98.2763" x2="90.5202" y2="98.2763" gradientUnits="userSpaceOnUse">
<stop stop-color="#1E4A84"/>
<stop offset="1" stop-color="#213176"/>
</linearGradient>
<linearGradient id="paint17_linear_98_6882" x1="61.9896" y1="128.798" x2="83.3831" y2="93.8707" gradientUnits="userSpaceOnUse">
<stop stop-color="#1E4A84"/>
<stop offset="1" stop-color="#213176"/>
</linearGradient>
<linearGradient id="paint18_linear_98_6882" x1="49.4002" y1="101.631" x2="107.624" y2="6.57386" gradientUnits="userSpaceOnUse">
<stop stop-color="#72A9D3"/>
<stop offset="1" stop-color="#2684B9"/>
</linearGradient>
<clipPath id="clip0_98_6882">
<rect width="153" height="119" fill="white"/>
</clipPath>
</defs>
</svg>
