<svg width="194" height="152" viewBox="0 0 194 152" fill="none" xmlns="http://www.w3.org/2000/svg">
<path d="M75.7304 130.975L20.3502 98.8827L75.7304 24.0556L131.111 98.8827L75.7304 130.975Z" fill="url(#paint0_linear_80_215)"/>
<path d="M75.7304 80.2346L20.3502 48.142L75.7304 16.0494L131.111 48.142L75.7304 80.2346Z" fill="url(#paint1_linear_80_215)"/>
<path d="M75.7304 79.4012L21.0697 47.7222L20.3502 48.142L75.7304 80.2346L131.111 48.142L130.391 47.7222L75.7304 79.4012Z" fill="#E1F1FE"/>
<path d="M131.111 98.8827V48.142L75.7304 80.2346V130.975L131.111 98.8827Z" fill="url(#paint2_linear_80_215)"/>
<path d="M20.3502 48.142V98.8827L75.7304 130.975V80.2346L20.3502 48.142Z" fill="url(#paint3_linear_80_215)"/>
<path d="M75.7304 77.2654L24.8704 47.7901L75.7304 18.3148L126.59 47.7901L75.7304 77.2654Z" fill="white"/>
<path d="M75.7304 69.9074L24.8704 40.4321L75.7304 10.9568L126.59 40.4321L75.7304 69.9074Z" fill="white"/>
<path d="M75.7304 69.142L25.5284 40.0494L24.8704 40.4321L75.7304 69.9074L126.59 40.4321L125.932 40.0494L75.7304 69.142Z" fill="white"/>
<path d="M126.59 47.7901V40.4321L75.7304 69.9074V77.2654L126.59 47.7901Z" fill="white"/>
<path d="M24.8704 40.4321V47.7901L75.7304 77.2654V69.9074L24.8704 40.4321Z" fill="white"/>
<path d="M75.7304 72.1975L20.3502 40.1049L75.7304 8.01234L131.111 40.1049L75.7304 72.1975Z" fill="url(#paint4_linear_80_215)"/>
<path d="M75.7304 64.1852L20.3502 32.0926L75.7304 0L131.111 32.0926L75.7304 64.1852Z" fill="url(#paint5_linear_80_215)"/>
<path d="M75.7304 56.3518L33.8677 32.0926L75.7304 7.83333L117.593 32.0926L75.7304 56.3518Z" fill="white"/>
<path d="M75.7304 15.8457L110.681 36.0988L117.593 32.0926L75.7304 7.83333L33.8677 32.0926L40.7803 36.0988L75.7304 15.8457Z" fill="#E1F1FE"/>
<path d="M75.7304 63.3519L21.0697 31.679L20.3502 32.0926L75.7304 64.1852L131.111 32.0926L130.391 31.679L75.7304 63.3519Z" fill="#E1F1FE"/>
<path d="M131.111 40.1049V32.0926L75.7304 64.1852V72.1975L131.111 40.1049Z" fill="url(#paint6_linear_80_215)"/>
<path d="M20.3502 32.0926V40.1049L75.7304 72.1975V64.1852L20.3502 32.0926Z" fill="url(#paint7_linear_80_215)"/>
<path d="M75.7304 7.83333V16.0494L110.681 36.0988L117.593 32.0926L75.7304 7.83333Z" fill="#87B3DD"/>
<mask id="mask0_80_215" style="mask-type:luminance" maskUnits="userSpaceOnUse" x="0" y="21" width="156" height="130">
<path d="M35.1285 30.7407L2.41694 88.8395C-2.36772 97.3333 0.159906 108.099 8.22248 113.556L58.3322 147.481C62.6187 150.383 67.92 151.37 72.9629 150.198L140.926 134.395C149.364 132.432 155.341 124.895 155.36 116.204L155.458 58.8704C155.471 50.0741 149.382 42.4568 140.828 40.5679L55.3741 21.679C47.3792 19.9136 39.169 23.5864 35.1408 30.7469L35.1285 30.7407Z" fill="white"/>
</mask>
<g mask="url(#mask0_80_215)">
<path d="M116.326 116.105L139.727 102.543V92.1296L116.326 105.685V116.105Z" fill="url(#paint8_linear_80_215)"/>
<path d="M116.326 105.685L139.727 92.1296L116.326 78.5741L92.9318 92.1296L116.326 105.685Z" fill="url(#paint9_linear_80_215)"/>
<path d="M92.9318 102.543L116.326 116.105V105.685L92.9318 92.1296V102.543Z" fill="url(#paint10_linear_80_215)"/>
<path d="M116.326 105.167L139.278 91.8704L139.727 92.1296L116.326 105.685L92.9318 92.1296L93.3808 91.8704L116.326 105.167Z" fill="#E1F1FE"/>
<path d="M120.834 107.531L134.413 99.5741L145.846 108.772L146.818 116.704V123.938L163.939 135.167L175.237 141.858L173.515 147.043L165.661 150.173L154.8 146.932L157.168 146.969L139.727 137.432L132.993 132.253L132.562 121.241L131.701 114.543L120.834 107.531Z" fill="white"/>
<path d="M165.089 152C167.322 152 169.554 151.414 171.583 150.235C175.649 147.877 178.078 143.654 178.078 138.938V47.1481C178.078 46.1667 177.284 45.3642 176.3 45.3642C175.316 45.3642 174.523 46.1605 174.523 47.1481V138.938C174.523 142.364 172.758 145.432 169.8 147.148C166.842 148.864 163.312 148.858 160.36 147.148L137.876 134.111C135.809 132.914 134.53 130.685 134.53 128.29V120.13C134.53 116.469 132.568 113.056 129.407 111.228L122.802 107.401C121.953 106.907 120.871 107.204 120.379 108.056C119.887 108.907 120.182 110 121.031 110.488L127.636 114.315C129.702 115.512 130.982 117.741 130.982 120.136V128.296C130.982 131.957 132.943 135.37 136.104 137.198L158.589 150.235C160.624 151.414 162.851 152 165.083 152H165.089Z" fill="white"/>
<path d="M133.755 100.228C134.247 99.3765 135.33 99.0864 136.178 99.5741L142.783 103.401C145.944 105.235 147.906 108.642 147.906 112.302V120.463C147.906 122.858 149.192 125.086 151.252 126.284L176.288 140.796C177.506 141.5 178.816 141.907 180.144 142.037C180.021 143.216 180.064 144.414 179.972 145.605C178.09 145.451 176.233 144.883 174.517 143.883L149.481 129.37C146.319 127.537 144.358 124.13 144.358 120.469V112.309C144.358 109.914 143.072 107.685 141.012 106.488L134.407 102.66C133.558 102.167 133.269 101.08 133.755 100.228Z" fill="white"/>
<path d="M165.089 152C167.322 152 169.554 151.414 171.583 150.235C175.649 147.877 178.078 143.654 178.078 138.938V47.1481C178.078 46.1667 177.284 45.3642 176.3 45.3642C175.316 45.3642 174.523 46.1605 174.523 47.1481V138.938C174.523 142.364 172.758 145.432 169.8 147.148C166.842 148.864 163.312 148.858 160.36 147.148L137.876 134.111C135.809 132.914 134.53 130.685 134.53 128.29V120.13C134.53 116.469 132.568 113.056 129.407 111.228L122.802 107.401C121.953 106.907 120.871 107.204 120.379 108.056C119.887 108.907 120.182 110 121.031 110.488L127.636 114.315C129.702 115.512 130.982 117.741 130.982 120.136V128.296C130.982 131.957 132.943 135.37 136.104 137.198L158.589 150.235C160.624 151.414 162.851 152 165.083 152H165.089Z" fill="url(#paint11_linear_80_215)"/>
<path opacity="0.2" d="M111.388 111.105L113.78 112.494V107.679L111.388 106.29V111.105Z" fill="white"/>
<path opacity="0.2" d="M107.415 108.802L109.801 110.185V105.37L107.415 103.988V108.802Z" fill="white"/>
<path opacity="0.2" d="M103.436 106.5L105.822 107.883V103.068L103.436 101.685V106.5Z" fill="white"/>
<path d="M99.4569 104.191L101.849 105.574V100.759L99.4569 99.3765V104.191Z" fill="white"/>
<path d="M95.484 101.889L97.8702 103.272V98.4568L95.484 97.0741V101.889Z" fill="white"/>
</g>
<defs>
<linearGradient id="paint0_linear_80_215" x1="97.1814" y1="101.704" x2="33.5997" y2="50.0339" gradientUnits="userSpaceOnUse">
<stop stop-color="#1E4A84"/>
<stop offset="1" stop-color="#3C72AD"/>
</linearGradient>
<linearGradient id="paint1_linear_80_215" x1="90.8777" y1="60.5432" x2="30.2629" y2="11.2824" gradientUnits="userSpaceOnUse">
<stop stop-color="#1E4A84"/>
<stop offset="1" stop-color="#3C72AD"/>
</linearGradient>
<linearGradient id="paint2_linear_80_215" x1="31.6845" y1="131.364" x2="163.958" y2="54.8528" gradientUnits="userSpaceOnUse">
<stop stop-color="#213176"/>
<stop offset="1" stop-color="#31B4E8"/>
</linearGradient>
<linearGradient id="paint3_linear_80_215" x1="-35.3191" y1="40.2099" x2="73.7618" y2="104.306" gradientUnits="userSpaceOnUse">
<stop stop-color="#1E4A84"/>
<stop offset="1" stop-color="#213176"/>
</linearGradient>
<linearGradient id="paint4_linear_80_215" x1="90.8777" y1="52.5062" x2="30.2629" y2="3.24533" gradientUnits="userSpaceOnUse">
<stop stop-color="#1E4A84"/>
<stop offset="1" stop-color="#3C72AD"/>
</linearGradient>
<linearGradient id="paint5_linear_80_215" x1="90.8777" y1="44.4938" x2="30.2629" y2="-4.76701" gradientUnits="userSpaceOnUse">
<stop stop-color="#1E4A84"/>
<stop offset="1" stop-color="#3C72AD"/>
</linearGradient>
<linearGradient id="paint6_linear_80_215" x1="48.849" y1="83.9506" x2="149.478" y2="25.7445" gradientUnits="userSpaceOnUse">
<stop stop-color="#213176"/>
<stop offset="1" stop-color="#31B4E8"/>
</linearGradient>
<linearGradient id="paint7_linear_80_215" x1="-15.2027" y1="14.7037" x2="67.5554" y2="63.3358" gradientUnits="userSpaceOnUse">
<stop stop-color="#1E4A84"/>
<stop offset="1" stop-color="#213176"/>
</linearGradient>
<linearGradient id="paint8_linear_80_215" x1="141.787" y1="94.5926" x2="112.357" y2="114.805" gradientUnits="userSpaceOnUse">
<stop stop-color="#1E4A84"/>
<stop offset="1" stop-color="#213176"/>
</linearGradient>
<linearGradient id="paint9_linear_80_215" x1="133.866" y1="84.5679" x2="100.796" y2="98.7195" gradientUnits="userSpaceOnUse">
<stop stop-color="#3C72AD"/>
<stop offset="1" stop-color="#1E4A84"/>
</linearGradient>
<linearGradient id="paint10_linear_80_215" x1="119.327" y1="99.6667" x2="87.9679" y2="109.084" gradientUnits="userSpaceOnUse">
<stop stop-color="#213176"/>
<stop offset="1" stop-color="#31B4E8"/>
</linearGradient>
<linearGradient id="paint11_linear_80_215" x1="178.078" y1="98.6852" x2="120.145" y2="98.6852" gradientUnits="userSpaceOnUse">
<stop stop-color="#3C72AD"/>
<stop offset="1" stop-color="#1E4A84"/>
</linearGradient>
</defs>
</svg>
