<svg width="170" height="115" viewBox="0 0 170 115" fill="none" xmlns="http://www.w3.org/2000/svg">
<g clip-path="url(#clip0_80_134)">
<path d="M20.2056 22.1542V88.4104L85.4476 115V45.6894L20.2056 22.1542Z" fill="url(#paint0_linear_80_134)"/>
<path d="M150.395 23.7759L150.782 88.611L85.4475 115V45.6894L150.395 23.7759Z" fill="url(#paint1_linear_80_134)"/>
<g opacity="0.2">
<path d="M150.782 60.136L104.729 78.0038L85.4475 45.6894L150.643 43.231L150.782 60.136Z" fill="black"/>
</g>
<path d="M20.2056 22.1542L85.4476 0L150.395 23.7759L85.4476 45.6894L20.2056 22.1542Z" fill="url(#paint2_linear_80_134)"/>
<path d="M24.4961 22.1943L85.4187 1.50713L146.11 23.7186L85.4533 44.188L24.4961 22.1943Z" fill="white"/>
<g opacity="0.2">
<path d="M20.2055 67.3851L65.0918 84.7028L85.4475 45.6894C85.4475 45.6894 19.8705 54.6863 20.1593 54.6863C20.448 54.6863 20.2055 67.3851 20.2055 67.3851Z" fill="black"/>
</g>
<path d="M65.011 74.8979L0 50.4859L20.2055 22.1542L85.4475 45.6894L65.011 74.8979Z" fill="#5D8BBD"/>
<path d="M65.011 74.8979L0 50.4859L20.2055 22.1542L85.4475 45.6894L65.011 74.8979Z" fill="url(#paint3_linear_80_134)"/>
<path d="M106.034 73.534L85.4475 45.6894L150.395 23.7759L170 50.801L106.034 73.534Z" fill="#5D8BBD"/>
<path d="M106.034 73.534L85.4475 45.6894L150.395 23.7759L170 50.801L106.034 73.534Z" fill="url(#paint4_linear_80_134)"/>
<path d="M85.4475 115C85.4475 115 85.436 114.937 85.4302 114.822C85.4302 114.685 85.4244 114.513 85.4187 114.295C85.4129 113.814 85.4013 113.138 85.3956 112.278C85.3956 110.502 85.384 107.969 85.3782 104.851C85.3898 98.5821 85.4591 89.9175 85.563 80.3476C85.667 70.7833 85.7651 62.1303 85.8344 55.8439C85.8691 52.7265 85.8922 50.1936 85.9153 48.4171C85.9268 47.5576 85.9384 46.8814 85.9441 46.4C85.9499 46.1822 85.9557 46.0103 85.9615 45.8728C85.9615 45.7524 85.973 45.6951 85.9788 45.6951C85.9846 45.6951 85.9903 45.7582 85.9961 45.8728C85.9961 46.0046 86.0019 46.1822 86.0077 46.4C86.0134 46.8814 86.025 47.5576 86.0308 48.4171C86.0308 50.1936 86.0423 52.7265 86.0481 55.8439C86.0365 62.1131 85.9672 70.7776 85.8633 80.3533C85.7594 89.9118 85.6612 98.5649 85.5919 104.857C85.5572 107.974 85.5341 110.507 85.511 112.284C85.4995 113.143 85.4879 113.82 85.4822 114.301C85.4764 114.519 85.4706 114.691 85.4649 114.828C85.4649 114.948 85.4533 115.006 85.4475 115.006V115Z" fill="#265599"/>
</g>
<defs>
<linearGradient id="paint0_linear_80_134" x1="20.2056" y1="68.5771" x2="85.4476" y2="68.5771" gradientUnits="userSpaceOnUse">
<stop stop-color="#1E4A84"/>
<stop offset="1" stop-color="#213176"/>
</linearGradient>
<linearGradient id="paint1_linear_80_134" x1="85.4475" y1="69.3851" x2="150.782" y2="69.3851" gradientUnits="userSpaceOnUse">
<stop stop-color="#236097"/>
<stop offset="1" stop-color="#3065B7"/>
</linearGradient>
<linearGradient id="paint2_linear_80_134" x1="20.2056" y1="22.8476" x2="150.395" y2="22.8476" gradientUnits="userSpaceOnUse">
<stop stop-color="#72A9D3"/>
<stop offset="1" stop-color="#2684B9"/>
</linearGradient>
<linearGradient id="paint3_linear_80_134" x1="0" y1="48.526" x2="0.577465" y2="48.526" gradientUnits="userSpaceOnUse">
<stop stop-color="#1E4A84"/>
<stop offset="1" stop-color="#213176"/>
</linearGradient>
<linearGradient id="paint4_linear_80_134" x1="-2.74421e-05" y1="48.6521" x2="170" y2="48.6521" gradientUnits="userSpaceOnUse">
<stop stop-color="#236097"/>
<stop offset="1" stop-color="#3065B7"/>
</linearGradient>
<clipPath id="clip0_80_134">
<rect width="170" height="115" fill="white"/>
</clipPath>
</defs>
</svg>
