<svg width="140" height="156" viewBox="0 0 140 156" fill="none" xmlns="http://www.w3.org/2000/svg">
<g clip-path="url(#clip0_80_307)">
<path d="M42.29 134.48C41.64 134.48 41.12 133.96 41.12 133.31V96.36C41.12 95.71 41.64 95.19 42.29 95.19C42.94 95.19 43.46 95.71 43.46 96.36V133.31C43.46 133.96 42.94 134.48 42.29 134.48Z" fill="#396CAA"/>
<path d="M36.51 92.17V117.13C36.51 117.98 37.07 118.84 38.2 119.49C40.46 120.79 44.12 120.79 46.38 119.49C47.51 118.84 48.07 117.98 48.07 117.13V92.17H36.5H36.51Z" fill="url(#paint0_radial_80_307)"/>
<path d="M36.51 96.28V104.73C39.9 106.28 44.68 106.28 48.08 104.73V96.28C44.69 94.73 39.91 94.73 36.51 96.28Z" fill="#396CAA"/>
<path d="M51.66 57.38H32.91V96.53C32.91 97.91 33.82 99.3 35.66 100.36C39.32 102.47 45.25 102.47 48.92 100.36C50.75 99.3 51.67 97.92 51.67 96.53V57.38H51.66Z" fill="url(#paint1_radial_80_307)"/>
<path d="M40.67 113.34C40.67 114.49 39.86 114.95 38.87 114.38C37.88 113.81 37.07 112.41 37.07 111.26C37.07 110.11 37.88 109.65 38.87 110.22C39.86 110.79 40.67 112.19 40.67 113.34Z" fill="#D4ECFF"/>
<path d="M78.64 155.49C77.99 155.49 77.47 154.97 77.47 154.32V117.37C77.47 116.72 77.99 116.2 78.64 116.2C79.29 116.2 79.81 116.72 79.81 117.37V154.32C79.81 154.97 79.29 155.49 78.64 155.49Z" fill="#396CAA"/>
<path d="M72.86 113.18V138.14C72.86 138.99 73.42 139.85 74.55 140.5C76.81 141.8 80.47 141.8 82.73 140.5C83.86 139.85 84.42 138.99 84.42 138.14V113.18H72.85H72.86Z" fill="url(#paint2_radial_80_307)"/>
<path d="M72.86 117.29V125.74C76.25 127.29 81.03 127.29 84.43 125.74V117.29C81.04 115.74 76.26 115.74 72.86 117.29Z" fill="#396CAA"/>
<path d="M88.01 78.39H69.26V117.54C69.26 118.92 70.18 120.31 72.01 121.37C75.67 123.48 81.61 123.48 85.27 121.37C87.1 120.31 88.02 118.93 88.02 117.54V78.39H88.01Z" fill="url(#paint3_radial_80_307)"/>
<path d="M77.02 134.35C77.02 135.5 76.21 135.96 75.22 135.39C74.23 134.82 73.42 133.42 73.42 132.27C73.42 131.12 74.23 130.66 75.22 131.23C76.21 131.8 77.02 133.2 77.02 134.35Z" fill="#D4ECFF"/>
<path d="M6.36 29.04L31.24 14.72C31.24 14.72 30.3 29.01 30.3 29.04C30.3 29.07 16 33.47 16 33.47L6.35 29.04H6.36Z" fill="#5793CE"/>
<path d="M139.66 111.44C139.66 101.39 132.61 89.17 123.9 84.15C122.01 83.06 120.2 82.42 118.52 82.15C116.01 68.96 106.84 54.96 95.9 48.65C92.61 46.75 89.48 45.74 86.64 45.52C85.15 29.54 74.03 11.38 60.54 3.59C53.49 -0.49 47.1 -0.97 42.38 1.52L42.15 1.64C42.03 1.71 41.91 1.78 41.79 1.85L27.12 10.52L32 14.37C27.62 16.28 24.86 21.19 24.86 28.45C24.86 41.83 34.25 58.1 45.84 64.79L117.37 115.87L119.58 130.76L135.04 121.66C135.04 121.66 135.07 121.64 135.08 121.64L135.17 121.59C137.95 119.91 139.67 116.41 139.67 111.46L139.66 111.44Z" fill="url(#paint4_radial_80_307)"/>
<path d="M25.58 22.55L59.25 2.88C52.71 -0.529999 46.8 -0.809999 42.38 1.53L42.15 1.65C42.03 1.72 41.91 1.79 41.79 1.86L27.12 10.53L32 14.38C28.94 15.72 26.67 18.52 25.58 22.57V22.55Z" fill="#5793CE"/>
<path d="M87.77 80.44L112.34 66.02C108.13 58.73 102.32 52.36 95.9 48.65C95.05 48.16 94.21 47.73 93.38 47.36L62.13 65.64L87.77 80.44Z" fill="#5793CE"/>
<path d="M34.04 12.13L44.99 18.45L65.04 6.64C63.58 5.5 62.07 4.47 60.53 3.59C58.1 2.19 55.75 1.22 53.52 0.649998L34.03 12.14L34.04 12.13Z" fill="#D4ECFF"/>
<path d="M109.63 61.78L90.02 73.34L96.84 80.95L114.64 70.44C113.23 67.42 111.54 64.51 109.63 61.79V61.78Z" fill="#D4ECFF"/>
<path d="M108.5 93.22C106.61 92.13 104.8 91.49 103.12 91.22C100.61 78.03 91.44 64.03 80.5 57.72C77.21 55.82 74.08 54.81 71.24 54.59C69.75 38.61 58.63 20.45 45.14 12.66C30.63 4.28 18.86 11.07 18.86 27.83C18.86 28.4 18.88 28.97 18.9 29.55C8.29 24.62 0 30.17 0 42.74C0 56.12 9.39 72.39 20.98 79.08L108.5 129.61C117.2 134.63 124.26 130.56 124.26 120.51C124.26 110.46 117.21 98.24 108.5 93.22Z" fill="url(#paint5_linear_80_307)"/>
<path d="M18.9 29.54C18.87 28.96 18.86 28.39 18.86 27.82C18.86 27.8 18.86 27.77 18.86 27.75C13 25.47 7.96 26.46 4.8 30.12C8.23 27.29 13.23 26.91 18.9 29.54Z" fill="white"/>
<path d="M109.78 91.98C107.89 90.89 106.08 90.25 104.4 89.98C101.89 76.79 92.72 62.79 81.78 56.48C78.49 54.58 75.36 53.57 72.52 53.35C71.03 37.37 59.91 19.21 46.42 11.42C37.38 6.2 29.41 6.87 24.68 12.17C29.5 8.05 36.87 7.9 45.14 12.67C58.63 20.46 69.75 38.62 71.24 54.6C74.08 54.82 77.21 55.83 80.5 57.73C91.44 64.05 100.61 78.05 103.12 91.23C104.8 91.49 106.61 92.13 108.5 93.23C117.2 98.25 124.26 110.47 124.26 120.52C124.26 124.15 123.33 126.98 121.75 128.9C124.11 127.08 125.54 123.79 125.54 119.27C125.54 109.22 118.49 97 109.78 91.98Z" fill="white"/>
<path d="M17.05 33.54L23.63 36.59L23.3 29.35C23.28 28.84 23.26 28.34 23.26 27.83C23.26 21.36 25.21 16.68 28.76 14.63C32.3 12.59 37.34 13.24 42.94 16.47C54.98 23.42 65.49 40.35 66.86 55L67.21 58.69L70.91 58.97C73.18 59.14 75.67 60 78.31 61.53C87.88 67.05 96.5 79.89 98.81 92.05L99.39 95.09L102.45 95.57C103.67 95.76 104.97 96.25 106.32 97.03C113.67 101.27 119.88 112.03 119.88 120.51C119.88 123.69 119 126.01 117.46 126.9C115.93 127.78 113.47 127.38 110.72 125.8L23.18 75.27C13 69.39 4.4 54.49 4.4 42.74C4.4 38.13 5.76 34.61 8.13 33.1C9.11 32.48 10.29 32.17 11.62 32.17C13.24 32.17 15.08 32.63 17.05 33.54Z" fill="url(#paint6_radial_80_307)"/>
<path d="M60.73 88.39L63.04 87.23L60.77 85.51L60.73 88.39Z" fill="#5793CE"/>
<path d="M53.8 57.2L56.04 56.07L56.08 57.24L53.8 57.2Z" fill="#5793CE"/>
<path d="M67.32 81.1L69.66 79.92L65.16 75.64L67.32 81.1Z" fill="#5793CE"/>
<path d="M62.37 87.15L51.44 80.71C50.89 80.38 50.44 79.56 50.44 78.87L50.48 66.22L63.42 73.84L63.38 86.49C63.38 87.18 62.93 87.47 62.37 87.14V87.15Z" fill="#5793CE"/>
<path d="M56.02 56.08L44.21 63.68C43.71 64 44.11 65.2 44.87 65.65L56.93 72.75L68.99 79.85C69.75 80.3 70.16 79.58 69.66 78.67L57.94 57.22C57.43 56.29 56.53 55.76 56.02 56.09V56.08Z" fill="#5793CE"/>
<path d="M60.02 88.33L49.09 81.89C48.54 81.56 48.09 80.74 48.09 80.05L48.13 67.4L61.07 75.02L61.03 87.67C61.03 88.36 60.58 88.65 60.02 88.32V88.33Z" fill="#D4ECFF"/>
<path d="M53.67 57.26L41.86 64.86C41.36 65.18 41.76 66.38 42.52 66.83L54.58 73.93L66.64 81.03C67.4 81.48 67.81 80.76 67.31 79.85L55.59 58.4C55.08 57.47 54.18 56.94 53.67 57.27V57.26Z" fill="#D4ECFF"/>
</g>
<defs>
<radialGradient id="paint0_radial_80_307" cx="0" cy="0" r="1" gradientUnits="userSpaceOnUse" gradientTransform="translate(35.79 115.91) scale(10.81)">
<stop stop-color="#699DD1"/>
<stop offset="0.27" stop-color="#6296CB"/>
<stop offset="0.64" stop-color="#5084BD"/>
<stop offset="1" stop-color="#396CAA"/>
</radialGradient>
<radialGradient id="paint1_radial_80_307" cx="0" cy="0" r="1" gradientUnits="userSpaceOnUse" gradientTransform="translate(29.74 104.3) scale(17.09 17.09)">
<stop stop-color="#699DD1"/>
<stop offset="0.27" stop-color="#6296CB"/>
<stop offset="0.64" stop-color="#5084BD"/>
<stop offset="1" stop-color="#396CAA"/>
</radialGradient>
<radialGradient id="paint2_radial_80_307" cx="0" cy="0" r="1" gradientUnits="userSpaceOnUse" gradientTransform="translate(72.14 136.92) scale(10.81)">
<stop stop-color="#699DD1"/>
<stop offset="0.27" stop-color="#6296CB"/>
<stop offset="0.64" stop-color="#5084BD"/>
<stop offset="1" stop-color="#396CAA"/>
</radialGradient>
<radialGradient id="paint3_radial_80_307" cx="0" cy="0" r="1" gradientUnits="userSpaceOnUse" gradientTransform="translate(66.09 125.31) scale(17.09 17.09)">
<stop stop-color="#699DD1"/>
<stop offset="0.27" stop-color="#6296CB"/>
<stop offset="0.64" stop-color="#5084BD"/>
<stop offset="1" stop-color="#396CAA"/>
</radialGradient>
<radialGradient id="paint4_radial_80_307" cx="0" cy="0" r="1" gradientUnits="userSpaceOnUse" gradientTransform="translate(82.26 65.38) scale(61.52 61.52)">
<stop stop-color="#699DD1"/>
<stop offset="0.27" stop-color="#6296CB"/>
<stop offset="0.64" stop-color="#5084BD"/>
<stop offset="1" stop-color="#396CAA"/>
</radialGradient>
<linearGradient id="paint5_linear_80_307" x1="0" y1="70.42" x2="124.26" y2="70.42" gradientUnits="userSpaceOnUse">
<stop stop-color="#D4ECFF"/>
<stop offset="0.24" stop-color="#D0E9FD"/>
<stop offset="0.46" stop-color="#C5E2F9"/>
<stop offset="0.67" stop-color="#B2D5F1"/>
<stop offset="0.88" stop-color="#98C4E7"/>
<stop offset="1" stop-color="#86B8E0"/>
</linearGradient>
<radialGradient id="paint6_radial_80_307" cx="0" cy="0" r="1" gradientUnits="userSpaceOnUse" gradientTransform="translate(120.11 116.83) scale(124.4 124.4)">
<stop stop-color="#173D7A"/>
<stop offset="1" stop-color="#274F89"/>
</radialGradient>
<clipPath id="clip0_80_307">
<rect width="139.66" height="155.49" fill="white"/>
</clipPath>
</defs>
</svg>
