<svg width="469" height="497" viewBox="0 0 469 497" fill="none" xmlns="http://www.w3.org/2000/svg">
<g clip-path="url(#clip0_95_3217)">
<path d="M234.945 370.608L188.576 343.419L154.719 322.109" stroke="#5793CE" stroke-width="2" stroke-miterlimit="10"/>
<path d="M181.017 427.154L142.943 449.235L179.008 472.015" stroke="#5793CE" stroke-width="2" stroke-miterlimit="10"/>
<path d="M290.147 380.161L329.892 355.911" stroke="#5793CE" stroke-width="2" stroke-miterlimit="10"/>
<path d="M128.745 153.022L32.1052 97.3218L128.745 41.6138L225.377 97.3218L128.745 153.022Z" fill="#A4D4ED"/>
<path d="M128.745 148.004L40.8124 97.3219L128.745 46.6328L216.677 97.3219L128.745 148.004Z" fill="white"/>
<path d="M128.745 366.845L32.1052 311.137L128.745 255.437L225.377 311.145L128.745 366.845Z" fill="white"/>
<path d="M225.377 97.3218V311.145L128.745 366.845V153.022L225.377 97.3218Z" fill="url(#paint0_linear_95_3217)"/>
<path d="M32.1052 97.3218V311.137L128.745 366.845V153.022L32.1052 97.3218Z" fill="url(#paint1_linear_95_3217)"/>
<path d="M210.885 148.981V154.632L143.237 193.622V187.971L210.885 148.981Z" fill="url(#paint2_linear_95_3217)"/>
<path d="M210.885 172.878V178.529L143.237 217.519V211.868L210.885 172.878Z" fill="url(#paint3_linear_95_3217)"/>
<path d="M210.885 196.775V202.426L143.237 241.416V235.765L210.885 196.775Z" fill="url(#paint4_linear_95_3217)"/>
<path d="M210.885 220.672V226.323L143.237 265.313V259.662L210.885 220.672Z" fill="url(#paint5_linear_95_3217)"/>
<path d="M210.885 244.569V250.22L143.237 289.21V283.559L210.885 244.569Z" fill="url(#paint6_linear_95_3217)"/>
<path d="M128.745 151.215L33.6803 96.418L32.1052 97.3218L128.745 153.022L225.377 97.3218L223.809 96.418L128.745 151.215Z" fill="white"/>
<path d="M32.1052 277.35L128.745 219.099V153.022L32.1052 97.3218V277.35Z" fill="url(#paint7_linear_95_3217)"/>
<path d="M38.6558 111.504V303.694L122.202 351.855V159.665L38.6558 111.504Z" fill="url(#paint8_linear_95_3217)"/>
<path d="M48.6584 179.572L60.6849 186.502V184.422L48.6584 177.485V179.572Z" fill="url(#paint9_linear_95_3217)"/>
<path d="M62.6133 187.611L69.1713 191.388V189.301L62.6207 185.524L62.6133 187.611Z" fill="url(#paint10_linear_95_3217)"/>
<path d="M79.3651 197.26L84.1051 199.993V197.906L79.3651 195.173V197.26Z" fill="url(#paint11_linear_95_3217)"/>
<path d="M75.9059 195.261L77.5251 196.202L77.5325 194.115L75.9059 193.181V195.261Z" fill="url(#paint12_linear_95_3217)"/>
<path d="M71.1291 192.505L74.0658 194.203L74.0732 192.123L71.1291 190.426V192.505Z" fill="url(#paint13_linear_95_3217)"/>
<path d="M59.7723 195.504L64.5196 198.237V196.158L59.7796 193.424L59.7723 195.504Z" fill="url(#paint14_linear_95_3217)"/>
<path d="M48.651 189.088L57.9396 194.445V192.358L48.651 187.009V189.088Z" fill="url(#paint15_linear_95_3217)"/>
<path d="M65.9696 222.854L75.2581 228.211V226.124L65.9696 220.775V222.854Z" fill="url(#paint16_linear_95_3217)"/>
<path d="M61.1854 220.099L64.1295 221.796V219.709L61.1928 218.019L61.1854 220.099Z" fill="url(#paint17_linear_95_3217)"/>
<path d="M65.918 213.323L75.2066 218.68L75.214 216.593L65.918 211.236V213.323Z" fill="url(#paint18_linear_95_3217)"/>
<path d="M61.1413 210.568L64.078 212.265L64.0854 210.178L61.1413 208.481V210.568Z" fill="url(#paint19_linear_95_3217)"/>
<path d="M66.0211 263.99L48.5259 253.901V255.988L66.0211 266.077V263.99Z" fill="url(#paint20_linear_95_3217)"/>
<path d="M72.1889 267.547L67.8611 265.049V267.136L72.1889 269.627V267.547Z" fill="url(#paint21_linear_95_3217)"/>
<path d="M100.533 269.568L83.0379 259.479L83.0305 261.558L100.533 271.647V269.568Z" fill="url(#paint22_linear_95_3217)"/>
<path d="M106.701 273.124L102.373 270.626V272.706L106.701 275.204V273.124Z" fill="url(#paint23_linear_95_3217)"/>
<path d="M53.2732 251.873L48.5259 249.139V251.226L53.2658 253.96L53.2732 251.873Z" fill="url(#paint24_linear_95_3217)"/>
<path d="M80.5133 258.046L75.7734 255.312L75.766 257.392L80.5133 260.125V258.046Z" fill="url(#paint25_linear_95_3217)"/>
<path d="M64.3945 258.288L55.1059 252.938V255.018L64.3945 260.375V258.288Z" fill="url(#paint26_linear_95_3217)"/>
<path d="M69.1786 261.044L66.2345 259.346V261.433L69.1713 263.131L69.1786 261.044Z" fill="url(#paint27_linear_95_3217)"/>
<path d="M80.3882 267.496L71.0996 262.146L71.0923 264.226L80.3882 269.583V267.496Z" fill="url(#paint28_linear_95_3217)"/>
<path d="M85.165 270.251L82.2209 268.561V270.641L85.165 272.338V270.251Z" fill="url(#paint29_linear_95_3217)"/>
<path d="M80.506 262.807L75.766 260.074V262.153L80.506 264.887V262.807Z" fill="url(#paint30_linear_95_3217)"/>
<path d="M91.6346 269.222L82.346 263.865V265.952L91.6346 271.302V269.222Z" fill="url(#paint31_linear_95_3217)"/>
<path d="M96.4114 271.978L93.4747 270.281L93.4673 272.36L96.4114 274.058V271.978Z" fill="url(#paint32_linear_95_3217)"/>
<path d="M58.234 249.977L48.5332 244.385V246.465L58.234 252.057V249.977Z" fill="url(#paint33_linear_95_3217)"/>
<path d="M67.0883 255.077L60.074 251.035L60.0667 253.122L67.0883 257.164V255.077Z" fill="url(#paint34_linear_95_3217)"/>
<path d="M73.6683 258.869L68.921 256.135V258.222L73.661 260.956L73.6683 258.869Z" fill="url(#paint35_linear_95_3217)"/>
<path d="M105.737 217.211L115.438 222.803L115.445 220.716L105.744 215.124L105.737 217.211Z" fill="url(#paint36_linear_95_3217)"/>
<path d="M96.8898 212.104L103.904 216.152V214.066L96.8898 210.024V212.104Z" fill="url(#paint37_linear_95_3217)"/>
<path d="M90.3098 208.312L95.0498 211.045V208.966L90.3098 206.232V208.312Z" fill="url(#paint38_linear_95_3217)"/>
<path d="M101.718 210.112L111.419 215.704V213.617L101.718 208.025V210.112Z" fill="url(#paint39_linear_95_3217)"/>
<path d="M92.8638 205.005L99.878 209.054V206.967L92.8638 202.925V205.005Z" fill="url(#paint40_linear_95_3217)"/>
<path d="M86.2838 201.213L91.0237 203.947L91.0311 201.867L86.2838 199.134V201.213Z" fill="url(#paint41_linear_95_3217)"/>
<path d="M67.3606 218.923L70.6359 220.811V218.724L67.3606 216.836V218.923Z" fill="url(#paint42_linear_95_3217)"/>
<path d="M61.1928 215.366L65.5206 217.857V215.778L61.1928 213.279V215.366Z" fill="url(#paint43_linear_95_3217)"/>
<path d="M58.3002 245.245L48.5995 239.653V241.732L58.3002 247.332V245.245Z" fill="url(#paint44_linear_95_3217)"/>
<path d="M67.1546 250.345L60.1403 246.303L60.1329 248.39L67.1546 252.432V250.345Z" fill="url(#paint45_linear_95_3217)"/>
<path d="M73.7346 254.144L68.9873 251.41V253.489L73.7272 256.223L73.7346 254.144Z" fill="url(#paint46_linear_95_3217)"/>
<path d="M51.8821 236.779L48.6068 234.891L48.5995 236.978L51.8821 238.866V236.779Z" fill="url(#paint47_linear_95_3217)"/>
<path d="M58.05 240.336L53.7148 237.838V239.925L58.0426 242.423L58.05 240.336Z" fill="url(#paint48_linear_95_3217)"/>
<path d="M66.8602 245.421L59.8827 241.394V243.481L66.8602 247.501V245.421Z" fill="url(#paint49_linear_95_3217)"/>
<path d="M69.4141 205.799L72.6894 207.687V205.6L69.4141 203.712V205.799Z" fill="url(#paint50_linear_95_3217)"/>
<path d="M63.2463 202.242L67.5741 204.733V202.653L63.2463 200.155V202.242Z" fill="url(#paint51_linear_95_3217)"/>
<path d="M54.4288 197.157L61.4062 201.184V199.097L54.4288 195.077V197.157Z" fill="url(#paint52_linear_95_3217)"/>
<path d="M75.1478 213.522L82.1179 217.541L82.1252 215.462L75.1478 211.435V213.522Z" fill="url(#paint53_linear_95_3217)"/>
<path d="M63.7909 207.32L73.1973 212.736V210.656L63.7909 205.233V207.32Z" fill="url(#paint54_linear_95_3217)"/>
<path d="M59.0142 204.564L61.9509 206.254L61.9582 204.175L59.0142 202.477V204.564Z" fill="url(#paint55_linear_95_3217)"/>
<path d="M54.4214 201.919L57.3655 203.616V201.529L54.4288 199.832L54.4214 201.919Z" fill="url(#paint56_linear_95_3217)"/>
<path d="M59.1246 228.814L68.4132 234.163V232.084L59.1246 226.727V228.814Z" fill="url(#paint57_linear_95_3217)"/>
<path d="M54.3404 226.058L57.2845 227.748V225.669L54.3478 223.971L54.3404 226.058Z" fill="url(#paint58_linear_95_3217)"/>
<path d="M60.5672 234.406L63.8425 236.295V234.215L60.5672 232.326V234.406Z" fill="url(#paint59_linear_95_3217)"/>
<path d="M70.5255 230.592L73.8008 232.481V230.394L70.5255 228.505V230.592Z" fill="url(#paint60_linear_95_3217)"/>
<path d="M75.1919 233.282L83.0526 237.808L83.06 235.729L75.1993 231.195L75.1919 233.282Z" fill="url(#paint61_linear_95_3217)"/>
<path d="M84.451 238.609L89.1248 241.306V239.226L84.451 236.53V238.609Z" fill="url(#paint62_linear_95_3217)"/>
<path d="M54.3993 230.849L58.7271 233.348V231.261L54.3993 228.77V230.849Z" fill="url(#paint63_linear_95_3217)"/>
<path d="M54.7747 235.743L58.05 237.632V235.545L54.7747 233.656V235.743Z" fill="url(#paint64_linear_95_3217)"/>
<path d="M48.6068 232.187L52.9346 234.685L52.942 232.598L48.6068 230.1V232.187Z" fill="url(#paint65_linear_95_3217)"/>
<path d="M65.7708 227.851L68.7149 229.549V227.469L65.7708 225.772V227.851Z" fill="url(#paint66_linear_95_3217)"/>
<path d="M61.1854 225.213L64.1222 226.903L64.1295 224.824L61.1854 223.126V225.213Z" fill="url(#paint67_linear_95_3217)"/>
<path d="M78.1139 201.287L88.1532 207.07V204.99L78.1213 199.207L78.1139 201.287Z" fill="url(#paint68_linear_95_3217)"/>
<path d="M66.8749 194.805L76.2812 200.229V198.142L66.8749 192.726V194.805Z" fill="url(#paint69_linear_95_3217)"/>
<path d="M62.0981 192.05L65.0348 193.747L65.0422 191.668L62.0981 189.97V192.05Z" fill="url(#paint70_linear_95_3217)"/>
<path d="M57.5127 189.404L60.4494 191.102L60.4568 189.022L57.5127 187.325V189.404Z" fill="url(#paint71_linear_95_3217)"/>
<path d="M55.0029 187.964L48.651 184.305L48.6583 182.218L55.0029 185.877V187.964Z" fill="url(#paint72_linear_95_3217)"/>
<path d="M128.745 111.409L32.1052 55.7007L128.745 0L225.377 55.7007L128.745 111.409Z" fill="url(#paint73_linear_95_3217)"/>
<path d="M128.745 96.1976L58.4916 55.7007L128.745 15.2112L198.991 55.7007L128.745 96.1976Z" fill="url(#paint74_linear_95_3217)"/>
<path d="M128.745 17.9521L196.613 57.0749L198.991 55.7007L128.745 15.2112L58.4916 55.7007L60.8763 57.0749L128.745 17.9521Z" fill="white"/>
<path d="M225.377 55.7007V87.2766L128.745 142.985V111.409L225.377 55.7007Z" fill="url(#paint75_linear_95_3217)"/>
<path d="M32.1052 55.7007V87.2766L128.745 142.985V111.409L32.1052 55.7007Z" fill="#24126A"/>
<g opacity="0.51">
<path d="M38.6558 69.8904V79.8327L122.202 127.987V118.044L38.6558 69.8904Z" fill="#453C9E"/>
</g>
<path d="M128.745 109.594L33.6803 54.7969L32.1052 55.7007L128.745 111.409L225.377 55.7007L223.809 54.7969L128.745 109.594Z" fill="white"/>
<path d="M210.885 77.8267V83.4849L143.237 122.475V116.824L210.885 77.8267Z" fill="url(#paint76_linear_95_3217)"/>
<path d="M32.1052 55.7007V87.2766L128.745 142.985V111.409L32.1052 55.7007Z" fill="url(#paint77_linear_95_3217)"/>
<path d="M100.533 109.726L83.0379 99.644L83.0305 101.724L100.533 111.813V109.726Z" fill="url(#paint78_linear_95_3217)"/>
<path d="M80.5133 98.2111L75.7734 95.4775L75.766 97.5571L80.5133 100.291V98.2111Z" fill="url(#paint79_linear_95_3217)"/>
<path d="M58.3002 85.4102L48.5995 79.8181V81.8977L58.3002 87.4898V85.4102Z" fill="url(#paint80_linear_95_3217)"/>
<path d="M67.1546 90.5099L60.1403 86.4683L60.1329 88.5479L67.1546 92.5968V90.5099Z" fill="url(#paint81_linear_95_3217)"/>
<path d="M73.7346 94.3017L68.9873 91.5681V93.6551L73.7272 96.3886L73.7346 94.3017Z" fill="url(#paint82_linear_95_3217)"/>
<path d="M128.84 29.1142L125.771 27.3432L128.84 25.5796L131.91 27.3432L128.84 29.1142Z" fill="#42E8E0"/>
<path opacity="0.1" d="M134.979 32.6488L131.91 30.8852L134.979 29.1143L138.048 30.8852L134.979 32.6488Z" fill="#42E8E0"/>
<path opacity="0.4" d="M141.117 36.1906L138.048 34.4196L141.117 32.6487L144.187 34.4196L141.117 36.1906Z" fill="#42E8E0"/>
<path d="M147.256 39.7252L144.187 37.9543L147.256 36.1907L150.325 37.9543L147.256 39.7252Z" fill="#42E8E0"/>
<path opacity="0.4" d="M153.394 43.267L150.325 41.4961L153.394 39.7251L156.463 41.4961L153.394 43.267Z" fill="#42E8E0"/>
<path d="M159.533 46.8017L156.463 45.0307L159.533 43.2671L162.594 45.0307L159.533 46.8017Z" fill="#42E8E0"/>
<path d="M165.664 50.3363L162.602 48.5727L165.664 46.8018L168.733 48.5727L165.664 50.3363Z" fill="#42E8E0"/>
<path d="M171.802 53.8781L168.733 52.1071L171.802 50.3362L174.871 52.1071L171.802 53.8781Z" fill="#42E8E0"/>
<path opacity="0.1" d="M177.94 57.4127L174.871 55.6491L177.94 53.8782L181.01 55.6491L177.94 57.4127Z" fill="#42E8E0"/>
<path d="M122.68 32.6635L119.611 30.8999L122.68 29.1289L125.749 30.8999L122.68 32.6635Z" fill="#42E8E0"/>
<path d="M128.818 36.2055L125.749 34.4345L128.818 32.6636L131.888 34.4345L128.818 36.2055Z" fill="#42E8E0"/>
<path d="M134.957 39.7399L131.888 37.9689L134.957 36.2053L138.026 37.9689L134.957 39.7399Z" fill="#42E8E0"/>
<path d="M141.095 43.2819L138.026 41.5109L141.095 39.74L144.164 41.5109L141.095 43.2819Z" fill="#42E8E0"/>
<path d="M147.234 46.8165L144.164 45.0456L147.234 43.282L150.296 45.0456L147.234 46.8165Z" fill="#42E8E0"/>
<path d="M153.365 50.351L150.296 48.5874L153.365 46.8164L156.434 48.5874L153.365 50.351Z" fill="#42E8E0"/>
<path d="M159.503 53.893L156.434 52.122L159.503 50.3511L162.572 52.122L159.503 53.893Z" fill="#42E8E0"/>
<path d="M165.642 57.4274L162.572 55.6638L165.642 53.8928L168.711 55.6638L165.642 57.4274Z" fill="#42E8E0"/>
<path d="M171.78 60.9694L168.711 59.1984L171.78 57.4275L174.849 59.1984L171.78 60.9694Z" fill="#42E8E0"/>
<path d="M116.519 36.2201L113.45 34.4492L116.519 32.6782L119.589 34.4492L116.519 36.2201Z" fill="#42E8E0"/>
<path d="M122.658 39.7548L119.589 37.9838L122.658 36.2202L125.727 37.9838L122.658 39.7548Z" fill="#42E8E0"/>
<path d="M128.796 43.2966L125.727 41.5256L128.796 39.7546L131.866 41.5256L128.796 43.2966Z" fill="#42E8E0"/>
<path opacity="0.1" d="M134.927 46.8312L131.866 45.0602L134.927 43.2966L137.997 45.0602L134.927 46.8312Z" fill="#42E8E0"/>
<path opacity="0.4" d="M141.066 50.3659L137.997 48.6023L141.066 46.8313L144.135 48.6023L141.066 50.3659Z" fill="#42E8E0"/>
<path opacity="0.4" d="M147.204 53.9076L144.135 52.1367L147.204 50.3657L150.273 52.1367L147.204 53.9076Z" fill="#42E8E0"/>
<path d="M153.343 57.4423L150.273 55.6713L153.343 53.9077L156.412 55.6713L153.343 57.4423Z" fill="#42E8E0"/>
<path d="M159.481 60.9841L156.412 59.2131L159.481 57.4421L162.55 59.2131L159.481 60.9841Z" fill="#42E8E0"/>
<path d="M165.619 64.5187L162.55 62.7477L165.619 60.9841L168.689 62.7477L165.619 64.5187Z" fill="#42E8E0"/>
<path opacity="0.4" d="M110.359 39.7692L107.29 37.9982L110.359 36.2346L113.428 37.9982L110.359 39.7692Z" fill="#42E8E0"/>
<path opacity="0.4" d="M116.497 43.3039L113.428 41.5402L116.497 39.7693L119.559 41.5402L116.497 43.3039Z" fill="#42E8E0"/>
<path opacity="0.1" d="M122.628 46.8456L119.559 45.0747L122.628 43.3037L125.698 45.0747L122.628 46.8456Z" fill="#42E8E0"/>
<path d="M128.767 50.3803L125.698 48.6167L128.767 46.8457L131.836 48.6167L128.767 50.3803Z" fill="#42E8E0"/>
<path d="M134.905 53.922L131.836 52.1511L134.905 50.3801L137.975 52.1511L134.905 53.922Z" fill="#42E8E0"/>
<path d="M141.044 57.4567L137.975 55.6857L141.044 53.9221L144.113 55.6857L141.044 57.4567Z" fill="#42E8E0"/>
<path opacity="0.4" d="M147.182 60.9987L144.113 59.2277L147.182 57.4568L150.251 59.2277L147.182 60.9987Z" fill="#42E8E0"/>
<path d="M153.321 64.5331L150.251 62.7621L153.321 60.9985L156.39 62.7621L153.321 64.5331Z" fill="#42E8E0"/>
<path d="M159.452 68.0678L156.39 66.3042L159.452 64.5332L162.521 66.3042L159.452 68.0678Z" fill="#42E8E0"/>
<path d="M104.191 43.3185L101.129 41.5549L104.191 39.7839L107.26 41.5549L104.191 43.3185Z" fill="#42E8E0"/>
<path d="M110.33 46.8605L107.26 45.0896L110.33 43.3186L113.399 45.0896L110.33 46.8605Z" fill="#42E8E0"/>
<path d="M116.468 50.3949L113.399 48.6313L116.468 46.8604L119.537 48.6313L116.468 50.3949Z" fill="#42E8E0"/>
<path d="M122.606 53.9369L119.537 52.166L122.606 50.395L125.676 52.166L122.606 53.9369Z" fill="#42E8E0"/>
<path d="M128.745 57.4716L125.676 55.7006L128.745 53.937L131.814 55.7006L128.745 57.4716Z" fill="#42E8E0"/>
<path d="M134.883 61.0134L131.814 59.2424L134.883 57.4714L137.952 59.2424L134.883 61.0134Z" fill="#42E8E0"/>
<path d="M141.022 64.548L137.952 62.777L141.022 61.0134L144.083 62.777L141.022 64.548Z" fill="#42E8E0"/>
<path d="M147.153 68.0824L144.083 66.3188L147.153 64.5479L150.222 66.3188L147.153 68.0824Z" fill="#42E8E0"/>
<path d="M153.291 71.6244L150.222 69.8535L153.291 68.0825L156.36 69.8535L153.291 71.6244Z" fill="#42E8E0"/>
<path d="M98.0306 46.8752L94.9614 45.1042L98.0306 43.3333L101.1 45.1042L98.0306 46.8752Z" fill="#42E8E0"/>
<path d="M104.169 50.4098L101.1 48.6389L104.169 46.8752L107.238 48.6462L104.169 50.4098Z" fill="#42E8E0"/>
<path opacity="0.4" d="M110.307 53.9516L107.238 52.1806L110.307 50.4097L113.377 52.1806L110.307 53.9516Z" fill="#42E8E0"/>
<path d="M116.446 57.4862L113.377 55.7153L116.446 53.9517L119.515 55.7153L116.446 57.4862Z" fill="#42E8E0"/>
<path opacity="0.1" d="M122.584 61.0209L119.515 59.2573L122.584 57.4863L125.654 59.2573L122.584 61.0209Z" fill="#42E8E0"/>
<path d="M128.715 64.5627L125.654 62.7917L128.715 61.0208L131.785 62.7917L128.715 64.5627Z" fill="#42E8E0"/>
<path d="M134.854 68.0973L131.785 66.3337L134.854 64.5627L137.923 66.3337L134.854 68.0973Z" fill="#42E8E0"/>
<path d="M140.992 71.6391L137.923 69.8681L140.992 68.0972L144.061 69.8681L140.992 71.6391Z" fill="#42E8E0"/>
<path d="M147.131 75.1737L144.061 73.4028L147.131 71.6392L150.2 73.4028L147.131 75.1737Z" fill="#42E8E0"/>
<path d="M91.8702 50.4245L88.8009 48.6535L91.8702 46.8899L94.9394 48.6535L91.8702 50.4245Z" fill="#42E8E0"/>
<path d="M98.0086 53.9665L94.9394 52.1955L98.0086 50.4246L101.078 52.1955L98.0086 53.9665Z" fill="#42E8E0"/>
<path opacity="0.4" d="M104.147 57.5009L101.078 55.7299L104.147 53.9663L107.216 55.7299L104.147 57.5009Z" fill="#42E8E0"/>
<path d="M110.285 61.0355L107.216 59.2719L110.285 57.501L113.347 59.2719L110.285 61.0355Z" fill="#42E8E0"/>
<path d="M116.416 64.5773L113.355 62.8064L116.416 61.0354L119.486 62.8064L116.416 64.5773Z" fill="#42E8E0"/>
<path opacity="0.1" d="M122.555 68.112L119.486 66.3484L122.555 64.5774L125.624 66.3484L122.555 68.112Z" fill="#42E8E0"/>
<path opacity="0.4" d="M128.693 71.654L125.624 69.883L128.693 68.1121L131.763 69.883L128.693 71.654Z" fill="#42E8E0"/>
<path d="M134.832 75.1884L131.762 73.4174L134.832 71.6538L137.901 73.4174L134.832 75.1884Z" fill="#42E8E0"/>
<path opacity="0.1" d="M140.97 78.7304L137.901 76.9594L140.97 75.1885L144.039 76.9594L140.97 78.7304Z" fill="#42E8E0"/>
<path d="M85.7096 53.9811L82.6404 52.2102L85.7096 50.4392L88.7789 52.2102L85.7096 53.9811Z" fill="#42E8E0"/>
<path opacity="0.4" d="M91.8481 57.5158L88.7789 55.7448L91.8481 53.9812L94.9173 55.7448L91.8481 57.5158Z" fill="#42E8E0"/>
<path d="M97.9865 61.0502L94.9173 59.2866L97.9865 57.5156L101.048 59.2866L97.9865 61.0502Z" fill="#42E8E0"/>
<path d="M104.118 64.5922L101.048 62.8212L104.118 61.0503L107.187 62.8212L104.118 64.5922Z" fill="#42E8E0"/>
<path d="M110.256 68.1269L107.187 66.3559L110.256 64.5923L113.325 66.3559L110.256 68.1269Z" fill="#42E8E0"/>
<path d="M116.394 71.6686L113.325 69.8977L116.394 68.1267L119.464 69.8977L116.394 71.6686Z" fill="#42E8E0"/>
<path d="M122.533 75.2033L119.464 73.4323L122.533 71.6687L125.602 73.4323L122.533 75.2033Z" fill="#42E8E0"/>
<path opacity="0.4" d="M128.671 78.7377L125.602 76.9741L128.671 75.2031L131.74 76.9741L128.671 78.7377Z" fill="#42E8E0"/>
<path d="M134.81 82.2797L131.74 80.5087L134.81 78.7378L137.871 80.5087L134.81 82.2797Z" fill="#42E8E0"/>
<path d="M79.5492 57.5304L76.4799 55.7595L79.5492 53.9885L82.6184 55.7595L79.5492 57.5304Z" fill="#42E8E0"/>
<path opacity="0.1" d="M85.6802 61.0651L82.6184 59.3015L85.6802 57.5305L88.7494 59.3015L85.6802 61.0651Z" fill="#42E8E0"/>
<path d="M91.8186 64.6069L88.7494 62.8359L91.8186 61.0649L94.8878 62.8359L91.8186 64.6069Z" fill="#42E8E0"/>
<path d="M97.957 68.1415L94.8878 66.3705L97.957 64.6069L101.026 66.3705L97.957 68.1415Z" fill="#42E8E0"/>
<path d="M104.095 71.6835L101.026 69.9126L104.095 68.1416L107.165 69.9126L104.095 71.6835Z" fill="#42E8E0"/>
<path d="M110.234 75.2179L107.165 73.447L110.234 71.6833L113.303 73.447L110.234 75.2179Z" fill="#42E8E0"/>
<path opacity="0.4" d="M116.372 78.7526L113.303 76.989L116.372 75.218L119.441 76.989L116.372 78.7526Z" fill="#42E8E0"/>
<path d="M122.511 82.2944L119.441 80.5234L122.503 78.7524L125.573 80.5234L122.511 82.2944Z" fill="#42E8E0"/>
<path d="M128.642 85.829L125.573 84.0654L128.642 82.2944L131.711 84.0654L128.642 85.829Z" fill="#42E8E0"/>
<path d="M371.117 398.304L302.159 359.056C301.283 358.557 300.738 357.763 300.532 356.903C300.436 356.514 299.877 348.313 300.871 347.732L391.585 300.277C393.366 299.226 395.575 299.204 397.378 300.225L468.338 334.483C469.456 335.123 468.89 343.853 468.691 344.367C468.419 345.08 467.903 345.712 467.167 346.153L379.066 398.245C376.622 399.686 373.597 399.715 371.131 398.311L371.117 398.304Z" fill="url(#paint83_linear_95_3217)"/>
<path d="M371.117 398.047L302.159 358.799C301.283 358.3 300.738 357.506 300.532 356.646C300.436 356.257 299.877 348.056 300.871 347.475L391.585 300.02C393.366 298.969 395.575 298.947 397.378 299.968L468.338 334.226C469.456 334.866 468.89 343.595 468.691 344.103C468.419 344.815 467.903 345.447 467.167 345.888L379.066 397.981C376.622 399.421 373.597 399.45 371.131 398.047H371.117Z" fill="url(#paint84_linear_95_3217)"/>
<path d="M371.117 390.397L302.159 351.149C299.884 349.856 299.862 346.593 302.107 345.263L391.578 292.362C393.359 291.312 395.567 291.29 397.37 292.311L467.101 331.992C469.508 333.366 469.537 336.82 467.153 338.231L379.051 390.324C376.607 391.764 373.582 391.793 371.117 390.39V390.397Z" fill="#A4D4ED"/>
<path d="M302.159 350.98L371.117 390.228C373.582 391.632 376.607 391.61 379.051 390.162L467.153 338.069C468.315 337.386 468.897 336.21 468.912 335.027C468.948 336.262 468.367 337.518 467.153 338.246L379.051 390.338C376.607 391.779 373.582 391.808 371.117 390.404L302.159 351.157C300.996 350.495 300.429 349.312 300.451 348.137C300.488 349.254 301.047 350.356 302.159 350.988V350.98Z" fill="white"/>
<path d="M383.349 357.565L383.997 357.947L410.03 342.941L426.613 352.538L427.26 352.186L410.037 342.199L383.364 357.565H383.349Z" fill="url(#paint85_linear_95_3217)"/>
<path d="M383.99 357.947L400.572 367.544L426.605 352.538L410.023 342.941L383.99 357.947Z" fill="url(#paint86_linear_95_3217)"/>
<path d="M390.673 304.135L394.735 301.783L399.181 304.392L395.118 306.743L390.673 304.135Z" fill="url(#paint87_linear_95_3217)"/>
<path d="M393.948 309.492L400.947 305.428L405.393 308.037L398.386 312.1L393.941 309.492H393.948Z" fill="url(#paint88_linear_95_3217)"/>
<path d="M384.799 307.537L388.862 305.185L393.308 307.794L389.245 310.145L384.799 307.537Z" fill="url(#paint89_linear_95_3217)"/>
<path d="M378.926 310.939L382.989 308.588L387.434 311.196L383.371 313.555L378.926 310.946V310.939Z" fill="url(#paint90_linear_95_3217)"/>
<path d="M373.06 314.341L377.122 311.99L381.568 314.599L377.505 316.95L373.06 314.341Z" fill="url(#paint91_linear_95_3217)"/>
<path d="M367.186 317.751L371.249 315.4L375.695 318.008L371.632 320.36L367.186 317.751Z" fill="url(#paint92_linear_95_3217)"/>
<path d="M361.313 321.153L365.376 318.802L369.821 321.411L365.758 323.762L361.313 321.153Z" fill="url(#paint93_linear_95_3217)"/>
<path d="M355.447 324.556L359.51 322.204L363.955 324.813L359.892 327.172L355.447 324.563V324.556Z" fill="url(#paint94_linear_95_3217)"/>
<path d="M349.573 327.958L353.636 325.606L358.082 328.215L354.019 330.567L349.573 327.958Z" fill="url(#paint95_linear_95_3217)"/>
<path d="M343.7 331.36L347.763 329.009L352.208 331.617L348.145 333.969L343.7 331.36Z" fill="url(#paint96_linear_95_3217)"/>
<path d="M337.834 334.77L341.897 332.418L346.342 335.027L342.279 337.379L337.834 334.77Z" fill="url(#paint97_linear_95_3217)"/>
<path d="M331.96 338.172L336.023 335.821L340.469 338.429L336.406 340.788L331.96 338.18V338.172Z" fill="url(#paint98_linear_95_3217)"/>
<path d="M326.094 341.575L330.157 339.223L334.603 341.832L330.54 344.183L326.094 341.575Z" fill="url(#paint99_linear_95_3217)"/>
<path d="M324.284 342.625L328.729 345.234L322.156 349.04L317.711 346.432L324.284 342.618V342.625Z" fill="url(#paint100_linear_95_3217)"/>
<path d="M388.509 312.644L392.572 310.292L397.017 312.901L392.954 315.253L388.509 312.644Z" fill="url(#paint101_linear_95_3217)"/>
<path d="M382.635 316.046L386.698 313.695L391.144 316.303L387.081 318.655L382.635 316.046Z" fill="url(#paint102_linear_95_3217)"/>
<path d="M376.762 319.456L380.825 317.104L385.27 319.713L381.207 322.065L376.762 319.456Z" fill="url(#paint103_linear_95_3217)"/>
<path d="M370.896 322.858L374.959 320.507L379.404 323.115L375.341 325.467L370.896 322.858Z" fill="url(#paint104_linear_95_3217)"/>
<path d="M365.03 326.261L369.092 323.909L373.538 326.518L369.475 328.869L365.03 326.261Z" fill="url(#paint105_linear_95_3217)"/>
<path d="M359.156 329.663L363.219 327.311L367.665 329.92L363.602 332.271L359.156 329.663Z" fill="url(#paint106_linear_95_3217)"/>
<path d="M353.283 333.072L357.346 330.721L361.791 333.33L357.728 335.681L353.283 333.072Z" fill="url(#paint107_linear_95_3217)"/>
<path d="M347.417 336.475L351.48 334.123L355.925 336.732L351.862 339.083L347.417 336.475Z" fill="url(#paint108_linear_95_3217)"/>
<path d="M341.543 339.877L345.606 337.526L350.052 340.134L345.989 342.486L341.543 339.877Z" fill="url(#paint109_linear_95_3217)"/>
<path d="M335.67 343.279L339.733 340.928L344.178 343.537L340.115 345.888L335.67 343.279Z" fill="url(#paint110_linear_95_3217)"/>
<path d="M329.804 346.682L333.867 344.33L338.312 346.939L334.249 349.29L329.804 346.682Z" fill="url(#paint111_linear_95_3217)"/>
<path d="M332.431 350.348L328.368 352.7L323.923 350.091L327.986 347.74L332.431 350.348Z" fill="url(#paint112_linear_95_3217)"/>
<path d="M424.051 319.008L417.052 323.064L412.606 320.455L419.606 316.399L424.051 319.008Z" fill="url(#paint113_linear_95_3217)"/>
<path d="M415.675 323.865L411.612 326.217L407.167 323.608L411.23 321.256L415.675 323.865Z" fill="url(#paint114_linear_95_3217)"/>
<path d="M409.802 327.267L405.739 329.626L401.293 327.017L405.356 324.666L409.802 327.275V327.267Z" fill="url(#paint115_linear_95_3217)"/>
<path d="M376.004 341.678L377.814 340.627L381.877 338.275L383.688 337.224L387.751 334.873L389.561 333.822L393.624 331.471L399.498 328.068L403.943 330.677L398.077 334.079L394.014 336.431L392.204 337.482L388.141 339.833L386.33 340.884L382.267 343.243L380.457 344.294L378.425 345.469L376.394 346.645L371.948 344.036L373.98 342.861L376.011 341.685L376.004 341.678Z" fill="url(#paint116_linear_95_3217)"/>
<path d="M374.576 347.696L370.513 350.047L366.067 347.439L370.13 345.087L374.576 347.696Z" fill="url(#paint117_linear_95_3217)"/>
<path d="M368.71 351.098L364.647 353.449L360.201 350.841L364.264 348.489L368.71 351.098Z" fill="url(#paint118_linear_95_3217)"/>
<path d="M362.836 354.5L358.773 356.859L354.328 354.25L358.391 351.899L362.836 354.508V354.5Z" fill="url(#paint119_linear_95_3217)"/>
<path d="M356.963 357.903L352.9 360.254L348.454 357.645L352.517 355.294L356.963 357.903Z" fill="url(#paint120_linear_95_3217)"/>
<path d="M351.097 361.305L347.034 363.656L342.588 361.048L346.651 358.696L351.097 361.305Z" fill="url(#paint121_linear_95_3217)"/>
<path d="M398.158 314.312L407.174 309.087L411.62 311.696L402.611 316.921L398.165 314.312H398.158Z" fill="url(#paint122_linear_95_3217)"/>
<path d="M392.719 317.465L396.782 315.113L401.227 317.722L397.164 320.073L392.719 317.465Z" fill="url(#paint123_linear_95_3217)"/>
<path d="M386.853 320.867L390.916 318.515L395.361 321.124L391.298 323.476L386.853 320.867Z" fill="url(#paint124_linear_95_3217)"/>
<path d="M380.979 324.277L385.042 321.925L389.488 324.534L385.425 326.885L380.979 324.277Z" fill="url(#paint125_linear_95_3217)"/>
<path d="M375.106 327.679L379.169 325.327L383.614 327.936L379.551 330.288L375.106 327.679Z" fill="url(#paint126_linear_95_3217)"/>
<path d="M369.24 331.081L373.303 328.729L377.748 331.338L373.685 333.69L369.24 331.081Z" fill="url(#paint127_linear_95_3217)"/>
<path d="M363.366 334.483L367.429 332.132L371.875 334.74L367.812 337.092L363.366 334.483Z" fill="url(#paint128_linear_95_3217)"/>
<path d="M357.493 337.893L361.556 335.542L366.001 338.15L361.938 340.502L357.493 337.893Z" fill="url(#paint129_linear_95_3217)"/>
<path d="M351.627 341.288L355.69 338.937L360.135 341.545L356.072 343.897L351.627 341.288Z" fill="url(#paint130_linear_95_3217)"/>
<path d="M345.753 344.698L349.816 342.346L354.262 344.955L350.199 347.306L345.753 344.698Z" fill="url(#paint131_linear_95_3217)"/>
<path d="M339.88 348.1L343.943 345.749L348.388 348.357L344.325 350.709L339.88 348.1Z" fill="url(#paint132_linear_95_3217)"/>
<path d="M342.515 351.759L334.595 356.352L330.15 353.743L338.077 349.151L342.522 351.759H342.515Z" fill="url(#paint133_linear_95_3217)"/>
<path d="M403.148 318.684L413.394 312.747L417.839 315.355L407.594 321.3L403.148 318.692V318.684Z" fill="url(#paint134_linear_95_3217)"/>
<path d="M397.709 321.837L401.772 319.485L406.217 322.094L402.155 324.446L397.709 321.837Z" fill="url(#paint135_linear_95_3217)"/>
<path d="M391.836 325.239L395.898 322.888L400.344 325.496L396.281 327.848L391.836 325.239Z" fill="url(#paint136_linear_95_3217)"/>
<path d="M385.962 328.642L390.025 326.29L394.47 328.899L390.408 331.25L385.962 328.642Z" fill="url(#paint137_linear_95_3217)"/>
<path d="M380.096 332.051L384.159 329.7L388.604 332.308L384.542 334.667L380.096 332.059V332.051Z" fill="url(#paint138_linear_95_3217)"/>
<path d="M374.223 335.446L378.285 333.094L382.731 335.703L378.668 338.055L374.223 335.446Z" fill="url(#paint139_linear_95_3217)"/>
<path d="M368.349 338.856L372.412 336.504L376.858 339.113L372.795 341.464L368.349 338.856Z" fill="url(#paint140_linear_95_3217)"/>
<path d="M362.483 342.258L366.546 339.906L370.991 342.515L366.929 344.867L362.483 342.258Z" fill="url(#paint141_linear_95_3217)"/>
<path d="M356.61 345.66L360.672 343.309L365.118 345.918L361.055 348.276L356.61 345.668V345.66Z" fill="url(#paint142_linear_95_3217)"/>
<path d="M350.736 349.063L354.799 346.711L359.245 349.32L355.182 351.671L350.736 349.063Z" fill="url(#paint143_linear_95_3217)"/>
<path d="M353.371 352.722L340.815 360.004L336.369 357.396L348.933 350.113L353.378 352.722H353.371Z" fill="url(#paint144_linear_95_3217)"/>
<path d="M384.129 290.239L299.965 345.888C298.795 346.586 291.906 342.184 291.604 341.913C290.876 341.237 290.404 340.267 290.404 339.135V249.397C290.404 246.031 292.178 242.908 295.078 241.188L381.583 189.867C382.731 189.184 384.012 189.133 385.108 189.537C385.417 189.654 392.535 192.241 392.535 193.725L387.824 283.728C387.824 286.396 386.418 288.865 384.122 290.224L384.129 290.239Z" fill="url(#paint145_linear_95_3217)"/>
<path d="M390.172 293.252L302.21 345.432C299.664 346.939 296.44 345.109 296.44 342.155V252.417C296.44 249.051 298.214 245.928 301.114 244.208L387.626 192.895C390.378 191.256 393.867 193.24 393.867 196.444V286.763C393.867 289.43 392.461 291.899 390.165 293.259L390.172 293.252Z" fill="url(#paint146_linear_95_3217)"/>
<path d="M300.267 338.657C300.451 338.657 300.635 338.606 300.812 338.503L388.774 286.322C390.231 285.455 391.136 283.868 391.136 282.178V196.429C391.136 195.57 390.408 195.033 389.738 195.033C389.502 195.033 389.267 195.099 389.039 195.232L302.534 246.545C300.473 247.765 299.2 250.014 299.2 252.402V337.57C299.2 337.878 299.303 338.128 299.516 338.334C299.723 338.532 300.002 338.65 300.282 338.65L300.267 338.657Z" fill="#052838"/>
<path opacity="0.51" d="M301.121 244.201L387.633 192.888C389.039 192.05 390.636 192.167 391.865 192.902C390.68 192.314 389.223 192.256 387.927 193.027L301.415 244.348C298.515 246.068 296.742 249.183 296.742 252.556V342.295C296.742 343.735 297.514 344.903 298.596 345.55C297.367 344.947 296.455 343.713 296.455 342.148V252.409C296.455 249.044 298.228 245.921 301.128 244.201H301.121Z" fill="url(#paint147_linear_95_3217)"/>
<path d="M311.882 339.664L313.788 340.774L319.86 337.276L317.954 336.166L311.882 339.664Z" fill="#302A2A"/>
<path d="M380.405 299.101L382.311 300.21L388.384 296.705L386.477 295.596L380.405 299.094V299.101Z" fill="#302A2A"/>
<path d="M311.882 339.502L313.788 340.612L319.86 337.107L317.954 335.997L311.882 339.502Z" fill="url(#paint148_linear_95_3217)"/>
<path d="M380.405 299.005L382.311 300.115L388.384 296.617L386.477 295.508L380.405 299.005Z" fill="url(#paint149_linear_95_3217)"/>
<path d="M338.997 234.332L337.444 235.266V233.994L338.997 233.061V234.332Z" fill="#CDD8D4"/>
<path d="M338.997 237.426L337.444 238.359V237.088L338.997 236.162V237.433V237.426Z" fill="#CDD8D4"/>
<path d="M338.997 240.52L337.444 241.446V240.174L338.997 239.249V240.52Z" fill="#CDD8D4"/>
<path d="M338.997 243.613L337.444 244.539V243.268L338.997 242.335V243.606V243.613Z" fill="#CDD8D4"/>
<path d="M338.997 246.707L337.444 247.633V246.362L338.997 245.428V246.7V246.707Z" fill="#CDD8D4"/>
<path d="M338.997 249.801L337.444 250.734V249.463L338.997 248.537V249.808V249.801Z" fill="#CDD8D4"/>
<path d="M338.997 252.894L337.444 253.82V252.549L338.997 251.616V252.887V252.894Z" fill="#CDD8D4"/>
<path d="M338.997 255.988L337.444 256.914V255.643L338.997 254.709V255.981V255.988Z" fill="#CDD8D4"/>
<path d="M338.997 259.082L337.444 260.007V258.736L338.997 257.803V259.074V259.082Z" fill="#CDD8D4"/>
<path d="M338.997 262.175L337.444 263.109V261.837L338.997 260.911V262.183V262.175Z" fill="#CDD8D4"/>
<path d="M338.997 265.269L337.444 266.202V264.931L338.997 264.005V265.276V265.269Z" fill="#CDD8D4"/>
<path d="M338.997 268.363L337.444 269.288V268.017L338.997 267.084V268.355V268.363Z" fill="#CDD8D4"/>
<path d="M338.997 271.456L337.444 272.39V271.118L338.997 270.185V271.456Z" fill="#CDD8D4"/>
<path d="M338.997 274.55L337.444 275.483V274.212L338.997 273.286V274.557V274.55Z" fill="#CDD8D4"/>
<path d="M338.997 277.644L337.444 278.577V277.306L338.997 276.38V277.651V277.644Z" fill="#CDD8D4"/>
<path d="M338.997 280.737L337.444 281.663V280.392L338.997 279.459V280.73V280.737Z" fill="#CDD8D4"/>
<path d="M338.997 283.831L337.444 284.757V283.486L338.997 282.552V283.824V283.831Z" fill="#CDD8D4"/>
<path d="M338.997 286.925L337.444 287.858V286.587L338.997 285.661V286.932V286.925Z" fill="#CDD8D4"/>
<path d="M338.997 290.018L337.444 290.952V289.68L338.997 288.754V290.026V290.018Z" fill="#CDD8D4"/>
<path d="M338.997 293.112L337.444 294.038V292.767L338.997 291.833V293.105V293.112Z" fill="#CDD8D4"/>
<path d="M338.997 296.206L337.444 297.132V295.86L338.997 294.927V296.198V296.206Z" fill="#CDD8D4"/>
<path d="M338.997 299.299L337.444 300.233V298.961L338.997 298.035V299.307V299.299Z" fill="#CDD8D4"/>
<path d="M338.997 302.393L337.444 303.326V302.055L338.997 301.129V302.4V302.393Z" fill="#CDD8D4"/>
<path d="M338.997 305.487L337.444 306.413V305.141L338.997 304.215V305.487Z" fill="#CDD8D4"/>
<path d="M338.997 308.58L337.444 309.506V308.235L338.997 307.302V308.573V308.58Z" fill="#CDD8D4"/>
<path d="M307.48 253.174L305.927 254.1V252.828L307.48 251.895V253.166V253.174Z" fill="#CDD8D4"/>
<path d="M314.288 249.103L308.834 252.365V251.094L314.288 247.839V249.11V249.103Z" fill="#998359"/>
<path d="M320.986 245.105L315.532 248.36V247.089L320.986 243.826V245.098V245.105Z" fill="#998359"/>
<path d="M327.677 241.107L322.223 244.363V243.092L327.677 239.829V241.1V241.107Z" fill="#998359"/>
<path d="M307.48 256.267L305.927 257.201V255.929L307.48 254.996V256.267Z" fill="#CDD8D4"/>
<path d="M307.48 259.361L305.927 260.294V259.023L307.48 258.09V259.361Z" fill="#CDD8D4"/>
<path d="M313.265 255.907L309.144 258.376V257.105L313.265 254.643V255.915V255.907Z" fill="#CDD8D4"/>
<path d="M318.02 253.064L313.898 255.525V254.254L318.02 251.792V253.064Z" fill="#CDD8D4"/>
<path d="M322.782 250.22L318.66 252.681V251.41L322.782 248.941V250.212V250.22Z" fill="#247489"/>
<path d="M307.48 262.455L305.927 263.388V262.117L307.48 261.191V262.462V262.455Z" fill="#CDD8D4"/>
<path d="M315.429 257.708L308.562 261.815V260.544L315.429 256.436V257.708Z" fill="#247489"/>
<path d="M323.157 253.085L316.298 257.186V255.915L323.157 251.807V253.078V253.085Z" fill="#CDD8D4"/>
<path d="M330.886 248.463L324.019 252.571V251.3L330.886 247.199V248.471V248.463Z" fill="#CDD8D4"/>
<path d="M307.48 265.548L305.927 266.474V265.203L307.48 264.277V265.548Z" fill="#CDD8D4"/>
<path d="M313.619 261.881L308.569 264.902V263.63L313.619 260.61V261.881Z" fill="#247489"/>
<path d="M307.48 268.642L305.927 269.568V268.297L307.48 267.363V268.635V268.642Z" fill="#CDD8D4"/>
<path d="M311.3 266.364L309.747 267.297V266.026L311.3 265.093V266.364Z" fill="#CDD8D4"/>
<path d="M307.48 271.736L305.927 272.669V271.398L307.48 270.472V271.743V271.736Z" fill="#CDD8D4"/>
<path d="M311.3 269.458L309.747 270.391V269.12L311.3 268.194V269.465V269.458Z" fill="#CDD8D4"/>
<path d="M307.48 274.829L305.927 275.763V274.491L307.48 273.565V274.837V274.829Z" fill="#CDD8D4"/>
<path d="M311.3 272.551L309.747 273.477V272.206L311.3 271.273V272.544V272.551Z" fill="#CDD8D4"/>
<path d="M318.02 262.345L311.815 266.055V264.784L318.02 261.073V262.345Z" fill="#247489"/>
<path d="M320.029 264.24L311.823 269.142V267.87L320.029 262.962V264.233V264.24Z" fill="#247489"/>
<path d="M320.994 266.753L311.815 272.235V270.964L320.994 265.482V266.753Z" fill="#247489"/>
<path d="M307.48 277.923L305.927 278.849V277.578L307.48 276.644V277.916V277.923Z" fill="#CDD8D4"/>
<path d="M313.376 274.403L311.823 275.336V274.065L313.376 273.139V274.41V274.403Z" fill="#247489"/>
<path d="M323.341 268.436L314.156 273.926V272.654L323.341 267.165V268.436Z" fill="#247489"/>
<path d="M307.48 281.017L305.927 281.943V280.671L307.48 279.738V281.009V281.017Z" fill="#CDD8D4"/>
<path d="M307.48 284.11L305.927 285.044V283.772L307.48 282.839V284.11Z" fill="#CDD8D4"/>
<path d="M307.48 287.204L305.927 288.137V286.866L307.48 285.94V287.211V287.204Z" fill="#CDD8D4"/>
<path d="M307.48 290.298L305.927 291.231V289.96L307.48 289.034V290.305V290.298Z" fill="#CDD8D4"/>
<path d="M307.48 293.391L305.927 294.317V293.046L307.48 292.113V293.384V293.391Z" fill="#CDD8D4"/>
<path d="M307.48 296.485L305.927 297.411V296.14L307.48 295.206V296.478V296.485Z" fill="#CDD8D4"/>
<path d="M307.48 299.579L305.927 300.512V299.241L307.48 298.315V299.586V299.579Z" fill="#CDD8D4"/>
<path d="M307.48 302.672L305.927 303.606V302.334L307.48 301.408V302.68V302.672Z" fill="#CDD8D4"/>
<path d="M320.449 273.264L314.318 276.931V275.66L320.449 271.993V273.264Z" fill="#247489"/>
<path d="M327.39 269.12L321.258 272.786V271.515L327.39 267.848V269.12Z" fill="#CDD8D4"/>
<path d="M334.33 264.968L328.199 268.635V267.363L334.33 263.697V264.968Z" fill="#CDD8D4"/>
<path d="M319.521 276.916L314.318 280.025V278.753L319.521 275.638V276.909V276.916Z" fill="#CDD8D4"/>
<path d="M325.424 273.389L320.221 276.505V275.233L325.424 272.125V273.396V273.389Z" fill="#247489"/>
<path d="M331.32 269.862L326.116 272.978V271.706L331.32 268.598V269.869V269.862Z" fill="#CDD8D4"/>
<path d="M320.567 279.385L314.318 283.118V281.847L320.567 278.114V279.385Z" fill="#924443"/>
<path d="M327.647 275.153L321.398 278.886V277.614L327.647 273.881V275.153Z" fill="#CDD8D4"/>
<path d="M319.521 283.104L314.318 286.219V284.948L319.521 281.84V283.111V283.104Z" fill="#CDD8D4"/>
<path d="M325.77 279.363L320.567 282.472V281.2L325.77 278.085V279.356V279.363Z" fill="#CDD8D4"/>
<path d="M319.521 286.197L314.318 289.306V288.034L319.521 284.919V286.19V286.197Z" fill="#247489"/>
<path d="M325.285 282.751L320.081 285.866V284.595L325.285 281.479V282.751Z" fill="#CDD8D4"/>
<path d="M331.04 279.312L325.837 282.42V281.149L331.04 278.033V279.304V279.312Z" fill="#CDD8D4"/>
<path d="M318.498 289.901L314.318 292.399V291.128L318.498 288.63V289.901Z" fill="#CDD8D4"/>
<path d="M323.231 287.072L319.05 289.57V288.299L323.231 285.8V287.072Z" fill="#247489"/>
<path d="M327.964 284.242L323.783 286.741V285.47L327.964 282.971V284.242Z" fill="#CDD8D4"/>
<path d="M332.696 281.413L328.516 283.912V282.641L332.696 280.142V281.413Z" fill="#CDD8D4"/>
<path d="M319.521 292.385L314.318 295.5V294.229L319.521 291.121V292.392V292.385Z" fill="#247489"/>
<path d="M325.285 288.938L320.081 292.054V290.783L325.285 287.667V288.938Z" fill="#CDD8D4"/>
<path d="M331.04 285.499L325.837 288.615V287.343L331.04 284.235V285.506V285.499Z" fill="#CDD8D4"/>
<path d="M319.521 295.478L314.318 298.587V297.315L319.521 294.2V295.471V295.478Z" fill="#247489"/>
<path d="M325.424 291.951L320.221 295.059V293.788L325.424 290.672V291.944V291.951Z" fill="#CDD8D4"/>
<path d="M307.48 305.766L305.927 306.692V305.421L307.48 304.487V305.759V305.766Z" fill="#CDD8D4"/>
<path d="M307.48 308.86L305.927 309.786V308.514L307.48 307.581V308.852V308.86Z" fill="#CDD8D4"/>
<path d="M307.48 311.953L305.927 312.887V311.615L307.48 310.689V311.961V311.953Z" fill="#CDD8D4"/>
<path d="M307.48 315.047L305.927 315.98V314.709L307.48 313.783V315.054V315.047Z" fill="#CDD8D4"/>
<path d="M307.48 318.141L305.927 319.067V317.795L307.48 316.862V318.133V318.141Z" fill="#CDD8D4"/>
<path d="M311.3 303.488L309.747 304.421V303.15L311.3 302.217V303.488Z" fill="#CDD8D4"/>
<path d="M311.3 306.582L309.747 307.515V306.244L311.3 305.318V306.589V306.582Z" fill="#CDD8D4"/>
<path d="M311.3 309.675L309.747 310.609V309.337L311.3 308.411V309.683V309.675Z" fill="#CDD8D4"/>
<path d="M311.3 312.769L309.747 313.695V312.423L311.3 311.49V312.761V312.769Z" fill="#CDD8D4"/>
<path d="M311.3 315.863L309.747 316.788V315.517L311.3 314.584V315.855V315.863Z" fill="#CDD8D4"/>
<path d="M319.691 298.469L312.139 302.988V301.717L319.691 297.205V298.476V298.469Z" fill="#247489"/>
<path d="M316.916 303.216L312.132 306.075V304.803L316.916 301.945V303.216Z" fill="#247489"/>
<path d="M318.587 305.318L312.139 309.176V307.904L318.587 304.046V305.318Z" fill="#247489"/>
<path d="M317.38 309.132L312.139 312.269V310.998L317.38 307.86V309.132Z" fill="#247489"/>
<path d="M315.576 313.305L312.132 315.363V314.092L315.576 312.034V313.305Z" fill="#247489"/>
<path d="M307.48 321.234L305.927 322.16V320.889L307.48 319.956V321.227V321.234Z" fill="#CDD8D4"/>
<path d="M307.48 324.328L305.927 325.261V323.99L307.48 323.064V324.335V324.328Z" fill="#CDD8D4"/>
<path d="M307.48 327.422L305.927 328.355V327.084L307.48 326.158V327.429V327.422Z" fill="#CDD8D4"/>
<path d="M309.74 319.882L308.187 320.808V319.537L309.74 318.604V319.875V319.882Z" fill="#CDD8D4"/>
<path d="M309.74 322.976L308.187 323.909V322.638L309.74 321.705V322.976Z" fill="#CDD8D4"/>
<path d="M309.74 326.07L308.187 327.003V325.732L309.74 324.806V326.077V326.07Z" fill="#CDD8D4"/>
<path d="M316.761 315.686L310.881 319.206V317.935L316.761 314.415V315.686Z" fill="#247489"/>
<path d="M314.907 319.889L310.881 322.3V321.028L314.907 318.618V319.889Z" fill="#247489"/>
<path d="M313.817 323.637L310.873 325.401V324.13L313.817 322.373V323.645V323.637Z" fill="#247489"/>
<path d="M345.974 230.166L341.816 232.657V231.386L345.974 228.895V230.166Z" fill="#9A7B9B"/>
<path d="M353.268 225.808L346.475 229.872V228.601L353.268 224.537V225.808Z" fill="#247489"/>
<path d="M350.464 230.57L341.816 235.743V234.472L350.464 229.299V230.57Z" fill="#924443"/>
<path d="M360.798 224.397L352.142 229.571V228.299L360.798 223.126V224.397Z" fill="#998359"/>
<path d="M371.131 218.217L362.476 223.391V222.119L371.131 216.946V218.217Z" fill="url(#paint150_linear_95_3217)"/>
<path d="M381.465 212.045L372.809 217.218V215.947L381.465 210.773V212.045Z" fill="url(#paint151_linear_95_3217)"/>
<path d="M345.753 236.485L341.816 238.844V237.573L345.753 235.214V236.485Z" fill="#9A7B9B"/>
<path d="M356.47 230.078L346.806 235.853V234.582L356.47 228.806V230.078Z" fill="#924443"/>
<path d="M367.311 223.596L357.647 229.372V228.101L367.311 222.325V223.596Z" fill="#CDD8D4"/>
<path d="M354.674 234.244L345.363 239.814V238.543L354.674 232.98V234.252V234.244Z" fill="#247489"/>
<path d="M364.956 228.101L355.645 233.664V232.392L364.956 226.822V228.094V228.101Z" fill="#998359"/>
<path d="M375.231 221.958L365.92 227.521V226.249L375.231 220.679V221.95V221.958Z" fill="#CDD8D4"/>
<path d="M385.513 215.807L376.202 221.37V220.099L385.513 214.536V215.807Z" fill="#247489"/>
<path d="M348.764 240.872L343.516 244.01V242.739L348.764 239.601V240.872Z" fill="#9A7B9B"/>
<path d="M350.78 242.761L344.811 246.325V245.054L350.78 241.49V242.761Z" fill="#247489"/>
<path d="M357.853 238.528L351.884 242.1V240.828L357.853 237.257V238.528Z" fill="#247489"/>
<path d="M347.38 247.89L343.619 250.139V248.868L347.38 246.619V247.89Z" fill="#9A7B9B"/>
<path d="M345.039 252.38L341.816 254.313V253.041L345.039 251.109V252.38Z" fill="#9A7B9B"/>
<path d="M346.556 257.663L341.816 260.5V259.229L346.556 256.392V257.663Z" fill="#9A7B9B"/>
<path d="M352.135 254.327L347.395 257.156V255.885L352.135 253.049V254.32V254.327Z" fill="#247489"/>
<path d="M350.721 258.266L343.405 262.638V261.367L350.721 256.995V258.266Z" fill="#924443"/>
<path d="M358.796 253.438L351.48 257.811V256.539L358.796 252.167V253.438Z" fill="#998359"/>
<path d="M366.87 248.61L359.554 252.983V251.711L366.87 247.339V248.61Z" fill="#CDD8D4"/>
<path d="M374.944 243.783L367.628 248.155V246.884L374.944 242.511V243.783Z" fill="#247489"/>
<path d="M383.018 238.955L375.702 243.327V242.056L383.018 237.683V238.955Z" fill="#CDD8D4"/>
<path d="M346.077 264.13L341.816 266.68V265.409L346.077 262.859V264.13Z" fill="#9A7B9B"/>
<path d="M345.451 270.7L341.816 272.867V271.596L345.451 269.421V270.692V270.7Z" fill="#9A7B9B"/>
<path d="M352.392 266.54L346.077 270.317V269.046L352.392 265.269V266.54Z" fill="#247489"/>
<path d="M351.48 270.185L343.405 275.013V273.742L351.48 268.914V270.185Z" fill="#924443"/>
<path d="M360.466 264.813L352.392 269.641V268.37L360.466 263.542V264.813Z" fill="#998359"/>
<path d="M369.46 259.434L361.386 264.262V262.991L369.46 258.163V259.434Z" fill="#CDD8D4"/>
<path d="M378.447 254.063L370.373 258.891V257.619L378.447 252.792V254.063Z" fill="#CDD8D4"/>
<path d="M387.434 248.691L379.36 253.519V252.248L387.434 247.42V248.691Z" fill="#247489"/>
<path d="M345.312 276.968L343.759 277.901V276.63L345.312 275.704V276.975V276.968Z" fill="#9A7B9B"/>
<path d="M352.915 272.419L346.408 276.306V275.035L352.915 271.148V272.419Z" fill="#924443"/>
<path d="M360.739 267.745L354.232 271.633V270.361L360.739 266.474V267.745Z" fill="#247489"/>
<path d="M368.555 263.064L362.049 266.952V265.68L368.555 261.793V263.064Z" fill="#CDD8D4"/>
<path d="M376.379 258.391L369.873 262.278V261.007L376.379 257.12V258.391Z" fill="#CDD8D4"/>
<path d="M354.821 274.374L345.628 279.87V278.599L354.821 273.11V274.381V274.374Z" fill="#247489"/>
<path d="M365.059 268.252L355.874 273.749V272.478L365.059 266.989V268.26V268.252Z" fill="#998359"/>
<path d="M375.312 262.124L366.119 267.613V266.342L375.312 260.845V262.116V262.124Z" fill="#CDD8D4"/>
<path d="M385.557 256.003L376.364 261.499V260.228L385.557 254.731V256.003Z" fill="#924443"/>
<path d="M347.159 282.045L343.751 284.081V282.81L347.159 280.774V282.045Z" fill="#9A7B9B"/>
<path d="M350.92 282.89L345.297 286.249V284.977L350.92 281.619V282.89Z" fill="#247489"/>
<path d="M357.382 279.025L351.767 282.383V281.112L357.382 277.754V279.025Z" fill="#998359"/>
<path d="M346.651 288.541L343.751 290.276V289.004L346.651 287.27V288.541Z" fill="#9A7B9B"/>
<path d="M344.922 292.664L341.816 294.523V293.252L344.922 291.393V292.664Z" fill="#9A7B9B"/>
<path d="M348.293 296.838L341.816 300.71V299.439L348.293 295.566V296.838Z" fill="#998359"/>
<path d="M355.631 292.451L349.154 296.323V295.052L355.631 291.179V292.451Z" fill="#247489"/>
<path d="M343.369 302.871L341.816 303.804V302.533L343.369 301.599V302.871Z" fill="#9A7B9B"/>
<path d="M347.785 303.334L341.816 306.905V305.634L347.785 302.062V303.334Z" fill="#9A7B9B"/>
<path d="M355.38 298.785L349.411 302.356V301.085L355.38 297.514V298.785Z" fill="#247489"/>
<path d="M362.976 294.251L357.007 297.815V296.544L362.976 292.972V294.244V294.251Z" fill="#998359"/>
<path d="M370.572 289.702L364.603 293.274V292.002L370.572 288.438V289.71V289.702Z" fill="#924443"/>
<path d="M237.124 329.692V362.04C237.124 362.98 235.718 363.745 233.988 363.745C232.259 363.745 230.853 362.98 230.853 362.04V329.692H237.131H237.124Z" fill="url(#paint152_linear_95_3217)"/>
<path d="M230.846 329.692C230.846 330.633 232.251 331.397 233.981 331.397C235.711 331.397 237.117 330.633 237.117 329.692C237.117 328.752 235.711 327.987 233.981 327.987C232.251 327.987 230.846 328.752 230.846 329.692Z" fill="white"/>
<path d="M236.219 294.655V329.413C236.219 330.082 235.218 330.625 233.988 330.625C232.759 330.625 231.758 330.082 231.758 329.413V294.655H236.219Z" fill="url(#paint153_linear_95_3217)"/>
<path d="M231.751 294.655C231.751 295.324 232.752 295.868 233.981 295.868C235.21 295.868 236.211 295.324 236.211 294.655C236.211 293.986 235.21 293.443 233.981 293.443C232.752 293.443 231.751 293.986 231.751 294.655Z" fill="white"/>
<path d="M223.441 337.577V369.924C223.441 370.865 222.035 371.629 220.306 371.629C218.576 371.629 217.17 370.865 217.17 369.924V337.577H223.449H223.441Z" fill="url(#paint154_linear_95_3217)"/>
<path d="M220.306 339.282C222.037 339.282 223.441 338.518 223.441 337.577C223.441 336.635 222.037 335.872 220.306 335.872C218.574 335.872 217.17 336.635 217.17 337.577C217.17 338.518 218.574 339.282 220.306 339.282Z" fill="white"/>
<path d="M222.536 302.547V337.305C222.536 337.974 221.535 338.517 220.306 338.517C219.077 338.517 218.076 337.974 218.076 337.305V302.547H222.536Z" fill="url(#paint155_linear_95_3217)"/>
<path d="M218.076 302.547C218.076 303.216 219.077 303.76 220.306 303.76C221.535 303.76 222.536 303.216 222.536 302.547C222.536 301.878 221.535 301.335 220.306 301.335C219.077 301.335 218.076 301.878 218.076 302.547Z" fill="white"/>
<path d="M175.681 365.067V397.415C175.681 398.355 174.275 399.12 172.545 399.12C170.816 399.12 169.41 398.355 169.41 397.415V365.067H175.688H175.681Z" fill="url(#paint156_linear_95_3217)"/>
<path d="M169.403 365.067C169.403 366.008 170.808 366.772 172.538 366.772C174.268 366.772 175.674 366.008 175.674 365.067C175.674 364.127 174.268 363.362 172.538 363.362C170.808 363.362 169.403 364.127 169.403 365.067Z" fill="white"/>
<path d="M174.776 330.03V364.788C174.776 365.457 173.775 366 172.545 366C171.316 366 170.315 365.457 170.315 364.788V330.03H174.776Z" fill="url(#paint157_linear_95_3217)"/>
<path d="M170.315 330.03C170.315 330.699 171.316 331.243 172.545 331.243C173.775 331.243 174.776 330.699 174.776 330.03C174.776 329.361 173.775 328.818 172.545 328.818C171.316 328.818 170.315 329.361 170.315 330.03Z" fill="white"/>
<path d="M300.444 377.758L249.945 348.497C247.804 347.255 245.169 347.255 243.027 348.489L163.478 394.431C161.454 395.6 161.446 398.517 163.478 399.693L212.85 428.307C215.389 429.784 218.532 429.784 221.079 428.315L300.444 382.475C302.262 381.425 302.262 378.809 300.444 377.758Z" fill="url(#paint158_linear_95_3217)"/>
<path d="M300.444 382.475L221.079 428.315C218.532 429.784 215.397 429.777 212.85 428.307L163.478 399.693C162.469 399.112 161.969 398.091 161.961 397.077V414C161.961 414 161.961 414.022 161.961 414.029V414.081C161.984 415.08 162.477 416.08 163.47 416.653L212.843 445.267C215.382 446.744 218.525 446.744 221.071 445.275L300.436 399.436C301.349 398.906 301.805 397.981 301.798 397.062V380.139C301.798 381.05 301.342 381.968 300.436 382.49L300.444 382.475Z" fill="url(#paint159_linear_95_3217)"/>
<path d="M300.444 382.475L221.079 428.315C219.916 428.983 218.62 429.336 217.318 429.388V446.34C218.62 446.289 219.908 445.936 221.079 445.267L300.444 399.428C301.356 398.899 301.813 397.973 301.805 397.055V380.131C301.805 381.043 301.349 381.961 300.444 382.483V382.475Z" fill="url(#paint160_linear_95_3217)"/>
<path d="M254.104 383.886L237.742 374.4C237.05 373.995 236.197 373.995 235.497 374.4L209.722 389.287C209.067 389.669 209.067 390.61 209.722 390.992L225.723 400.266C226.547 400.743 227.563 400.743 228.387 400.266L254.104 385.415C254.693 385.077 254.693 384.224 254.104 383.886Z" fill="white"/>
<path d="M209.737 391.007L235.497 376.126C236.189 375.73 237.05 375.73 237.742 376.126L253.935 385.51L254.104 385.415C254.693 385.077 254.693 384.224 254.104 383.886L237.742 374.4C237.05 373.995 236.197 373.995 235.497 374.4L209.722 389.287C209.067 389.669 209.067 390.61 209.722 390.992L209.744 391.007H209.737Z" fill="#A7BCCE"/>
<path d="M225.554 432.599L233.429 428.05V425.897L225.554 430.431V432.599Z" fill="#683400"/>
<path d="M234.489 427.44L242.364 422.891V420.731L234.489 425.272V427.44Z" fill="#683400"/>
<path d="M243.424 422.274L251.3 417.726V415.573L243.424 420.114V422.274Z" fill="#683400"/>
<path d="M252.36 417.116L260.235 412.567V410.406L252.36 414.948V417.116Z" fill="#683400"/>
<path d="M261.295 411.957L269.17 407.408V405.248L261.295 409.789V411.957Z" fill="#683400"/>
<path d="M270.23 406.791L278.106 402.242V400.089L270.23 404.631V406.791Z" fill="#683400"/>
<path d="M279.165 401.633L287.041 397.084V394.924L279.165 399.465V401.633Z" fill="#683400"/>
<path d="M288.101 394.306V396.474L295.976 391.918V389.765L288.101 394.306Z" fill="#683400"/>
<path d="M225.554 437.162L295.976 396.474V394.321L225.554 435.002V437.162Z" fill="white"/>
<path d="M165.87 415.881L167.334 416.741V403.955L165.87 403.11V415.881Z" fill="white"/>
<path d="M168.475 417.409L169.94 418.262V405.476L168.475 404.631V417.409Z" fill="white"/>
<path d="M171.081 418.938L172.545 419.79V407.004L171.081 406.159V418.938Z" fill="white"/>
<path d="M173.686 420.459L175.151 421.319V408.533L173.686 407.688V420.459Z" fill="white"/>
<path d="M176.292 421.988L177.749 422.84L177.756 410.054L176.292 409.216V421.988Z" fill="white"/>
<path d="M178.897 423.516L180.355 424.369V411.582L178.897 410.737V423.516Z" fill="white"/>
<path d="M181.495 425.037L182.96 425.897V413.111L181.495 412.266V425.037Z" fill="white"/>
<path d="M184.101 426.566L185.566 427.425V414.639L184.101 413.794V426.566Z" fill="white"/>
<path d="M186.706 428.094L188.171 428.946V416.16L186.706 415.315V428.094Z" fill="white"/>
<path d="M189.312 429.615L190.777 430.475V417.689L189.312 416.844V429.615Z" fill="white"/>
<path d="M191.917 431.144L193.382 432.004V419.217L191.917 418.372V431.144Z" fill="white"/>
<path d="M194.523 419.893V432.672L195.98 433.525V420.738L194.523 419.893Z" fill="white"/>
<path d="M224.869 384.107C221.69 385.937 219.548 388.464 219.371 391.389C219.364 391.565 219.599 391.712 219.908 391.712C221.108 391.712 222.293 391.712 223.485 391.712C223.633 391.712 223.765 391.676 223.868 391.624C223.956 391.573 224.015 391.499 224.023 391.418C224.199 389.295 225.76 387.414 228.159 386.025C230.603 384.614 233.915 383.725 237.521 383.637C237.661 383.637 237.786 383.6 237.875 383.548C237.97 383.49 238.029 383.416 238.037 383.328C238.037 382.645 238.037 381.954 238.037 381.263C238.037 381.094 237.794 380.947 237.499 380.954C232.862 380.984 228.277 382.152 224.877 384.107H224.869Z" fill="url(#paint161_linear_95_3217)"/>
<path d="M229.808 386.98C227.872 388.097 226.547 389.626 226.393 391.389C226.378 391.566 226.621 391.712 226.93 391.712C228.122 391.712 229.315 391.712 230.522 391.712C230.669 391.712 230.801 391.676 230.905 391.617C230.993 391.566 231.044 391.499 231.059 391.426C231.206 390.456 231.869 389.596 233.105 388.883C234.349 388.163 235.836 387.781 237.499 387.7C237.624 387.7 237.742 387.664 237.823 387.612C237.919 387.553 237.978 387.48 237.985 387.392C237.985 386.694 238 386.003 238.007 385.319C238.007 385.143 237.757 385.003 237.455 385.011C234.673 385.055 231.891 385.782 229.815 386.973L229.808 386.98Z" fill="url(#paint162_linear_95_3217)"/>
<path d="M234.732 389.831C233.407 390.595 233.4 391.837 234.717 392.602C236.035 393.366 238.176 393.366 239.501 392.602C240.826 391.837 240.833 390.603 239.516 389.839C238.198 389.074 236.057 389.074 234.732 389.839V389.831Z" fill="url(#paint163_linear_95_3217)"/>
<path d="M160.909 495.626L196.827 475.021C198.402 474.117 199.189 472.919 199.226 471.648L199.256 465.476L198.1 467.46C197.548 466.813 196.797 466.196 195.848 465.645L123.526 423.751C119.427 421.378 113.222 421.106 109.667 423.149L73.7493 443.754C73.3666 443.974 73.0354 444.209 72.7483 444.459L71.372 442.696L71.3425 448.501C71.291 450.095 72.4392 451.8 74.7208 453.123L147.042 495.016C151.142 497.39 157.347 497.661 160.902 495.619L160.909 495.626Z" fill="url(#paint164_linear_95_3217)"/>
<path d="M73.7786 439.176L109.696 418.571C113.251 416.528 119.456 416.8 123.556 419.173L195.877 461.066C199.977 463.44 200.411 467.019 196.856 469.061L160.938 489.666C157.383 491.709 151.179 491.437 147.079 489.064L74.7575 447.171C70.6579 444.797 70.2236 441.218 73.7786 439.176Z" fill="#D4ECFF"/>
<path d="M196.856 469.061L160.938 489.666C157.383 491.709 151.179 491.437 147.079 489.064L74.7577 447.171C72.7704 446.024 71.6517 444.591 71.4235 443.188C71.1364 444.9 72.2699 446.788 74.7577 448.229L147.079 490.122C151.179 492.495 157.383 492.767 160.938 490.724L196.856 470.12C198.689 469.069 199.454 467.606 199.211 466.115C199.027 467.224 198.255 468.26 196.856 469.061Z" fill="white"/>
<path d="M76.0457 440.006L111.117 419.886C113.885 418.299 118.705 418.512 121.892 420.357L193.816 462.014C197.003 463.859 197.342 466.644 194.575 468.231L159.503 488.351C156.736 489.938 151.915 489.725 148.728 487.881L76.8038 446.223C73.6168 444.378 73.2783 441.593 76.0457 440.006Z" fill="white"/>
<path d="M132.55 447.325L119.567 439.844C119.088 439.565 119.147 439.08 119.699 438.764C120.258 438.441 121.098 438.411 121.576 438.683L134.559 446.164C135.038 446.443 134.979 446.928 134.427 447.244C133.867 447.567 133.028 447.597 132.55 447.325Z" fill="#B2D3EA"/>
<path d="M120.244 444.79L115.614 442.122C115.136 441.843 115.195 441.358 115.747 441.042C116.306 440.719 117.145 440.689 117.624 440.961L122.253 443.629C122.731 443.908 122.673 444.393 122.121 444.709C121.561 445.032 120.722 445.062 120.244 444.79Z" fill="#B2D3EA"/>
<path d="M128.016 449.272L123.387 446.605C122.908 446.326 122.967 445.841 123.519 445.525C124.078 445.201 124.917 445.172 125.396 445.444L130.025 448.111C130.504 448.39 130.445 448.875 129.893 449.191C129.334 449.515 128.495 449.544 128.016 449.272Z" fill="#396CAA"/>
<path d="M143.738 458.333L131.159 451.087C130.681 450.808 130.739 450.323 131.291 450.007C131.851 449.684 132.69 449.655 133.168 449.926L145.747 457.172C146.225 457.451 146.166 457.936 145.614 458.252C145.055 458.575 144.216 458.605 143.738 458.333Z" fill="#B2D3EA"/>
<path d="M127.884 453.747L111.662 444.4C111.183 444.121 111.242 443.636 111.794 443.32C112.354 442.997 113.193 442.967 113.671 443.239L129.893 452.586C130.371 452.866 130.313 453.351 129.76 453.666C129.201 453.99 128.362 454.019 127.884 453.747Z" fill="#B2D3EA"/>
<path d="M147.388 469.554L107.702 446.678C107.224 446.399 107.282 445.914 107.834 445.598C108.394 445.275 109.233 445.245 109.711 445.517L149.398 468.393C149.876 468.672 149.817 469.157 149.265 469.473C148.706 469.796 147.867 469.826 147.388 469.554Z" fill="#396CAA"/>
<path d="M158.973 462.551L136.134 449.39C135.656 449.11 135.715 448.625 136.267 448.31C136.826 447.986 137.665 447.957 138.144 448.229L160.983 461.39C161.461 461.669 161.402 462.154 160.85 462.47C160.291 462.793 159.452 462.823 158.973 462.551Z" fill="#B2D3EA"/>
</g>
<defs>
<linearGradient id="paint0_linear_95_3217" x1="177.065" y1="306.64" x2="177.065" y2="103.039" gradientUnits="userSpaceOnUse">
<stop stop-color="#CBCBD6"/>
<stop offset="1" stop-color="#F9FAF9"/>
</linearGradient>
<linearGradient id="paint1_linear_95_3217" x1="32.1052" y1="232.084" x2="128.745" y2="232.084" gradientUnits="userSpaceOnUse">
<stop stop-color="#C2C3CF"/>
<stop offset="1" stop-color="#D7D7DF"/>
</linearGradient>
<linearGradient id="paint2_linear_95_3217" x1="143.237" y1="171.305" x2="210.885" y2="171.305" gradientUnits="userSpaceOnUse">
<stop stop-color="#1D7EFF"/>
<stop offset="1" stop-color="#1753FF"/>
</linearGradient>
<linearGradient id="paint3_linear_95_3217" x1="2.81354e-05" y1="195.202" x2="0.736049" y2="195.202" gradientUnits="userSpaceOnUse">
<stop stop-color="#1D7EFF"/>
<stop offset="1" stop-color="#1753FF"/>
</linearGradient>
<linearGradient id="paint4_linear_95_3217" x1="2.81354e-05" y1="219.099" x2="0.736049" y2="219.099" gradientUnits="userSpaceOnUse">
<stop stop-color="#1D7EFF"/>
<stop offset="1" stop-color="#1753FF"/>
</linearGradient>
<linearGradient id="paint5_linear_95_3217" x1="2.81354e-05" y1="242.996" x2="0.736049" y2="242.996" gradientUnits="userSpaceOnUse">
<stop stop-color="#1D7EFF"/>
<stop offset="1" stop-color="#1753FF"/>
</linearGradient>
<linearGradient id="paint6_linear_95_3217" x1="2.81354e-05" y1="266.886" x2="0.736049" y2="266.886" gradientUnits="userSpaceOnUse">
<stop stop-color="#1D7EFF"/>
<stop offset="1" stop-color="#1753FF"/>
</linearGradient>
<linearGradient id="paint7_linear_95_3217" x1="32.1052" y1="187.332" x2="128.745" y2="187.332" gradientUnits="userSpaceOnUse">
<stop stop-color="#66D2FE"/>
<stop offset="0.34" stop-color="#51A7DD"/>
<stop offset="0.78" stop-color="#3973B7"/>
<stop offset="1" stop-color="#3060A8"/>
</linearGradient>
<linearGradient id="paint8_linear_95_3217" x1="38.6558" y1="231.679" x2="122.202" y2="231.679" gradientUnits="userSpaceOnUse">
<stop stop-color="white"/>
<stop offset="0.99" stop-color="#C2C4C6"/>
</linearGradient>
<linearGradient id="paint9_linear_95_3217" x1="48.6584" y1="181.997" x2="60.6849" y2="181.997" gradientUnits="userSpaceOnUse">
<stop stop-color="#1D7EFF"/>
<stop offset="1" stop-color="#1753FF"/>
</linearGradient>
<linearGradient id="paint10_linear_95_3217" x1="62.6133" y1="188.456" x2="69.1713" y2="188.456" gradientUnits="userSpaceOnUse">
<stop stop-color="#1D7EFF"/>
<stop offset="1" stop-color="#1753FF"/>
</linearGradient>
<linearGradient id="paint11_linear_95_3217" x1="79.3651" y1="197.583" x2="84.1051" y2="197.583" gradientUnits="userSpaceOnUse">
<stop stop-color="#1D7EFF"/>
<stop offset="1" stop-color="#1753FF"/>
</linearGradient>
<linearGradient id="paint12_linear_95_3217" x1="75.9059" y1="194.688" x2="77.5325" y2="194.688" gradientUnits="userSpaceOnUse">
<stop stop-color="#1D7EFF"/>
<stop offset="1" stop-color="#1753FF"/>
</linearGradient>
<linearGradient id="paint13_linear_95_3217" x1="71.1291" y1="192.314" x2="74.0732" y2="192.314" gradientUnits="userSpaceOnUse">
<stop stop-color="#1D7EFF"/>
<stop offset="1" stop-color="#1753FF"/>
</linearGradient>
<linearGradient id="paint14_linear_95_3217" x1="59.7723" y1="195.827" x2="64.5196" y2="195.827" gradientUnits="userSpaceOnUse">
<stop stop-color="#1D7EFF"/>
<stop offset="1" stop-color="#1753FF"/>
</linearGradient>
<linearGradient id="paint15_linear_95_3217" x1="48.651" y1="190.727" x2="57.9396" y2="190.727" gradientUnits="userSpaceOnUse">
<stop stop-color="#1D7EFF"/>
<stop offset="1" stop-color="#1753FF"/>
</linearGradient>
<linearGradient id="paint16_linear_95_3217" x1="65.9696" y1="224.493" x2="75.2581" y2="224.493" gradientUnits="userSpaceOnUse">
<stop stop-color="#1D7EFF"/>
<stop offset="1" stop-color="#1753FF"/>
</linearGradient>
<linearGradient id="paint17_linear_95_3217" x1="61.1854" y1="219.908" x2="64.1295" y2="219.908" gradientUnits="userSpaceOnUse">
<stop stop-color="#1D7EFF"/>
<stop offset="1" stop-color="#1753FF"/>
</linearGradient>
<linearGradient id="paint18_linear_95_3217" x1="65.918" y1="214.962" x2="75.214" y2="214.962" gradientUnits="userSpaceOnUse">
<stop stop-color="#1D7EFF"/>
<stop offset="1" stop-color="#1753FF"/>
</linearGradient>
<linearGradient id="paint19_linear_95_3217" x1="61.1413" y1="210.377" x2="64.0854" y2="210.377" gradientUnits="userSpaceOnUse">
<stop stop-color="#1D7EFF"/>
<stop offset="1" stop-color="#1753FF"/>
</linearGradient>
<linearGradient id="paint20_linear_95_3217" x1="48.5259" y1="259.986" x2="66.0211" y2="259.986" gradientUnits="userSpaceOnUse">
<stop stop-color="#1D7EFF"/>
<stop offset="1" stop-color="#1753FF"/>
</linearGradient>
<linearGradient id="paint21_linear_95_3217" x1="67.8611" y1="267.341" x2="72.1889" y2="267.341" gradientUnits="userSpaceOnUse">
<stop stop-color="#1D7EFF"/>
<stop offset="1" stop-color="#1753FF"/>
</linearGradient>
<linearGradient id="paint22_linear_95_3217" x1="83.0305" y1="265.563" x2="100.533" y2="265.563" gradientUnits="userSpaceOnUse">
<stop stop-color="#1D7EFF"/>
<stop offset="1" stop-color="#1753FF"/>
</linearGradient>
<linearGradient id="paint23_linear_95_3217" x1="102.373" y1="272.911" x2="106.701" y2="272.911" gradientUnits="userSpaceOnUse">
<stop stop-color="#1D7EFF"/>
<stop offset="1" stop-color="#1753FF"/>
</linearGradient>
<linearGradient id="paint24_linear_95_3217" x1="48.5259" y1="251.55" x2="53.2732" y2="251.55" gradientUnits="userSpaceOnUse">
<stop stop-color="#1D7EFF"/>
<stop offset="1" stop-color="#1753FF"/>
</linearGradient>
<linearGradient id="paint25_linear_95_3217" x1="75.766" y1="257.722" x2="80.5133" y2="257.722" gradientUnits="userSpaceOnUse">
<stop stop-color="#1D7EFF"/>
<stop offset="1" stop-color="#1753FF"/>
</linearGradient>
<linearGradient id="paint26_linear_95_3217" x1="55.1059" y1="256.657" x2="64.3945" y2="256.657" gradientUnits="userSpaceOnUse">
<stop stop-color="#1D7EFF"/>
<stop offset="1" stop-color="#1753FF"/>
</linearGradient>
<linearGradient id="paint27_linear_95_3217" x1="66.2345" y1="261.242" x2="69.1786" y2="261.242" gradientUnits="userSpaceOnUse">
<stop stop-color="#1D7EFF"/>
<stop offset="1" stop-color="#1753FF"/>
</linearGradient>
<linearGradient id="paint28_linear_95_3217" x1="71.0923" y1="265.864" x2="80.3882" y2="265.864" gradientUnits="userSpaceOnUse">
<stop stop-color="#1D7EFF"/>
<stop offset="1" stop-color="#1753FF"/>
</linearGradient>
<linearGradient id="paint29_linear_95_3217" x1="82.2209" y1="270.45" x2="85.165" y2="270.45" gradientUnits="userSpaceOnUse">
<stop stop-color="#1D7EFF"/>
<stop offset="1" stop-color="#1753FF"/>
</linearGradient>
<linearGradient id="paint30_linear_95_3217" x1="75.766" y1="262.484" x2="80.506" y2="262.484" gradientUnits="userSpaceOnUse">
<stop stop-color="#1D7EFF"/>
<stop offset="1" stop-color="#1753FF"/>
</linearGradient>
<linearGradient id="paint31_linear_95_3217" x1="82.346" y1="267.584" x2="91.6346" y2="267.584" gradientUnits="userSpaceOnUse">
<stop stop-color="#1D7EFF"/>
<stop offset="1" stop-color="#1753FF"/>
</linearGradient>
<linearGradient id="paint32_linear_95_3217" x1="93.4673" y1="272.169" x2="96.4114" y2="272.169" gradientUnits="userSpaceOnUse">
<stop stop-color="#1D7EFF"/>
<stop offset="1" stop-color="#1753FF"/>
</linearGradient>
<linearGradient id="paint33_linear_95_3217" x1="48.5332" y1="248.221" x2="58.234" y2="248.221" gradientUnits="userSpaceOnUse">
<stop stop-color="#1D7EFF"/>
<stop offset="1" stop-color="#1753FF"/>
</linearGradient>
<linearGradient id="paint34_linear_95_3217" x1="60.0667" y1="254.099" x2="67.0883" y2="254.099" gradientUnits="userSpaceOnUse">
<stop stop-color="#1D7EFF"/>
<stop offset="1" stop-color="#1753FF"/>
</linearGradient>
<linearGradient id="paint35_linear_95_3217" x1="68.921" y1="258.545" x2="73.6683" y2="258.545" gradientUnits="userSpaceOnUse">
<stop stop-color="#1D7EFF"/>
<stop offset="1" stop-color="#1753FF"/>
</linearGradient>
<linearGradient id="paint36_linear_95_3217" x1="105.737" y1="218.967" x2="115.445" y2="218.967" gradientUnits="userSpaceOnUse">
<stop stop-color="#1D7EFF"/>
<stop offset="1" stop-color="#1753FF"/>
</linearGradient>
<linearGradient id="paint37_linear_95_3217" x1="96.8898" y1="213.088" x2="103.904" y2="213.088" gradientUnits="userSpaceOnUse">
<stop stop-color="#1D7EFF"/>
<stop offset="1" stop-color="#1753FF"/>
</linearGradient>
<linearGradient id="paint38_linear_95_3217" x1="90.3098" y1="208.642" x2="95.0498" y2="208.642" gradientUnits="userSpaceOnUse">
<stop stop-color="#1D7EFF"/>
<stop offset="1" stop-color="#1753FF"/>
</linearGradient>
<linearGradient id="paint39_linear_95_3217" x1="101.718" y1="211.868" x2="111.419" y2="211.868" gradientUnits="userSpaceOnUse">
<stop stop-color="#1D7EFF"/>
<stop offset="1" stop-color="#1753FF"/>
</linearGradient>
<linearGradient id="paint40_linear_95_3217" x1="92.8638" y1="205.99" x2="99.878" y2="205.99" gradientUnits="userSpaceOnUse">
<stop stop-color="#1D7EFF"/>
<stop offset="1" stop-color="#1753FF"/>
</linearGradient>
<linearGradient id="paint41_linear_95_3217" x1="86.2838" y1="201.536" x2="91.0311" y2="201.536" gradientUnits="userSpaceOnUse">
<stop stop-color="#1D7EFF"/>
<stop offset="1" stop-color="#1753FF"/>
</linearGradient>
<linearGradient id="paint42_linear_95_3217" x1="67.3606" y1="218.82" x2="70.6359" y2="218.82" gradientUnits="userSpaceOnUse">
<stop stop-color="#1D7EFF"/>
<stop offset="1" stop-color="#1753FF"/>
</linearGradient>
<linearGradient id="paint43_linear_95_3217" x1="61.1928" y1="215.572" x2="65.5206" y2="215.572" gradientUnits="userSpaceOnUse">
<stop stop-color="#1D7EFF"/>
<stop offset="1" stop-color="#1753FF"/>
</linearGradient>
<linearGradient id="paint44_linear_95_3217" x1="48.5995" y1="243.488" x2="58.3002" y2="243.488" gradientUnits="userSpaceOnUse">
<stop stop-color="#1D7EFF"/>
<stop offset="1" stop-color="#1753FF"/>
</linearGradient>
<linearGradient id="paint45_linear_95_3217" x1="60.1329" y1="249.367" x2="67.1546" y2="249.367" gradientUnits="userSpaceOnUse">
<stop stop-color="#1D7EFF"/>
<stop offset="1" stop-color="#1753FF"/>
</linearGradient>
<linearGradient id="paint46_linear_95_3217" x1="68.9873" y1="253.813" x2="73.7346" y2="253.813" gradientUnits="userSpaceOnUse">
<stop stop-color="#1D7EFF"/>
<stop offset="1" stop-color="#1753FF"/>
</linearGradient>
<linearGradient id="paint47_linear_95_3217" x1="48.5995" y1="236.882" x2="51.8821" y2="236.882" gradientUnits="userSpaceOnUse">
<stop stop-color="#1D7EFF"/>
<stop offset="1" stop-color="#1753FF"/>
</linearGradient>
<linearGradient id="paint48_linear_95_3217" x1="53.7148" y1="240.13" x2="58.05" y2="240.13" gradientUnits="userSpaceOnUse">
<stop stop-color="#1D7EFF"/>
<stop offset="1" stop-color="#1753FF"/>
</linearGradient>
<linearGradient id="paint49_linear_95_3217" x1="59.8827" y1="244.451" x2="66.8602" y2="244.451" gradientUnits="userSpaceOnUse">
<stop stop-color="#1D7EFF"/>
<stop offset="1" stop-color="#1753FF"/>
</linearGradient>
<linearGradient id="paint50_linear_95_3217" x1="69.4141" y1="205.696" x2="72.6894" y2="205.696" gradientUnits="userSpaceOnUse">
<stop stop-color="#1D7EFF"/>
<stop offset="1" stop-color="#1753FF"/>
</linearGradient>
<linearGradient id="paint51_linear_95_3217" x1="63.2463" y1="202.448" x2="67.5741" y2="202.448" gradientUnits="userSpaceOnUse">
<stop stop-color="#1D7EFF"/>
<stop offset="1" stop-color="#1753FF"/>
</linearGradient>
<linearGradient id="paint52_linear_95_3217" x1="54.4288" y1="198.127" x2="61.4062" y2="198.127" gradientUnits="userSpaceOnUse">
<stop stop-color="#1D7EFF"/>
<stop offset="1" stop-color="#1753FF"/>
</linearGradient>
<linearGradient id="paint53_linear_95_3217" x1="75.1478" y1="214.492" x2="82.1252" y2="214.492" gradientUnits="userSpaceOnUse">
<stop stop-color="#1D7EFF"/>
<stop offset="1" stop-color="#1753FF"/>
</linearGradient>
<linearGradient id="paint54_linear_95_3217" x1="63.7909" y1="208.988" x2="73.1973" y2="208.988" gradientUnits="userSpaceOnUse">
<stop stop-color="#1D7EFF"/>
<stop offset="1" stop-color="#1753FF"/>
</linearGradient>
<linearGradient id="paint55_linear_95_3217" x1="59.0142" y1="204.366" x2="61.9582" y2="204.366" gradientUnits="userSpaceOnUse">
<stop stop-color="#1D7EFF"/>
<stop offset="1" stop-color="#1753FF"/>
</linearGradient>
<linearGradient id="paint56_linear_95_3217" x1="54.4214" y1="201.72" x2="57.3655" y2="201.72" gradientUnits="userSpaceOnUse">
<stop stop-color="#1D7EFF"/>
<stop offset="1" stop-color="#1753FF"/>
</linearGradient>
<linearGradient id="paint57_linear_95_3217" x1="59.1246" y1="230.445" x2="68.4132" y2="230.445" gradientUnits="userSpaceOnUse">
<stop stop-color="#1D7EFF"/>
<stop offset="1" stop-color="#1753FF"/>
</linearGradient>
<linearGradient id="paint58_linear_95_3217" x1="54.3404" y1="225.86" x2="57.2845" y2="225.86" gradientUnits="userSpaceOnUse">
<stop stop-color="#1D7EFF"/>
<stop offset="1" stop-color="#1753FF"/>
</linearGradient>
<linearGradient id="paint59_linear_95_3217" x1="60.5672" y1="234.31" x2="63.8425" y2="234.31" gradientUnits="userSpaceOnUse">
<stop stop-color="#1D7EFF"/>
<stop offset="1" stop-color="#1753FF"/>
</linearGradient>
<linearGradient id="paint60_linear_95_3217" x1="70.5255" y1="230.497" x2="73.8008" y2="230.497" gradientUnits="userSpaceOnUse">
<stop stop-color="#1D7EFF"/>
<stop offset="1" stop-color="#1753FF"/>
</linearGradient>
<linearGradient id="paint61_linear_95_3217" x1="75.1919" y1="234.502" x2="83.06" y2="234.502" gradientUnits="userSpaceOnUse">
<stop stop-color="#1D7EFF"/>
<stop offset="1" stop-color="#1753FF"/>
</linearGradient>
<linearGradient id="paint62_linear_95_3217" x1="84.451" y1="238.918" x2="89.1248" y2="238.918" gradientUnits="userSpaceOnUse">
<stop stop-color="#1D7EFF"/>
<stop offset="1" stop-color="#1753FF"/>
</linearGradient>
<linearGradient id="paint63_linear_95_3217" x1="54.3993" y1="231.055" x2="58.7271" y2="231.055" gradientUnits="userSpaceOnUse">
<stop stop-color="#1D7EFF"/>
<stop offset="1" stop-color="#1753FF"/>
</linearGradient>
<linearGradient id="paint64_linear_95_3217" x1="54.7747" y1="235.648" x2="58.05" y2="235.648" gradientUnits="userSpaceOnUse">
<stop stop-color="#1D7EFF"/>
<stop offset="1" stop-color="#1753FF"/>
</linearGradient>
<linearGradient id="paint65_linear_95_3217" x1="48.6068" y1="232.393" x2="52.942" y2="232.393" gradientUnits="userSpaceOnUse">
<stop stop-color="#1D7EFF"/>
<stop offset="1" stop-color="#1753FF"/>
</linearGradient>
<linearGradient id="paint66_linear_95_3217" x1="65.7708" y1="227.66" x2="68.7149" y2="227.66" gradientUnits="userSpaceOnUse">
<stop stop-color="#1D7EFF"/>
<stop offset="1" stop-color="#1753FF"/>
</linearGradient>
<linearGradient id="paint67_linear_95_3217" x1="61.1854" y1="225.015" x2="64.1295" y2="225.015" gradientUnits="userSpaceOnUse">
<stop stop-color="#1D7EFF"/>
<stop offset="1" stop-color="#1753FF"/>
</linearGradient>
<linearGradient id="paint68_linear_95_3217" x1="78.1139" y1="203.138" x2="88.1532" y2="203.138" gradientUnits="userSpaceOnUse">
<stop stop-color="#1D7EFF"/>
<stop offset="1" stop-color="#1753FF"/>
</linearGradient>
<linearGradient id="paint69_linear_95_3217" x1="66.8749" y1="196.474" x2="76.2812" y2="196.474" gradientUnits="userSpaceOnUse">
<stop stop-color="#1D7EFF"/>
<stop offset="1" stop-color="#1753FF"/>
</linearGradient>
<linearGradient id="paint70_linear_95_3217" x1="62.0981" y1="191.859" x2="65.0422" y2="191.859" gradientUnits="userSpaceOnUse">
<stop stop-color="#1D7EFF"/>
<stop offset="1" stop-color="#1753FF"/>
</linearGradient>
<linearGradient id="paint71_linear_95_3217" x1="57.5127" y1="189.213" x2="60.4568" y2="189.213" gradientUnits="userSpaceOnUse">
<stop stop-color="#1D7EFF"/>
<stop offset="1" stop-color="#1753FF"/>
</linearGradient>
<linearGradient id="paint72_linear_95_3217" x1="48.651" y1="185.091" x2="55.0029" y2="185.091" gradientUnits="userSpaceOnUse">
<stop stop-color="#1D7EFF"/>
<stop offset="1" stop-color="#1753FF"/>
</linearGradient>
<linearGradient id="paint73_linear_95_3217" x1="32.1052" y1="55.7007" x2="225.377" y2="55.7007" gradientUnits="userSpaceOnUse">
<stop stop-color="#CBCBD6"/>
<stop offset="1" stop-color="#F9FAF9"/>
</linearGradient>
<linearGradient id="paint74_linear_95_3217" x1="58.4916" y1="55.7007" x2="198.991" y2="55.7007" gradientUnits="userSpaceOnUse">
<stop stop-color="#1D7EFF"/>
<stop offset="1" stop-color="#1753FF"/>
</linearGradient>
<linearGradient id="paint75_linear_95_3217" x1="123.482" y1="125.231" x2="242.865" y2="67.3662" gradientUnits="userSpaceOnUse">
<stop stop-color="#CBCBD6"/>
<stop offset="1" stop-color="#F9FAF9"/>
</linearGradient>
<linearGradient id="paint76_linear_95_3217" x1="3.57648e-05" y1="100.151" x2="0.736057" y2="100.151" gradientUnits="userSpaceOnUse">
<stop stop-color="#1D7EFF"/>
<stop offset="1" stop-color="#1753FF"/>
</linearGradient>
<linearGradient id="paint77_linear_95_3217" x1="131.586" y1="126.414" x2="27.13" y2="70.9638" gradientUnits="userSpaceOnUse">
<stop stop-color="#CBCBD6"/>
<stop offset="1" stop-color="#F9FAF9"/>
</linearGradient>
<linearGradient id="paint78_linear_95_3217" x1="83.0305" y1="105.728" x2="100.533" y2="105.728" gradientUnits="userSpaceOnUse">
<stop stop-color="#1D7EFF"/>
<stop offset="1" stop-color="#1753FF"/>
</linearGradient>
<linearGradient id="paint79_linear_95_3217" x1="75.766" y1="97.8805" x2="80.5133" y2="97.8805" gradientUnits="userSpaceOnUse">
<stop stop-color="#1D7EFF"/>
<stop offset="1" stop-color="#1753FF"/>
</linearGradient>
<linearGradient id="paint80_linear_95_3217" x1="48.5995" y1="83.654" x2="58.3002" y2="83.654" gradientUnits="userSpaceOnUse">
<stop stop-color="#1D7EFF"/>
<stop offset="1" stop-color="#1753FF"/>
</linearGradient>
<linearGradient id="paint81_linear_95_3217" x1="60.1329" y1="89.5325" x2="67.1546" y2="89.5325" gradientUnits="userSpaceOnUse">
<stop stop-color="#1D7EFF"/>
<stop offset="1" stop-color="#1753FF"/>
</linearGradient>
<linearGradient id="paint82_linear_95_3217" x1="68.9873" y1="93.9784" x2="73.7346" y2="93.9784" gradientUnits="userSpaceOnUse">
<stop stop-color="#1D7EFF"/>
<stop offset="1" stop-color="#1753FF"/>
</linearGradient>
<linearGradient id="paint83_linear_95_3217" x1="320.184" y1="346.006" x2="435.083" y2="352.065" gradientUnits="userSpaceOnUse">
<stop stop-color="#262C3D"/>
<stop offset="1" stop-color="#7D859E"/>
</linearGradient>
<linearGradient id="paint84_linear_95_3217" x1="300.289" y1="349.143" x2="469" y2="349.143" gradientUnits="userSpaceOnUse">
<stop stop-color="#66D2FE"/>
<stop offset="0.34" stop-color="#51A7DD"/>
<stop offset="0.78" stop-color="#3973B7"/>
<stop offset="1" stop-color="#3060A8"/>
</linearGradient>
<linearGradient id="paint85_linear_95_3217" x1="386.404" y1="349.79" x2="417.368" y2="350.631" gradientUnits="userSpaceOnUse">
<stop stop-color="#CBCBD6"/>
<stop offset="1" stop-color="#878C9F"/>
</linearGradient>
<linearGradient id="paint86_linear_95_3217" x1="384.166" y1="354.273" x2="426.436" y2="356.226" gradientUnits="userSpaceOnUse">
<stop stop-color="#CBCBD6"/>
<stop offset="1" stop-color="#F9FAF9"/>
</linearGradient>
<linearGradient id="paint87_linear_95_3217" x1="303.572" y1="322.094" x2="436.592" y2="296.044" gradientUnits="userSpaceOnUse">
<stop stop-color="#3B3E5E"/>
<stop offset="1" stop-color="#626282"/>
</linearGradient>
<linearGradient id="paint88_linear_95_3217" x1="304.595" y1="327.326" x2="437.622" y2="301.276" gradientUnits="userSpaceOnUse">
<stop stop-color="#3B3E5E"/>
<stop offset="1" stop-color="#626282"/>
</linearGradient>
<linearGradient id="paint89_linear_95_3217" x1="303.999" y1="324.269" x2="437.019" y2="298.219" gradientUnits="userSpaceOnUse">
<stop stop-color="#3B3E5E"/>
<stop offset="1" stop-color="#626282"/>
</linearGradient>
<linearGradient id="paint90_linear_95_3217" x1="304.426" y1="326.444" x2="437.446" y2="300.394" gradientUnits="userSpaceOnUse">
<stop stop-color="#3B3E5E"/>
<stop offset="1" stop-color="#626282"/>
</linearGradient>
<linearGradient id="paint91_linear_95_3217" x1="304.845" y1="328.612" x2="437.873" y2="302.562" gradientUnits="userSpaceOnUse">
<stop stop-color="#3B3E5E"/>
<stop offset="1" stop-color="#626282"/>
</linearGradient>
<linearGradient id="paint92_linear_95_3217" x1="305.272" y1="330.795" x2="438.292" y2="304.737" gradientUnits="userSpaceOnUse">
<stop stop-color="#3B3E5E"/>
<stop offset="0.7" stop-color="#565777"/>
<stop offset="1" stop-color="#626282"/>
</linearGradient>
<linearGradient id="paint93_linear_95_3217" x1="305.699" y1="332.97" x2="438.719" y2="306.913" gradientUnits="userSpaceOnUse">
<stop stop-color="#3B3E5E"/>
<stop offset="1" stop-color="#626282"/>
</linearGradient>
<linearGradient id="paint94_linear_95_3217" x1="306.126" y1="335.145" x2="439.146" y2="309.088" gradientUnits="userSpaceOnUse">
<stop stop-color="#3B3E5E"/>
<stop offset="1" stop-color="#626282"/>
</linearGradient>
<linearGradient id="paint95_linear_95_3217" x1="306.553" y1="337.312" x2="439.573" y2="311.263" gradientUnits="userSpaceOnUse">
<stop stop-color="#3B3E5E"/>
<stop offset="1" stop-color="#626282"/>
</linearGradient>
<linearGradient id="paint96_linear_95_3217" x1="306.98" y1="339.488" x2="440" y2="313.438" gradientUnits="userSpaceOnUse">
<stop stop-color="#3B3E5E"/>
<stop offset="1" stop-color="#626282"/>
</linearGradient>
<linearGradient id="paint97_linear_95_3217" x1="307.407" y1="341.663" x2="440.427" y2="315.613" gradientUnits="userSpaceOnUse">
<stop stop-color="#3B3E5E"/>
<stop offset="1" stop-color="#626282"/>
</linearGradient>
<linearGradient id="paint98_linear_95_3217" x1="307.826" y1="343.838" x2="440.853" y2="317.788" gradientUnits="userSpaceOnUse">
<stop stop-color="#3B3E5E"/>
<stop offset="1" stop-color="#626282"/>
</linearGradient>
<linearGradient id="paint99_linear_95_3217" x1="308.253" y1="346.013" x2="441.28" y2="319.963" gradientUnits="userSpaceOnUse">
<stop stop-color="#3B3E5E"/>
<stop offset="1" stop-color="#626282"/>
</linearGradient>
<linearGradient id="paint100_linear_95_3217" x1="308.776" y1="348.651" x2="441.796" y2="322.601" gradientUnits="userSpaceOnUse">
<stop stop-color="#3B3E5E"/>
<stop offset="1" stop-color="#626282"/>
</linearGradient>
<linearGradient id="paint101_linear_95_3217" x1="305.095" y1="329.883" x2="438.123" y2="303.833" gradientUnits="userSpaceOnUse">
<stop stop-color="#3B3E5E"/>
<stop offset="1" stop-color="#626282"/>
</linearGradient>
<linearGradient id="paint102_linear_95_3217" x1="305.522" y1="332.066" x2="438.542" y2="306.009" gradientUnits="userSpaceOnUse">
<stop stop-color="#3B3E5E"/>
<stop offset="1" stop-color="#626282"/>
</linearGradient>
<linearGradient id="paint103_linear_95_3217" x1="305.949" y1="334.241" x2="438.969" y2="308.184" gradientUnits="userSpaceOnUse">
<stop stop-color="#3B3E5E"/>
<stop offset="1" stop-color="#626282"/>
</linearGradient>
<linearGradient id="paint104_linear_95_3217" x1="306.376" y1="336.409" x2="439.396" y2="310.359" gradientUnits="userSpaceOnUse">
<stop stop-color="#3B3E5E"/>
<stop offset="1" stop-color="#626282"/>
</linearGradient>
<linearGradient id="paint105_linear_95_3217" x1="306.803" y1="338.584" x2="439.823" y2="312.534" gradientUnits="userSpaceOnUse">
<stop stop-color="#3B3E5E"/>
<stop offset="1" stop-color="#626282"/>
</linearGradient>
<linearGradient id="paint106_linear_95_3217" x1="307.23" y1="340.759" x2="440.25" y2="314.709" gradientUnits="userSpaceOnUse">
<stop stop-color="#3B3E5E"/>
<stop offset="1" stop-color="#626282"/>
</linearGradient>
<linearGradient id="paint107_linear_95_3217" x1="307.657" y1="342.934" x2="440.677" y2="316.884" gradientUnits="userSpaceOnUse">
<stop stop-color="#3B3E5E"/>
<stop offset="1" stop-color="#626282"/>
</linearGradient>
<linearGradient id="paint108_linear_95_3217" x1="308.076" y1="345.109" x2="441.104" y2="319.059" gradientUnits="userSpaceOnUse">
<stop stop-color="#3B3E5E"/>
<stop offset="1" stop-color="#626282"/>
</linearGradient>
<linearGradient id="paint109_linear_95_3217" x1="308.503" y1="347.284" x2="441.531" y2="321.234" gradientUnits="userSpaceOnUse">
<stop stop-color="#3B3E5E"/>
<stop offset="1" stop-color="#626282"/>
</linearGradient>
<linearGradient id="paint110_linear_95_3217" x1="308.93" y1="349.459" x2="441.957" y2="323.41" gradientUnits="userSpaceOnUse">
<stop stop-color="#3B3E5E"/>
<stop offset="1" stop-color="#626282"/>
</linearGradient>
<linearGradient id="paint111_linear_95_3217" x1="309.357" y1="351.634" x2="442.377" y2="325.585" gradientUnits="userSpaceOnUse">
<stop stop-color="#3B3E5E"/>
<stop offset="1" stop-color="#626282"/>
</linearGradient>
<linearGradient id="paint112_linear_95_3217" x1="309.784" y1="353.81" x2="442.804" y2="327.76" gradientUnits="userSpaceOnUse">
<stop stop-color="#3B3E5E"/>
<stop offset="1" stop-color="#626282"/>
</linearGradient>
<linearGradient id="paint113_linear_95_3217" x1="307.355" y1="341.398" x2="440.375" y2="315.341" gradientUnits="userSpaceOnUse">
<stop stop-color="#3B3E5E"/>
<stop offset="1" stop-color="#626282"/>
</linearGradient>
<linearGradient id="paint114_linear_95_3217" x1="307.856" y1="343.955" x2="440.876" y2="317.906" gradientUnits="userSpaceOnUse">
<stop stop-color="#3B3E5E"/>
<stop offset="1" stop-color="#626282"/>
</linearGradient>
<linearGradient id="paint115_linear_95_3217" x1="308.282" y1="346.131" x2="441.303" y2="320.081" gradientUnits="userSpaceOnUse">
<stop stop-color="#3B3E5E"/>
<stop offset="1" stop-color="#626282"/>
</linearGradient>
<linearGradient id="paint116_linear_95_3217" x1="309.556" y1="352.656" x2="442.576" y2="326.599" gradientUnits="userSpaceOnUse">
<stop stop-color="#3B3E5E"/>
<stop offset="1" stop-color="#626282"/>
</linearGradient>
<linearGradient id="paint117_linear_95_3217" x1="310.836" y1="359.181" x2="443.857" y2="333.124" gradientUnits="userSpaceOnUse">
<stop stop-color="#3B3E5E"/>
<stop offset="1" stop-color="#626282"/>
</linearGradient>
<linearGradient id="paint118_linear_95_3217" x1="311.263" y1="361.349" x2="444.283" y2="335.299" gradientUnits="userSpaceOnUse">
<stop stop-color="#3B3E5E"/>
<stop offset="1" stop-color="#626282"/>
</linearGradient>
<linearGradient id="paint119_linear_95_3217" x1="311.683" y1="363.531" x2="444.71" y2="337.474" gradientUnits="userSpaceOnUse">
<stop stop-color="#3B3E5E"/>
<stop offset="1" stop-color="#626282"/>
</linearGradient>
<linearGradient id="paint120_linear_95_3217" x1="312.11" y1="365.699" x2="445.137" y2="339.649" gradientUnits="userSpaceOnUse">
<stop stop-color="#3B3E5E"/>
<stop offset="1" stop-color="#626282"/>
</linearGradient>
<linearGradient id="paint121_linear_95_3217" x1="312.537" y1="367.874" x2="445.564" y2="341.825" gradientUnits="userSpaceOnUse">
<stop stop-color="#3B3E5E"/>
<stop offset="1" stop-color="#626282"/>
</linearGradient>
<linearGradient id="paint122_linear_95_3217" x1="305.589" y1="332.389" x2="438.609" y2="306.339" gradientUnits="userSpaceOnUse">
<stop stop-color="#3B3E5E"/>
<stop offset="1" stop-color="#626282"/>
</linearGradient>
<linearGradient id="paint123_linear_95_3217" x1="306.163" y1="335.321" x2="439.183" y2="309.271" gradientUnits="userSpaceOnUse">
<stop stop-color="#3B3E5E"/>
<stop offset="1" stop-color="#626282"/>
</linearGradient>
<linearGradient id="paint124_linear_95_3217" x1="306.59" y1="337.496" x2="439.61" y2="311.446" gradientUnits="userSpaceOnUse">
<stop stop-color="#3B3E5E"/>
<stop offset="1" stop-color="#626282"/>
</linearGradient>
<linearGradient id="paint125_linear_95_3217" x1="307.016" y1="339.671" x2="440.036" y2="313.622" gradientUnits="userSpaceOnUse">
<stop stop-color="#3B3E5E"/>
<stop offset="1" stop-color="#626282"/>
</linearGradient>
<linearGradient id="paint126_linear_95_3217" x1="307.443" y1="341.847" x2="440.463" y2="315.789" gradientUnits="userSpaceOnUse">
<stop stop-color="#3B3E5E"/>
<stop offset="1" stop-color="#626282"/>
</linearGradient>
<linearGradient id="paint127_linear_95_3217" x1="307.863" y1="344.021" x2="440.89" y2="317.964" gradientUnits="userSpaceOnUse">
<stop stop-color="#3B3E5E"/>
<stop offset="1" stop-color="#626282"/>
</linearGradient>
<linearGradient id="paint128_linear_95_3217" x1="308.29" y1="346.197" x2="441.317" y2="320.139" gradientUnits="userSpaceOnUse">
<stop stop-color="#3B3E5E"/>
<stop offset="1" stop-color="#626282"/>
</linearGradient>
<linearGradient id="paint129_linear_95_3217" x1="308.717" y1="348.372" x2="441.737" y2="322.315" gradientUnits="userSpaceOnUse">
<stop stop-color="#3B3E5E"/>
<stop offset="1" stop-color="#626282"/>
</linearGradient>
<linearGradient id="paint130_linear_95_3217" x1="309.144" y1="350.54" x2="442.164" y2="324.49" gradientUnits="userSpaceOnUse">
<stop stop-color="#3B3E5E"/>
<stop offset="1" stop-color="#626282"/>
</linearGradient>
<linearGradient id="paint131_linear_95_3217" x1="309.57" y1="352.715" x2="442.59" y2="326.665" gradientUnits="userSpaceOnUse">
<stop stop-color="#3B3E5E"/>
<stop offset="1" stop-color="#626282"/>
</linearGradient>
<linearGradient id="paint132_linear_95_3217" x1="309.997" y1="354.89" x2="443.017" y2="328.84" gradientUnits="userSpaceOnUse">
<stop stop-color="#3B3E5E"/>
<stop offset="1" stop-color="#626282"/>
</linearGradient>
<linearGradient id="paint133_linear_95_3217" x1="310.564" y1="357.785" x2="443.584" y2="331.728" gradientUnits="userSpaceOnUse">
<stop stop-color="#3B3E5E"/>
<stop offset="1" stop-color="#626282"/>
</linearGradient>
<linearGradient id="paint134_linear_95_3217" x1="306.553" y1="337.305" x2="439.573" y2="311.255" gradientUnits="userSpaceOnUse">
<stop stop-color="#3B3E5E"/>
<stop offset="1" stop-color="#626282"/>
</linearGradient>
<linearGradient id="paint135_linear_95_3217" x1="307.171" y1="340.465" x2="440.191" y2="314.415" gradientUnits="userSpaceOnUse">
<stop stop-color="#3B3E5E"/>
<stop offset="1" stop-color="#626282"/>
</linearGradient>
<linearGradient id="paint136_linear_95_3217" x1="307.598" y1="342.64" x2="440.618" y2="316.59" gradientUnits="userSpaceOnUse">
<stop stop-color="#3B3E5E"/>
<stop offset="1" stop-color="#626282"/>
</linearGradient>
<linearGradient id="paint137_linear_95_3217" x1="308.025" y1="344.815" x2="441.045" y2="318.766" gradientUnits="userSpaceOnUse">
<stop stop-color="#3B3E5E"/>
<stop offset="1" stop-color="#626282"/>
</linearGradient>
<linearGradient id="paint138_linear_95_3217" x1="308.452" y1="346.99" x2="441.472" y2="320.941" gradientUnits="userSpaceOnUse">
<stop stop-color="#3B3E5E"/>
<stop offset="1" stop-color="#626282"/>
</linearGradient>
<linearGradient id="paint139_linear_95_3217" x1="308.871" y1="349.165" x2="441.899" y2="323.108" gradientUnits="userSpaceOnUse">
<stop stop-color="#3B3E5E"/>
<stop offset="1" stop-color="#626282"/>
</linearGradient>
<linearGradient id="paint140_linear_95_3217" x1="309.298" y1="351.341" x2="442.326" y2="325.291" gradientUnits="userSpaceOnUse">
<stop stop-color="#3B3E5E"/>
<stop offset="1" stop-color="#626282"/>
</linearGradient>
<linearGradient id="paint141_linear_95_3217" x1="309.725" y1="353.516" x2="442.745" y2="327.466" gradientUnits="userSpaceOnUse">
<stop stop-color="#3B3E5E"/>
<stop offset="1" stop-color="#626282"/>
</linearGradient>
<linearGradient id="paint142_linear_95_3217" x1="310.152" y1="355.691" x2="443.172" y2="329.641" gradientUnits="userSpaceOnUse">
<stop stop-color="#3B3E5E"/>
<stop offset="1" stop-color="#626282"/>
</linearGradient>
<linearGradient id="paint143_linear_95_3217" x1="310.579" y1="357.866" x2="443.599" y2="331.809" gradientUnits="userSpaceOnUse">
<stop stop-color="#3B3E5E"/>
<stop offset="1" stop-color="#626282"/>
</linearGradient>
<linearGradient id="paint144_linear_95_3217" x1="311.315" y1="361.613" x2="444.335" y2="335.556" gradientUnits="userSpaceOnUse">
<stop stop-color="#3B3E5E"/>
<stop offset="1" stop-color="#626282"/>
</linearGradient>
<linearGradient id="paint145_linear_95_3217" x1="306.479" y1="327.106" x2="371.447" y2="205.726" gradientUnits="userSpaceOnUse">
<stop stop-color="#262C3D"/>
<stop offset="1" stop-color="#7D859E"/>
</linearGradient>
<linearGradient id="paint146_linear_95_3217" x1="393.874" y1="269.134" x2="296.447" y2="269.134" gradientUnits="userSpaceOnUse">
<stop stop-color="#262C3D"/>
<stop offset="1" stop-color="#7D859E"/>
</linearGradient>
<linearGradient id="paint147_linear_95_3217" x1="365.368" y1="212.559" x2="275.228" y2="325.513" gradientUnits="userSpaceOnUse">
<stop stop-color="#262C3D"/>
<stop offset="0.38" stop-color="white"/>
<stop offset="1" stop-color="#7D859E"/>
</linearGradient>
<linearGradient id="paint148_linear_95_3217" x1="363.933" y1="222.068" x2="316.95" y2="336.05" gradientUnits="userSpaceOnUse">
<stop stop-color="#262C3D"/>
<stop offset="1" stop-color="#7D859E"/>
</linearGradient>
<linearGradient id="paint149_linear_95_3217" x1="432.464" y1="181.571" x2="385.481" y2="295.554" gradientUnits="userSpaceOnUse">
<stop stop-color="#262C3D"/>
<stop offset="1" stop-color="#7D859E"/>
</linearGradient>
<linearGradient id="paint150_linear_95_3217" x1="511.954" y1="133.417" x2="520.632" y2="128.21" gradientUnits="userSpaceOnUse">
<stop stop-color="#5B677C"/>
<stop offset="1" stop-color="#39A9A5"/>
</linearGradient>
<linearGradient id="paint151_linear_95_3217" x1="522.325" y1="127.208" x2="531.003" y2="122.007" gradientUnits="userSpaceOnUse">
<stop stop-color="#5B677C"/>
<stop offset="1" stop-color="#39A9A5"/>
</linearGradient>
<linearGradient id="paint152_linear_95_3217" x1="230.846" y1="346.718" x2="237.124" y2="346.718" gradientUnits="userSpaceOnUse">
<stop stop-color="#FFF12F"/>
<stop offset="1" stop-color="#F46469"/>
</linearGradient>
<linearGradient id="paint153_linear_95_3217" x1="231.751" y1="312.644" x2="236.219" y2="312.644" gradientUnits="userSpaceOnUse">
<stop stop-color="#FFF12F"/>
<stop offset="1" stop-color="#F46469"/>
</linearGradient>
<linearGradient id="paint154_linear_95_3217" x1="217.163" y1="354.603" x2="223.441" y2="354.603" gradientUnits="userSpaceOnUse">
<stop stop-color="#FFF12F"/>
<stop offset="1" stop-color="#F46469"/>
</linearGradient>
<linearGradient id="paint155_linear_95_3217" x1="218.076" y1="320.529" x2="222.536" y2="320.529" gradientUnits="userSpaceOnUse">
<stop stop-color="#FFF12F"/>
<stop offset="1" stop-color="#F46469"/>
</linearGradient>
<linearGradient id="paint156_linear_95_3217" x1="169.403" y1="382.093" x2="175.681" y2="382.093" gradientUnits="userSpaceOnUse">
<stop stop-color="#FFF12F"/>
<stop offset="1" stop-color="#F46469"/>
</linearGradient>
<linearGradient id="paint157_linear_95_3217" x1="170.315" y1="348.019" x2="174.776" y2="348.019" gradientUnits="userSpaceOnUse">
<stop stop-color="#FFF12F"/>
<stop offset="1" stop-color="#F46469"/>
</linearGradient>
<linearGradient id="paint158_linear_95_3217" x1="251.094" y1="412.714" x2="188.64" y2="334.194" gradientUnits="userSpaceOnUse">
<stop stop-color="#FFF12F"/>
<stop offset="1" stop-color="#F46469"/>
</linearGradient>
<linearGradient id="paint159_linear_95_3217" x1="161.961" y1="413.25" x2="301.805" y2="413.25" gradientUnits="userSpaceOnUse">
<stop stop-color="#FFB92F"/>
<stop offset="1" stop-color="#F46469"/>
</linearGradient>
<linearGradient id="paint160_linear_95_3217" x1="217.318" y1="413.236" x2="0.736065" y2="413.236" gradientUnits="userSpaceOnUse">
<stop stop-color="#FFB92F"/>
<stop offset="1" stop-color="#F46469"/>
</linearGradient>
<linearGradient id="paint161_linear_95_3217" x1="219.371" y1="386.333" x2="238.029" y2="386.333" gradientUnits="userSpaceOnUse">
<stop stop-color="#FFF12F"/>
<stop offset="1" stop-color="#F46469"/>
</linearGradient>
<linearGradient id="paint162_linear_95_3217" x1="226.393" y1="388.362" x2="238" y2="388.362" gradientUnits="userSpaceOnUse">
<stop stop-color="#FFF12F"/>
<stop offset="1" stop-color="#F46469"/>
</linearGradient>
<linearGradient id="paint163_linear_95_3217" x1="233.731" y1="391.22" x2="240.495" y2="391.22" gradientUnits="userSpaceOnUse">
<stop stop-color="#FFF12F"/>
<stop offset="1" stop-color="#F46469"/>
</linearGradient>
<linearGradient id="paint164_linear_95_3217" x1="71.3425" y1="459.391" x2="199.256" y2="459.391" gradientUnits="userSpaceOnUse">
<stop stop-color="#66D2FE"/>
<stop offset="0.34" stop-color="#51A7DD"/>
<stop offset="0.78" stop-color="#3973B7"/>
<stop offset="1" stop-color="#3060A8"/>
</linearGradient>
<clipPath id="clip0_95_3217">
<rect width="469" height="497" fill="white"/>
</clipPath>
</defs>
</svg>
