<svg width="114" height="129" viewBox="0 0 114 129" fill="none" xmlns="http://www.w3.org/2000/svg">
<g clip-path="url(#clip0_106_22)">
<path d="M97.1893 2.4757L95.7244 1.8324C95.1209 1.59848 94.3032 1.32069 93.69 1.11114L92.1471 0.692019C91.4755 0.540943 90.5751 0.380119 89.8986 0.258283L88.2827 0.0730923C87.504 0.0243578 86.4624 0.00486407 85.6837 -0.00488281L83.9803 0.0877126C82.9923 0.204675 81.6782 0.40936 80.695 0.584804L78.8796 1.03803C76.4851 1.78367 75.9886 2.00785 73.6135 3.09463C73.0246 3.4114 72.241 3.83052 71.6521 4.14729C62.4486 9.48371 55.9317 19.1429 47.7843 34.0312C49.2785 31.2729 52.3155 30.5565 55.8197 32.5984C61.4655 22.179 69.0531 11.0091 78.977 5.26818C86.9151 0.677399 93.9966 0.501955 99.0729 3.45526C98.518 3.13849 97.7636 2.75349 97.1942 2.46108L97.1893 2.4757Z" fill="url(#paint0_linear_106_22)"/>
<path d="M101.331 4.7858C96.2597 1.83249 89.1733 2.00794 81.2352 6.59872C71.3114 12.3348 63.7237 23.5047 58.078 33.929C63.0813 36.8384 67.1501 44.2607 67.1696 50.5036C76.9425 32.4864 82.9922 23.6801 90.3171 19.489C102.134 12.6418 111.537 18.719 111.8 29.884C113.163 69.0909 66.6829 124.989 67.3789 124.161C67.3789 124.78 67.3156 125.345 67.1842 125.852C67.0041 126.554 66.7072 127.143 66.313 127.616C85.562 104.345 104.208 72.2976 109.693 53.0719C117.29 26.419 115.022 13.3338 101.331 4.7858Z" fill="url(#paint1_linear_106_22)"/>
<path d="M66.3179 127.616C66.4639 127.44 66.6586 127.202 66.8094 127.021L67.9289 125.642C68.435 125.013 69.1018 124.165 69.6031 123.532L71.7592 120.744C72.5379 119.726 73.56 118.351 74.3338 117.328L77.2492 113.342C78.2177 111.996 79.4783 110.188 80.4371 108.834L83.8245 103.863C84.8953 102.259 86.2824 100.096 87.3385 98.4775L90.906 92.7366C91.9962 90.9383 93.3931 88.5016 94.4589 86.6887L97.9242 80.3922C98.9512 78.4574 100.241 75.8355 101.239 73.8862L104.315 67.2485C105.2 65.2212 106.276 62.4774 107.118 60.4306L109.503 53.6857C109.644 53.2423 109.79 52.7549 109.936 52.2627C103.716 69.5147 90.6529 93.5797 66.6488 127.163C66.5466 127.323 66.4396 127.475 66.3227 127.616H66.3179Z" fill="#1F4280"/>
<path d="M112.107 17.2179L111.411 15.6389C111.075 14.9761 110.593 14.1086 110.223 13.4604L109.318 12.0861C108.924 11.5452 108.369 10.8483 107.95 10.3219L106.875 9.13282C106.427 8.67959 105.804 8.09965 105.337 7.66591L104.1 6.65224C103.687 6.33546 103.112 5.94072 102.689 5.63856C102.28 5.38027 101.73 5.03913 101.321 4.78571L99.0582 3.46988C93.9868 0.516575 86.9005 0.692019 78.9624 5.2828C69.0385 11.0188 61.4508 22.1888 55.8051 32.6131L58.0683 33.9289C58.7837 34.348 59.4846 34.8548 60.1514 35.4445C67.374 21.8038 75.3413 14.1086 85.9757 10.4925C85.747 10.2391 85.4987 9.99542 85.2554 9.75175C85.4987 9.99542 85.7421 10.2342 85.9757 10.4876C88.4774 9.67377 89.918 9.37649 90.5507 9.27415C90.8963 9.21567 108.052 6.74971 113.202 20.7511L113.051 20.1029C112.793 19.2306 112.404 18.0805 112.097 17.2227L112.107 17.2179Z" fill="url(#paint2_linear_106_22)"/>
<path d="M32.5798 32.1012C17.0978 41.0537 4.95464 62.9842 4.62855 78.4915C4.19052 99.3352 14.2652 111.07 25.62 117.679C24.7682 117.153 23.6342 116.451 22.7874 115.924C21.5317 115.047 19.8672 113.873 18.6504 112.942L16.212 110.895C15.2338 109.964 13.9245 108.726 12.9852 107.757L10.9119 105.412C10.1234 104.394 9.06239 103.039 8.31774 101.986L6.58995 99.2816C5.94751 98.0974 5.08118 96.5232 4.49714 95.3098L3.12951 92.0543C2.62334 90.5289 1.95656 88.4918 1.53799 86.942L0.661932 82.6144C-0.0194494 76.5909 -0.0437845 76.3521 0.0292207 72.6824L0.141162 70.577C0.228768 69.8217 0.335842 68.8129 0.447784 68.0623L0.866347 65.8352C1.04156 65.1139 1.26057 64.149 1.45525 63.4326L2.14637 61.1421C2.39459 60.4354 2.71094 59.4851 2.97863 58.7882L3.9131 56.4782C4.22945 55.7861 4.63828 54.8504 4.96924 54.1633L6.12759 51.8825C6.50721 51.2051 6.99878 50.2986 7.38814 49.631L8.7509 47.4233C9.18894 46.7751 9.75838 45.9028 10.2061 45.2644L11.7539 43.1737C12.2503 42.5645 12.8927 41.736 13.4038 41.1366L15.117 39.2116C15.6718 38.6462 16.397 37.8811 16.9616 37.3304L18.8159 35.6247C19.4389 35.113 20.2565 34.4112 20.8941 33.919L22.8652 32.4911C23.5807 32.0379 24.5249 31.4141 25.2549 30.9852L26.6372 30.2298C27.1239 29.9959 27.7712 29.6742 28.2628 29.4549L29.6304 28.8994C30.1658 28.7142 30.8812 28.4608 31.4214 28.2951L32.7842 27.9295C33.3731 27.8077 34.1616 27.642 34.7553 27.5397L36.1181 27.3594C36.746 27.3106 37.5879 27.2473 38.2158 27.2229H39.5786C40.2161 27.257 41.0679 27.3057 41.7006 27.3594L43.0487 27.5299C43.662 27.6371 44.4845 27.7882 45.0929 27.9198L46.407 28.2512C46.9764 28.4218 47.7357 28.6508 48.3002 28.8409L49.5657 29.3136C50.0816 29.5329 50.7678 29.8204 51.2788 30.0495L52.481 30.6392C52.9823 30.9072 53.6491 31.2679 54.1455 31.5505C48.6653 28.3633 41.5692 26.9159 32.5895 32.1061L32.5798 32.1012Z" fill="url(#paint3_linear_106_22)"/>
<path d="M90.3171 19.484C102.134 12.6369 111.537 18.714 111.8 29.8791C113.163 69.0859 66.6829 124.984 67.3789 124.156C68.0749 124.18 21.4294 122.119 22.5683 81.4645C22.7727 70.0265 32.1077 53.1205 43.9248 46.3026C51.2447 42.0286 57.3285 43.8171 67.1696 50.4986C76.9426 32.4815 82.9923 23.6752 90.3171 19.484Z" fill="url(#paint4_linear_106_22)"/>
<path d="M62.8379 129C44.9371 128.191 32.3023 121.383 28.1459 119.151C16.5283 112.391 6.45849 100.656 6.89165 79.8123C7.21774 64.3002 19.3609 42.3697 34.8429 33.422C43.8225 28.2318 50.9186 29.6792 56.3989 32.8665C57.0803 33.2807 57.9807 33.846 58.6474 34.2798C63.4707 37.5645 67.155 44.5676 67.1696 50.5034C57.3285 43.8268 51.2447 42.0334 43.9247 46.3074C32.1076 53.1254 22.7727 70.0313 22.5683 81.4693C21.4294 122.124 68.0748 124.185 67.3789 124.161C67.3789 124.78 67.3156 125.345 67.1842 125.852C66.6439 127.967 65.033 129.078 62.8331 129H62.8379Z" fill="url(#paint5_linear_106_22)"/>
<path d="M10.3521 84.9683C6.86734 55.7277 37.1207 21.1896 65.617 43.3053C64.1083 39.6551 61.6407 36.3168 58.813 34.3869C58.4333 34.1286 57.9223 33.8021 57.5378 33.5535C57.1971 33.3488 56.7396 33.0711 56.3989 32.8664L54.1358 31.5505C48.6555 28.3633 41.5594 26.9159 32.5798 32.1061C17.0978 41.0586 4.95461 62.9891 4.62852 78.4964C4.19049 99.3401 14.2652 111.075 25.6199 117.684L27.8831 119C31.7378 121.232 34.8332 122.504 37.8215 123.732L41.0143 124.877C42.4647 125.345 44.4212 125.91 45.8862 126.334L49.0984 127.119C50.2616 127.372 51.8239 127.669 52.9969 127.894L55.7857 128.337C56.6228 128.454 57.7373 128.581 58.5745 128.683L60.5505 128.868C60.9982 128.902 61.5969 128.937 62.0447 128.971C62.2831 128.98 62.5946 128.995 62.8331 129.005C63.7968 129.039 64.6534 128.844 65.3494 128.435C52.4372 128.556 14.6205 120.837 10.3473 84.9732L10.3521 84.9683Z" fill="url(#paint6_linear_106_22)"/>
<path d="M6.58993 99.2817C8.54161 99.2184 9.78269 100.11 11.2185 100.797C12.6445 101.465 14.09 102.094 15.5598 102.659C18.5044 103.76 21.5171 104.706 24.6173 105.237C27.7079 105.778 30.8569 105.988 33.9863 105.768C35.5438 105.588 37.1061 105.442 38.6295 105.047C40.1626 104.759 41.6908 104.262 43.1899 103.77C46.1636 102.742 49.1276 101.499 51.5222 99.6131C52.0916 99.1258 52.6611 98.6238 53.0845 98.0487C53.5079 97.498 53.8973 96.8353 53.8729 96.3577L53.98 91.533L54.4034 72.2292L54.5495 65.577L56.0534 72.0587L65.4029 112.357L63.753 112.567C63.6654 107.235 63.6459 101.923 63.9379 96.5721C64.0207 95.2319 64.1229 93.8966 64.3078 92.5369C64.4149 91.8546 64.5171 91.1772 64.7604 90.4413C64.814 90.261 64.8967 90.0612 65.0135 89.8467C65.0768 89.6713 65.437 89.2717 65.5294 89.2327C65.8263 88.989 66.1135 88.7941 66.3958 88.5991C68.6589 87.103 70.9269 85.7774 73.156 84.3495C75.3754 82.9313 77.585 81.479 79.5756 79.8416C80.0575 79.4468 80.5685 78.9741 80.9676 78.5696C80.8605 78.7109 80.9579 78.5598 80.9725 78.4624C81.0017 78.3308 81.0406 78.2041 81.0649 78.0481C81.1233 77.7557 81.1623 77.4341 81.2012 77.1222C81.3521 75.8453 81.43 74.5246 81.4981 73.2088C81.7463 67.9357 81.7853 62.6237 81.7901 57.3263V50.7471L83.4352 57.1118L90.176 83.1945L88.5504 83.2237L91.5533 69.4709V69.4611L91.6117 69.2077L91.8308 69.003C93.8992 67.0536 95.9385 65.0117 97.8999 62.9307C99.8857 60.8644 101.774 58.7103 103.541 56.4734C105.332 54.256 107.016 51.9509 108.437 49.5093C109.897 47.0482 110.827 44.5237 112.297 41.8823C112.404 42.628 112.389 43.3882 112.35 44.1533C112.267 44.9039 112.058 45.6203 111.849 46.3415C111.664 47.0774 111.299 47.7256 111.012 48.4079L110.554 49.4264L110.024 50.4011C108.651 53.0328 106.948 55.4402 105.157 57.76C103.346 60.07 101.39 62.2484 99.36 64.344C97.3061 66.425 95.1987 68.4231 92.9112 70.2799L93.1838 69.8218V69.8315L90.1808 83.5844L89.4313 87.0104L88.5553 83.6136L81.8145 57.5309L83.4595 57.3165C83.4595 62.6432 83.4157 67.9504 83.1675 73.2868C83.0993 74.6221 83.0215 75.9574 82.8609 77.3171C82.8171 77.6583 82.7733 77.9994 82.7051 78.36C82.6759 78.5306 82.6272 78.7255 82.5786 78.9156C82.4958 79.1349 82.5007 79.3104 82.1843 79.71C81.6538 80.2509 81.1866 80.6749 80.6464 81.1233C78.539 82.8582 76.3001 84.3251 74.0516 85.7628C71.8127 87.2005 69.4961 88.5504 67.3351 89.9832C67.0723 90.1635 66.8095 90.3438 66.5953 90.5241C66.4152 90.6752 66.5612 90.5436 66.4736 90.6606C66.4298 90.7386 66.386 90.8409 66.3422 90.9822C66.1719 91.5037 66.0599 92.147 65.9626 92.7757C65.7874 94.0476 65.6852 95.3586 65.6024 96.6696C65.3153 101.928 65.3299 107.24 65.4175 112.528L65.5489 120.428L63.7627 112.737L54.4132 72.4388L56.0631 72.2682L55.6348 91.5963L55.5277 96.4259C55.4791 97.5858 54.9096 98.3509 54.3937 99.0722C53.8535 99.7934 53.2062 100.359 52.554 100.914C49.8674 103.02 46.7914 104.282 43.7106 105.354C42.158 105.871 40.6152 106.358 38.9945 106.699C37.3981 107.138 35.7628 107.318 34.1275 107.528C30.8423 107.786 27.5327 107.723 24.2718 107.24C21.0206 106.709 17.8279 105.856 14.7762 104.633C13.2431 104.038 11.7636 103.327 10.3035 102.576C8.8823 101.792 7.30538 101.124 6.5802 99.272L6.58993 99.2817Z" fill="white"/>
</g>
<defs>
<linearGradient id="paint0_linear_106_22" x1="-28.9782" y1="70.5382" x2="115.756" y2="-10.6704" gradientUnits="userSpaceOnUse">
<stop stop-color="#1E4A84"/>
<stop offset="1" stop-color="#213176"/>
</linearGradient>
<linearGradient id="paint1_linear_106_22" x1="-5.78692" y1="111.87" x2="138.947" y2="30.6564" gradientUnits="userSpaceOnUse">
<stop stop-color="#1E4A84"/>
<stop offset="1" stop-color="#213176"/>
</linearGradient>
<linearGradient id="paint2_linear_106_22" x1="-23.5028" y1="80.2948" x2="121.231" y2="-0.918695" gradientUnits="userSpaceOnUse">
<stop stop-color="#1E4A84"/>
<stop offset="1" stop-color="#213176"/>
</linearGradient>
<linearGradient id="paint3_linear_106_22" x1="-14.309" y1="96.6841" x2="130.43" y2="15.4754" gradientUnits="userSpaceOnUse">
<stop stop-color="#1E4A84"/>
<stop offset="1" stop-color="#213176"/>
</linearGradient>
<linearGradient id="paint4_linear_106_22" x1="57.8833" y1="139.624" x2="68.7846" y2="43.9178" gradientUnits="userSpaceOnUse">
<stop stop-color="#72A9D3"/>
<stop offset="1" stop-color="#2684B9"/>
</linearGradient>
<linearGradient id="paint5_linear_106_22" x1="-5.57763" y1="112.245" x2="139.157" y2="31.0316" gradientUnits="userSpaceOnUse">
<stop stop-color="#1E4A84"/>
<stop offset="1" stop-color="#213176"/>
</linearGradient>
<linearGradient id="paint6_linear_106_22" x1="-6.12758" y1="111.261" x2="138.607" y2="30.047" gradientUnits="userSpaceOnUse">
<stop stop-color="#1E4A84"/>
<stop offset="1" stop-color="#213176"/>
</linearGradient>
<clipPath id="clip0_106_22">
<rect width="114" height="129" fill="white"/>
</clipPath>
</defs>
</svg>
