<svg width="150" height="191" viewBox="0 0 150 191" fill="none" xmlns="http://www.w3.org/2000/svg">
<g clip-path="url(#clip0_107_189)">
<path d="M104.88 104.63C107.69 106.59 111.41 107.8 114.72 108.64C116.05 108.98 117.39 109.2 118.74 109.31C119.12 107.5 119.36 105.71 119.44 103.96C125.56 103.99 124.34 95.4801 124.34 95.4801L108.95 87.1101C108.55 86.8301 108.12 86.5901 107.68 86.3801L107.63 86.3501C104.31 84.7601 100 84.9501 95.24 87.2401C92.76 92.0701 100.74 101.74 104.88 104.63Z" fill="url(#paint0_linear_107_189)"/>
<path d="M23.8 181.86L75.53 152C71.09 147.79 66.82 143.41 62.3 139.27C56.47 133.93 50.35 128.85 44.9 123.11C41.13 119.15 32.71 112.37 29.09 108.27C23.58 114.76 19.82 123.55 19.82 131.17C19.82 132.82 20 134.32 20.33 135.66C19.79 135.92 19.25 136.2 18.71 136.51C8.38 142.47 0.0100021 156.92 0.0100021 168.77C0.0100021 174.61 2.05 178.73 5.35 180.69L5.47 180.76C5.49 180.76 5.5 180.78 5.52 180.79L21.55 189.54L24.06 182.45L22.56 182.52C22.98 182.31 23.4 182.09 23.82 181.84L23.8 181.86Z" fill="url(#paint1_linear_107_189)"/>
<path d="M77.5 150.86L78.25 150.43C75.92 148.58 73.61 146.72 71.29 144.85C73.35 146.86 75.41 148.88 77.5 150.86Z" fill="#52A5EA"/>
<path d="M113.04 110.42C109.17 109.26 104.83 107.82 101.88 104.95C98.5 101.66 96.59 95.9701 97.62 91.1701C97.28 91.3801 96.94 91.6101 96.6 91.8401C96.46 90.2201 96.18 88.7201 95.8 87.3401C98.53 86.4401 100.24 84.7601 100.24 84.7601L84.42 76.1201C84.36 76.0901 84.31 76.0501 84.25 76.0201L84.2 75.9901C79.69 73.4901 73.51 73.9101 66.68 77.8601C58.93 82.3401 52 90.3901 47.42 99.4001C44.54 98.5801 40.96 99.1801 37.08 101.42C34.77 102.75 32.57 104.55 30.56 106.66C34.55 111.16 43.28 118.4 47.52 122.68C48.34 123.51 49.18 124.33 50.02 125.14C50.24 125.15 50.47 125.23 50.67 125.39C60.57 133.29 70.34 141.38 80.26 149.26L96.73 139.75V139.66C97.33 139.37 97.93 139.06 98.54 138.71C107.62 133.47 115.34 122.39 118.25 111.44C116.5 111.28 114.76 110.93 113.05 110.42H113.04Z" fill="url(#paint2_linear_107_189)"/>
<path d="M37.07 101.42C27.54 106.92 19.82 120.24 19.82 131.17C19.82 132.82 20 134.32 20.33 135.66L36.13 144.29C76.82 150.29 63.21 108.03 63.21 108.03L47.41 99.4001C44.53 98.5801 40.95 99.1801 37.07 101.42Z" fill="url(#paint3_linear_107_189)"/>
<path d="M130.18 108.77C130.18 122.05 120.8 138.23 109.23 144.92C108.81 145.16 108.4 145.38 108 145.59C107.81 145.69 107.61 145.78 107.42 145.87V145.96L80.5 161.51L69.04 168.12L34.5 188.06C33.43 188.68 32.37 189.18 31.35 189.57C22.52 192.95 15.8 188.01 15.8 177.39C15.8 165.54 24.18 151.1 34.5 145.13C35.05 144.81 35.59 144.54 36.12 144.28C35.79 142.93 35.61 141.44 35.61 139.79C35.61 129.76 42.12 117.71 50.55 111.55C51.3 111 52.08 110.49 52.86 110.04C56.74 107.8 60.32 107.2 63.2 108.02C67.78 99.0102 74.71 90.9602 82.46 86.4802C85.04 84.9902 87.53 84.0102 89.87 83.4902C93.5 82.6802 96.78 83.0102 99.49 84.3602C103.83 86.5002 106.72 91.2202 107.31 98.0402C107.94 97.6102 108.58 97.2002 109.24 96.8202C113.46 94.3802 117.39 93.5502 120.68 94.1202C126.41 95.1002 130.2 100.33 130.2 108.77H130.18Z" fill="#DCFFFF"/>
<path d="M127.66 108.77C127.66 114.76 125.6 121.61 121.86 128.06C118.32 134.16 113.72 139.14 108.83 142.21C108.54 142.39 108.26 142.56 107.96 142.73C107.57 142.95 107.2 143.14 106.86 143.32C106.71 143.41 106.58 143.47 106.45 143.53L104.89 144.29V144.51L81.33 158.11L69.87 164.72L33.23 185.88C32.85 186.1 32.47 186.31 32.11 186.49C31.55 186.77 30.99 187.01 30.44 187.22C28.9 187.81 27.45 188.11 26.1 188.11C21.23 188.11 18.33 184.11 18.33 177.4C18.33 175.61 18.54 173.72 18.95 171.79C19.61 168.61 20.82 165.31 22.51 162.08C22.8 161.49 23.13 160.91 23.46 160.34C26.77 154.63 31.15 150.01 35.76 147.33C36.24 147.06 36.71 146.82 37.2 146.59L39.07 145.71L38.58 143.7C38.29 142.53 38.14 141.22 38.14 139.82C38.14 134.68 40.03 128.86 43.09 123.74C44.88 120.73 47.08 117.94 49.54 115.68C50.35 114.94 51.17 114.24 52.04 113.62C52.72 113.12 53.43 112.66 54.13 112.25C56.42 110.92 58.67 110.22 60.6 110.22C61.28 110.22 61.92 110.31 62.52 110.46L64.52 111.03L65.46 109.18C70 100.24 76.66 92.7601 83.72 88.6801C85.59 87.6101 87.42 86.8001 89.19 86.2901C89.6 86.1701 90.01 86.0601 90.41 85.9701C91.54 85.7101 92.63 85.5901 93.67 85.5901C95.4 85.5901 96.98 85.9401 98.37 86.6301C98.54 86.7201 98.71 86.8001 98.87 86.9001C101 88.1201 102.63 90.1801 103.65 92.9301C104.24 94.5001 104.63 96.3001 104.8 98.2701L105.17 102.55L106.74 101.48L108.73 100.14C109.36 99.7101 109.95 99.3501 110.5 99.0201C111.16 98.6401 111.82 98.3001 112.48 98.0201C114.65 97.0201 116.75 96.4901 118.64 96.4901C119.13 96.4901 119.6 96.5101 120.07 96.6001C120.13 96.6001 120.19 96.6101 120.25 96.6201C124.97 97.4301 127.67 101.85 127.67 108.77H127.66Z" fill="#2A8CB7"/>
<path d="M97.26 86.5501C97.43 86.6301 97.6 86.7201 97.76 86.8201C101.12 88.7401 103.21 92.7501 103.68 98.1901L103.99 101.8L105.15 102.56L104.78 98.2701C104.31 92.8301 102.22 88.8201 98.86 86.9001C98.7 86.8001 98.53 86.7201 98.36 86.6301C97.06 85.9801 95.59 85.6401 93.99 85.6001C95.17 85.7401 96.26 86.0601 97.26 86.5501Z" fill="#AACDEC"/>
<path d="M120.24 96.6102C120.18 96.6002 120.12 96.5902 120.06 96.5802C119.64 96.5102 119.2 96.4802 118.76 96.4702C118.83 96.4702 118.9 96.4902 118.96 96.5002C119.02 96.5002 119.08 96.5202 119.14 96.5302C123.86 97.3302 126.56 101.76 126.56 108.69C126.56 114.68 124.5 121.52 120.76 127.97C117.22 134.07 112.62 139.06 107.72 142.13C107.43 142.31 107.15 142.48 106.86 142.65C106.47 142.87 106.1 143.07 105.76 143.24C105.61 143.32 105.48 143.38 105.35 143.44L103.79 144.2V144.41L80.23 158.01L68.78 164.62L32.14 185.78C31.76 186 31.39 186.2 31.01 186.39C30.45 186.67 29.9 186.92 29.35 187.12C27.81 187.71 26.35 188.01 25.01 188.01C25.01 188.01 24.99 188.01 24.98 188.01C25.34 188.06 25.72 188.09 26.11 188.09C27.45 188.09 28.91 187.79 30.45 187.2C31 186.99 31.55 186.75 32.11 186.46C32.48 186.28 32.86 186.07 33.24 185.85L69.88 164.69L81.33 158.08L104.89 144.48V144.27L106.45 143.51C106.58 143.45 106.71 143.38 106.86 143.31C107.2 143.14 107.57 142.94 107.96 142.72C108.25 142.55 108.53 142.38 108.82 142.2C113.72 139.13 118.32 134.14 121.86 128.04C125.6 121.59 127.66 114.75 127.66 108.76C127.66 101.84 124.96 97.4002 120.24 96.6002V96.6102Z" fill="#AACDEC"/>
<path d="M61.42 110.38L63.42 110.95L63.52 110.75L62.52 110.47C61.93 110.3 61.29 110.22 60.61 110.22C60.61 110.22 60.59 110.22 60.58 110.22C60.87 110.26 61.15 110.32 61.42 110.39V110.38Z" fill="#428BD0"/>
<path d="M34.5 147.95C35.05 147.63 35.59 147.35 36.12 147.1C35.92 146.29 35.78 145.42 35.7 144.5C35.3 144.7 34.9 144.91 34.5 145.14C24.17 151.11 15.8 165.55 15.8 177.4C15.8 177.87 15.82 178.33 15.84 178.78C16.47 167.22 24.58 153.68 34.5 147.95Z" fill="#DCFFFF"/>
<path d="M50.56 114.37C51.31 113.82 52.09 113.31 52.87 112.86C56.75 110.62 60.33 110.02 63.21 110.84C67.79 101.83 74.72 93.7801 82.47 89.3001C85.05 87.8101 87.54 86.8301 89.88 86.3101C93.51 85.5001 96.79 85.8301 99.5 87.1801C103.84 89.3201 106.73 94.0401 107.32 100.86C107.95 100.43 108.59 100.02 109.25 99.6401C113.47 97.2001 117.4 96.3701 120.69 96.9401C126.1 97.8601 129.78 102.59 130.17 110.22C130.19 109.74 130.21 109.26 130.21 108.78C130.21 100.34 126.42 95.1101 120.69 94.1301C117.4 93.5601 113.47 94.4001 109.25 96.8301C108.6 97.2101 107.96 97.6201 107.32 98.0501C106.73 91.2301 103.84 86.5001 99.5 84.3701C96.79 83.0201 93.52 82.7001 89.88 83.5001C87.54 84.0201 85.05 85.0001 82.47 86.4901C74.72 90.9701 67.79 99.0301 63.21 108.03C60.33 107.21 56.75 107.81 52.87 110.05C52.09 110.5 51.32 111.01 50.56 111.56C42.13 117.72 35.62 129.77 35.62 139.8C35.62 140.27 35.64 140.73 35.67 141.18C36.24 131.46 42.53 120.24 50.57 114.37H50.56Z" fill="#DCFFFF"/>
<path d="M120.67 94.1301C117.37 93.5501 113.44 94.4001 109.23 96.8301C108.57 97.2001 107.93 97.6101 107.29 98.0501C106.71 91.2301 103.81 86.5101 99.48 84.3601C96.78 83.0201 93.5 82.6901 89.87 83.4901C87.52 84.0101 85.03 84.9901 82.45 86.4801C74.7 90.9701 67.77 99.0101 63.2 108.02C60.31 107.22 56.73 107.81 52.85 110.04C52.07 110.49 51.3 111.01 50.54 111.57C42.11 117.73 35.6 129.77 35.6 139.81C35.6 141.46 35.79 142.96 36.12 144.3C35.58 144.55 35.05 144.84 34.49 145.15C24.16 151.11 15.79 165.56 15.79 177.41C15.79 188.03 22.51 192.97 31.33 189.59C32.36 189.2 33.41 188.7 34.48 188.06L39.34 185.26L41.79 183.86L46.7 181.02L58.14 174.42L65.5 170.15L69.02 168.13L76.91 163.57L79.36 162.15L80.47 161.51L81.81 160.75L84.26 159.33L107.39 145.97V145.87C107.58 145.79 107.78 145.68 107.97 145.58C108.38 145.39 108.79 145.17 109.21 144.92C120.77 138.24 130.15 122.06 130.15 108.79C130.15 100.34 126.38 95.1001 120.65 94.1301H120.67ZM108.82 142.22C108.53 142.41 108.26 142.57 107.95 142.74C107.56 142.97 107.21 143.15 106.86 143.34C106.72 143.42 106.57 143.48 106.45 143.55L104.88 144.29V144.52L84.29 156.41L81.84 157.83L81.32 158.12L79.38 159.23L76.93 160.65L69.86 164.73L65.51 167.24L60.6 170.08L58.15 171.48L46.71 178.08L39.35 182.35L33.23 185.87C32.86 186.1 32.47 186.3 32.1 186.49C31.54 186.76 30.99 187.01 30.43 187.21C28.9 187.81 27.44 188.12 26.1 188.12C21.21 188.12 18.33 184.1 18.33 177.4C18.33 175.61 18.54 173.71 18.95 171.79C19.61 168.59 20.81 165.3 22.52 162.06C22.81 161.48 23.14 160.91 23.47 160.33C26.77 154.62 31.16 149.98 35.75 147.32C36.24 147.05 36.72 146.8 37.19 146.58L39.07 145.69L38.57 143.67C38.28 142.52 38.14 141.2 38.14 139.79C38.14 134.66 40.04 128.84 43.09 123.71C44.88 120.7 47.09 117.92 49.54 115.65C50.34 114.91 51.19 114.21 52.05 113.59C52.73 113.1 53.43 112.62 54.13 112.21C56.42 110.89 58.66 110.19 60.6 110.19C61.28 110.19 61.9 110.27 62.5 110.44L64.52 111.02L65.45 109.16C69.99 100.21 76.64 92.7301 83.71 88.6701C85.59 87.5801 87.42 86.7701 89.17 86.2801C89.6 86.1601 89.99 86.0301 90.41 85.9501C91.54 85.7001 92.62 85.5801 93.67 85.5801C95.4 85.5801 96.97 85.9301 98.35 86.6101C98.54 86.6901 98.7 86.7801 98.87 86.8801C100.99 88.1001 102.62 90.1601 103.65 92.9201C104.23 94.4901 104.62 96.2801 104.78 98.2601L105.15 102.55L106.74 101.46L108.72 100.12C109.36 99.7101 109.94 99.3401 110.49 99.0101C111.15 98.6401 111.81 98.2901 112.47 98.0001C114.63 97.0101 116.74 96.4701 118.63 96.4701C119.1 96.4701 119.58 96.5101 120.05 96.5901C120.11 96.5901 120.17 96.5901 120.24 96.6101C124.96 97.4101 127.66 101.85 127.66 108.75C127.66 114.75 125.6 121.59 121.85 128.04C118.33 134.14 113.73 139.13 108.82 142.2V142.22Z" fill="#DCFFFF"/>
<path d="M65.6 96.2201C41.16 121.28 39.91 170.27 39.91 170.27L105.64 133.11C105.64 133.11 106.89 84.1201 131.33 59.0601L65.6 96.2201Z" fill="#9AA2FF"/>
<path d="M67.05 97.17C42.61 122.23 41.36 171.22 41.36 171.22L107.09 134.06C107.09 134.06 108.34 85.07 132.78 60.01L67.05 97.17Z" fill="#E1E6FF"/>
<path d="M43 156.68C41.77 178.91 109.23 96.8301 109.23 96.8301L110.82 90.1501L55.94 120.94C55.94 120.94 44.23 134.45 43 156.68Z" fill="#A7BBFF"/>
<path d="M46.96 139.38L42.42 159.21L98.86 127.3L78.69 121.45C69.58 113 52.55 126.66 46.96 139.39V139.38Z" fill="#9AA2FF"/>
<path d="M47.61 140.02L43.07 159.85L99.51 127.94L79.34 122.09C70.23 113.64 53.19 127.3 47.61 140.03V140.02Z" fill="#CBD2FF"/>
<path d="M46.4 149.26L46.24 151.32L46.34 149.79C46.36 149.63 46.36 149.44 46.4 149.25V149.26Z" fill="#DCFFFF"/>
<path d="M48.77 153.45L62.44 165.61L31.19 183.34C30.82 183.55 30.45 183.75 30.1 183.94C29.56 184.21 29.03 184.46 28.53 184.68C27.11 185.28 26.78 187.79 25.66 187.92C23.91 188.15 21.7 185.61 20.98 184.64C20.05 183.38 20.03 181.18 21 178.21C21.45 176.81 22.11 175.3 22.94 173.76C24.3 171.2 26.14 168.5 28.36 165.8C28.75 165.33 29.18 164.83 29.6 164.34C33.78 159.56 38.59 155.5 43.08 152.94C43.53 152.67 44.01 152.45 44.46 152.2L46.23 151.33L48.77 153.45Z" fill="url(#paint4_linear_107_189)"/>
<path d="M96.5 146.27L62.43 165.6L48.76 153.44L46.22 151.32L46.38 149.26L46.4 149.12C46.48 148.4 46.67 147.64 46.94 146.81C48.26 142.79 51.31 138.05 55.14 133.72C57.39 131.18 59.9 128.79 62.52 126.77C62.99 126.4 63.49 126.05 63.96 125.7C64.35 125.41 64.72 125.14 65.11 124.9C65.81 124.45 66.51 124.01 67.19 123.62C69.42 122.36 71.46 121.58 73.04 121.39C73.62 121.31 74.11 121.33 74.57 121.39L76.1 121.64L78.64 123.74L96.49 146.27H96.5Z" fill="url(#paint5_linear_107_189)"/>
<path d="M128.93 113.5C127.4 118.18 123.94 123.74 119.22 129.17C114.73 134.3 109.66 138.67 104.83 141.56C104.54 141.72 104.27 141.89 103.98 142.05C103.59 142.28 103.24 142.46 102.91 142.63C102.77 142.71 102.64 142.77 102.52 142.84L101.04 143.58L100.98 143.74L96.51 146.28L78.66 123.75L76.12 121.65L77.36 120.1C78.49 118.7 79.69 117.32 80.95 116C86.16 110.27 92.1 105.38 97.69 102.21C99.52 101.2 101.24 100.38 102.82 99.8001C103.19 99.6601 103.56 99.5301 103.91 99.4301C104.92 99.1201 105.85 98.9101 106.71 98.8101C108.13 98.6201 109.35 98.7501 110.32 99.1401C110.44 99.1801 110.57 99.2401 110.67 99.3001C110.96 99.4401 111.23 99.6301 111.47 99.8401C111.68 100 114.03 101.9 114.21 102.13C114.81 102.91 112.99 102.25 113.1 103.53C113.18 104.71 113.04 106.07 112.69 107.59L111.89 110.91L113.48 109.9L115.46 108.66C116.1 108.27 116.68 107.92 117.21 107.61C117.85 107.24 118.49 106.91 119.11 106.62C121.15 105.61 123.03 104.99 124.59 104.81C125 104.77 125.37 104.73 125.74 104.75H125.88C127.01 104.79 127.9 105.12 128.54 105.72C128.77 105.95 130.95 107.6 131.12 107.88C131.99 109.36 129.94 110.37 128.93 113.51V113.5Z" fill="#DCFFFF"/>
<path d="M131.45 115.62C129.93 120.31 126.48 125.87 121.75 131.29C117.27 136.42 112.2 140.78 107.37 143.67C107.08 143.84 106.81 144 106.52 144.17C106.14 144.38 105.79 144.57 105.46 144.74C105.32 144.82 105.19 144.88 105.06 144.94L103.58 145.69L103.52 145.86L80.57 158.88L69.41 165.21L33.71 185.45C33.34 185.66 32.98 185.86 32.63 186.04C32.09 186.32 31.57 186.56 31.06 186.78C29.64 187.39 28.36 187.78 27.24 187.91C23.21 188.4 21.83 185.56 23.54 180.31C24 178.91 24.65 177.41 25.48 175.86C26.84 173.3 28.67 170.6 30.9 167.9C31.29 167.41 31.71 166.92 32.13 166.44C36.32 161.64 41.12 157.58 45.62 155.03C46.08 154.77 46.54 154.53 47 154.3L48.77 153.42L48.88 151.89C48.94 151 49.15 150 49.5 148.9C50.81 144.88 53.85 140.14 57.69 135.82C59.94 133.28 62.47 130.88 65.08 128.86C65.94 128.2 66.8 127.57 67.67 126.99C68.36 126.53 69.07 126.1 69.74 125.71C71.98 124.44 74.01 123.67 75.61 123.47C76.17 123.4 76.68 123.4 77.13 123.47L78.64 123.72L79.89 122.17C85.92 114.72 93.34 108.2 100.22 104.3C102.04 103.27 103.76 102.46 105.35 101.88C105.72 101.74 106.09 101.62 106.44 101.51C107.44 101.2 108.37 100.99 109.23 100.89C110.66 100.72 111.88 100.83 112.85 101.23C112.97 101.28 113.09 101.33 113.2 101.39C114.66 102.13 115.47 103.58 115.62 105.62C115.7 106.79 115.57 108.16 115.21 109.68L114.42 112.99L116 111.99L117.99 110.74C118.62 110.34 119.2 110 119.74 109.68C120.38 109.32 121.01 108.98 121.63 108.7C123.68 107.7 125.55 107.08 127.12 106.89C127.52 106.84 127.91 106.81 128.27 106.83C128.32 106.83 128.37 106.83 128.42 106.83C132.12 106.98 133.22 110.18 131.46 115.59L131.45 115.62Z" fill="url(#paint6_linear_107_189)"/>
<g style="mix-blend-mode:multiply">
<path d="M72.16 136.39C73.03 132.8 70.1 126.27 69.75 125.75C69.38 125.23 63.98 125.71 63.98 125.71C64.37 125.42 64.74 125.15 65.13 124.91C65.83 124.46 66.53 124.02 67.21 123.63C69.44 122.37 71.48 121.59 73.06 121.4C73.64 121.32 74.13 121.34 74.59 121.4L76.12 121.65L77.36 120.1C78.49 118.7 79.69 117.32 80.95 116L121.99 111.86L71.32 140.02L72.16 136.39Z" fill="#6ECED8"/>
</g>
<path d="M141.66 86.65H141.61C140.69 86.38 139.71 86.27 138.69 86.3C132.73 85.81 126.74 87.07 121.47 89.95L65.84 120.4C74.48 118.3 77.67 122.08 77.67 122.08H77.65C80.4 124.64 82.44 129.19 83.21 136.42L148.94 99.26C148.11 91.42 145.33 87.76 141.65 86.66L141.66 86.65Z" fill="#9AA2FF"/>
<path d="M142.69 86.0102H142.64C141.72 85.7402 140.74 85.6302 139.72 85.6602C133.76 85.1702 127.77 86.4202 122.5 89.3102L66.87 119.76C75.51 117.66 78.7 121.44 78.7 121.44H78.68C81.43 124 83.47 128.55 84.24 135.78L149.97 98.6202C149.14 90.7802 146.36 87.1202 142.68 86.0202L142.69 86.0102Z" fill="#F8F9FF"/>
<path d="M93.74 42.6101L103.45 48.2601L71.5 88.9601L48.81 68.5601L93.74 42.6101Z" fill="url(#paint7_linear_107_189)"/>
<path d="M58.52 62.95L58.53 36.19L84.03 21.48L68.24 68.59L58.52 62.95Z" fill="url(#paint8_linear_107_189)"/>
<path d="M48.81 68.5601L71.5 88.9601L81.21 94.6101L58.52 74.2101L48.81 68.5601Z" fill="url(#paint9_linear_107_189)"/>
<path d="M68.24 41.84L58.53 36.19L84.03 21.48L93.74 27.13L68.24 41.84Z" fill="url(#paint10_linear_107_189)"/>
<path d="M68.24 20.37L58.53 14.72L84.03 0L93.74 5.65L68.24 20.37Z" fill="url(#paint11_linear_107_189)"/>
<path d="M58.52 28.2L58.53 14.72L68.24 20.37L68.23 33.85L58.52 28.2Z" fill="url(#paint12_linear_107_189)"/>
<path d="M68.23 77.9899L68.24 41.8399L93.74 27.1299L93.73 63.2699L68.23 77.9899Z" fill="url(#paint13_linear_107_189)"/>
<path d="M68.23 33.8499L68.24 20.3699L93.74 5.6499L93.73 19.1299L68.23 33.8499Z" fill="url(#paint14_linear_107_189)"/>
<path d="M103.45 48.26L81.21 94.61L58.52 74.21L103.45 48.26Z" fill="url(#paint15_linear_107_189)"/>
</g>
<defs>
<linearGradient id="paint0_linear_107_189" x1="103.81" y1="104.09" x2="112.67" y2="88.7501" gradientUnits="userSpaceOnUse">
<stop stop-color="#5BBAF2"/>
<stop offset="0.05" stop-color="#61CAF2"/>
<stop offset="0.09" stop-color="#6CCBF6"/>
<stop offset="0.17" stop-color="#7DCEFC"/>
<stop offset="0.23" stop-color="#83CFFF"/>
<stop offset="0.43" stop-color="#83CFFF"/>
<stop offset="0.66" stop-color="#9EE6FF"/>
</linearGradient>
<linearGradient id="paint1_linear_107_189" x1="18.38" y1="188.23" x2="55.68" y2="123.62" gradientUnits="userSpaceOnUse">
<stop stop-color="#1E4A84"/>
<stop offset="1" stop-color="#213176"/>
</linearGradient>
<linearGradient id="paint2_linear_107_189" x1="59.13" y1="137.08" x2="92.06" y2="80.0401" gradientUnits="userSpaceOnUse">
<stop stop-color="#1E4A84"/>
<stop offset="1" stop-color="#213176"/>
</linearGradient>
<linearGradient id="paint3_linear_107_189" x1="33.19" y1="143.09" x2="55.88" y2="103.8" gradientUnits="userSpaceOnUse">
<stop stop-color="#1E4A84"/>
<stop offset="1" stop-color="#213176"/>
</linearGradient>
<linearGradient id="paint4_linear_107_189" x1="30.3" y1="191.11" x2="51.51" y2="154.37" gradientUnits="userSpaceOnUse">
<stop stop-color="#2184BF"/>
<stop offset="0.17" stop-color="#30A3CF"/>
<stop offset="0.18" stop-color="#38A6D1"/>
<stop offset="0.24" stop-color="#69BDE1"/>
<stop offset="0.31" stop-color="#8FCFEE"/>
<stop offset="0.37" stop-color="#ABDCF7"/>
<stop offset="0.42" stop-color="#BCE4FD"/>
<stop offset="0.46" stop-color="#C2E7FF"/>
<stop offset="0.79" stop-color="#C2E7FF"/>
<stop offset="0.93" stop-color="#E6F8FF"/>
</linearGradient>
<linearGradient id="paint5_linear_107_189" x1="60.93" y1="164.74" x2="83.39" y2="125.84" gradientUnits="userSpaceOnUse">
<stop stop-color="#2184BF"/>
<stop offset="0.17" stop-color="#30A3CF"/>
<stop offset="0.18" stop-color="#38A6D1"/>
<stop offset="0.28" stop-color="#69BDE1"/>
<stop offset="0.37" stop-color="#8FCFEE"/>
<stop offset="0.46" stop-color="#ABDCF7"/>
<stop offset="0.54" stop-color="#BCE4FD"/>
<stop offset="0.59" stop-color="#C2E7FF"/>
<stop offset="0.79" stop-color="#C2E7FF"/>
<stop offset="0.93" stop-color="#E6F8FF"/>
</linearGradient>
<linearGradient id="paint6_linear_107_189" x1="22.82" y1="144.41" x2="132.27" y2="144.41" gradientUnits="userSpaceOnUse">
<stop stop-color="#72A9D3"/>
<stop offset="1" stop-color="#2684B9"/>
</linearGradient>
<linearGradient id="paint7_linear_107_189" x1="48.81" y1="65.7901" x2="103.45" y2="65.7901" gradientUnits="userSpaceOnUse">
<stop stop-color="#1E4A84"/>
<stop offset="1" stop-color="#213176"/>
</linearGradient>
<linearGradient id="paint8_linear_107_189" x1="58.52" y1="45.04" x2="84.03" y2="45.04" gradientUnits="userSpaceOnUse">
<stop stop-color="#1E4A84"/>
<stop offset="1" stop-color="#213176"/>
</linearGradient>
<linearGradient id="paint9_linear_107_189" x1="48.81" y1="81.5801" x2="81.21" y2="81.5801" gradientUnits="userSpaceOnUse">
<stop stop-color="#1E4A84"/>
<stop offset="1" stop-color="#213176"/>
</linearGradient>
<linearGradient id="paint10_linear_107_189" x1="58.53" y1="31.66" x2="93.74" y2="31.66" gradientUnits="userSpaceOnUse">
<stop stop-color="#1E4A84"/>
<stop offset="1" stop-color="#213176"/>
</linearGradient>
<linearGradient id="paint11_linear_107_189" x1="58.53" y1="10.18" x2="93.74" y2="10.18" gradientUnits="userSpaceOnUse">
<stop stop-color="#1E4A84"/>
<stop offset="1" stop-color="#213176"/>
</linearGradient>
<linearGradient id="paint12_linear_107_189" x1="58.52" y1="24.28" x2="68.24" y2="24.28" gradientUnits="userSpaceOnUse">
<stop stop-color="#1E4A84"/>
<stop offset="1" stop-color="#213176"/>
</linearGradient>
<linearGradient id="paint13_linear_107_189" x1="58.67" y1="66.1099" x2="101.56" y2="40.0699" gradientUnits="userSpaceOnUse">
<stop stop-color="#72A9D3"/>
<stop offset="1" stop-color="#2684B9"/>
</linearGradient>
<linearGradient id="paint14_linear_107_189" x1="68.23" y1="19.7499" x2="93.74" y2="19.7499" gradientUnits="userSpaceOnUse">
<stop stop-color="#72A9D3"/>
<stop offset="1" stop-color="#2684B9"/>
</linearGradient>
<linearGradient id="paint15_linear_107_189" x1="69.8" y1="84.45" x2="112.7" y2="58.41" gradientUnits="userSpaceOnUse">
<stop stop-color="#72A9D3"/>
<stop offset="1" stop-color="#2684B9"/>
</linearGradient>
<clipPath id="clip0_107_189">
<rect width="149.99" height="190.63" fill="white"/>
</clipPath>
</defs>
</svg>
