<svg width="92" height="123" viewBox="0 0 92 123" fill="none" xmlns="http://www.w3.org/2000/svg">
<g clip-path="url(#clip0_107_236)">
<path d="M10.5781 101.467C10.6973 101.556 10.8463 101.645 10.9804 101.734C10.5781 101.452 10.1759 101.139 9.77359 100.827C10.0567 101.05 10.3248 101.273 10.5781 101.467Z" fill="#B17DFF"/>
<path d="M12.2468 102.552C11.8147 102.299 11.3976 102.032 10.9804 101.749C11.3976 102.032 11.8594 102.314 12.2468 102.552Z" fill="#B17DFF"/>
<path d="M51.5498 13.3841C29.7082 25.9652 12.0531 56.4958 12.1276 81.539C12.2021 106.597 29.9614 116.695 51.8031 104.114C73.6447 91.5324 91.2998 61.0018 91.2253 35.9586C91.1508 10.9006 73.3914 0.803019 51.5498 13.3841Z" fill="url(#paint0_linear_107_236)"/>
<path d="M9.75867 81.8069C9.68417 55.8417 27.965 24.2254 50.6111 11.1834C61.9938 4.62516 72.3187 4.01543 79.7681 8.32809L70.2924 2.84061C69.622 2.45396 68.9068 2.11192 68.1917 1.79962C67.8341 1.63604 67.4766 1.48732 67.1488 1.35348C66.2251 1.01145 64.9438 0.639664 63.9753 0.46121C60.3251 -0.222867 58.0009 0.000201182 56.1237 0.178656C55.0659 0.282755 53.6803 0.505823 52.6523 0.773506C51.0283 1.1899 48.8829 1.87398 47.2887 2.42421C46.1415 2.82574 44.6665 3.53956 43.5789 4.06005C42.6701 4.50619 41.4931 5.17539 40.6141 5.65127C35.2356 8.7891 31.6152 11.9121 30.6468 12.8043C27.1306 15.9719 26.8476 16.2247 24.6574 18.5595C21.4691 21.9501 19.1449 25.0285 19.1151 25.0582C16.3439 28.776 15.9119 29.3412 14.1091 32.1667C13.5132 33.0887 11.7104 35.9142 9.71397 39.7659C5.97437 46.9636 3.99284 52.9269 3.12871 55.8417C2.57745 57.7452 1.80271 60.3626 1.11737 64.0655C0.521418 67.3074 0.476722 67.7684 0.104252 72.2447C-0.0596344 74.2374 -0.134128 79.7546 0.715102 84.1565C1.02798 85.7924 1.9964 90.7445 4.60369 94.9084C5.78069 96.7822 6.73421 98.0016 8.01551 99.2954C8.43267 99.7118 8.95413 100.158 9.47559 100.589C9.56498 100.664 9.66927 100.753 9.75867 100.827C10.146 101.139 10.5483 101.452 10.9655 101.734C11.3826 102.017 11.7998 102.299 12.2319 102.537L21.7075 108.025C14.3475 103.757 9.78846 94.6854 9.75867 81.792V81.8069Z" fill="url(#paint1_linear_107_236)"/>
<path d="M89.9142 21.4296C89.5715 20.3738 88.9606 19.0205 88.4988 18.0093C88.2008 17.3847 87.724 16.5816 87.3814 15.9719C86.8748 15.0499 86.0107 13.9643 85.37 13.1315C84.7443 12.3136 83.7759 11.3321 82.9862 10.6629C82.0774 9.88956 80.7663 8.95267 79.7532 8.32808C72.3038 4.00055 61.9789 4.61027 50.5963 11.1834C27.965 24.2254 9.6842 55.8566 9.7587 81.8069C9.78849 94.7002 14.3624 103.772 21.7075 108.04C23.3166 108.887 24.4638 109.512 26.788 110.137C28.4567 110.583 30.6319 110.88 32.3006 110.88C34.4907 110.88 36.5169 110.702 38.3048 110.33C41.6868 109.631 44.0855 108.754 45.486 108.129C47.3632 107.311 49.1362 106.538 51.9074 104.902C55.5278 102.76 58.284 100.574 58.2989 100.545C61.4277 98.0016 62.858 96.8268 64.4223 95.2505C66.1804 93.4659 68.4599 91.0419 70.1286 89.1681C70.9927 88.2015 72.0654 86.8185 72.87 85.7924C73.6745 84.7662 74.7174 83.3832 75.4474 82.3125C76.9075 80.1264 78.7997 77.1819 80.1555 74.9363C81.3474 72.9733 82.2413 71.1591 84.193 67.1736C84.193 67.1438 85.9064 63.5747 87.4857 59.158C88.6627 55.8417 89.1096 54.1315 89.9291 51.0383C89.9291 51.0085 90.8975 47.3056 91.4487 42.9334C91.6722 41.1786 91.9702 38.4423 91.9702 34.9922C91.9702 31.8246 91.7467 26.9766 89.8844 21.3999L89.9142 21.4296ZM51.818 104.114C29.9763 116.695 12.2021 106.597 12.1425 81.5392C12.068 56.4811 29.7231 25.9654 51.5647 13.3843C73.4063 0.803235 91.1806 10.9008 91.2402 35.9588C91.3147 61.002 73.6596 91.5327 51.818 104.114Z" fill="#F8F9FF"/>
<path d="M33.4776 100.857L31.4513 99.1913L21.9757 93.7038C21.9757 93.7038 21.9161 93.6741 21.9012 93.6592C24.3297 95.6371 26.7433 97.6149 29.1569 99.5928C30.0211 100.307 31.1832 101.258 32.0622 101.972C32.4943 102.329 33.0753 102.805 33.5223 103.162C34.3864 103.876 35.5485 104.827 36.4275 105.541C37.2917 106.255 38.4538 107.207 39.3328 107.921C39.7649 108.278 40.3459 108.753 40.778 109.11C41.6421 109.824 42.8042 110.776 43.6832 111.49C46.1117 113.468 48.5253 115.446 50.9538 117.423C50.9836 117.438 51.0134 117.468 51.0432 117.483L60.1166 122.747C57.1964 120.383 53.7101 117.617 50.7602 115.208C50.0897 114.657 37.9025 104.485 33.4627 100.872L33.4776 100.857Z" fill="url(#paint2_linear_107_236)"/>
<path d="M37.3364 84.8553L37.2023 35.7505C37.0086 35.6315 36.9192 35.5869 36.9192 35.5869C36.9639 51.9453 37.0086 68.3185 37.0533 84.6917C37.0533 84.6917 37.0831 84.6917 37.098 84.7215C37.1427 84.7364 37.2023 84.781 37.3364 84.8702V84.8553Z" fill="#274347"/>
<path d="M46.812 90.3577L46.6779 41.2529L37.2023 35.7654L37.3364 84.8553L46.812 90.3577Z" fill="url(#paint3_linear_107_236)"/>
<path d="M74.2853 74.5199L89.348 65.8351L79.8724 60.3476C79.6787 60.2287 79.3062 60.3476 78.8444 60.6153C77.3098 61.4927 75.7752 62.385 74.2406 63.2624V63.5896C74.2406 67.233 74.2555 70.8765 74.2704 74.5199H74.2853Z" fill="url(#paint4_linear_107_236)"/>
<path d="M46.812 90.3578L37.3364 84.8703C37.2023 84.796 37.1278 84.7514 37.098 84.7216L37.0533 84.6919C32.0175 87.5918 26.9817 90.4917 21.9608 93.3916C21.7969 93.4957 21.782 93.5998 21.9757 93.7187L31.4513 99.2062L46.812 90.3578Z" fill="url(#paint5_linear_107_236)"/>
<path d="M73.8533 25.5786L64.3777 20.0911C64.184 19.9722 63.9158 20.0317 63.6178 20.1952C54.7083 25.3258 45.8138 30.4564 36.9043 35.587C36.9043 35.587 36.9937 35.6465 37.1874 35.7506L46.663 41.238L73.8533 25.5638V25.5786Z" fill="url(#paint6_linear_107_236)"/>
<path d="M86.4874 72.4675C86.1746 73.107 85.817 73.8059 85.4296 74.5644C85.7872 73.8654 86.1299 73.1665 86.4874 72.4675Z" fill="#7D9599"/>
<path d="M46.812 90.3578L31.4513 99.2062L33.4776 100.872C33.4776 100.872 33.4776 100.872 33.4627 100.872C35.5634 99.6672 42.4019 95.5181 48.9574 91.7408C48.9574 88.4245 48.9425 85.1975 48.9276 81.9853C48.9276 78.4013 48.9127 76.245 48.8978 70.7278C48.8978 65.6716 48.868 60.764 48.8531 55.9904C48.8531 50.6962 48.8084 42.6211 48.8084 42.6211C50.5069 41.6396 52.2798 40.6284 54.0826 39.5874C55.8555 38.5613 56.7346 38.0557 59.2972 36.5834C62.1726 34.9178 65.0779 33.2523 67.8789 31.6462C69.6667 30.62 73.3914 28.6124 73.3914 28.6124C73.3914 28.6124 73.3914 28.7017 73.3914 28.8355C73.3914 29.0288 73.3914 29.2816 73.3914 29.5642C73.3914 29.698 73.3914 29.8467 73.3914 29.9955V30.278C73.3914 30.5457 73.3914 30.8282 73.3914 31.1405C73.3914 31.4231 73.3914 31.7205 73.3914 32.0477C73.3914 32.1964 73.3914 32.3451 73.3914 32.4938C73.3914 32.9697 73.3914 33.4753 73.3914 34.0107C73.3914 34.4122 73.3914 34.8286 73.3914 35.2599C73.3914 36.8065 73.3914 38.5464 73.3914 40.4351C73.3914 40.5838 73.3914 40.7325 73.3914 40.8812C73.3914 42.6658 73.3914 44.5544 73.4063 46.5025C73.4063 46.6364 73.4063 46.7702 73.4063 46.9041C73.4063 47.2164 73.4063 47.5286 73.4063 47.8558C73.4063 47.945 73.4063 48.0194 73.4063 48.0938C73.4063 51.1721 73.4212 54.3545 73.4361 57.4478V60.9276C73.4361 61.2845 73.4361 61.6414 73.4361 61.9984V63.7234L73.451 67.9617C73.451 70.4452 73.451 72.9733 73.4659 75.5014C73.4659 76.0665 73.4659 76.5424 73.4659 76.9291C73.4659 77.1968 73.4659 77.4496 73.4659 77.7173C75.075 76.7952 76.3414 75.9178 77.7568 75.1148C79.6191 74.0441 81.258 73.0923 82.6883 72.2744C83.1948 71.977 83.6716 71.7093 84.1185 71.4565C85.3402 70.7575 87.4261 69.6124 88.0965 69.2407C88.0816 69.2704 88.0518 69.315 88.0369 69.3596C88.4094 68.6309 88.7819 67.8874 89.1394 67.1587C89.1394 67.1587 89.1394 67.1884 89.1245 67.1884C89.4672 66.5043 89.5566 66.0136 89.3033 65.8649L74.2407 74.5497C74.2407 70.9062 74.2258 67.2628 74.2109 63.6193V63.2922C74.2109 59.0836 74.1811 54.875 74.1811 50.6814C74.1513 42.5617 74.1364 34.4568 74.1066 26.3371C74.1066 26.3817 74.0768 26.4561 74.0768 26.5156C74.1066 26.0992 74.047 25.7572 73.8235 25.6382L46.6332 41.3125L46.7673 90.4173L46.812 90.3578Z" fill="#FDFDFD"/>
<path d="M87.8283 69.8057C87.5304 70.4154 87.0685 71.3077 86.5023 72.4527C86.9493 71.5753 87.3963 70.6979 87.8283 69.8057Z" fill="#7D9599"/>
<path d="M60.9062 122.941C60.9062 122.941 60.8466 122.97 60.8019 122.985C60.8317 122.985 60.8764 122.956 60.9062 122.941Z" fill="#7D9599"/>
<path d="M69.8902 105.348C69.8902 105.348 69.8753 105.393 69.8604 105.407C75.0452 95.1463 80.2151 84.8852 85.3998 74.624C80.4981 84.3349 70.9182 103.326 69.8902 105.348Z" fill="#7D9599"/>
<path d="M85.3998 74.6092C85.3998 74.6092 85.4147 74.5646 85.4296 74.5497C85.817 73.7913 86.1597 73.0923 86.4874 72.4529C86.4874 72.4529 86.4874 72.4529 86.4874 72.438C87.0685 71.2929 87.5155 70.4006 87.8134 69.7909C87.9177 69.5976 87.9922 69.434 88.0667 69.3002C88.0816 69.2704 88.1114 69.2109 88.1263 69.1812C87.4559 69.5679 85.37 70.6981 84.1483 71.397C83.7014 71.6498 83.2395 71.9324 82.7181 72.2149C81.2878 73.0329 79.6489 73.9846 77.7866 75.0553C76.3712 75.8733 75.1048 76.7358 73.4957 77.6578C73.4957 77.4942 73.4957 77.2117 73.4957 76.8696C73.4957 76.483 73.4957 76.022 73.4957 75.442C73.4957 73.1667 73.4808 69.4786 73.4659 65.1065C73.4659 64.705 73.4659 64.3183 73.4659 63.9317C73.4659 63.2773 73.4659 62.6081 73.4659 61.9389C73.4659 61.582 73.4659 61.2251 73.4659 60.8682C73.4659 59.7231 73.4659 58.5631 73.4659 57.3883C73.4659 54.2951 73.451 51.1126 73.4361 48.0343C73.4361 47.9599 73.4361 47.8707 73.4361 47.7964C73.4361 47.4841 73.4361 47.1718 73.4361 46.8446C73.4361 46.7108 73.4361 46.5769 73.4361 46.4431C73.4361 44.4949 73.4361 42.6063 73.4212 40.8217C73.4212 40.673 73.4212 40.5243 73.4212 40.3756C73.4212 38.5018 73.4212 36.747 73.4212 35.2004C73.4212 34.7692 73.4212 34.3528 73.4212 33.9512C73.4212 33.4159 73.4212 32.9102 73.4212 32.4344C73.4212 32.2857 73.4212 32.1369 73.4212 31.9882C73.4212 31.6611 73.4212 31.3785 73.4212 31.0811C73.4212 30.7688 73.4212 30.4862 73.4212 30.2186V29.936C73.4212 29.7724 73.4212 29.6386 73.4212 29.5047C73.4212 29.2222 73.4212 28.9694 73.4212 28.776C73.4212 28.7017 73.4212 28.6125 73.4212 28.553C73.4212 28.553 69.6965 30.5606 67.9087 31.5867C65.1077 33.2077 62.2024 34.8733 59.327 36.524C56.7644 37.9962 55.8853 38.5018 54.1124 39.528C52.3096 40.5689 50.5367 41.5802 48.8382 42.5617C48.8382 42.5617 48.868 50.6368 48.8829 55.9309C48.8829 60.6897 48.9127 65.5972 48.9276 70.6683C48.9425 76.1707 48.9574 78.3419 48.9574 81.9258C48.9574 85.1232 48.9723 88.3651 48.9872 91.6814C42.4317 95.4587 35.5932 99.6078 33.4925 100.812C33.4925 100.812 33.4925 100.812 33.5074 100.812C37.9472 104.441 50.1195 114.598 50.8048 115.148C53.7399 117.557 57.2411 120.323 60.1613 122.688C60.206 122.733 60.2656 122.777 60.3103 122.807C60.4742 122.941 60.6678 122.97 60.8466 122.926C60.8764 122.926 60.9211 122.896 60.9509 122.881C61.0701 122.822 61.1744 122.747 61.234 122.614C63.8413 117.409 67.2382 110.612 69.9051 105.348C69.9051 105.333 69.92 105.303 69.9349 105.289C70.9629 103.266 80.5428 84.2755 85.4445 74.5646L85.3998 74.6092Z" fill="url(#paint7_linear_107_236)"/>
</g>
<defs>
<linearGradient id="paint0_linear_107_236" x1="12.1276" y1="58.7414" x2="91.2402" y2="58.7414" gradientUnits="userSpaceOnUse">
<stop stop-color="#72A9D3"/>
<stop offset="1" stop-color="#2684B9"/>
</linearGradient>
<linearGradient id="paint1_linear_107_236" x1="-3.93023e-05" y1="54.0274" x2="79.7681" y2="54.0274" gradientUnits="userSpaceOnUse">
<stop stop-color="#1E4A84"/>
<stop offset="1" stop-color="#213176"/>
</linearGradient>
<linearGradient id="paint2_linear_107_236" x1="21.9012" y1="108.203" x2="60.1315" y2="108.203" gradientUnits="userSpaceOnUse">
<stop stop-color="#1E4A84"/>
<stop offset="1" stop-color="#213176"/>
</linearGradient>
<linearGradient id="paint3_linear_107_236" x1="37.2023" y1="63.0541" x2="46.812" y2="63.0541" gradientUnits="userSpaceOnUse">
<stop stop-color="#1E4A84"/>
<stop offset="1" stop-color="#213176"/>
</linearGradient>
<linearGradient id="paint4_linear_107_236" x1="74.2555" y1="67.4115" x2="89.348" y2="67.4115" gradientUnits="userSpaceOnUse">
<stop stop-color="#1E4A84"/>
<stop offset="1" stop-color="#213176"/>
</linearGradient>
<linearGradient id="paint5_linear_107_236" x1="21.8267" y1="91.9491" x2="46.812" y2="91.9491" gradientUnits="userSpaceOnUse">
<stop stop-color="#1E4A84"/>
<stop offset="1" stop-color="#213176"/>
</linearGradient>
<linearGradient id="paint6_linear_107_236" x1="36.9192" y1="30.6348" x2="73.8533" y2="30.6348" gradientUnits="userSpaceOnUse">
<stop stop-color="#1E4A84"/>
<stop offset="1" stop-color="#213176"/>
</linearGradient>
<linearGradient id="paint7_linear_107_236" x1="33.4627" y1="75.7989" x2="88.1263" y2="75.7989" gradientUnits="userSpaceOnUse">
<stop stop-color="#72A9D3"/>
<stop offset="1" stop-color="#2684B9"/>
</linearGradient>
<clipPath id="clip0_107_236">
<rect width="92" height="123" fill="white"/>
</clipPath>
</defs>
</svg>
