<svg width="173" height="171" viewBox="0 0 173 171" fill="none" xmlns="http://www.w3.org/2000/svg">
<g clip-path="url(#clip0_107_35)">
<path d="M111.826 72.9309L99.7136 1.36275L100.687 0.955265L99.2244 0.121552V0.13092C98.9421 -0.0564313 98.5423 -0.0470637 98.1001 0.210544L1.27977 55.8679C0.48481 56.3269 -0.117289 57.4978 0.0238283 58.3175L12.2352 130.452C12.301 130.827 12.4845 131.075 12.7432 131.188L14.1779 132.012L14.4225 130.682L14.3425 130.705L110.575 75.3805C111.37 74.9215 111.972 73.7505 111.831 72.9309H111.826Z" fill="url(#paint0_linear_107_35)"/>
<path d="M1.8157 57.8259L0.225784 57.1233C0.0470361 57.5308 -0.0423379 57.957 0.0188128 58.3177L12.2301 130.452C12.296 130.827 12.4794 131.075 12.7382 131.188L14.1728 132.012L14.4174 130.682L14.3375 130.705L19.206 127.905L1.8157 57.8259Z" fill="url(#paint1_linear_107_35)"/>
<path d="M112.089 76.2472L15.2689 131.909C14.5209 132.34 13.8812 132.092 13.7495 131.319L1.53817 59.1842C1.39705 58.3645 1.99915 57.1936 2.79411 56.7346L99.6145 1.07258C100.362 0.641673 101.002 0.889913 101.134 1.66274L113.345 73.7976C113.486 74.6172 112.884 75.7882 112.089 76.2472Z" fill="url(#paint2_linear_107_35)"/>
<path d="M98.3492 5.67651L5.0238 59.3292L16.5954 127.267L109.86 73.6522L98.3492 5.67651Z" fill="white"/>
<path d="M172.953 110.401L167.671 113.151L114.686 82.692C113.801 82.1815 112.249 82.2471 111.228 82.8325L19.8505 135.366C18.9755 134.879 14.9866 132.968 14.9866 132.968L16.9199 137.984C16.9199 137.984 16.9246 137.979 16.9293 137.979C17.0093 138.204 17.1834 138.41 17.4703 138.579L73.2727 170.658C74.157 171.169 75.7093 171.103 76.73 170.518L170.239 116.762C170.657 116.518 170.916 116.228 171.024 115.933H171.034L172.958 110.406L172.953 110.401Z" fill="url(#paint3_linear_107_35)"/>
<path d="M172.134 111.263L76.2973 166.358C75.2483 166.963 73.6631 167.028 72.7552 166.504L15.5652 133.628C14.6574 133.108 14.7703 132.195 15.8192 131.591L111.656 76.4954C112.705 75.8912 114.291 75.8256 115.198 76.3502L172.388 109.226C173.296 109.75 173.183 110.659 172.134 111.263Z" fill="url(#paint4_linear_107_35)"/>
<path d="M47.3918 154.443V153.398C47.3918 153.3 47.4529 153.253 47.5282 153.295L51.2349 155.426C51.3101 155.469 51.3713 155.586 51.3713 155.684V156.729C51.3713 156.827 51.3101 156.874 51.2349 156.832L47.5282 154.7C47.4529 154.658 47.3918 154.541 47.3918 154.443Z" fill="#2842A2"/>
<path d="M52.933 157.628V156.583C52.933 156.485 52.9941 156.438 53.0694 156.48L56.7761 158.611C56.8513 158.654 56.9125 158.771 56.9125 158.869V159.914C56.9125 160.012 56.8513 160.059 56.7761 160.017L53.0694 157.885C52.9941 157.843 52.933 157.726 52.933 157.628Z" fill="#2842A2"/>
<path d="M30.4765 130.551L110.118 84.7669C110.65 84.4625 111.304 84.4625 111.835 84.7669L140.195 101.104C140.604 101.338 140.604 101.924 140.195 102.158L60.5909 147.918C60.0594 148.223 59.4055 148.223 58.8787 147.918L30.4812 131.6C30.072 131.366 30.072 130.78 30.4812 130.546L30.4765 130.551Z" fill="url(#paint5_linear_107_35)"/>
<path d="M30.4765 131.605L30.7635 131.769L110.118 86.1486C110.65 85.8442 111.304 85.8442 111.835 86.1486L139.908 102.322L140.195 102.158C140.604 101.924 140.604 101.338 140.195 101.104L111.835 84.7669C111.304 84.4625 110.65 84.4625 110.118 84.7669L30.4765 130.551C30.0673 130.785 30.0673 131.37 30.4765 131.605Z" fill="white"/>
<path d="M113.971 88.9027L44.7905 128.673L41.7142 126.907L110.894 87.137L113.971 88.9027Z" fill="white"/>
<path d="M121.511 93.24L56.6255 130.542L53.5492 128.771L118.435 91.4695L121.511 93.24Z" fill="white"/>
<path d="M126.422 96.0642L50.0259 139.984L46.9496 138.213L123.346 94.2937L126.422 96.0642Z" fill="white"/>
<path d="M131.333 98.8886L54.9368 142.804L51.8605 141.038L128.256 97.1182L131.333 98.8886Z" fill="white"/>
<path d="M136.244 101.708L59.8477 145.628L56.7714 143.862L133.172 99.9424L136.244 101.708Z" fill="white"/>
<path d="M40.6135 131.075L37.5371 132.846L34.4608 131.075L37.5371 129.31L40.6135 131.075Z" fill="white"/>
<path d="M51.4606 133.511L45.0774 137.178L42.0011 135.413L48.3843 131.74L51.4606 133.511Z" fill="white"/>
<path d="M113.181 141.628L134.654 129.282C135.491 128.799 135.491 128.017 134.654 127.535L119.968 119.094C119.131 118.612 117.767 118.612 116.93 119.094L95.4562 131.441C94.6189 131.923 94.6189 132.706 95.4562 133.188L110.142 141.628C110.979 142.111 112.343 142.111 113.181 141.628Z" fill="#E9E7F4"/>
<path d="M95.4562 132.153L116.93 119.806C117.767 119.324 119.131 119.324 119.968 119.806L134.654 128.246C134.913 128.396 135.082 128.574 135.181 128.762C135.402 128.34 135.232 127.862 134.654 127.53L119.968 119.09C119.131 118.607 117.767 118.607 116.93 119.09L95.4562 131.436C94.8777 131.769 94.7083 132.246 94.9294 132.668C95.0282 132.481 95.1975 132.303 95.4562 132.153Z" fill="#9198DB"/>
<g opacity="0.11">
<mask id="mask0_107_35" style="mask-type:luminance" maskUnits="userSpaceOnUse" x="5" y="5" width="105" height="123">
<path d="M98.3492 5.67651L5.0238 59.3292L16.5954 127.267L109.86 73.6522L98.3492 5.67651Z" fill="white"/>
</mask>
<g mask="url(#mask0_107_35)">
<path d="M12.5782 111.53L6.42084 115.071L9.16791 116.654L15.33 113.113L12.5782 111.53Z" fill="#24126A"/>
</g>
</g>
<path d="M113.834 69.5167C112.71 70.1631 111.647 71.0717 110.702 72.149C109.389 67.9523 105.386 66.6455 100.645 69.3715C96.7263 71.6244 93.3112 76.0553 91.5002 80.7531C90.9028 80.7718 90.2349 80.9685 89.5293 81.376C86.9704 82.8467 84.8959 86.4204 84.8959 89.3619C84.8959 89.4274 84.9007 89.4836 84.9054 89.5445C84.1762 89.596 83.3719 89.8537 82.5205 90.3408C79.2513 92.2237 76.5983 96.795 76.5983 100.556C76.5983 104.317 79.2513 105.844 82.5205 103.961L113.83 85.9614C117.776 83.6898 120.98 78.1723 120.98 73.6291C120.98 69.0858 117.776 67.2498 113.83 69.5167H113.834Z" fill="url(#paint6_linear_107_35)"/>
<path d="M113.835 69.5166C113.185 69.8913 112.555 70.355 111.953 70.8889L108.453 68.8749C106.529 67.5307 103.745 67.5869 100.65 69.3714C96.7312 71.6243 93.3162 76.0551 91.5052 80.753C90.9078 80.7717 90.2398 80.9684 89.5342 81.3759C86.9753 82.8466 84.9009 86.4203 84.9009 89.3617C84.9009 89.4273 84.9056 89.4835 84.9103 89.5444C84.1812 89.5959 83.3768 89.8535 82.5254 90.3407C79.2562 92.2235 76.6032 96.7949 76.6032 100.556C76.6032 102.42 77.257 103.732 78.3107 104.355L78.3389 104.373H78.3437L86.9189 109.333L88.791 100.364L113.839 85.966C117.786 83.6944 120.989 78.1769 120.989 73.6336C120.989 69.0904 117.786 67.2543 113.839 69.5213L113.835 69.5166Z" fill="url(#paint7_radial_107_35)"/>
<path d="M127.617 74.0694L118.929 69.0437C117.631 68.2756 115.829 68.3739 113.835 69.5215C113.185 69.8962 112.555 70.3599 111.953 70.8938L108.453 68.8798C106.529 67.5355 103.745 67.5917 100.65 69.3763C96.7312 71.6292 93.3162 76.06 91.5052 80.7578C90.9078 80.7766 90.2398 80.9733 89.5342 81.3808C86.9753 82.8515 84.9009 86.4252 84.9009 89.3666C84.9009 89.4322 84.9056 89.4884 84.9103 89.5493C84.1812 89.6008 83.3768 89.8584 82.5254 90.3455C79.2562 92.2284 76.6032 96.7998 76.6032 100.561C76.6032 102.425 77.257 103.736 78.3107 104.359L78.3389 104.378H78.3437L86.9189 109.338L88.791 100.369L113.839 85.9709C117.043 84.1302 119.747 80.1536 120.66 76.2942L127.622 74.0788L127.617 74.0694Z" fill="url(#paint8_linear_107_35)"/>
<path d="M122.438 74.4907C121.314 75.1371 120.25 76.0458 119.305 77.123C117.993 72.9217 113.99 71.6196 109.248 74.3456C105.33 76.5984 101.915 81.0293 100.104 85.7271C99.5063 85.7459 98.8383 85.9426 98.1327 86.3501C95.5738 87.8208 93.4994 91.3945 93.4994 94.3359C93.4994 94.4015 93.5041 94.4577 93.5088 94.5186C92.7797 94.5701 91.9753 94.8277 91.1239 95.3148C87.8547 97.1977 85.2017 101.769 85.2017 105.53C85.2017 109.291 87.8547 110.818 91.1239 108.935L122.433 90.9355C126.38 88.6639 129.583 83.1464 129.583 78.6031C129.583 74.0598 126.38 72.2238 122.433 74.4907H122.438Z" fill="url(#paint9_linear_107_35)"/>
</g>
<defs>
<linearGradient id="paint0_linear_107_35" x1="0.000308791" y1="66.0036" x2="111.85" y2="66.0036" gradientUnits="userSpaceOnUse">
<stop stop-color="#C0BFF6"/>
<stop offset="0.29" stop-color="#C4C3F6"/>
<stop offset="0.64" stop-color="#D2D2F9"/>
<stop offset="1" stop-color="#E9E9FD"/>
</linearGradient>
<linearGradient id="paint1_linear_107_35" x1="-2.84201e-06" y1="94.5654" x2="19.206" y2="94.5654" gradientUnits="userSpaceOnUse">
<stop stop-color="#5761D7"/>
<stop offset="0.18" stop-color="#5B65D8"/>
<stop offset="0.39" stop-color="#6A72DE"/>
<stop offset="0.61" stop-color="#8188E8"/>
<stop offset="0.85" stop-color="#A2A6F5"/>
<stop offset="1" stop-color="#BCBEFF"/>
</linearGradient>
<linearGradient id="paint2_linear_107_35" x1="1.51936" y1="66.4909" x2="113.369" y2="66.4909" gradientUnits="userSpaceOnUse">
<stop stop-color="#1E4A84"/>
<stop offset="1" stop-color="#213176"/>
</linearGradient>
<linearGradient id="paint3_linear_107_35" x1="14.9866" y1="126.673" x2="172.953" y2="126.673" gradientUnits="userSpaceOnUse">
<stop stop-color="#1E4A84"/>
<stop offset="1" stop-color="#213176"/>
</linearGradient>
<linearGradient id="paint4_linear_107_35" x1="68.0607" y1="121.427" x2="226.112" y2="121.427" gradientUnits="userSpaceOnUse">
<stop stop-color="#72A9D3"/>
<stop offset="1" stop-color="#2684B9"/>
</linearGradient>
<linearGradient id="paint5_linear_107_35" x1="30.1708" y1="116.345" x2="140.496" y2="116.345" gradientUnits="userSpaceOnUse">
<stop stop-color="#72A9D3"/>
<stop offset="1" stop-color="#2684B9"/>
</linearGradient>
<linearGradient id="paint6_linear_107_35" x1="565.108" y1="-185.545" x2="609.399" y2="-211.227" gradientUnits="userSpaceOnUse">
<stop stop-color="#5761D7"/>
<stop offset="0.18" stop-color="#5B65D8"/>
<stop offset="0.39" stop-color="#6A72DE"/>
<stop offset="0.61" stop-color="#8188E8"/>
<stop offset="0.85" stop-color="#A2A6F5"/>
<stop offset="1" stop-color="#BCBEFF"/>
</linearGradient>
<radialGradient id="paint7_radial_107_35" cx="0" cy="0" r="1" gradientUnits="userSpaceOnUse" gradientTransform="translate(87.0318 82.0129) scale(21.1722 21.0817)">
<stop stop-color="#2B237C"/>
<stop offset="1" stop-color="#180D5B"/>
</radialGradient>
<linearGradient id="paint8_linear_107_35" x1="76.6032" y1="88.636" x2="127.617" y2="88.636" gradientUnits="userSpaceOnUse">
<stop stop-color="#1E4A84"/>
<stop offset="1" stop-color="#213176"/>
</linearGradient>
<linearGradient id="paint9_linear_107_35" x1="578.025" y1="-183.052" x2="622.316" y2="-208.734" gradientUnits="userSpaceOnUse">
<stop stop-color="#72A9D3"/>
<stop offset="1" stop-color="#2684B9"/>
</linearGradient>
<clipPath id="clip0_107_35">
<rect width="173" height="171" fill="white"/>
</clipPath>
</defs>
</svg>
